<svg xmlns="http://www.w3.org/2000/svg" viewBox="0 0 282.984 282.984">
  <defs>
    <style>
      .cls-1 {
        fill: #c99700;
      }
    </style>
  </defs>
  <g id="Group_268" data-name="Group 268" transform="translate(1179 -2188)">
    <g id="Group_258" data-name="Group 258" transform="translate(-1068.459 2231.94)">
      <circle id="Ellipse_21" data-name="Ellipse 21" class="cls-1" cx="23.49" cy="23.49" r="23.49" transform="translate(7.738 10.225)"/>
      <rect id="Rectangle_68" data-name="Rectangle 68" class="cls-1" width="60.797" height="11.607" transform="translate(0 18.516)"/>
      <rect id="Rectangle_69" data-name="Rectangle 69" class="cls-1" width="28.741" height="11.607" transform="translate(36.202) rotate(90)"/>
      <rect id="Rectangle_70" data-name="Rectangle 70" class="cls-1" width="28.741" height="11.607" transform="translate(50.572 30.399) rotate(90)"/>
      <rect id="Rectangle_71" data-name="Rectangle 71" class="cls-1" width="28.741" height="11.607" transform="translate(22.937 30.399) rotate(90)"/>
    </g>
    <g id="teamwork" transform="translate(-1179 2188)">
      <g id="Group_247" data-name="Group 247" transform="translate(0 120.493)">
        <g id="Group_246" data-name="Group 246">
          <path id="Path_862" data-name="Path 862" d="M249.484,292.849a34.268,34.268,0,1,0-41.337-.006,54.027,54.027,0,0,0-18.287,12.447,54.5,54.5,0,0,0-27.7-25.7,34.268,34.268,0,1,0-41.329,0,54.5,54.5,0,0,0-27.7,25.7,54.02,54.02,0,0,0-18.287-12.447,34.267,34.267,0,1,0-41.337.006A54.248,54.248,0,0,0,0,342.914v32.057A5.527,5.527,0,0,0,5.527,380.5h271.93a5.527,5.527,0,0,0,5.527-5.527V342.914A54.248,54.248,0,0,0,249.484,292.849ZM30.951,265.535a23.214,23.214,0,1,1,23.214,23.214A23.24,23.24,0,0,1,30.951,265.535Zm56.376,64.117v39.791H11.054v-26.53a43.1,43.1,0,0,1,77.716-25.7A54.125,54.125,0,0,0,87.327,329.652Zm30.951-77.379a23.214,23.214,0,1,1,23.214,23.214A23.24,23.24,0,0,1,118.279,252.274ZM184.6,369.444H173.641V352.019a5.527,5.527,0,1,0-11.054,0v17.425H98.381V329.652a43.111,43.111,0,1,1,86.222,0Zm21-103.908a23.214,23.214,0,1,1,23.214,23.214A23.24,23.24,0,0,1,205.606,265.535ZM271.93,369.444H195.657V329.652a54.124,54.124,0,0,0-1.443-12.434,43.1,43.1,0,0,1,77.716,25.7Z" transform="translate(0 -218.006)"/>
        </g>
      </g>
      <g id="Group_249" data-name="Group 249" transform="translate(167.849 15.405)">
        <g id="Group_248" data-name="Group 248">
          <path id="Path_863" data-name="Path 863" d="M332.087,29.491a5.527,5.527,0,0,0-7.817,0L305.3,48.456a5.527,5.527,0,0,0,7.817,7.817l18.965-18.965A5.528,5.528,0,0,0,332.087,29.491Z" transform="translate(-303.686 -27.872)"/>
        </g>
      </g>
      <g id="Group_251" data-name="Group 251" transform="translate(85.115 15.405)">
        <g id="Group_250" data-name="Group 250">
          <path id="Path_864" data-name="Path 864" d="M182.4,48.456,163.434,29.491a5.527,5.527,0,1,0-7.817,7.817l18.966,18.965a5.527,5.527,0,0,0,7.816-7.817Z" transform="translate(-153.998 -27.872)"/>
        </g>
      </g>
      <g id="Group_253" data-name="Group 253" transform="translate(135.965)">
        <g id="Group_252" data-name="Group 252">
          <path id="Path_865" data-name="Path 865" d="M251.527,0A5.527,5.527,0,0,0,246,5.527V17.4a5.527,5.527,0,1,0,11.054,0V5.527A5.527,5.527,0,0,0,251.527,0Z" transform="translate(-246)"/>
        </g>
      </g>
      <g id="Group_255" data-name="Group 255" transform="translate(98.139 31.228)">
        <g id="Group_254" data-name="Group 254">
          <path id="Path_866" data-name="Path 866" d="M263.862,87.7a8.113,8.113,0,0,0-6.59-5.556l-20.063-2.916-8.973-18.181a8.164,8.164,0,0,0-14.642,0l-8.973,18.181-20.063,2.916a8.164,8.164,0,0,0-4.526,13.925l14.518,14.151-3.427,19.982a8.154,8.154,0,0,0,11.845,8.607l17.946-9.435,17.945,9.434a8.164,8.164,0,0,0,11.846-8.606l-3.427-19.982L261.8,96.072A8.114,8.114,0,0,0,263.862,87.7Zm-25.388,15.666a8.165,8.165,0,0,0-2.348,7.226l2.694,15.708-14.107-7.416a8.164,8.164,0,0,0-7.6,0L203.009,126.3l2.694-15.709a8.163,8.163,0,0,0-2.348-7.225L191.942,92.244l15.771-2.292a8.16,8.16,0,0,0,6.148-4.466l7.054-14.292,7.667,15.535a5.528,5.528,0,0,0,4.159,3.023l17.146,2.492Z" transform="translate(-177.562 -56.5)"/>
        </g>
      </g>
      <g id="Group_257" data-name="Group 257" transform="translate(162.589 227.46)">
        <g id="Group_256" data-name="Group 256">
          <path id="Path_867" data-name="Path 867" d="M303.6,413.154a5.53,5.53,0,1,0,1.619,3.913A5.573,5.573,0,0,0,303.6,413.154Z" transform="translate(-294.17 -411.54)"/>
        </g>
      </g>
    </g>
  </g>
</svg>
