<svg xmlns="http://www.w3.org/2000/svg" viewBox="0 0 180.929 150">
  <defs>
    <style>
      .cls-1 {
        fill: #c79d1f;
      }
    </style>
  </defs>
  <g id="laptop-1" transform="translate(0 -41.95)">
    <g id="Group_32" data-name="Group 32" transform="translate(0 41.95)">
      <path id="Path_762" data-name="Path 762" class="cls-1" d="M113.489,123.915v19.759a1.741,1.741,0,0,0,3.06,1.143l18.063-20.9h61.895a9.8,9.8,0,0,0,9.806-9.806V60.656a9.8,9.8,0,0,0-9.806-9.806h-90.5A9.8,9.8,0,0,0,96.2,60.656v53.453a9.8,9.8,0,0,0,9.806,9.806Z" transform="translate(-60.737 -47.569)"/>
      <path id="Path_763" data-name="Path 763" d="M79.655,378.259h39.7a8,8,0,0,0,7.557,5.456h23.409a8,8,0,0,0,7.557-5.456h39.74a3.355,3.355,0,0,0,0-6.709H154.968a3.367,3.367,0,0,0-3.355,3.355v.811a1.306,1.306,0,0,1-1.29,1.29H126.914a1.306,1.306,0,0,1-1.29-1.29V374.9a3.367,3.367,0,0,0-3.355-3.355H79.655a3.355,3.355,0,0,0,0,6.709Z" transform="translate(-48.173 -250.046)"/>
      <path id="Path_764" data-name="Path 764" d="M177.574,220.592h-9.953V135.8a3.355,3.355,0,1,0-6.709,0v88.142a3.367,3.367,0,0,0,3.355,3.355h9.916v5.345a9.746,9.746,0,0,1-9.732,9.732H16.441a9.746,9.746,0,0,1-9.732-9.732V227.3h9.916a3.367,3.367,0,0,0,3.355-3.355V135.8a3.355,3.355,0,1,0-6.709,0v84.787H3.355A3.367,3.367,0,0,0,0,223.947v8.7a16.456,16.456,0,0,0,16.441,16.441H164.488a16.456,16.456,0,0,0,16.441-16.441v-8.7A3.391,3.391,0,0,0,177.574,220.592Z" transform="translate(0 -99.088)"/>
      <path id="Path_765" data-name="Path 765" d="M225.489,109.9l-21.381,21.271-7.594-7.631a3.337,3.337,0,0,0-4.719,4.719l9.953,9.99a3.326,3.326,0,0,0,2.359,1,3.446,3.446,0,0,0,2.359-.958l23.74-23.63a3.35,3.35,0,0,0-4.719-4.755Z" transform="translate(-120.463 -84.243)"/>
      <path id="Path_766" data-name="Path 766" d="M190.825,41.95h-90.5A13.153,13.153,0,0,0,87.2,55.074v53.453a13.153,13.153,0,0,0,13.124,13.124h4.129v16.4a5.1,5.1,0,0,0,5.087,5.087,4.975,4.975,0,0,0,3.834-1.769l17.068-19.759h60.347a13.153,13.153,0,0,0,13.124-13.124V55.037A13.066,13.066,0,0,0,190.825,41.95Zm6.451,66.577a6.458,6.458,0,0,1-6.451,6.451H128.93a3.416,3.416,0,0,0-2.544,1.143l-15.262,17.658V118.3a3.367,3.367,0,0,0-3.355-3.355h-7.483a6.458,6.458,0,0,1-6.451-6.451V55.037a6.458,6.458,0,0,1,6.451-6.451h90.5a6.458,6.458,0,0,1,6.451,6.451v53.49Z" transform="translate(-55.055 -41.95)"/>
    </g>
  </g>
</svg>
