<svg xmlns="http://www.w3.org/2000/svg" viewBox="0 0 183.915 169">
  <defs>
    <style>
      .cls-1 {
        fill: #c79d1f;
      }
    </style>
  </defs>
  <g id="Group_71" data-name="Group 71" transform="translate(-1019 -12157)">
    <g id="user-3" transform="translate(1031 12123.75)">
      <g id="Group_33" data-name="Group 33" transform="translate(0 31.25)">
        <path id="XMLID_1407_" class="cls-1" d="M347.916,97.671H319.165l-15.463,14.8v-14.8h-6.557a8.365,8.365,0,0,1-8.345-8.345V58.3a8.365,8.365,0,0,1,8.345-8.345h50.771a8.365,8.365,0,0,1,8.345,8.345v31A8.4,8.4,0,0,1,347.916,97.671Z" transform="translate(-187.538 -43.393)"/>
        <path id="Path_769" data-name="Path 769" d="M342.007,40.95H291.236A11.567,11.567,0,0,0,279.7,52.486V83.447a11.567,11.567,0,0,0,11.536,11.536H294.6v11.606a3.182,3.182,0,0,0,1.928,2.91,3.117,3.117,0,0,0,1.262.245,3.255,3.255,0,0,0,2.209-.877l14.516-13.92h27.489a11.567,11.567,0,0,0,11.536-11.536V52.451A11.537,11.537,0,0,0,342.007,40.95Zm5.189,42.5a5.2,5.2,0,0,1-5.189,5.189H313.255a3.255,3.255,0,0,0-2.209.877l-10.063,9.642V91.792a3.2,3.2,0,0,0-3.191-3.191h-6.557a5.2,5.2,0,0,1-5.189-5.189V52.451a5.2,5.2,0,0,1,5.189-5.189h50.771a5.2,5.2,0,0,1,5.189,5.189Z" transform="translate(-181.628 -37.549)"/>
        <path id="Path_770" data-name="Path 770" d="M379.156,111.55a3.188,3.188,0,0,0-2.244.947,3.155,3.155,0,0,0-.912,2.244,3.174,3.174,0,1,0,3.156-3.191Z" transform="translate(-244.163 -83.394)"/>
        <path id="Path_771" data-name="Path 771" d="M412.856,111.55a3.188,3.188,0,0,0-2.244.947,3.155,3.155,0,0,0-.912,2.244,3.174,3.174,0,1,0,3.156-3.191Z" transform="translate(-266.046 -83.394)"/>
        <path id="Path_772" data-name="Path 772" d="M345.391,111.55a3.233,3.233,0,1,0,2.244.947A3.1,3.1,0,0,0,345.391,111.55Z" transform="translate(-222.214 -83.394)"/>
      </g>
    </g>
    <g id="woman" transform="translate(947.615 12156.999)">
      <g id="Group_62" data-name="Group 62" transform="translate(115.758 134.7)">
        <g id="Group_61" data-name="Group 61">
          <path id="Path_793" data-name="Path 793" d="M283.153,430.823c-.018-.123.183.907-4.132-20.747a2.479,2.479,0,0,0-4.862.967c4.068,20.722,4.34,20.753,4.137,22.633-.188,1.748-.949,3.754-5.193,3.754H260.672V414.088a2.479,2.479,0,0,0-4.958,0V437.43H208.158a2.477,2.477,0,1,0,0,4.953H273.1C280.525,442.383,284.111,437.571,283.153,430.823Z" transform="translate(-205.679 -408.082)"/>
        </g>
      </g>
      <g id="Group_65" data-name="Group 65" transform="translate(71.385 0.001)">
        <g id="Group_64" data-name="Group 64">
          <g id="Group_63" data-name="Group 63">
            <path id="Path_794" data-name="Path 794" d="M388.966,330.294l.053.023h0C388.991,330.3,388.935,330.279,388.966,330.294Z" transform="translate(-284.025 -221.268)"/>
            <path id="Path_795" data-name="Path 795" d="M389.22,330.408l0,0,.018.008Z" transform="translate(-284.201 -221.348)"/>
            <path id="Path_796" data-name="Path 796" d="M389.286,330.439Z" transform="translate(-284.245 -221.368)"/>
            <path id="Path_797" data-name="Path 797" d="M186.835,125.324c-.943-4.666-1.263-8.388-4.852-12.279a18.24,18.24,0,0,0-5.576-3.98l-.029-.013c-17.19-6.025-13.215-4.637-26.461-9.212h15.916a7.263,7.263,0,0,0,7.257-7.17c2.488-42.152,2.39-40.384,2.39-40.53-.1-12.067,2.124-36.249-24.3-48.645a45.061,45.061,0,0,0-6.728-2.466c-18.407-3.58-30.787,2.7-36.323,11.043C98.57,14.689,92.706,23.655,91.146,38.086a2.479,2.479,0,0,0,4.93.532C97.8,22.653,104.734,17.86,110.245,16.65a2.479,2.479,0,0,0,1.673-1.287c.073-.142,7.579-14.142,31.587-9.473a37.267,37.267,0,0,1,9.812,4.43c24.168,15.714,16.581,37.763,14.82,82.123,0,.048,0,.1,0,.146a2.3,2.3,0,0,1-2.3,2.3H148.588V93.155a32.538,32.538,0,0,0,17.071-28.7V57.607a5.421,5.421,0,0,0-5.206-5.42c-20.91-.9-32.148-12.034-36.01-16.779a5.307,5.307,0,0,0-3.912-1.95,5.367,5.367,0,0,0-4.094,1.666,23.372,23.372,0,0,1-11.36,6.717A6.318,6.318,0,0,0,100.269,48c.232,12.475-.5,17.37.591,22.634l.087.438a32.7,32.7,0,0,0,15.229,21.411v2.4H100.694a2.3,2.3,0,0,1-2.3-2.3c0-.049,0-.1,0-.146-3.338-56.472-2.341-38.855-2.567-42.68a2.479,2.479,0,0,0-4.949.292c0,.053,2.561,42.58,2.563,42.614a7.262,7.262,0,0,0,7.257,7.17h14.152c-2.493.852-25.936,8.981-26.379,9.18a16.436,16.436,0,0,0-9.681,12.048c-7.411,37.5-7.632,36.869-7.319,39.758.265,2.458,1.782,8.177,10.123,8.177H106.6a2.477,2.477,0,1,0,0-4.953H99.069V140.706a2.479,2.479,0,0,0-4.958,0v23.342H81.59c-3.79,0-5.723-1.585-5.15-5.847,7.826-39.251,7.261-36.622,7.6-37.642,2.134-6.6,7.809-7.432,13.358-9.394.524,10.906,3.538,22.588,14.418,22.588,7.174,0,15.244-5.636,20.59-10.38,6.668,5.917,17.186,12.952,25.364,9.431,5.9-2.54,9.065-9.632,9.643-21.629,7.108,2.514,6.528,1.97,8.992,3.549,4.426,3.2,4.576,6.581,5.573,11.567a2.479,2.479,0,0,0,4.863-.967Zm-81.12-55.695c-.742-3.567-.429-6.19-.488-21.63a1.374,1.374,0,0,1,1.034-1.348c9.276-2.279,13.476-8.255,14.079-8.243.626.024,12.3,17.537,39.9,18.728a.476.476,0,0,1,.462.472c-.01,9.335.422,11.574-2.768,18.926a27.669,27.669,0,0,1-4.814,6.959C137.849,99.644,110.118,92.161,105.715,69.629ZM109,128.256c-4.1-1.766-6.408-8.259-6.711-18.823l2.954-1.046a31.106,31.106,0,0,0,20.418,14.121C121.387,125.76,113.948,130.388,109,128.256Zm1.062-21.542,7.025-2.406a5.987,5.987,0,0,0,4.049-5.663V94.91a32.159,32.159,0,0,0,4.927,1.478,32.918,32.918,0,0,0,17.569-1.051v3.309a5.987,5.987,0,0,0,4.049,5.662l7.025,2.407C144.106,122.387,120.234,121.763,110.06,106.714ZM155.8,128.256c-4.945,2.128-12.371-2.482-16.668-5.753a31.117,31.117,0,0,0,20.39-14.118l2.99,1.058C162.209,120,159.9,126.491,155.8,128.256Z" transform="translate(-71.385 -0.001)"/>
          </g>
        </g>
      </g>
    </g>
  </g>
</svg>
