<svg xmlns="http://www.w3.org/2000/svg" viewBox="0 0 200 200">
  <defs>
    <style>
      .cls-1 {
        fill: none;
      }

      .cls-2 {
        fill: #3c92ca;
      }

      .cls-3 {
        fill: #333;
      }

      .cls-4 {
        fill: #00c8de;
      }

      .cls-5 {
        fill: #f5f5f5;
      }

      .cls-6 {
        fill: #bbda72;
      }
    </style>
  </defs>
  <g id="Group_40" data-name="Group 40" transform="translate(-552 -71)">
    <rect id="Rectangle_54" data-name="Rectangle 54" class="cls-1" width="200" height="200" transform="translate(552 71)"/>
    <g id="_040-smartphone-10" data-name="040-smartphone-10" transform="translate(523.502 77)">
      <path id="Path_49" data-name="Path 49" class="cls-2" d="M207.762,190.963H125.074A11.074,11.074,0,0,1,114,179.889V18.574A11.074,11.074,0,0,1,125.074,7.5h82.687a11.074,11.074,0,0,1,11.074,11.074V179.889A11.074,11.074,0,0,1,207.762,190.963Z" transform="translate(-38.168 -4.731)"/>
      <path id="Path_50" data-name="Path 50" class="cls-2" d="M349.074,7.5H338a11.074,11.074,0,0,1,11.074,11.074V179.889A11.074,11.074,0,0,1,338,190.963h11.074a11.074,11.074,0,0,0,11.074-11.074V18.574A11.074,11.074,0,0,0,349.074,7.5Z" transform="translate(-179.481 -4.731)"/>
      <path id="Path_51" data-name="Path 51" class="cls-3" d="M231.988,21.527h-42.82A5.168,5.168,0,0,1,184,16.359V7.5h53.156v8.859A5.168,5.168,0,0,1,231.988,21.527Z" transform="translate(-82.328 -4.731)"/>
      <path id="Path_52" data-name="Path 52" class="cls-3" d="M289.168,7.5v8.859A5.168,5.168,0,0,1,284,21.527h11.074a5.168,5.168,0,0,0,5.168-5.168V7.5Z" transform="translate(-145.414 -4.731)"/>
      <rect id="Rectangle_18" data-name="Rectangle 18" class="cls-2" width="104.836" height="11.074" transform="translate(75.832 158.177)"/>
      <rect id="Rectangle_19" data-name="Rectangle 19" class="cls-2" width="11.074" height="11.074" transform="translate(169.593 158.177)"/>
      <path id="Path_53" data-name="Path 53" class="cls-3" d="M207.762,475.48H125.074A11.074,11.074,0,0,1,114,464.406V458.5H218.836v5.906A11.074,11.074,0,0,1,207.762,475.48Z" transform="translate(-38.168 -289.249)"/>
      <path id="Path_54" data-name="Path 54" class="cls-3" d="M349.074,458.5v5.906A11.074,11.074,0,0,1,338,475.48h11.074a11.074,11.074,0,0,0,11.074-11.074V458.5Z" transform="translate(-179.481 -289.249)"/>
      <path id="Path_55" data-name="Path 55" class="cls-4" d="M304.226,191.389,271,177.332V132.518l33.222,14.057Z" transform="translate(-137.216 -83.6)"/>
      <path id="Path_56" data-name="Path 56" class="cls-5" d="M361,191.389l33.222-14.057V132.518L361,146.575Z" transform="translate(-193.992 -83.6)"/>
      <path id="Path_57" data-name="Path 57" class="cls-5" d="M421,137.2v44.814l11.075-4.686V132.518Z" transform="translate(-231.841 -83.6)"/>
      <path id="Path_58" data-name="Path 58" class="cls-6" d="M337.445,106.956l-33.22,14.059L271,106.956,304.224,92Z" transform="translate(-137.213 -58.039)"/>
      <path id="Path_59" data-name="Path 59" class="cls-6" d="M342.625,92,331.87,96.841l32.888,14.806-22.134,9.367h0l33.22-14.059Z" transform="translate(-175.614 -58.039)"/>
      <path id="Path_60" data-name="Path 60" class="cls-4" d="M87.581,306.511,61,295.266V259.414L87.581,270.66Z" transform="translate(-4.735 -163.654)"/>
      <path id="Path_61" data-name="Path 61" class="cls-5" d="M133,306.511l26.577-11.246V259.414L133,270.66Z" transform="translate(-50.156 -163.654)"/>
      <path id="Path_62" data-name="Path 62" class="cls-5" d="M175,264.1v35.852l11.075-4.686V259.414Z" transform="translate(-76.649 -163.654)"/>
      <path id="Path_63" data-name="Path 63" class="cls-6" d="M114.156,238.965,87.579,250.212,61,238.965,87.579,227Z" transform="translate(-4.733 -143.205)"/>
      <path id="Path_64" data-name="Path 64" class="cls-6" d="M130.146,243.652l11.075-4.687L114.644,227,103.9,231.836Z" transform="translate(-31.797 -143.205)"/>
      <path id="Path_65" data-name="Path 65" d="M180.668,206.125a2.769,2.769,0,0,0-2.769,2.769V222H78.6V199.583l3.167,1.34a2.721,2.721,0,0,0,.277.1l.043.011a2.755,2.755,0,0,0,.311.069l.092.014a2.751,2.751,0,0,0,.356.026h0a2.814,2.814,0,0,0,.356-.026l.092-.014a2.776,2.776,0,0,0,.312-.069l.042-.011a2.722,2.722,0,0,0,.277-.1L110.5,189.677a2.769,2.769,0,0,0,1.69-2.55V151.276a2.775,2.775,0,0,0-.025-.364c0-.028-.011-.054-.016-.082a2.738,2.738,0,0,0-.061-.285c-.011-.042-.026-.083-.04-.124-.025-.077-.052-.153-.084-.227-.018-.044-.038-.086-.059-.128-.034-.07-.071-.138-.111-.2-.024-.041-.048-.081-.075-.12-.045-.067-.093-.131-.144-.193-.027-.034-.053-.069-.082-.1a2.735,2.735,0,0,0-.206-.207c-.02-.018-.037-.038-.058-.056a2.791,2.791,0,0,0-.28-.213l-.017-.01c-.033-.022-.07-.039-.1-.06-.075-.044-.151-.087-.229-.124-.015-.007-.028-.017-.043-.023L83.983,136.786a2.767,2.767,0,0,0-2.273,0l-3.11,1.4V90.769a2.769,2.769,0,1,0-5.537,0v49.91l-17.932,8.072c-.017.008-.031.018-.048.026-.068.032-.133.069-.2.107-.045.026-.092.049-.135.078l-.01.006a2.745,2.745,0,0,0-.242.183c-.052.043-.1.09-.148.137s-.1.1-.148.148-.075.092-.111.139-.078.1-.113.152-.065.1-.1.155-.061.108-.089.163-.053.11-.077.166-.045.117-.065.176-.039.114-.055.172-.03.133-.042.2-.024.108-.031.164a2.772,2.772,0,0,0-.023.351v.013c0,.006,0,.011,0,.017s0,.008,0,.013v35.808a2.768,2.768,0,0,0,1.69,2.55l17.874,7.562v33.433h0a13.858,13.858,0,0,0,13.843,13.843h82.687a13.858,13.858,0,0,0,13.843-13.843h0V208.894A2.769,2.769,0,0,0,180.668,206.125Zm-74.013-20.832-21.04,8.9V164.357l21.04-8.9h0ZM82.847,142.347,102.5,151.2h0l-19.659,8.318L63.186,151.2Zm-23.81,13.107,21.041,8.9V194.2h0l-21.041-8.9ZM177.9,230.673a8.315,8.315,0,0,1-8.306,8.306H86.906a8.315,8.315,0,0,1-8.306-8.306v-3.138h99.3Z" transform="translate(0 -55.516)"/>
      <path id="Path_66" data-name="Path 66" d="M231.269,479.537h14.766a2.769,2.769,0,0,0,0-5.537H231.269a2.769,2.769,0,0,0,0,5.537Z" transform="translate(-110.402 -299.027)"/>
      <path id="Path_67" data-name="Path 67" d="M236.412,48.552c0-.025-.01-.049-.014-.074a2.675,2.675,0,0,0-.062-.292c-.011-.041-.026-.08-.039-.121-.025-.078-.053-.155-.085-.231-.018-.043-.038-.085-.058-.126-.034-.071-.072-.14-.112-.207-.024-.04-.048-.08-.073-.119-.045-.067-.094-.131-.145-.195-.027-.034-.052-.069-.081-.1a2.741,2.741,0,0,0-.206-.207c-.02-.018-.037-.039-.058-.056a2.789,2.789,0,0,0-.28-.213l-.017-.01c-.034-.022-.071-.041-.106-.061-.074-.044-.149-.086-.226-.123-.015-.007-.028-.017-.044-.024l-17.932-8.073V13.843A13.857,13.857,0,0,0,203.03,0H120.343A13.858,13.858,0,0,0,106.5,13.843v9.6a2.769,2.769,0,1,0,5.537,0v-9.6a8.315,8.315,0,0,1,8.306-8.306h12v6.091a7.946,7.946,0,0,0,7.937,7.937H183.1a7.946,7.946,0,0,0,7.937-7.937V5.537h12a8.315,8.315,0,0,1,8.306,8.306V35.827l-9.752-4.39a2.767,2.767,0,0,0-2.273,0L166.087,46.392c-.018.008-.033.019-.051.027-.063.03-.124.065-.185.1s-.1.054-.148.085l-.008,0c-.064.042-.121.09-.181.137a2.7,2.7,0,0,0-.226.2c-.043.042-.088.084-.128.129s-.081.1-.121.151-.071.092-.1.14-.069.109-.1.165-.056.1-.082.151-.056.117-.082.177-.041.108-.06.163-.042.122-.059.185-.026.12-.038.18-.027.121-.035.184a2.8,2.8,0,0,0-.022.348v.007c0,.008,0,.016,0,.023s0,.011,0,.017V93.732a2.769,2.769,0,0,0,1.69,2.55l5.73,2.425a2.769,2.769,0,1,0,2.158-5.1l-4.04-1.709V53.1L197.679,64.81v38.8l-12.764-5.4a2.769,2.769,0,0,0-2.158,5.1l16.611,7.028a2.725,2.725,0,0,0,.277.1l.043.011a2.743,2.743,0,0,0,.311.069l.092.014a2.747,2.747,0,0,0,.356.026h0a2.815,2.815,0,0,0,.356-.026l.092-.014a2.764,2.764,0,0,0,.312-.069l.042-.011a2.764,2.764,0,0,0,.277-.1l9.81-4.151v35.378a2.769,2.769,0,1,0,5.537,0v-37.72l17.875-7.563a2.769,2.769,0,0,0,1.69-2.55V48.918A2.855,2.855,0,0,0,236.412,48.552ZM185.5,11.628a2.4,2.4,0,0,1-2.4,2.4h-42.82a2.4,2.4,0,0,1-2.4-2.4V5.537H185.5ZM200.448,37l26.3,11.841h0l-26.3,11.13-26.3-11.13ZM230.9,91.9h0c-.032.013.031-.014,0,0l-27.685,11.714V64.81L230.9,53.1h0Z" transform="translate(-33.437)"/>
      <path id="Path_68" data-name="Path 68" d="M206.269,24.537a2.769,2.769,0,0,0,2.769-2.769h0a2.769,2.769,0,1,0-5.537,0h0A2.769,2.769,0,0,0,206.269,24.537Z" transform="translate(-94.63 -11.986)"/>
      <path id="Path_69" data-name="Path 69" d="M224.269,24.537a2.769,2.769,0,0,0,2.769-2.769h0a2.769,2.769,0,1,0-5.537,0h0A2.769,2.769,0,0,0,224.269,24.537Z" transform="translate(-105.986 -11.986)"/>
    </g>
  </g>
</svg>
