<svg xmlns="http://www.w3.org/2000/svg" viewBox="0 0 200 200">
  <defs>
    <style>
      .cls-1 {
        fill: none;
      }

      .cls-2 {
        fill: #3c92ca;
      }

      .cls-3 {
        fill: #333;
      }

      .cls-4 {
        fill: #bbda72;
      }

      .cls-5 {
        fill: #d8f4ff;
      }

      .cls-6 {
        fill: #f5f5f5;
      }
    </style>
  </defs>
  <g id="Group_44" data-name="Group 44" transform="translate(-1051 -319)">
    <rect id="Rectangle_58" data-name="Rectangle 58" class="cls-1" width="200" height="200" transform="translate(1051 319)"/>
    <g id="_048-smartphone-2" data-name="048-smartphone-2" transform="translate(989.5 325)">
      <path id="Path_86" data-name="Path 86" class="cls-2" d="M207.762,190.963H125.074A11.074,11.074,0,0,1,114,179.889V18.574A11.074,11.074,0,0,1,125.074,7.5h82.688a11.074,11.074,0,0,1,11.074,11.074V179.889A11.074,11.074,0,0,1,207.762,190.963Z" transform="translate(-4.731 -4.731)"/>
      <path id="Path_87" data-name="Path 87" class="cls-2" d="M349.074,7.5H338a11.074,11.074,0,0,1,11.074,11.074V179.889A11.074,11.074,0,0,1,338,190.963h11.074a11.074,11.074,0,0,0,11.074-11.074V18.574A11.074,11.074,0,0,0,349.074,7.5Z" transform="translate(-146.044 -4.731)"/>
      <path id="Path_88" data-name="Path 88" class="cls-3" d="M231.988,21.527h-42.82A5.168,5.168,0,0,1,184,16.359V7.5h53.156v8.859A5.168,5.168,0,0,1,231.988,21.527Z" transform="translate(-48.892 -4.731)"/>
      <path id="Path_89" data-name="Path 89" class="cls-3" d="M289.168,7.5v8.859A5.168,5.168,0,0,1,284,21.527h11.074a5.168,5.168,0,0,0,5.168-5.168V7.5Z" transform="translate(-111.978 -4.731)"/>
      <rect id="Rectangle_25" data-name="Rectangle 25" class="cls-2" width="104.836" height="11.074" transform="translate(109.269 158.177)"/>
      <rect id="Rectangle_26" data-name="Rectangle 26" class="cls-2" width="11.074" height="11.074" transform="translate(203.03 158.177)"/>
      <path id="Path_90" data-name="Path 90" class="cls-3" d="M207.762,475.48H125.074A11.074,11.074,0,0,1,114,464.406V458.5H218.836v5.906A11.074,11.074,0,0,1,207.762,475.48Z" transform="translate(-4.731 -289.249)"/>
      <path id="Path_91" data-name="Path 91" class="cls-3" d="M349.074,458.5v5.906A11.074,11.074,0,0,1,338,475.48h11.074a11.074,11.074,0,0,0,11.074-11.074V458.5Z" transform="translate(-146.044 -289.249)"/>
      <rect id="Rectangle_27" data-name="Rectangle 27" class="cls-4" width="70.137" height="87.117" transform="translate(126.618 45.762)"/>
      <rect id="Rectangle_28" data-name="Rectangle 28" class="cls-4" width="11.074" height="87.117" transform="translate(185.681 45.762)"/>
      <path id="Path_92" data-name="Path 92" class="cls-5" d="M214.654,222.078l-5.068,5.067-1.519,9.35,9.35-1.519,5.068-5.067Z" transform="translate(-64.074 -140.1)"/>
      <rect id="Rectangle_29" data-name="Rectangle 29" class="cls-4" width="70.137" height="11.813" transform="translate(126.618 45.928)"/>
      <rect id="Rectangle_30" data-name="Rectangle 30" class="cls-6" width="11.074" height="65.5" transform="translate(155.453 92.767) rotate(-135)"/>
      <path id="Path_93" data-name="Path 93" class="cls-6" d="M351.2,102.988l-7.831-7.831,3.915-3.915a5.537,5.537,0,0,1,7.831,0h0a5.537,5.537,0,0,1,0,7.831Z" transform="translate(-149.43 -56.538)"/>
      <rect id="Rectangle_31" data-name="Rectangle 31" class="cls-6" width="11.074" height="22.148" transform="translate(155.452 92.769) rotate(-135)"/>
      <path id="Path_94" data-name="Path 94" d="M214.1,206.652a2.768,2.768,0,0,0-2.769,2.769v12.735h-99.3V91.019a2.769,2.769,0,0,0-5.537,0V230.831h0a13.858,13.858,0,0,0,13.843,13.843H203.03a13.858,13.858,0,0,0,13.843-13.843h0V209.42A2.768,2.768,0,0,0,214.1,206.652Zm-2.769,24.179a8.315,8.315,0,0,1-8.306,8.306H120.343a8.315,8.315,0,0,1-8.306-8.306v-3.138h99.3Z" transform="translate(0 -55.673)"/>
      <path id="Path_95" data-name="Path 95" d="M203.03,0H120.343A13.858,13.858,0,0,0,106.5,13.843v9.6a2.769,2.769,0,0,0,5.537,0v-9.6a8.315,8.315,0,0,1,8.306-8.306h12v6.091a7.946,7.946,0,0,0,7.937,7.937H183.1a7.946,7.946,0,0,0,7.937-7.937V5.537h12a8.315,8.315,0,0,1,8.306,8.306V141.658a2.769,2.769,0,0,0,5.537,0V13.843A13.858,13.858,0,0,0,203.03,0ZM185.5,11.628a2.4,2.4,0,0,1-2.4,2.4h-42.82a2.4,2.4,0,0,1-2.4-2.4V5.537H185.5Z"/>
      <path id="Path_96" data-name="Path 96" d="M231.269,479.537h14.766a2.769,2.769,0,0,0,0-5.537H231.269a2.769,2.769,0,0,0,0,5.537Z" transform="translate(-76.965 -299.027)"/>
      <path id="Path_97" data-name="Path 97" d="M179.463,187.454h46.943a2.768,2.768,0,0,0,2.769-2.769V104.416h0l8.117-8.118h0a8.306,8.306,0,1,0-11.746-11.746h0L215.3,94.8h-59.03a2.769,2.769,0,0,0-2.769,2.769v87.117a2.769,2.769,0,0,0,2.769,2.769H167.65a2.769,2.769,0,0,0,0-5.537h-8.613v-69.6h38.746l-5.751,5.751H168.081a2.769,2.769,0,0,0,0,5.537h18.413l-4.8,4.8H168.081a2.769,2.769,0,0,0,0,5.537h8.078L173.2,136.9a2.771,2.771,0,0,0-.775,1.514l-.054.329h-4.294a2.769,2.769,0,0,0,0,5.537h3.395l-.565,3.48a2.767,2.767,0,0,0,.107,1.319h-2.938a2.769,2.769,0,0,0,0,5.537h46.512a2.769,2.769,0,0,0,0-5.537H184.373a2.767,2.767,0,0,0,.578-.434l4.363-4.364h25.278a2.769,2.769,0,0,0,0-5.537H194.852l4.8-4.8h14.942a2.769,2.769,0,0,0,0-5.537h-9.405l4.8-4.8h4.607a2.769,2.769,0,0,0,.81-5.416l5.872-5.872h2.362v69.6H179.463a2.768,2.768,0,1,0,0,5.537Zm44.125-93.113,3.915,3.915h0l-.012.012h0l-26.715,26.715-.013.013h0l-3.915-3.915,26.74-26.74h0M177.617,141l3.224,3.224-3.849.625Zm3.57-4.261,0,0,0,0L192.933,125h0l3.915,3.915L185.1,140.658Zm52.189-48.275a2.768,2.768,0,0,1,0,3.915l-1.957,1.958L227.5,90.426l1.958-1.958A2.772,2.772,0,0,1,233.376,88.468Zm-74.339,18.31V100.5H209.6l-6.275,6.275Z" transform="translate(-29.65 -51.806)"/>
      <path id="Path_98" data-name="Path 98" d="M188.269,297.037H234.78a2.769,2.769,0,0,0,0-5.537H188.269a2.769,2.769,0,0,0,0,5.537Z" transform="translate(-49.838 -183.896)"/>
      <path id="Path_99" data-name="Path 99" d="M188.269,325.037H234.78a2.769,2.769,0,0,0,0-5.537H188.269a2.769,2.769,0,0,0,0,5.537Z" transform="translate(-49.838 -201.56)"/>
      <path id="Path_100" data-name="Path 100" d="M206.269,24.537a2.769,2.769,0,0,0,2.769-2.769h0a2.769,2.769,0,0,0-5.537,0h0A2.769,2.769,0,0,0,206.269,24.537Z" transform="translate(-61.193 -11.986)"/>
      <path id="Path_101" data-name="Path 101" d="M224.269,24.537a2.769,2.769,0,0,0,2.769-2.769h0a2.769,2.769,0,0,0-5.537,0h0A2.769,2.769,0,0,0,224.269,24.537Z" transform="translate(-72.549 -11.986)"/>
    </g>
  </g>
</svg>
