<svg xmlns="http://www.w3.org/2000/svg" viewBox="0 0 95.557 61.646">
  <defs>
    <style>
      .cls-1 {
        fill: #003b70;
      }

      .cls-2 {
        fill: #d9261c;
        fill-rule: evenodd;
      }
    </style>
  </defs>
  <g id="Citi_Logo" data-name="Citi Logo" transform="translate(-4.952 -4.952)">
    <path id="Path_869" data-name="Path 869" class="cls-1" d="M34.048,101.383l-.171.165a12.964,12.964,0,0,1-9.23,4.295c-6.859,0-11.837-5.145-11.837-12.244s4.979-12.239,11.837-12.239a12.952,12.952,0,0,1,9.23,4.308l.171.17L38.459,80.5l-.118-.145a16.833,16.833,0,0,0-13.481-6.445,20.46,20.46,0,0,0-13.97,5.123C7,82.606,4.952,87.639,4.952,93.6s2.052,11,5.939,14.571a20.391,20.391,0,0,0,13.97,5.128,16.828,16.828,0,0,0,13.481-6.446l.118-.135-4.411-5.334Z" transform="translate(0 -46.699)"/>
    <path id="Path_870" data-name="Path 870" class="cls-1" d="M122.552,113.868h7.792V75.829h-7.792Z" transform="translate(-79.635 -47.996)"/>
    <path id="Path_871" data-name="Path 871" class="cls-1" d="M191.665,80.842a11.293,11.293,0,0,1-5.751,1.9c-2.517,0-3.655-1.329-3.655-4.288V58.272h7.936V51.109h-7.936V39.273l-7.637,4.087v7.749h-6.589v7.163h6.589V79.743c0,5.85,3.465,9.846,8.638,9.95a12.282,12.282,0,0,0,6.915-1.742l.075-.056,1.876-7.334-.461.282Z" transform="translate(-110.434 -23.241)"/>
    <path id="Path_872" data-name="Path 872" class="cls-1" d="M261.228,113.868h7.8V75.829h-7.8Z" transform="translate(-173.543 -47.996)"/>
    <path id="Path_873" data-name="Path 873" class="cls-2" d="M168.921,21.084a37.9,37.9,0,0,0-62.048,0l-.365.52h8.981l.1-.108a30.615,30.615,0,0,1,44.613,0l.1.108h8.979l-.359-.52Z" transform="translate(-68.771 0)"/>
  </g>
</svg>
