<svg id="_065-bitcoin-1" data-name="065-bitcoin-1" xmlns="http://www.w3.org/2000/svg" viewBox="0 0 120 120">
  <defs>
    <style>
      .cls-1 {
        fill: #263238;
      }

      .cls-2 {
        fill: #3c92ca;
      }

      .cls-3 {
        fill: #a7a9ac;
      }

      .cls-4 {
        fill: #fff;
      }
    </style>
  </defs>
  <path id="Path_33" data-name="Path 33" class="cls-1" d="M205.077,462.051h-2.051a1.026,1.026,0,0,1,0-2.051h2.051a1.026,1.026,0,1,1,0,2.051Z" transform="translate(-150.205 -342.051)"/>
  <circle id="Ellipse_2" data-name="Ellipse 2" class="cls-2" cx="49.231" cy="49.231" r="49.231" transform="translate(9.231 12.308)"/>
  <path id="Path_34" data-name="Path 34" class="cls-1" d="M82.256,144.513a50.256,50.256,0,1,1,50.256-50.256A50.312,50.312,0,0,1,82.256,144.513Zm0-98.462a48.205,48.205,0,1,0,48.205,48.205A48.26,48.26,0,0,0,82.256,46.051Z" transform="translate(-23.795 -32.718)"/>
  <circle id="Ellipse_3" data-name="Ellipse 3" class="cls-3" cx="41.026" cy="41.026" r="41.026" transform="translate(17.436 20.513)"/>
  <g id="Group_37" data-name="Group 37">
    <path id="Path_35" data-name="Path 35" class="cls-1" d="M106.051,160.1A42.051,42.051,0,1,1,148.1,118.051,42.1,42.1,0,0,1,106.051,160.1Zm0-82.051a40,40,0,1,0,40,40A40.046,40.046,0,0,0,106.051,78.051Z" transform="translate(-47.59 -56.513)"/>
    <path id="Path_36" data-name="Path 36" class="cls-1" d="M1.026,71.487A1.026,1.026,0,0,1,0,70.462,58.528,58.528,0,0,1,58.462,12a1.026,1.026,0,1,1,0,2.051,56.476,56.476,0,0,0-56.41,56.41A1.026,1.026,0,0,1,1.026,71.487Z" transform="translate(0 -8.923)"/>
    <path id="Path_37" data-name="Path 37" class="cls-1" d="M243.077,14.051h-2.051a1.026,1.026,0,0,1,0-2.051h2.051a1.026,1.026,0,1,1,0,2.051Z" transform="translate(-178.462 -8.923)"/>
    <path id="Path_38" data-name="Path 38" class="cls-1" d="M225.026,295.487a1.026,1.026,0,0,1,0-2.051,56.476,56.476,0,0,0,56.41-56.41,1.026,1.026,0,1,1,2.051,0A58.528,58.528,0,0,1,225.026,295.487Z" transform="translate(-166.564 -175.487)"/>
    <path id="Path_39" data-name="Path 39" class="cls-1" d="M381.231,18.051h-8.205a1.026,1.026,0,0,1,0-2.051h8.205a1.026,1.026,0,0,1,0,2.051Z" transform="translate(-276.615 -11.897)"/>
    <path id="Path_40" data-name="Path 40" class="cls-1" d="M389.026,10.256A1.026,1.026,0,0,1,388,9.231V1.026a1.026,1.026,0,1,1,2.051,0V9.231A1.026,1.026,0,0,1,389.026,10.256Z" transform="translate(-288.513)"/>
    <path id="Path_41" data-name="Path 41" class="cls-1" d="M437.231,70.051h-8.205a1.026,1.026,0,0,1,0-2.051h8.205a1.026,1.026,0,0,1,0,2.051Z" transform="translate(-318.256 -50.564)"/>
    <path id="Path_42" data-name="Path 42" class="cls-1" d="M445.026,62.256A1.026,1.026,0,0,1,444,61.231V53.026a1.026,1.026,0,1,1,2.051,0v8.205A1.026,1.026,0,0,1,445.026,62.256Z" transform="translate(-330.154 -38.667)"/>
  </g>
  <path id="Path_43" data-name="Path 43" class="cls-4" d="M187.783,158.092l-.008,0a12.69,12.69,0,0,0,2.172-7.114A12.829,12.829,0,0,0,178.921,138.3V132h-6.154v6.154H168.41V132h-6.154v6.154H152v8.205h4.1v26.95H152v7.922h10.256v6.154h6.154v-6.154h4.359v6.154h6.154v-6.154h1.282a12.8,12.8,0,0,0,7.577-23.138Zm-10.654-11.733a4.615,4.615,0,1,1,0,9.231H164.308v-9.231Zm3.077,26.667h-15.9v-9.231h15.9a4.615,4.615,0,1,1,0,9.231Z" transform="translate(-113.026 -98.154)"/>
  <path id="Path_44" data-name="Path 44" class="cls-1" d="M175.949,185.436h-6.154a1.026,1.026,0,0,1-1.026-1.026v-5.128h-2.308v5.128a1.026,1.026,0,0,1-1.026,1.026h-6.154a1.026,1.026,0,0,1-1.026-1.026v-5.128h-9.231A1.026,1.026,0,0,1,148,178.256v-7.92a1.026,1.026,0,0,1,1.026-1.026H152.1v-24.9h-3.077A1.026,1.026,0,0,1,148,143.385v-8.205a1.026,1.026,0,0,1,1.026-1.026h9.231v-5.128A1.026,1.026,0,0,1,159.282,128h6.154a1.026,1.026,0,0,1,1.026,1.026v5.128h2.308v-5.128A1.026,1.026,0,0,1,169.795,128h6.154a1.026,1.026,0,0,1,1.026,1.026v5.432A13.906,13.906,0,0,1,188,148a13.726,13.726,0,0,1-1.842,6.878,13.828,13.828,0,0,1-8.927,24.4h-.256v5.128A1.026,1.026,0,0,1,175.949,185.436Zm-5.128-2.051h4.1v-5.128a1.026,1.026,0,0,1,1.026-1.026h1.282a11.778,11.778,0,0,0,6.968-21.286s0,0-.006,0l-.008-.006a1.027,1.027,0,0,1-.236-1.395,11.662,11.662,0,0,0,2-6.539,11.841,11.841,0,0,0-10.144-11.666,1.027,1.027,0,0,1-.882-1.015v-5.268h-4.1v5.128a1.026,1.026,0,0,1-1.026,1.026h-4.359a1.026,1.026,0,0,1-1.026-1.026v-5.128h-4.1v5.128a1.026,1.026,0,0,1-1.026,1.026h-9.231v6.154h3.077a1.026,1.026,0,0,1,1.026,1.026v26.952a1.026,1.026,0,0,1-1.026,1.026h-3.077v5.869h9.231a1.026,1.026,0,0,1,1.026,1.026v5.128h4.1v-5.128a1.026,1.026,0,0,1,1.026-1.026h4.359a1.026,1.026,0,0,1,1.026,1.026v5.128Zm6.41-12.308h-15.9a1.026,1.026,0,0,1-1.026-1.026v-9.231a1.026,1.026,0,0,1,1.026-1.026h15.9a5.641,5.641,0,0,1,0,11.282Zm-14.872-2.051h14.872a3.59,3.59,0,1,0,0-7.179H162.359Zm11.795-15.385H161.333a1.026,1.026,0,0,1-1.026-1.026v-9.231a1.026,1.026,0,0,1,1.026-1.026h12.821a5.641,5.641,0,1,1,0,11.282Zm-11.795-2.051h11.795a3.59,3.59,0,0,0,0-7.179H162.359Z" transform="translate(-110.051 -95.179)"/>
</svg>
