<svg xmlns="http://www.w3.org/2000/svg" viewBox="0 0 120 107.213">
  <defs>
    <style>
      .cls-1 {
        fill: #263238;
      }

      .cls-2 {
        fill: #3c92ca;
      }

      .cls-3 {
        fill: #a7a9ac;
      }
    </style>
  </defs>
  <g id="_028-monitoring" data-name="028-monitoring" transform="translate(0 -26)">
    <g id="Group_48" data-name="Group 48" transform="translate(0 26)">
      <path id="Path_127" data-name="Path 127" class="cls-1" d="M192.984,386.852a.984.984,0,0,1-.984-.984v-6.885a.984.984,0,1,1,1.967,0v6.885A.984.984,0,0,1,192.984,386.852Z" transform="translate(-144.787 -291.443)"/>
      <path id="Path_128" data-name="Path 128" class="cls-1" d="M288.984,386.852a.984.984,0,0,1-.984-.984v-6.885a.984.984,0,1,1,1.967,0v6.885A.984.984,0,0,1,288.984,386.852Z" transform="translate(-217.18 -291.443)"/>
      <path id="Path_129" data-name="Path 129" class="cls-1" d="M194.3,431.836H154.951A2.954,2.954,0,0,1,152,428.885v-3.934A2.954,2.954,0,0,1,154.951,422H194.3a2.954,2.954,0,0,1,2.951,2.951v3.934A2.954,2.954,0,0,1,194.3,431.836Zm-39.344-7.869a.985.985,0,0,0-.984.984v3.934a.985.985,0,0,0,.984.984H194.3a.987.987,0,0,0,.984-.984v-3.934a.987.987,0,0,0-.984-.984Z" transform="translate(-114.623 -324.623)"/>
      <path id="Path_130" data-name="Path 130" class="cls-1" d="M119.016,323.967H.984a.984.984,0,0,1,0-1.967H119.016a.984.984,0,0,1,0,1.967Z" transform="translate(0 -249.213)"/>
      <path id="Path_131" data-name="Path 131" class="cls-1" d="M109.18,110.59H10.82A10.832,10.832,0,0,1,0,99.77V36.82A10.832,10.832,0,0,1,10.82,26H109.18A10.834,10.834,0,0,1,120,36.82V99.77A10.834,10.834,0,0,1,109.18,110.59ZM10.82,27.967A8.863,8.863,0,0,0,1.967,36.82V99.77a8.863,8.863,0,0,0,8.852,8.852H109.18a8.863,8.863,0,0,0,8.852-8.852V36.82a8.863,8.863,0,0,0-8.852-8.852Z" transform="translate(0 -26)"/>
      <path id="Path_132" data-name="Path 132" class="cls-1" d="M119.016,67.967H.984A.984.984,0,0,1,.984,66H119.016a.984.984,0,0,1,0,1.967Z" transform="translate(0 -56.164)"/>
      <path id="Path_133" data-name="Path 133" class="cls-1" d="M265.317,159.377H238.76a.984.984,0,0,1-.984-.984v-35.41a.984.984,0,1,1,1.967,0V157.41h25.574a.984.984,0,1,1,0,1.967Z" transform="translate(-179.306 -98.393)"/>
      <path id="Path_134" data-name="Path 134" class="cls-1" d="M263.526,143.3a.983.983,0,0,1-.7-1.678L275.347,129.1a.984.984,0,0,1,1.391,0l9.159,9.159,16.94-16a.984.984,0,0,1,1.351,1.43l-17.636,16.652a.979.979,0,0,1-1.371-.02l-9.14-9.14-11.823,11.823A.979.979,0,0,1,263.526,143.3Z" transform="translate(-197.982 -98.392)"/>
      <path id="Path_135" data-name="Path 135" class="cls-1" d="M402.02,131.836a.984.984,0,0,1-.984-.984v-6.885h-6.885a.984.984,0,1,1,0-1.967h7.869a.984.984,0,0,1,.984.984v7.869A.983.983,0,0,1,402.02,131.836Z" transform="translate(-296.487 -98.393)"/>
    </g>
    <path id="Path_136" data-name="Path 136" class="cls-2" d="M363.612,202l-9.836,9.836h4.918v6.885h9.836v-6.885h4.918Z" transform="translate(-266.782 -132.721)"/>
    <path id="Path_137" data-name="Path 137" class="cls-1" d="M365.515,216.687h-9.836a.984.984,0,0,1-.984-.984v-5.9h-3.934a.985.985,0,0,1-.7-1.68l9.836-9.836a.984.984,0,0,1,1.391,0l9.836,9.836a.985.985,0,0,1-.7,1.68H366.5v5.9A.981.981,0,0,1,365.515,216.687Zm-8.852-1.967h7.869v-5.9a.984.984,0,0,1,.984-.984h2.544l-7.462-7.462-7.462,7.462h2.544a.984.984,0,0,1,.984.984Z" transform="translate(-263.767 -129.703)"/>
    <path id="Path_183" data-name="Path 183" class="cls-3" d="M15.738,0A15.738,15.738,0,1,1,0,15.738,15.738,15.738,0,0,1,15.738,0Z" transform="translate(14.754 52.557)"/>
    <g id="Group_49" data-name="Group 49" transform="translate(0.984 51.574)">
      <path id="Path_138" data-name="Path 138" class="cls-1" d="M72.721,163.443a16.721,16.721,0,1,1,16.721-16.721A16.74,16.74,0,0,1,72.721,163.443Zm0-31.475a14.754,14.754,0,1,0,14.754,14.754A14.77,14.77,0,0,0,72.721,131.967Z" transform="translate(-43.213 -130)"/>
      <path id="Path_139" data-name="Path 139" class="cls-1" d="M120.984,166.918a.984.984,0,0,1-.984-.984v-2.951a.984.984,0,1,1,1.967,0v2.951A.984.984,0,0,1,120.984,166.918Z" transform="translate(-91.475 -154.131)"/>
      <path id="Path_140" data-name="Path 140" class="cls-1" d="M120.984,218.918a.984.984,0,0,1-.984-.984v-2.951a.984.984,0,1,1,1.967,0v2.951A.984.984,0,0,1,120.984,218.918Z" transform="translate(-91.475 -193.344)"/>
      <path id="Path_141" data-name="Path 141" class="cls-1" d="M110.393,185.8h-5.41a.984.984,0,1,1,0-1.967h5.41a1.475,1.475,0,0,0,0-2.951h-2.951a3.443,3.443,0,0,1,0-6.885h4.426a.984.984,0,0,1,0,1.967h-4.426a1.475,1.475,0,1,0,0,2.951h2.951a3.443,3.443,0,0,1,0,6.885Z" transform="translate(-79.41 -163.18)"/>
      <path id="Path_142" data-name="Path 142" class="cls-1" d="M6.951,417.967H4.984a.984.984,0,0,1,0-1.967H6.951a.984.984,0,0,1,0,1.967Z" transform="translate(-4 -345.672)"/>
      <path id="Path_143" data-name="Path 143" class="cls-1" d="M49.639,417.967H28.984a.984.984,0,0,1,0-1.967H49.639a.984.984,0,0,1,0,1.967Z" transform="translate(-22.098 -345.672)"/>
      <path id="Path_144" data-name="Path 144" class="cls-1" d="M470.951,417.967h-1.967a.984.984,0,0,1,0-1.967h1.967a.984.984,0,0,1,0,1.967Z" transform="translate(-353.902 -345.672)"/>
      <path id="Path_145" data-name="Path 145" class="cls-1" d="M389.639,417.967H368.984a.984.984,0,0,1,0-1.967h20.656a.984.984,0,1,1,0,1.967Z" transform="translate(-278.492 -345.672)"/>
    </g>
  </g>
</svg>
