<svg xmlns="http://www.w3.org/2000/svg" viewBox="0 0 132.735 130.098">
  <defs>
    <style>
      .cls-1 {
        fill: #263238;
      }

      .cls-2 {
        fill: #3c92ca;
      }

      .cls-3 {
        fill: #a7a9ac;
      }
    </style>
  </defs>
  <g id="_090-corruption" data-name="090-corruption" transform="matrix(0.966, 0.259, -0.259, 0.966, 10.723, -10.898)">
    <g id="Group_40" data-name="Group 40" transform="translate(20)">
      <path id="Path_67" data-name="Path 67" class="cls-1" d="M187.158,66.105H105.053a1.053,1.053,0,0,1,0-2.105h82.105a1.053,1.053,0,0,1,0,2.105Z" transform="translate(-81.895 -47.158)"/>
      <path id="Path_68" data-name="Path 68" class="cls-1" d="M309.684,28.421H297.053A1.053,1.053,0,0,1,296,27.368V21.053A1.053,1.053,0,0,1,297.053,20h12.632a1.053,1.053,0,0,1,1.053,1.053v6.316A1.053,1.053,0,0,1,309.684,28.421Zm-11.579-2.105h10.526V22.105H298.105Z" transform="translate(-223.368 -14.737)"/>
      <path id="Path_69" data-name="Path 69" class="cls-1" d="M372.211,28.421a4.211,4.211,0,1,1,4.211-4.211A4.215,4.215,0,0,1,372.211,28.421Zm0-6.316a2.105,2.105,0,1,0,2.105,2.105A2.107,2.107,0,0,0,372.211,22.105Z" transform="translate(-276.421 -14.737)"/>
      <path id="Path_70" data-name="Path 70" class="cls-1" d="M181.895,101.053H116.632a1.053,1.053,0,0,1,0-2.105h65.263a4.215,4.215,0,0,0,4.211-4.211V6.316a4.215,4.215,0,0,0-4.211-4.211H110.316a4.215,4.215,0,0,0-4.211,4.211v45.24a1.053,1.053,0,1,1-2.105,0V6.316A6.323,6.323,0,0,1,110.316,0h71.579a6.324,6.324,0,0,1,6.316,6.316V94.737A6.324,6.324,0,0,1,181.895,101.053Z" transform="translate(-81.895 0)"/>
      <path id="Path_71" data-name="Path 71" class="cls-1" d="M50.526,255.886a1.053,1.053,0,0,1-1.053-1.053v-4.5a11.511,11.511,0,0,1,3.392-8.189l6.8-6.8a2.636,2.636,0,0,0-.343-4.015,2.767,2.767,0,0,0-3.518.432L51.272,236.3a1.054,1.054,0,0,1-1.8-.743V212.507a2.767,2.767,0,0,0-2.181-2.794,2.636,2.636,0,0,0-3.082,2.6,1.053,1.053,0,1,1-2.105,0v-2.96a2.767,2.767,0,0,0-2.181-2.794,2.636,2.636,0,0,0-3.082,2.6v3.158a1.053,1.053,0,1,1-2.105,0,2.637,2.637,0,0,0-.926-2.006,2.606,2.606,0,0,0-2.154-.589,2.767,2.767,0,0,0-2.181,2.794v1.907a1.053,1.053,0,0,1-2.105,0,2.633,2.633,0,0,0-3.08-2.6,2.763,2.763,0,0,0-2.185,2.794v23.322a19.937,19.937,0,0,0,3.36,11.095l.674,1.011a1.044,1.044,0,0,1,.177.583v4.211a1.053,1.053,0,0,1-2.105,0v-3.893l-.5-.745A22.03,22.03,0,0,1,20,237.935V214.612a4.879,4.879,0,0,1,3.949-4.869,4.753,4.753,0,0,1,3.743.971,4.685,4.685,0,0,1,7.1-2.3,4.739,4.739,0,0,1,5.469-3.931,4.825,4.825,0,0,1,3.863,3.949,4.766,4.766,0,0,1,3.505-.792,4.883,4.883,0,0,1,3.945,4.869v20.507l2.737-2.737a4.878,4.878,0,0,1,6.236-.651,4.736,4.736,0,0,1,.6,7.208l-6.8,6.8a9.432,9.432,0,0,0-2.775,6.7v4.5A1.053,1.053,0,0,1,50.526,255.886Z" transform="translate(-20 -150.623)"/>
      <path id="Path_72" data-name="Path 72" class="cls-1" d="M105.053,243.04A1.053,1.053,0,0,1,104,241.987V231.461a1.053,1.053,0,0,1,2.105,0v10.526A1.053,1.053,0,0,1,105.053,243.04Z" transform="translate(-81.895 -169.774)"/>
      <path id="Path_73" data-name="Path 73" class="cls-1" d="M77.053,243.04A1.053,1.053,0,0,1,76,241.987V231.461a1.053,1.053,0,0,1,2.105,0v10.526A1.053,1.053,0,0,1,77.053,243.04Z" transform="translate(-61.263 -169.774)"/>
      <path id="Path_74" data-name="Path 74" class="cls-1" d="M49.053,248.934A1.053,1.053,0,0,1,48,247.882v-8.421a1.053,1.053,0,1,1,2.105,0v8.421A1.053,1.053,0,0,1,49.053,248.934Z" transform="translate(-40.632 -175.669)"/>
    </g>
    <path id="Path_75" data-name="Path 75" class="cls-2" d="M57.474,422.526H30.105A2.106,2.106,0,0,1,28,420.421v-6.316A2.106,2.106,0,0,1,30.105,412H57.474a2.106,2.106,0,0,1,2.105,2.105v6.316A2.106,2.106,0,0,1,57.474,422.526Z" transform="translate(-5.895 -303.579)"/>
    <g id="Group_41" data-name="Group 41" transform="translate(21.053 30.526)">
      <path id="Path_76" data-name="Path 76" class="cls-1" d="M54.526,420.632H27.158A3.162,3.162,0,0,1,24,417.474v-6.316A3.162,3.162,0,0,1,27.158,408H54.526a3.162,3.162,0,0,1,3.158,3.158v6.316A3.162,3.162,0,0,1,54.526,420.632ZM27.158,410.105a1.054,1.054,0,0,0-1.053,1.053v6.316a1.054,1.054,0,0,0,1.053,1.053H54.526a1.054,1.054,0,0,0,1.053-1.053v-6.316a1.054,1.054,0,0,0-1.053-1.053Z" transform="translate(-24 -331.158)"/>
      <path id="Path_77" data-name="Path 77" class="cls-1" d="M196.211,164.421a24.211,24.211,0,1,1,24.211-24.211A24.238,24.238,0,0,1,196.211,164.421Zm0-46.316a22.105,22.105,0,1,0,22.105,22.105A22.13,22.13,0,0,0,196.211,118.105Z" transform="translate(-133.053 -116)"/>
    </g>
    <path id="Path_78" data-name="Path 78" class="cls-3" d="M313.557,247.136a23.22,23.22,0,0,1-10.421,10.421l8.754,8.754,10.421-10.421Z" transform="translate(-208.627 -182.1)"/>
    <path id="Path_79" data-name="Path 79" class="cls-1" d="M308.933,264.4a1.057,1.057,0,0,1-.745-.307l-8.756-8.754a1.052,1.052,0,0,1,.276-1.686,22.29,22.29,0,0,0,9.949-9.949,1.049,1.049,0,0,1,.773-.571,1.023,1.023,0,0,1,.914.295l8.754,8.756a1.053,1.053,0,0,1,0,1.488l-10.421,10.419A1.042,1.042,0,0,1,308.933,264.4Zm-7.008-9.549,7.01,7.008,8.933-8.931-7.008-7.011A24.467,24.467,0,0,1,301.925,254.854Z" transform="translate(-205.67 -179.141)"/>
    <path id="Path_80" data-name="Path 80" class="cls-2" d="M328.015,226.432a23.149,23.149,0,0,1-7.863,12.977l4.276,4.278,10.421-10.421Z" transform="translate(-221.165 -166.845)"/>
    <path id="Path_81" data-name="Path 81" class="cls-1" d="M321.472,241.807a1.057,1.057,0,0,1-.745-.307l-4.278-4.276a1.052,1.052,0,0,1,.072-1.554,22.193,22.193,0,0,0,7.507-12.387,1.051,1.051,0,0,1,.731-.789,1.07,1.07,0,0,1,1.044.265l6.834,6.834a1.045,1.045,0,0,1,.309.743,1.06,1.06,0,0,1-.307.745L322.217,241.5A1.057,1.057,0,0,1,321.472,241.807Zm-2.737-5.276,2.737,2.735,8.933-8.931-4.783-4.783A24.335,24.335,0,0,1,318.735,236.531Z" transform="translate(-218.209 -163.912)"/>
    <circle id="Ellipse_5" data-name="Ellipse 5" class="cls-3" cx="16.842" cy="16.842" r="16.842" transform="translate(67.368 37.895)"/>
    <g id="Group_42" data-name="Group 42" transform="translate(66.316 36.842)">
      <path id="Path_82" data-name="Path 82" class="cls-1" d="M213.895,175.789a17.895,17.895,0,1,1,17.895-17.895A17.915,17.915,0,0,1,213.895,175.789Zm0-33.684a15.789,15.789,0,1,0,15.789,15.789A15.806,15.806,0,0,0,213.895,142.105Z" transform="translate(-196 -140)"/>
      <path id="Path_83" data-name="Path 83" class="cls-1" d="M247.895,192.842h-6.842a1.053,1.053,0,1,1,0-2.105h6.842a2.632,2.632,0,0,0,0-5.263h-3.158a4.737,4.737,0,1,1,0-9.474h5.789a1.053,1.053,0,1,1,0,2.105h-5.789a2.632,2.632,0,1,0,0,5.263h3.158a4.737,4.737,0,0,1,0,9.474Z" transform="translate(-228.421 -166.526)"/>
      <path id="Path_84" data-name="Path 84" class="cls-1" d="M261.053,169.263A1.053,1.053,0,0,1,260,168.211v-3.158a1.053,1.053,0,0,1,2.105,0v3.158A1.053,1.053,0,0,1,261.053,169.263Z" transform="translate(-243.158 -157.684)"/>
      <path id="Path_85" data-name="Path 85" class="cls-1" d="M261.053,237.263A1.053,1.053,0,0,1,260,236.211v-3.158a1.053,1.053,0,0,1,2.105,0v3.158A1.053,1.053,0,0,1,261.053,237.263Z" transform="translate(-243.158 -207.789)"/>
    </g>
    <circle id="Ellipse_6" data-name="Ellipse 6" class="cls-2" cx="15.789" cy="15.789" r="15.789" transform="translate(21.053 15.011)"/>
    <g id="Group_43" data-name="Group 43" transform="translate(29.473 23.433)">
      <path id="Path_86" data-name="Path 86" class="cls-1" d="M57.051,103.781a1.052,1.052,0,0,1-.745-1.8L68.937,89.354a1.052,1.052,0,0,1,1.488,1.488L57.794,103.474A1.049,1.049,0,0,1,57.051,103.781Z" transform="translate(-55.998 -89.046)"/>
      <path id="Path_87" data-name="Path 87" class="cls-1" d="M69.683,103.781a1.057,1.057,0,0,1-.745-.307L56.306,90.842a1.052,1.052,0,0,1,1.488-1.488l12.632,12.632a1.052,1.052,0,0,1-.743,1.8Z" transform="translate(-55.998 -89.046)"/>
      <path id="Path_88" data-name="Path 88" class="cls-1" d="M359.158,434.105h-2.105a1.053,1.053,0,1,1,0-2.105h2.105a1.053,1.053,0,0,1,0,2.105Z" transform="translate(-277.052 -341.749)"/>
      <path id="Path_89" data-name="Path 89" class="cls-1" d="M252.632,434.105H221.053a1.053,1.053,0,0,1,0-2.105h31.579a1.053,1.053,0,0,1,0,2.105Z" transform="translate(-176.842 -341.749)"/>
      <path id="Path_90" data-name="Path 90" class="cls-1" d="M287.158,410.105h-2.105a1.053,1.053,0,0,1,0-2.105h2.105a1.053,1.053,0,0,1,0,2.105Z" transform="translate(-223.999 -324.065)"/>
      <path id="Path_91" data-name="Path 91" class="cls-1" d="M340.632,410.105H309.053a1.053,1.053,0,1,1,0-2.105h31.579a1.053,1.053,0,0,1,0,2.105Z" transform="translate(-241.684 -324.065)"/>
    </g>
  </g>
</svg>
