<svg xmlns="http://www.w3.org/2000/svg" viewBox="0 0 128.727 120">
  <defs>
    <style>
      .cls-1 {
        fill: #a7a9ac;
      }

      .cls-2 {
        fill: #263238;
      }

      .cls-3 {
        fill: #3c92ca;
      }
    </style>
  </defs>
  <g id="_072-credit-card" data-name="072-credit-card" transform="translate(0 -15.999)">
    <circle id="Ellipse_4" data-name="Ellipse 4" class="cls-1" cx="19.636" cy="19.636" r="19.636" transform="translate(57.219 64.493)"/>
    <g id="Group_38" data-name="Group 38" transform="translate(9.818 25.817)">
      <path id="Path_45" data-name="Path 45" class="cls-2" d="M120.364,250.181H105.091a1.091,1.091,0,1,1,0-2.182h15.273a1.091,1.091,0,1,1,0,2.182Z" transform="translate(-85.454 -194.543)"/>
      <path id="Path_46" data-name="Path 46" class="cls-2" d="M120.364,282.181H105.091a1.091,1.091,0,1,1,0-2.182h15.273a1.091,1.091,0,1,1,0,2.182Z" transform="translate(-85.454 -217.816)"/>
      <path id="Path_47" data-name="Path 47" class="cls-2" d="M39.273,358.181H37.091a1.091,1.091,0,1,1,0-2.182h2.182a1.091,1.091,0,1,1,0,2.182Z" transform="translate(-36 -273.088)"/>
      <path id="Path_48" data-name="Path 48" class="cls-2" d="M96,358.181H61.091a1.091,1.091,0,1,1,0-2.182H96a1.091,1.091,0,1,1,0,2.182Z" transform="translate(-53.454 -273.088)"/>
      <path id="Path_49" data-name="Path 49" class="cls-2" d="M423.273,54.181h-2.182a1.091,1.091,0,0,1,0-2.182h2.182a1.091,1.091,0,1,1,0,2.182Z" transform="translate(-315.271 -51.999)"/>
      <path id="Path_50" data-name="Path 50" class="cls-2" d="M312,54.181h-34.91a1.091,1.091,0,1,1,0-2.182H312a1.091,1.091,0,0,1,0,2.182Z" transform="translate(-210.544 -51.999)"/>
      <path id="Path_51" data-name="Path 51" class="cls-2" d="M266.906,258.547a1.09,1.09,0,0,1-.772-1.861l6.546-6.546a1.091,1.091,0,0,1,1.543,1.543l-6.546,6.546A1.1,1.1,0,0,1,266.906,258.547Z" transform="translate(-203.136 -195.869)"/>
      <path id="Path_52" data-name="Path 52" class="cls-2" d="M273.451,258.547a1.1,1.1,0,0,1-.772-.319l-6.546-6.546a1.091,1.091,0,1,1,1.543-1.543l6.546,6.546a1.09,1.09,0,0,1-.77,1.861Z" transform="translate(-203.136 -195.869)"/>
      <path id="Path_53" data-name="Path 53" class="cls-2" d="M226.905,258.547a1.09,1.09,0,0,1-.772-1.861l6.546-6.546a1.091,1.091,0,0,1,1.543,1.543l-6.546,6.546A1.1,1.1,0,0,1,226.905,258.547Z" transform="translate(-174.046 -195.869)"/>
      <path id="Path_54" data-name="Path 54" class="cls-2" d="M233.451,258.547a1.1,1.1,0,0,1-.772-.319l-6.546-6.546a1.091,1.091,0,0,1,1.543-1.543l6.546,6.546a1.09,1.09,0,0,1-.77,1.861Z" transform="translate(-174.046 -195.869)"/>
      <path id="Path_55" data-name="Path 55" class="cls-2" d="M306.906,258.547a1.09,1.09,0,0,1-.772-1.861l6.546-6.546a1.091,1.091,0,0,1,1.543,1.543l-6.546,6.546A1.1,1.1,0,0,1,306.906,258.547Z" transform="translate(-232.227 -195.869)"/>
      <path id="Path_56" data-name="Path 56" class="cls-2" d="M313.451,258.547a1.1,1.1,0,0,1-.772-.319l-6.546-6.546a1.091,1.091,0,1,1,1.543-1.543l6.546,6.546a1.09,1.09,0,0,1-.77,1.861Z" transform="translate(-232.227 -195.869)"/>
      <path id="Path_57" data-name="Path 57" class="cls-2" d="M209.087,220.361A27.274,27.274,0,0,1,189.8,173.8h0a27.272,27.272,0,1,1,19.283,46.559Zm0-52.365a24.926,24.926,0,0,0-17.741,7.348h0A25.092,25.092,0,1,0,209.087,168Zm-18.513,6.576h0Z" transform="translate(-142.047 -134.774)"/>
    </g>
    <path id="Path_58" data-name="Path 58" class="cls-3" d="M76,136v10.909h37.936a30.517,30.517,0,0,1,36.389,0h12.949V136Z" transform="translate(-55.272 -87.272)"/>
    <g id="Group_39" data-name="Group 39" transform="translate(0 15.999)">
      <path id="Path_59" data-name="Path 59" class="cls-2" d="M160.365,145.09H147.416a1.091,1.091,0,1,1,0-2.182h11.858v-8.727H74.182v8.727h36.845a1.091,1.091,0,1,1,0,2.182H73.091A1.091,1.091,0,0,1,72,144V133.09A1.091,1.091,0,0,1,73.091,132h87.274a1.091,1.091,0,0,1,1.091,1.091V144A1.09,1.09,0,0,1,160.365,145.09Z" transform="translate(-52.363 -100.362)"/>
      <path id="Path_60" data-name="Path 60" class="cls-2" d="M102.509,155.273H78.546A6.554,6.554,0,0,1,72,148.727V98.545A6.554,6.554,0,0,1,78.546,92h76.365a6.554,6.554,0,0,1,6.546,6.546v50.183a6.566,6.566,0,0,1-5.241,6.415,1.091,1.091,0,1,1-.434-2.138,4.376,4.376,0,0,0,3.493-4.276V98.545a4.368,4.368,0,0,0-4.364-4.364H78.546a4.368,4.368,0,0,0-4.364,4.364v50.183a4.368,4.368,0,0,0,4.364,4.364h23.963a1.091,1.091,0,1,1,0,2.182Z" transform="translate(-52.363 -71.271)"/>
      <path id="Path_61" data-name="Path 61" class="cls-2" d="M347.557,337.267a1.1,1.1,0,0,1-.772-.319l-9.258-9.258a1.1,1.1,0,0,1,0-1.545l4.63-4.63a1.092,1.092,0,0,1,1.543,0l9.255,9.258a1.091,1.091,0,0,1-1.543,1.543l-8.485-8.485-3.087,3.087,8.487,8.485a1.092,1.092,0,0,1-.77,1.863Z" transform="translate(-245.241 -237.96)"/>
      <path id="Path_62" data-name="Path 62" class="cls-2" d="M397.28,389.175a3.269,3.269,0,0,1-2.315-.956l-13.885-13.888a3.275,3.275,0,0,1,0-4.628l4.628-4.63a3.279,3.279,0,0,1,4.628,0l13.885,13.888a3.275,3.275,0,0,1,0,4.628l-4.628,4.63A3.261,3.261,0,0,1,397.28,389.175ZM388.022,366.3a1.1,1.1,0,0,0-.772.319l-4.628,4.628a1.092,1.092,0,0,0,0,1.543l13.885,13.885a1.094,1.094,0,0,0,1.543,0l4.628-4.628h0a1.092,1.092,0,0,0,0-1.543l-13.885-13.885A1.087,1.087,0,0,0,388.022,366.3Z" transform="translate(-276.451 -269.175)"/>
      <path id="Path_63" data-name="Path 63" class="cls-2" d="M73.818,34.181H65.091a1.091,1.091,0,0,1,0-2.182h8.727a1.091,1.091,0,0,1,0,2.182Z" transform="translate(-46.545 -27.635)"/>
      <path id="Path_64" data-name="Path 64" class="cls-2" d="M81.091,26.908A1.091,1.091,0,0,1,80,25.817V17.09a1.091,1.091,0,0,1,2.182,0v8.727A1.09,1.09,0,0,1,81.091,26.908Z" transform="translate(-58.181 -15.999)"/>
      <path id="Path_65" data-name="Path 65" class="cls-2" d="M9.818,78.181H1.091a1.091,1.091,0,0,1,0-2.182H9.818a1.091,1.091,0,0,1,0,2.182Z" transform="translate(0 -59.635)"/>
      <path id="Path_66" data-name="Path 66" class="cls-2" d="M17.091,70.908A1.091,1.091,0,0,1,16,69.817V61.09a1.091,1.091,0,0,1,2.182,0v8.727A1.09,1.09,0,0,1,17.091,70.908Z" transform="translate(-11.636 -47.999)"/>
    </g>
  </g>
</svg>
