<svg xmlns="http://www.w3.org/2000/svg" viewBox="0 0 120 115.472">
  <defs>
    <style>
      .cls-1 {
        fill: #263238;
      }

      .cls-2 {
        fill: #a7a9ac;
      }

      .cls-3 {
        fill: #3c92ca;
      }
    </style>
  </defs>
  <g id="_067-credit-card-2" data-name="067-credit-card-2" transform="translate(0 -8)">
    <path id="Path_167" data-name="Path 167" class="cls-1" d="M102.038,217.66H22.792A6.8,6.8,0,0,1,16,210.868V158.792A6.8,6.8,0,0,1,22.792,152h79.245a6.8,6.8,0,0,1,6.792,6.792v52.075A6.8,6.8,0,0,1,102.038,217.66Zm-79.245-63.4a4.533,4.533,0,0,0-4.528,4.528v52.075a4.533,4.533,0,0,0,4.528,4.528h79.245a4.533,4.533,0,0,0,4.528-4.528V158.792a4.533,4.533,0,0,0-4.528-4.528Z" transform="translate(-11.472 -103.245)"/>
    <path id="Path_168" data-name="Path 168" class="cls-2" d="M184.906,76H105.66A5.66,5.66,0,0,0,100,81.66V94.113h62.264A10.2,10.2,0,0,1,172.453,104.3V139.4h12.453a5.66,5.66,0,0,0,5.66-5.66V81.66A5.66,5.66,0,0,0,184.906,76Z" transform="translate(-71.698 -48.755)"/>
    <path id="Path_169" data-name="Path 169" class="cls-1" d="M182.038,137.66H169.585a1.132,1.132,0,1,1,0-2.264h12.453a4.533,4.533,0,0,0,4.528-4.528V78.792a4.533,4.533,0,0,0-4.528-4.528H102.792a4.533,4.533,0,0,0-4.528,4.528V91.245a1.132,1.132,0,0,1-2.264,0V78.792A6.8,6.8,0,0,1,102.792,72h79.245a6.8,6.8,0,0,1,6.792,6.792v52.075A6.8,6.8,0,0,1,182.038,137.66Z" transform="translate(-68.83 -45.887)"/>
    <rect id="Rectangle_14" data-name="Rectangle 14" class="cls-3" width="90.566" height="11.321" transform="translate(5.66 61.208)"/>
    <g id="Group_53" data-name="Group 53" transform="translate(0 8)">
      <path id="Path_170" data-name="Path 170" class="cls-1" d="M107.7,205.585H17.132A1.132,1.132,0,0,1,16,204.453V193.132A1.132,1.132,0,0,1,17.132,192H107.7a1.132,1.132,0,0,1,1.132,1.132v11.321A1.132,1.132,0,0,1,107.7,205.585Zm-89.434-2.264h88.3v-9.057h-88.3Z" transform="translate(-11.472 -139.925)"/>
      <path id="Path_171" data-name="Path 171" class="cls-1" d="M251.245,317.585H235.4a3.4,3.4,0,0,1-3.4-3.4V307.4a3.4,3.4,0,0,1,3.4-3.4h15.849a3.4,3.4,0,0,1,3.4,3.4v6.792A3.4,3.4,0,0,1,251.245,317.585ZM235.4,306.264a1.134,1.134,0,0,0-1.132,1.132v6.792a1.134,1.134,0,0,0,1.132,1.132h15.849a1.134,1.134,0,0,0,1.132-1.132V307.4a1.134,1.134,0,0,0-1.132-1.132Z" transform="translate(-166.34 -220.226)"/>
      <path id="Path_172" data-name="Path 172" class="cls-1" d="M79.774,310.264H57.132a1.132,1.132,0,0,1,0-2.264H79.774a1.132,1.132,0,0,1,0,2.264Z" transform="translate(-40.151 -223.094)"/>
      <path id="Path_173" data-name="Path 173" class="cls-1" d="M79.774,342.264H57.132a1.132,1.132,0,0,1,0-2.264H79.774a1.132,1.132,0,0,1,0,2.264Z" transform="translate(-40.151 -246.038)"/>
      <path id="Path_174" data-name="Path 174" class="cls-1" d="M103.4,410.264h-2.264a1.132,1.132,0,1,1,0-2.264H103.4a1.132,1.132,0,1,1,0,2.264Z" transform="translate(-71.698 -294.792)"/>
      <path id="Path_175" data-name="Path 175" class="cls-1" d="M161.358,410.264H125.132a1.132,1.132,0,1,1,0-2.264h36.226a1.132,1.132,0,1,1,0,2.264Z" transform="translate(-88.906 -294.792)"/>
      <path id="Path_176" data-name="Path 176" class="cls-1" d="M327.4,42.264h-2.264a1.132,1.132,0,1,1,0-2.264H327.4a1.132,1.132,0,1,1,0,2.264Z" transform="translate(-232.302 -30.943)"/>
      <path id="Path_177" data-name="Path 177" class="cls-1" d="M217.358,42.264H181.132a1.132,1.132,0,1,1,0-2.264h36.226a1.132,1.132,0,1,1,0,2.264Z" transform="translate(-129.057 -30.943)"/>
      <path id="Path_178" data-name="Path 178" class="cls-1" d="M10.189,74.264H1.132a1.132,1.132,0,0,1,0-2.264h9.057a1.132,1.132,0,0,1,0,2.264Z" transform="translate(0 -53.887)"/>
      <path id="Path_179" data-name="Path 179" class="cls-1" d="M17.132,67.321h0A1.132,1.132,0,0,1,16,66.189l0-9.057A1.132,1.132,0,0,1,17.134,56h0a1.132,1.132,0,0,1,1.132,1.132l0,9.057A1.132,1.132,0,0,1,17.132,67.321Z" transform="translate(-11.472 -42.415)"/>
      <path id="Path_180" data-name="Path 180" class="cls-1" d="M58.2,26.264H49.14a1.132,1.132,0,1,1,0-2.264H58.2a1.132,1.132,0,1,1,0,2.264Z" transform="translate(-34.421 -19.472)"/>
      <path id="Path_181" data-name="Path 181" class="cls-1" d="M65.14,19.321a1.132,1.132,0,0,1-1.132-1.132V9.132a1.132,1.132,0,0,1,2.264,0v9.057A1.132,1.132,0,0,1,65.14,19.321Z" transform="translate(-45.893 -8)"/>
      <path id="Path_182" data-name="Path 182" class="cls-1" d="M364.453,109.585a1.133,1.133,0,0,1-1.132-1.132V99.4a1.134,1.134,0,0,0-1.132-1.132h-9.057a1.132,1.132,0,1,1,0-2.264h9.057a3.4,3.4,0,0,1,3.4,3.4v9.057A1.132,1.132,0,0,1,364.453,109.585Z" transform="translate(-252.377 -71.094)"/>
    </g>
  </g>
</svg>
