<svg xmlns="http://www.w3.org/2000/svg" viewBox="0 0 117.931 120">
  <defs>
    <style>
      .cls-1 {
        fill: #263238;
      }

      .cls-2 {
        fill: #a7a9ac;
      }

      .cls-3 {
        fill: #3c92ca;
      }

      .cls-4 {
        fill: #fff;
      }
    </style>
  </defs>
  <g id="_010-analytics" data-name="010-analytics" transform="translate(-4)">
    <path id="Path_112" data-name="Path 112" class="cls-1" d="M120.9,214.9H5.034A1.035,1.035,0,0,1,4,213.862V129.034a1.034,1.034,0,1,1,2.069,0v83.793H120.9a1.034,1.034,0,1,1,0,2.069Z" transform="translate(0 -94.897)"/>
    <path id="Path_113" data-name="Path 113" class="cls-2" d="M76.69,282.069H56v-60A2.07,2.07,0,0,1,58.069,220H74.621a2.07,2.07,0,0,1,2.069,2.069Z" transform="translate(-38.552 -163.103)"/>
    <path id="Path_114" data-name="Path 114" class="cls-1" d="M73.724,280.138H53.034A1.035,1.035,0,0,1,52,279.1v-60a3.107,3.107,0,0,1,3.1-3.1H71.655a3.107,3.107,0,0,1,3.1,3.1v60A1.035,1.035,0,0,1,73.724,280.138Zm-19.655-2.069H72.69V219.1a1.036,1.036,0,0,0-1.034-1.034H55.1a1.036,1.036,0,0,0-1.034,1.034Z" transform="translate(-35.586 -160.138)"/>
    <path id="Path_115" data-name="Path 115" class="cls-3" d="M208.69,335.448H188V294.069A2.07,2.07,0,0,1,190.069,292h16.552a2.07,2.07,0,0,1,2.069,2.069Z" transform="translate(-136.414 -216.483)"/>
    <path id="Path_116" data-name="Path 116" class="cls-1" d="M205.724,333.517h-20.69A1.035,1.035,0,0,1,184,332.483V291.1a3.107,3.107,0,0,1,3.1-3.1h16.552a3.107,3.107,0,0,1,3.1,3.1v41.379A1.035,1.035,0,0,1,205.724,333.517Zm-19.655-2.069H204.69V291.1a1.036,1.036,0,0,0-1.034-1.034H187.1a1.036,1.036,0,0,0-1.034,1.034Z" transform="translate(-133.448 -213.517)"/>
    <path id="Path_117" data-name="Path 117" class="cls-2" d="M340.69,237.586H320V162.069A2.07,2.07,0,0,1,322.069,160h16.552a2.07,2.07,0,0,1,2.069,2.069Z" transform="translate(-234.276 -118.621)"/>
    <g id="Group_47" data-name="Group 47" transform="translate(16.414)">
      <path id="Path_118" data-name="Path 118" class="cls-1" d="M337.724,235.655h-20.69A1.035,1.035,0,0,1,316,234.621V159.1a3.107,3.107,0,0,1,3.1-3.1h16.552a3.107,3.107,0,0,1,3.1,3.1v75.517A1.035,1.035,0,0,1,337.724,235.655Zm-19.655-2.069H336.69V159.1a1.036,1.036,0,0,0-1.034-1.034H319.1a1.036,1.036,0,0,0-1.034,1.034Z" transform="translate(-247.724 -115.655)"/>
      <path id="Path_119" data-name="Path 119" class="cls-1" d="M117.566,18.069H109.29a1.034,1.034,0,1,1,0-2.069h8.276a1.034,1.034,0,1,1,0,2.069Z" transform="translate(-93.707 -11.862)"/>
      <path id="Path_120" data-name="Path 120" class="cls-1" d="M125.29,10.345a1.035,1.035,0,0,1-1.034-1.034V1.034a1.034,1.034,0,0,1,2.069,0V9.31A1.035,1.035,0,0,1,125.29,10.345Z" transform="translate(-105.569)"/>
      <path id="Path_121" data-name="Path 121" class="cls-1" d="M61.566,70.069H53.29a1.034,1.034,0,1,1,0-2.069h8.276a1.034,1.034,0,1,1,0,2.069Z" transform="translate(-52.19 -50.414)"/>
      <path id="Path_122" data-name="Path 122" class="cls-1" d="M69.29,62.345a1.035,1.035,0,0,1-1.034-1.034V53.034a1.034,1.034,0,0,1,2.069,0V61.31A1.035,1.035,0,0,1,69.29,62.345Z" transform="translate(-64.052 -38.552)"/>
      <path id="Path_123" data-name="Path 123" class="cls-1" d="M97.517,89.1a1.028,1.028,0,0,1-.42-.089L78.938,80.943l-15.072,8.04a1.069,1.069,0,0,1-.486.12H53.034a1.034,1.034,0,1,1,0-2.069H63.121L78.41,78.88a1.047,1.047,0,0,1,.906-.033l18,8L130.96,56.268a1.035,1.035,0,1,1,1.392,1.531L98.214,88.834A1.041,1.041,0,0,1,97.517,89.1Z" transform="translate(-52 -41.516)"/>
    </g>
    <circle id="Ellipse_8" data-name="Ellipse 8" class="cls-4" cx="5.172" cy="5.172" r="5.172" transform="translate(56.759 41.379)"/>
    <path id="Path_124" data-name="Path 124" class="cls-1" d="M210.207,168.414a6.207,6.207,0,1,1,6.207-6.207A6.214,6.214,0,0,1,210.207,168.414Zm0-10.345a4.138,4.138,0,1,0,4.138,4.138A4.142,4.142,0,0,0,210.207,158.069Z" transform="translate(-148.276 -115.655)"/>
    <circle id="Ellipse_9" data-name="Ellipse 9" class="cls-4" cx="5.172" cy="5.172" r="5.172" transform="translate(22.621 41.379)"/>
    <path id="Path_125" data-name="Path 125" class="cls-1" d="M78.207,168.414a6.207,6.207,0,1,1,6.207-6.207A6.214,6.214,0,0,1,78.207,168.414Zm0-10.345a4.138,4.138,0,1,0,4.138,4.138A4.142,4.142,0,0,0,78.207,158.069Z" transform="translate(-50.414 -115.655)"/>
    <circle id="Ellipse_10" data-name="Ellipse 10" class="cls-4" cx="5.172" cy="5.172" r="5.172" transform="translate(90.897 10.345)"/>
    <path id="Path_126" data-name="Path 126" class="cls-1" d="M342.207,48.414a6.207,6.207,0,1,1,6.207-6.207A6.214,6.214,0,0,1,342.207,48.414Zm0-10.345a4.138,4.138,0,1,0,4.138,4.138A4.142,4.142,0,0,0,342.207,38.069Z" transform="translate(-246.138 -26.69)"/>
  </g>
</svg>
