<svg xmlns="http://www.w3.org/2000/svg" viewBox="0 0 115.161 120">
  <defs>
    <style>
      .cls-1 {
        fill: #263238;
      }

      .cls-2 {
        fill: #a7a9ac;
      }

      .cls-3 {
        fill: #3c92ca;
      }

      .cls-4 {
        fill: #fff;
      }
    </style>
  </defs>
  <g id="_006-startup" data-name="006-startup" transform="translate(-10)">
    <g id="Group_44" data-name="Group 44" transform="translate(25.484)">
      <path id="Path_92" data-name="Path 92" class="cls-1" d="M114.452,116.9H103.806A5.814,5.814,0,0,1,98,111.1V29.806A5.814,5.814,0,0,1,103.806,24h7.742a.975.975,0,0,1,.685.283l4.554,4.556h18.554l4.556-4.556a.967.967,0,0,1,.683-.283h7.742a5.814,5.814,0,0,1,5.806,5.806v68.71a.968.968,0,0,1-1.935,0V29.806a3.875,3.875,0,0,0-3.871-3.871h-7.341l-4.556,4.556a.967.967,0,0,1-.683.283H116.387a.975.975,0,0,1-.685-.283l-4.554-4.556h-7.341a3.875,3.875,0,0,0-3.871,3.871V111.1a3.875,3.875,0,0,0,3.871,3.871h10.645a.968.968,0,1,1,0,1.935Z" transform="translate(-92.194 -18.194)"/>
      <path id="Path_93" data-name="Path 93" class="cls-1" d="M96.258,104.516H84.645A10.659,10.659,0,0,1,74,93.871V10.645A10.658,10.658,0,0,1,84.645,0H131.1a10.658,10.658,0,0,1,10.645,10.645V80.323a.968.968,0,1,1-1.935,0V10.645a8.72,8.72,0,0,0-8.71-8.71H84.645a8.72,8.72,0,0,0-8.71,8.71V93.871a8.72,8.72,0,0,0,8.71,8.71H96.258a.968.968,0,0,1,0,1.935Z" transform="translate(-74)"/>
    </g>
    <path id="Path_94" data-name="Path 94" class="cls-2" d="M204.968,159.613,193.355,148v6.774H174v9.677h19.355v6.774Z" transform="translate(-124.323 -112.194)"/>
    <path id="Path_95" data-name="Path 95" class="cls-1" d="M190.323,169.163a.947.947,0,0,1-.37-.074.968.968,0,0,1-.6-.894v-5.806H170.968a.968.968,0,0,1-.968-.968v-9.677a.968.968,0,0,1,.968-.968h18.387v-5.806a.969.969,0,0,1,1.653-.685L202.621,155.9a.968.968,0,0,1,0,1.368l-11.613,11.613A.969.969,0,0,1,190.323,169.163Zm-18.387-8.71h18.387a.968.968,0,0,1,.968.968v4.438l9.277-9.277-9.277-9.277v4.438a.968.968,0,0,1-.968.968H171.935Z" transform="translate(-121.29 -109.163)"/>
    <path id="Path_96" data-name="Path 96" class="cls-3" d="M126,199.613l11.613,11.613v-6.774h19.355v-9.677H137.613V188Z" transform="translate(-87.935 -142.516)"/>
    <g id="Group_45" data-name="Group 45" transform="translate(10 33.871)">
      <path id="Path_97" data-name="Path 97" class="cls-1" d="M134.579,209.163a.975.975,0,0,1-.685-.283l-11.613-11.613a.968.968,0,0,1,0-1.368l11.613-11.613a.969.969,0,0,1,1.653.685v5.806h18.387a.968.968,0,0,1,.968.968v9.677a.968.968,0,0,1-.968.968H135.547V208.2a.968.968,0,0,1-.6.894A1.021,1.021,0,0,1,134.579,209.163Zm-10.245-12.581,9.277,9.277v-4.438a.968.968,0,0,1,.968-.968h18.387v-7.742H134.579a.968.968,0,0,1-.968-.968v-4.438Z" transform="translate(-94.902 -173.357)"/>
      <path id="Path_98" data-name="Path 98" class="cls-1" d="M12.9,465.935H10.968a.968.968,0,0,1,0-1.935H12.9a.968.968,0,0,1,0,1.935Z" transform="translate(-10 -385.613)"/>
      <path id="Path_99" data-name="Path 99" class="cls-1" d="M56.258,465.935H34.968a.968.968,0,0,1,0-1.935h21.29a.968.968,0,1,1,0,1.935Z" transform="translate(-28.194 -385.613)"/>
      <path id="Path_100" data-name="Path 100" class="cls-1" d="M76.129,489.935H50.968a.968.968,0,1,1,0-1.935H76.129a.968.968,0,0,1,0,1.935Z" transform="translate(-40.323 -403.806)"/>
      <path id="Path_101" data-name="Path 101" class="cls-1" d="M454.71,157.935h-7.742a.968.968,0,1,1,0-1.935h7.742a.968.968,0,1,1,0,1.935Z" transform="translate(-340.516 -152.129)"/>
      <path id="Path_102" data-name="Path 102" class="cls-1" d="M462.968,149.677a.968.968,0,0,1-.968-.968v-7.742a.968.968,0,0,1,1.935,0v7.742A.968.968,0,0,1,462.968,149.677Z" transform="translate(-352.645 -140)"/>
      <path id="Path_103" data-name="Path 103" class="cls-1" d="M390.71,201.935h-7.742a.968.968,0,1,1,0-1.935h7.742a.968.968,0,1,1,0,1.935Z" transform="translate(-292 -185.484)"/>
      <path id="Path_104" data-name="Path 104" class="cls-1" d="M398.968,193.677a.968.968,0,0,1-.968-.968v-7.742a.968.968,0,0,1,1.935,0v7.742A.968.968,0,0,1,398.968,193.677Z" transform="translate(-304.129 -173.355)"/>
    </g>
    <path id="Path_105" data-name="Path 105" class="cls-3" d="M259.935,349.935A1.936,1.936,0,0,0,258,348H199.935A1.936,1.936,0,0,0,198,349.935V380.9a1.936,1.936,0,0,0,1.935,1.935H258a1.936,1.936,0,0,0,1.935-1.935Z" transform="translate(-142.516 -263.806)"/>
    <path id="Path_106" data-name="Path 106" class="cls-1" d="M254.968,380.774H196.9a2.907,2.907,0,0,1-2.9-2.9V346.9a2.907,2.907,0,0,1,2.9-2.9h58.065a2.907,2.907,0,0,1,2.9,2.9v30.968A2.907,2.907,0,0,1,254.968,380.774ZM196.9,345.935a.971.971,0,0,0-.968.968v30.968a.971.971,0,0,0,.968.968h58.065a.971.971,0,0,0,.968-.968V346.9a.971.971,0,0,0-.968-.968Z" transform="translate(-139.484 -260.774)"/>
    <circle id="Ellipse_7" data-name="Ellipse 7" class="cls-4" cx="11.613" cy="11.613" r="11.613" transform="translate(74.839 90)"/>
    <g id="Group_46" data-name="Group 46" transform="translate(59.355 89.032)">
      <path id="Path_107" data-name="Path 107" class="cls-1" d="M286.581,393.169a12.581,12.581,0,1,1,12.581-12.581A12.6,12.6,0,0,1,286.581,393.169Zm0-23.226a10.645,10.645,0,1,0,10.645,10.645A10.659,10.659,0,0,0,286.581,369.943Z" transform="translate(-259.484 -368.006)"/>
      <path id="Path_108" data-name="Path 108" class="cls-1" d="M312.29,407.621h-5.323a.968.968,0,0,1,0-1.935h5.323a1.452,1.452,0,1,0,0-2.9h-2.9a3.387,3.387,0,0,1,0-6.774h4.355a.968.968,0,0,1,0,1.935h-4.355a1.452,1.452,0,0,0,0,2.9h2.9a3.387,3.387,0,1,1,0,6.774Z" transform="translate(-283.742 -389.232)"/>
      <path id="Path_109" data-name="Path 109" class="cls-1" d="M322.968,388.847a.968.968,0,0,1-.968-.968v-2.9a.968.968,0,0,1,1.935,0v2.9A.968.968,0,0,1,322.968,388.847Z" transform="translate(-295.871 -380.135)"/>
      <path id="Path_110" data-name="Path 110" class="cls-1" d="M322.968,440.847a.968.968,0,0,1-.968-.968v-2.9a.968.968,0,0,1,1.935,0v2.9A.968.968,0,0,1,322.968,440.847Z" transform="translate(-295.871 -419.554)"/>
      <path id="Path_111" data-name="Path 111" class="cls-1" d="M259.844,393.161H222.35a.965.965,0,0,1-.873-.552,12.549,12.549,0,0,0-6.857-6.343.97.97,0,0,1-.619-.9V375.8a.969.969,0,0,1,.621-.9,12.562,12.562,0,0,0,6.855-6.345.964.964,0,0,1,.873-.554h37.492a.966.966,0,0,1,.873.552,12.548,12.548,0,0,0,6.855,6.345.969.969,0,0,1,.621.9v9.561a.97.97,0,0,1-.619.9,12.569,12.569,0,0,0-6.857,6.343A.959.959,0,0,1,259.844,393.161Zm-36.9-1.935h36.3a14.466,14.466,0,0,1,7.012-6.511v-8.266a14.47,14.47,0,0,1-7.012-6.513h-36.3a14.461,14.461,0,0,1-7.012,6.513v8.266A14.466,14.466,0,0,1,222.948,391.226Z" transform="translate(-214 -368)"/>
    </g>
  </g>
</svg>
