<svg xmlns="http://www.w3.org/2000/svg" viewBox="0 0 150.404 160.251">
  <defs>
    <style>
      .cls-1 {
        fill: #263238;
      }

      .cls-2 {
        fill: #3c92ca;
      }

      .cls-3 {
        fill: #a7a9ac;
      }

      .cls-4 {
        fill: #fff;
      }
    </style>
  </defs>
  <g id="_001-wallet" data-name="001-wallet" transform="translate(-6.182 54.309) rotate(-30)">
    <g id="Group_33" data-name="Group 33" transform="translate(0 8)">
      <path id="Path_8" data-name="Path 8" class="cls-1" d="M73.091,74.909A1.091,1.091,0,0,1,72,73.818V65.091a1.091,1.091,0,0,1,2.182,0v8.727A1.091,1.091,0,0,1,73.091,74.909Z" transform="translate(-52.364 -48.727)"/>
      <path id="Path_9" data-name="Path 9" class="cls-1" d="M65.818,82.182H57.091a1.091,1.091,0,1,1,0-2.182h8.727a1.091,1.091,0,1,1,0,2.182Z" transform="translate(-40.727 -60.364)"/>
      <path id="Path_10" data-name="Path 10" class="cls-1" d="M17.091,18.909A1.091,1.091,0,0,1,16,17.818V9.091a1.091,1.091,0,1,1,2.182,0v8.727A1.091,1.091,0,0,1,17.091,18.909Z" transform="translate(-11.636 -8)"/>
      <path id="Path_11" data-name="Path 11" class="cls-1" d="M9.818,26.182H1.091a1.091,1.091,0,1,1,0-2.182H9.818a1.091,1.091,0,1,1,0,2.182Z" transform="translate(0 -19.636)"/>
    </g>
    <path id="Path_12" data-name="Path 12" class="cls-2" d="M158.119,56l4.366-4.366a2.331,2.331,0,0,0,.192-3.279l-27.77-27.768a2.331,2.331,0,0,0-3.279.192L96.408,56" transform="translate(-70.115 -8.727)"/>
    <g id="Group_34" data-name="Group 34" transform="translate(9.818 10.184)">
      <path id="Path_13" data-name="Path 13" class="cls-1" d="M155.208,54.186a1.09,1.09,0,0,1-.772-1.861L158.8,47.96a1.517,1.517,0,0,0,.458-.971,1,1,0,0,0-.266-.764L131.225,18.453a1.257,1.257,0,0,0-1.737.194L94.268,53.868a1.091,1.091,0,0,1-1.543-1.543L127.946,17.1a3.684,3.684,0,0,1,2.387-1.093,3.139,3.139,0,0,1,2.435.9l27.77,27.772a3.422,3.422,0,0,1-.192,4.82l-4.364,4.366A1.1,1.1,0,0,1,155.208,54.186Z" transform="translate(-77.023 -16.006)"/>
      <path id="Path_14" data-name="Path 14" class="cls-1" d="M66.545,410.182H61.091a1.091,1.091,0,0,1,0-2.182h5.455a1.091,1.091,0,0,1,0,2.182Z" transform="translate(-53.455 -301.093)"/>
      <path id="Path_15" data-name="Path 15" class="cls-1" d="M106.545,410.182h-5.455a1.091,1.091,0,1,1,0-2.182h5.455a1.091,1.091,0,0,1,0,2.182Z" transform="translate(-82.545 -301.093)"/>
      <path id="Path_16" data-name="Path 16" class="cls-1" d="M146.545,410.182h-5.455a1.091,1.091,0,1,1,0-2.182h5.455a1.091,1.091,0,0,1,0,2.182Z" transform="translate(-111.636 -301.093)"/>
      <path id="Path_17" data-name="Path 17" class="cls-1" d="M186.545,410.182h-5.455a1.091,1.091,0,1,1,0-2.182h5.455a1.091,1.091,0,1,1,0,2.182Z" transform="translate(-140.727 -301.093)"/>
      <path id="Path_18" data-name="Path 18" class="cls-1" d="M226.545,410.182h-5.455a1.091,1.091,0,1,1,0-2.182h5.455a1.091,1.091,0,1,1,0,2.182Z" transform="translate(-169.818 -301.093)"/>
      <path id="Path_19" data-name="Path 19" class="cls-1" d="M266.545,410.182h-5.455a1.091,1.091,0,0,1,0-2.182h5.455a1.091,1.091,0,1,1,0,2.182Z" transform="translate(-198.909 -301.093)"/>
      <path id="Path_20" data-name="Path 20" class="cls-1" d="M306.545,410.182h-5.455a1.091,1.091,0,1,1,0-2.182h5.455a1.091,1.091,0,0,1,0,2.182Z" transform="translate(-228 -301.093)"/>
      <path id="Path_21" data-name="Path 21" class="cls-1" d="M346.545,410.182h-5.455a1.091,1.091,0,1,1,0-2.182h5.455a1.091,1.091,0,0,1,0,2.182Z" transform="translate(-257.091 -301.093)"/>
      <path id="Path_22" data-name="Path 22" class="cls-1" d="M126.545,241.455h-84A6.553,6.553,0,0,1,36,234.909V170.545A6.553,6.553,0,0,1,42.545,164h84a6.553,6.553,0,0,1,6.545,6.545V188a1.091,1.091,0,1,1-2.182,0V170.545a4.368,4.368,0,0,0-4.364-4.364h-84a4.368,4.368,0,0,0-4.364,4.364v64.364a4.368,4.368,0,0,0,4.364,4.364h84a4.368,4.368,0,0,0,4.364-4.364V218.545a1.091,1.091,0,1,1,2.182,0v16.364A6.553,6.553,0,0,1,126.545,241.455Z" transform="translate(-36 -123.638)"/>
    </g>
    <path id="Path_23" data-name="Path 23" class="cls-3" d="M318.545,293.455H290.182A2.183,2.183,0,0,1,288,291.273V278.182A2.183,2.183,0,0,1,290.182,276h28.364a2.183,2.183,0,0,1,2.182,2.182v13.091A2.183,2.183,0,0,1,318.545,293.455Z" transform="translate(-209.455 -194.909)"/>
    <path id="Path_24" data-name="Path 24" class="cls-1" d="M315.636,291.636H287.273A3.277,3.277,0,0,1,284,288.364V275.273A3.277,3.277,0,0,1,287.273,272h28.364a3.277,3.277,0,0,1,3.273,3.273v13.091A3.277,3.277,0,0,1,315.636,291.636Zm-28.364-17.455a1.093,1.093,0,0,0-1.091,1.091v13.091a1.093,1.093,0,0,0,1.091,1.091h28.364a1.093,1.093,0,0,0,1.091-1.091V275.273a1.093,1.093,0,0,0-1.091-1.091Z" transform="translate(-206.545 -192)"/>
    <circle id="Ellipse_1" data-name="Ellipse 1" class="cls-4" cx="4.364" cy="4.364" r="4.364" transform="translate(82.909 85.455)"/>
    <g id="Group_35" data-name="Group 35" transform="translate(81.818 57.091)">
      <path id="Path_25" data-name="Path 25" class="cls-1" d="M305.455,298.909a5.455,5.455,0,1,1,5.455-5.455A5.461,5.461,0,0,1,305.455,298.909Zm0-8.727a3.273,3.273,0,1,0,3.273,3.273A3.277,3.277,0,0,0,305.455,290.182Z" transform="translate(-300 -260.727)"/>
      <path id="Path_26" data-name="Path 26" class="cls-1" d="M332,201.091A1.091,1.091,0,0,1,330.909,200v-8.727a1.093,1.093,0,0,0-1.091-1.091h-8.727a1.091,1.091,0,1,1,0-2.182h8.727a3.277,3.277,0,0,1,3.273,3.273V200A1.091,1.091,0,0,1,332,201.091Z" transform="translate(-314.545 -188)"/>
    </g>
    <path id="Path_27" data-name="Path 27" class="cls-4" d="M163.457,127.916a15.24,15.24,0,0,0-27.849,0" transform="translate(-98.624 -80.643)"/>
    <g id="Group_36" data-name="Group 36" transform="translate(35.889 9.091)">
      <path id="Path_28" data-name="Path 28" class="cls-1" d="M160.537,126.126a1.091,1.091,0,0,1-1-.646,14.154,14.154,0,0,0-25.859,0,1.091,1.091,0,0,1-1.992-.89,16.336,16.336,0,0,1,29.843,0,1.088,1.088,0,0,1-.55,1.44A1.077,1.077,0,0,1,160.537,126.126Z" transform="translate(-131.593 -86.853)"/>
      <path id="Path_29" data-name="Path 29" class="cls-1" d="M182.075,92.89a1.093,1.093,0,0,1-1.043-.768,16.385,16.385,0,0,1,.362-10.844L171.72,71.6a16.278,16.278,0,0,1-10.78.4l-16.008,16.01a1.091,1.091,0,0,1-1.543-1.543l16.484-16.486a1.094,1.094,0,0,1,1.137-.257,14.134,14.134,0,0,0,10.525-.408,1.091,1.091,0,0,1,1.215.227L183.456,80.25a1.094,1.094,0,0,1,.227,1.215,14.213,14.213,0,0,0-.563,10.008,1.094,1.094,0,0,1-1.045,1.416Z" transform="translate(-139.94 -53.617)"/>
      <path id="Path_30" data-name="Path 30" class="cls-1" d="M443.273,14.182h-2.182a1.091,1.091,0,1,1,0-2.182h2.182a1.091,1.091,0,1,1,0,2.182Z" transform="translate(-355.889 -12)"/>
      <path id="Path_31" data-name="Path 31" class="cls-1" d="M361.091,14.182h-24a1.091,1.091,0,1,1,0-2.182h24a1.091,1.091,0,0,1,0,2.182Z" transform="translate(-280.253 -12)"/>
      <path id="Path_32" data-name="Path 32" class="cls-1" d="M333.455,38.182H305.091a1.091,1.091,0,1,1,0-2.182h28.364a1.091,1.091,0,1,1,0,2.182Z" transform="translate(-256.98 -29.455)"/>
    </g>
  </g>
</svg>
