<svg xmlns="http://www.w3.org/2000/svg" viewBox="0 0 110.373 189">
  <defs>
    <style>
      .cls-1 {
        fill: #6b3077;
      }

      .cls-2 {
        fill: #323232;
      }

      .cls-3 {
        fill: #bbda72;
      }
    </style>
  </defs>
  <g id="Data_Science" data-name="Data Science" transform="translate(-106.5)">
    <path id="Path_19" data-name="Path 19" class="cls-1" d="M207.762,190.963H125.074A11.074,11.074,0,0,1,114,179.889V18.574A11.074,11.074,0,0,1,125.074,7.5h82.688a11.074,11.074,0,0,1,11.074,11.074V179.889A11.074,11.074,0,0,1,207.762,190.963Z" transform="translate(-4.731 -4.731)"/>
    <path id="Path_20" data-name="Path 20" class="cls-1" d="M349.074,7.5H338a11.074,11.074,0,0,1,11.074,11.074V179.889A11.074,11.074,0,0,1,338,190.963h11.074a11.074,11.074,0,0,0,11.074-11.074V18.574A11.074,11.074,0,0,0,349.074,7.5Z" transform="translate(-146.044 -4.731)"/>
    <path id="Path_21" data-name="Path 21" class="cls-2" d="M231.988,21.527h-42.82A5.168,5.168,0,0,1,184,16.359V7.5h53.156v8.859A5.168,5.168,0,0,1,231.988,21.527Z" transform="translate(-48.892 -4.731)"/>
    <path id="Path_22" data-name="Path 22" class="cls-2" d="M289.168,7.5v8.859A5.168,5.168,0,0,1,284,21.527h11.074a5.168,5.168,0,0,0,5.168-5.168V7.5Z" transform="translate(-111.978 -4.731)"/>
    <rect id="Rectangle_12" data-name="Rectangle 12" class="cls-1" width="104.836" height="11.074" transform="translate(109.269 158.177)"/>
    <rect id="Rectangle_13" data-name="Rectangle 13" class="cls-1" width="11.074" height="11.074" transform="translate(203.03 158.177)"/>
    <path id="Path_23" data-name="Path 23" class="cls-2" d="M207.762,475.48H125.074A11.074,11.074,0,0,1,114,464.406V458.5H218.836v5.906A11.074,11.074,0,0,1,207.762,475.48Z" transform="translate(-4.731 -289.249)"/>
    <path id="Path_24" data-name="Path 24" class="cls-2" d="M349.074,458.5v5.906A11.074,11.074,0,0,1,338,475.48h11.074a11.074,11.074,0,0,0,11.074-11.074V458.5Z" transform="translate(-146.044 -289.249)"/>
    <path id="Path_25" data-name="Path 25" class="cls-3" d="M242.914,224.457A18.457,18.457,0,1,1,224.457,206,18.418,18.418,0,0,1,242.914,224.457Z" transform="translate(-62.771 -129.957)"/>
    <path id="Path_26" data-name="Path 26" class="cls-3" d="M246.537,206a18.452,18.452,0,0,0-5.537.846,18.458,18.458,0,0,1,0,35.219A18.458,18.458,0,1,0,246.537,206Z" transform="translate(-84.851 -129.957)"/>
    <path id="Path_27" data-name="Path 27" d="M214.1,206.652a2.768,2.768,0,0,0-2.769,2.769v12.735h-99.3V91.019a2.769,2.769,0,0,0-5.537,0V230.831h0a13.858,13.858,0,0,0,13.843,13.843H203.03a13.858,13.858,0,0,0,13.843-13.843h0V209.42A2.768,2.768,0,0,0,214.1,206.652Zm-2.769,24.179a8.315,8.315,0,0,1-8.306,8.306H120.343a8.315,8.315,0,0,1-8.306-8.306v-3.138h99.3Z" transform="translate(0 -55.673)"/>
    <path id="Path_28" data-name="Path 28" d="M203.03,0H120.343A13.858,13.858,0,0,0,106.5,13.843v9.6a2.769,2.769,0,0,0,5.537,0v-9.6a8.315,8.315,0,0,1,8.306-8.306h12v6.091a7.946,7.946,0,0,0,7.937,7.937H183.1a7.946,7.946,0,0,0,7.937-7.937V5.537h12a8.315,8.315,0,0,1,8.306,8.306V141.658a2.769,2.769,0,0,0,5.537,0V13.843A13.858,13.858,0,0,0,203.03,0ZM185.5,11.628a2.4,2.4,0,0,1-2.4,2.4h-42.82a2.4,2.4,0,0,1-2.4-2.4V5.537H185.5Z"/>
    <path id="Path_29" data-name="Path 29" d="M231.269,479.537h14.766a2.769,2.769,0,0,0,0-5.537H231.269a2.769,2.769,0,0,0,0,5.537Z" transform="translate(-76.965 -299.027)"/>
    <path id="Path_30" data-name="Path 30" d="M213.244,184.59a2.766,2.766,0,0,0,3.454,1.844c3.33-1.012,7.758-2.784,7.758-6.469,0-1.874-.922-4.617-8.894-6.794a100.524,100.524,0,0,0-16.607-2.67,21.364,21.364,0,0,0-9.529-9.528c-.273-3.021-.61-5.877-1.01-8.487a57.346,57.346,0,0,0-2.666-11.265c-.543-1.421-2.193-5.746-5.786-5.746-1.874,0-4.617.922-6.794,8.894a100.472,100.472,0,0,0-2.67,16.607,21.361,21.361,0,0,0-9.526,9.526,100.56,100.56,0,0,0-16.606,2.67c-3.818,1.043-8.894,2.882-8.894,6.794,0,3.593,4.325,5.244,5.746,5.786a57.378,57.378,0,0,0,11.266,2.666c2.609.4,5.463.736,8.482,1.009a21.07,21.07,0,0,0,9.532,9.533,100.478,100.478,0,0,0,2.67,16.6c1.043,3.818,2.882,8.894,6.794,8.894,3.593,0,5.244-4.326,5.786-5.746a57.387,57.387,0,0,0,2.666-11.266c.4-2.609.736-5.464,1.009-8.483a21.073,21.073,0,0,0,9.533-9.53c1.947-.176,3.828-.381,5.63-.613a2.769,2.769,0,1,0-.707-5.492c-.983.127-1.993.244-3.024.353a20.955,20.955,0,0,0,0-7.429c10.249,1.085,15.3,2.708,17.271,3.711a17.955,17.955,0,0,1-3.042,1.175A2.768,2.768,0,0,0,213.244,184.59ZM179.961,141.8c.716,1.372,1.911,4.542,2.982,11.523.276,1.8.521,3.728.735,5.748a20.936,20.936,0,0,0-7.428,0C177.336,148.823,178.958,143.774,179.961,141.8Zm0,22.476a15.642,15.642,0,0,1,4.22.581c.338,4.772.518,9.894.518,15.107q0,2.362-.05,4.69-2.319.047-4.687.048c-5.216,0-10.339-.18-15.113-.518a15.7,15.7,0,0,1,15.113-19.908Zm-26.64,18.667c-6.982-1.071-10.152-2.266-11.524-2.982,1.973-1,7.023-2.626,17.271-3.711a20.958,20.958,0,0,0,0,7.427C157.051,183.465,155.126,183.219,153.325,182.944Zm14.513,6.973c3.911.211,7.994.322,12.127.322q2.271,0,4.5-.044-.115,2.488-.284,4.877a15.637,15.637,0,0,1-16.346-5.156Zm15.105,16.688c-1.071,6.982-2.266,10.151-2.982,11.524-1-1.973-2.625-7.021-3.711-17.267a21.178,21.178,0,0,0,7.427,0C183.464,202.881,183.219,204.8,182.944,206.606Zm7.2-14.7c-.073.062-.15.121-.224.182q.055-1.028.1-2.07,1.043-.046,2.07-.1A15.7,15.7,0,0,1,190.141,191.91Zm.053-7.439q.043-2.238.045-4.506c0-4.13-.111-8.209-.322-12.118a15.685,15.685,0,0,1,5.159,16.341Q192.688,184.357,190.194,184.472Z" transform="translate(-18.279 -85.465)"/>
    <path id="Path_31" data-name="Path 31" d="M206.269,24.537a2.769,2.769,0,0,0,2.769-2.769h0a2.769,2.769,0,0,0-5.537,0h0A2.769,2.769,0,0,0,206.269,24.537Z" transform="translate(-61.193 -11.986)"/>
    <path id="Path_32" data-name="Path 32" d="M224.269,24.537a2.769,2.769,0,0,0,2.769-2.769h0a2.769,2.769,0,0,0-5.537,0h0A2.769,2.769,0,0,0,224.269,24.537Z" transform="translate(-72.549 -11.986)"/>
  </g>
</svg>
