<svg xmlns="http://www.w3.org/2000/svg" viewBox="0 0 149.5 188.996">
  <defs>
    <style>
      .cls-1 {
        fill: #6b3077;
      }

      .cls-2 {
        fill: #333;
      }

      .cls-3 {
        fill: #c99700;
      }

      .cls-4 {
        fill: #f5f5f5;
      }

      .cls-5 {
        fill: #bbda72;
      }
    </style>
  </defs>
  <g id="Development" transform="translate(-53.498)">
    <path id="Path_49" data-name="Path 49" class="cls-1" d="M207.76,190.959H125.074A11.074,11.074,0,0,1,114,179.885V18.574A11.074,11.074,0,0,1,125.074,7.5H207.76a11.074,11.074,0,0,1,11.074,11.074V179.885A11.074,11.074,0,0,1,207.76,190.959Z" transform="translate(-38.169 -4.732)"/>
    <path id="Path_50" data-name="Path 50" class="cls-1" d="M349.074,7.5H338a11.074,11.074,0,0,1,11.074,11.074V179.885A11.074,11.074,0,0,1,338,190.959h11.074a11.074,11.074,0,0,0,11.074-11.074V18.574A11.074,11.074,0,0,0,349.074,7.5Z" transform="translate(-179.483 -4.732)"/>
    <path id="Path_51" data-name="Path 51" class="cls-2" d="M231.987,21.527H189.168A5.168,5.168,0,0,1,184,16.359V7.5h53.155v8.859A5.168,5.168,0,0,1,231.987,21.527Z" transform="translate(-82.329 -4.732)"/>
    <path id="Path_52" data-name="Path 52" class="cls-2" d="M289.168,7.5v8.859A5.168,5.168,0,0,1,284,21.527h11.074a5.168,5.168,0,0,0,5.168-5.168V7.5Z" transform="translate(-145.416 -4.732)"/>
    <rect id="Rectangle_18" data-name="Rectangle 18" class="cls-1" width="104.834" height="11.074" transform="translate(75.831 158.173)"/>
    <rect id="Rectangle_19" data-name="Rectangle 19" class="cls-1" width="11.074" height="11.074" transform="translate(169.591 158.173)"/>
    <path id="Path_53" data-name="Path 53" class="cls-2" d="M207.76,475.48H125.074A11.074,11.074,0,0,1,114,464.406V458.5H218.834v5.906A11.074,11.074,0,0,1,207.76,475.48Z" transform="translate(-38.169 -289.253)"/>
    <path id="Path_54" data-name="Path 54" class="cls-2" d="M349.074,458.5v5.906A11.074,11.074,0,0,1,338,475.48h11.074a11.074,11.074,0,0,0,11.074-11.074V458.5Z" transform="translate(-179.483 -289.253)"/>
    <path id="Path_55" data-name="Path 55" class="cls-3" d="M304.226,191.388,271,177.331V132.518l33.222,14.057Z" transform="translate(-137.217 -83.601)"/>
    <path id="Path_56" data-name="Path 56" class="cls-4" d="M361,191.388l33.221-14.057V132.518L361,146.575Z" transform="translate(-193.995 -83.601)"/>
    <path id="Path_57" data-name="Path 57" class="cls-4" d="M421,137.2v44.813l11.075-4.686V132.518Z" transform="translate(-231.844 -83.601)"/>
    <path id="Path_58" data-name="Path 58" class="cls-5" d="M337.443,106.955l-33.22,14.059L271,106.955,304.223,92Z" transform="translate(-137.215 -58.04)"/>
    <path id="Path_59" data-name="Path 59" class="cls-5" d="M342.624,92,331.87,96.841l32.888,14.806-22.134,9.367h0l33.22-14.059Z" transform="translate(-175.616 -58.04)"/>
    <path id="Path_60" data-name="Path 60" class="cls-3" d="M87.58,306.51,61,295.265V259.414L87.58,270.659Z" transform="translate(-4.735 -163.656)"/>
    <path id="Path_61" data-name="Path 61" class="cls-4" d="M133,306.51l26.577-11.245V259.414L133,270.659Z" transform="translate(-50.156 -163.656)"/>
    <path id="Path_62" data-name="Path 62" class="cls-4" d="M175,264.1v35.851l11.075-4.686V259.414Z" transform="translate(-76.65 -163.656)"/>
    <path id="Path_63" data-name="Path 63" class="cls-5" d="M114.155,238.964,87.579,250.211,61,238.964,87.579,227Z" transform="translate(-4.733 -143.207)"/>
    <path id="Path_64" data-name="Path 64" class="cls-5" d="M130.145,243.651l11.074-4.687L114.644,227,103.9,231.836Z" transform="translate(-31.798 -143.207)"/>
    <path id="Path_65" data-name="Path 65" d="M180.665,206.123a2.769,2.769,0,0,0-2.769,2.768V222H78.6V199.58l3.167,1.34a2.727,2.727,0,0,0,.277.1l.043.011a2.75,2.75,0,0,0,.311.069l.092.014a2.748,2.748,0,0,0,.356.026h0a2.814,2.814,0,0,0,.356-.026l.092-.014a2.775,2.775,0,0,0,.312-.069l.042-.011a2.729,2.729,0,0,0,.277-.1L110.5,189.675a2.769,2.769,0,0,0,1.69-2.55V151.274a2.774,2.774,0,0,0-.025-.364c0-.028-.011-.054-.016-.082a2.732,2.732,0,0,0-.061-.285c-.011-.042-.026-.083-.04-.124-.025-.077-.052-.153-.084-.227-.018-.044-.038-.086-.059-.128-.034-.07-.071-.138-.111-.2-.024-.041-.048-.081-.075-.12-.045-.067-.093-.131-.144-.193-.027-.034-.053-.069-.082-.1a2.734,2.734,0,0,0-.206-.207c-.02-.018-.037-.038-.058-.056a2.791,2.791,0,0,0-.28-.213l-.017-.01c-.033-.022-.07-.039-.1-.06-.075-.044-.151-.087-.229-.124-.015-.007-.028-.017-.043-.023L83.983,136.785a2.767,2.767,0,0,0-2.273,0l-3.11,1.4V90.768a2.768,2.768,0,0,0-5.537,0v49.909L55.131,148.75c-.017.008-.031.018-.048.026-.068.032-.133.069-.2.107-.045.026-.092.049-.135.078l-.01.006a2.751,2.751,0,0,0-.242.183c-.052.043-.1.09-.148.137s-.1.1-.148.148-.075.092-.111.139-.078.1-.113.152-.065.1-.1.155-.061.108-.089.163-.053.11-.077.166-.045.117-.065.176-.039.114-.055.172-.03.133-.042.2-.024.108-.031.164a2.772,2.772,0,0,0-.023.351v.013c0,.006,0,.011,0,.017s0,.008,0,.013v35.807a2.768,2.768,0,0,0,1.69,2.55l17.874,7.562V230.67h0a13.858,13.858,0,0,0,13.842,13.842h82.686a13.858,13.858,0,0,0,13.842-13.842h0V208.891A2.769,2.769,0,0,0,180.665,206.123Zm-74.011-20.832-21.04,8.9V164.356l21.04-8.9h0ZM82.846,142.346,102.5,151.2h0l-19.658,8.318L63.186,151.2ZM59.037,155.452l21.04,8.9v29.838h0l-21.04-8.9ZM177.9,230.67a8.315,8.315,0,0,1-8.305,8.306H86.905A8.315,8.315,0,0,1,78.6,230.67v-3.138h99.3Z" transform="translate(0 -55.516)"/>
    <path id="Path_66" data-name="Path 66" d="M231.268,479.537h14.765a2.768,2.768,0,1,0,0-5.537H231.268a2.768,2.768,0,0,0,0,5.537Z" transform="translate(-110.403 -299.031)"/>
    <path id="Path_67" data-name="Path 67" d="M236.409,48.551c0-.025-.01-.049-.014-.074a2.675,2.675,0,0,0-.062-.292c-.011-.041-.025-.08-.039-.121-.025-.078-.053-.155-.085-.231-.018-.043-.038-.085-.058-.126-.034-.071-.072-.14-.112-.207-.024-.04-.048-.08-.073-.119-.045-.067-.094-.131-.145-.195-.027-.034-.052-.069-.081-.1a2.738,2.738,0,0,0-.206-.207c-.02-.018-.037-.039-.058-.056a2.789,2.789,0,0,0-.28-.213l-.017-.01c-.034-.022-.071-.041-.106-.061-.074-.044-.149-.086-.226-.123-.015-.007-.028-.017-.044-.024L216.87,38.319V13.842A13.857,13.857,0,0,0,203.028,0H120.342A13.858,13.858,0,0,0,106.5,13.842v9.6a2.768,2.768,0,1,0,5.537,0v-9.6a8.315,8.315,0,0,1,8.305-8.305h12v6.091a7.945,7.945,0,0,0,7.936,7.936H183.1a7.945,7.945,0,0,0,7.936-7.936V5.537h12a8.315,8.315,0,0,1,8.305,8.305V35.826l-9.751-4.39a2.767,2.767,0,0,0-2.273,0L166.086,46.392c-.018.008-.033.019-.051.027-.063.03-.124.065-.185.1s-.1.054-.148.085l-.008,0c-.063.042-.121.09-.181.137a2.7,2.7,0,0,0-.226.2c-.043.042-.088.084-.128.129s-.081.1-.121.151-.071.092-.1.14-.069.109-.1.165-.056.1-.082.151-.056.117-.082.177-.041.108-.06.163-.042.122-.059.185-.026.12-.038.18-.027.121-.035.184a2.8,2.8,0,0,0-.022.348v.007c0,.008,0,.016,0,.023s0,.011,0,.017V93.73a2.769,2.769,0,0,0,1.69,2.55l5.73,2.424a2.769,2.769,0,0,0,2.158-5.1l-4.04-1.709v-38.8l27.684,11.714v38.8l-12.764-5.4a2.769,2.769,0,0,0-2.158,5.1l16.611,7.028a2.723,2.723,0,0,0,.277.1l.043.011a2.748,2.748,0,0,0,.311.069l.092.014a2.748,2.748,0,0,0,.356.026h0a2.814,2.814,0,0,0,.356-.026l.092-.014a2.768,2.768,0,0,0,.312-.069l.042-.011a2.764,2.764,0,0,0,.277-.1l9.81-4.151v35.377a2.768,2.768,0,0,0,5.537,0V103.843l17.874-7.563a2.769,2.769,0,0,0,1.69-2.55V48.917A2.86,2.86,0,0,0,236.409,48.551ZM185.494,11.628a2.4,2.4,0,0,1-2.4,2.4H140.276a2.4,2.4,0,0,1-2.4-2.4V5.537h47.618ZM200.446,37l26.3,11.841h0l-26.3,11.13-26.3-11.13ZM230.9,91.9h0c-.032.013.031-.014,0,0l-27.684,11.714v-38.8L230.9,53.094h0Z" transform="translate(-33.437)"/>
    <path id="Path_68" data-name="Path 68" d="M206.268,24.537a2.769,2.769,0,0,0,2.768-2.768h0a2.768,2.768,0,1,0-5.537,0h0A2.769,2.769,0,0,0,206.268,24.537Z" transform="translate(-94.631 -11.986)"/>
    <path id="Path_69" data-name="Path 69" d="M224.268,24.537a2.769,2.769,0,0,0,2.768-2.768h0a2.768,2.768,0,1,0-5.537,0h0A2.769,2.769,0,0,0,224.268,24.537Z" transform="translate(-105.987 -11.986)"/>
  </g>
</svg>
