<svg xmlns="http://www.w3.org/2000/svg" viewBox="0 0 142.119 189">
  <defs>
    <style>
      .cls-1 {
        fill: #6b3077;
      }

      .cls-2 {
        fill: #333;
      }

      .cls-3 {
        fill: #8797a3;
      }

      .cls-4 {
        fill: #81909c;
      }

      .cls-5 {
        fill: #abbfcf;
      }

      .cls-6 {
        fill: #bbda72;
      }
    </style>
  </defs>
  <g id="Platform_Engineering" data-name="Platform Engineering" transform="translate(-63.5)">
    <path id="Path_34" data-name="Path 34" class="cls-1" d="M207.762,190.963H125.074A11.074,11.074,0,0,1,114,179.889V18.574A11.074,11.074,0,0,1,125.074,7.5h82.688a11.074,11.074,0,0,1,11.074,11.074V179.889A11.074,11.074,0,0,1,207.762,190.963Z" transform="translate(-31.858 -4.731)"/>
    <path id="Path_35" data-name="Path 35" class="cls-1" d="M349.074,7.5H338a11.074,11.074,0,0,1,11.074,11.074V179.889A11.074,11.074,0,0,1,338,190.963h11.074a11.074,11.074,0,0,0,11.074-11.074V18.574A11.074,11.074,0,0,0,349.074,7.5Z" transform="translate(-173.171 -4.731)"/>
    <path id="Path_36" data-name="Path 36" class="cls-2" d="M231.988,21.527h-42.82A5.168,5.168,0,0,1,184,16.359V7.5h53.156v8.859A5.168,5.168,0,0,1,231.988,21.527Z" transform="translate(-76.019 -4.731)"/>
    <path id="Path_37" data-name="Path 37" class="cls-2" d="M289.168,7.5v8.859A5.168,5.168,0,0,1,284,21.527h11.074a5.168,5.168,0,0,0,5.168-5.168V7.5Z" transform="translate(-139.104 -4.731)"/>
    <rect id="Rectangle_14" data-name="Rectangle 14" class="cls-1" width="104.836" height="11.074" transform="translate(82.142 158.177)"/>
    <rect id="Rectangle_15" data-name="Rectangle 15" class="cls-1" width="11.074" height="11.074" transform="translate(175.903 158.177)"/>
    <path id="Path_38" data-name="Path 38" class="cls-2" d="M207.762,475.48H125.074A11.074,11.074,0,0,1,114,464.406V458.5H218.836v5.906A11.074,11.074,0,0,1,207.762,475.48Z" transform="translate(-31.858 -289.249)"/>
    <path id="Path_39" data-name="Path 39" class="cls-2" d="M349.074,458.5v5.906A11.074,11.074,0,0,1,338,475.48h11.074a11.074,11.074,0,0,0,11.074-11.074V458.5Z" transform="translate(-173.171 -289.249)"/>
    <g id="Group_2" data-name="Group 2" transform="translate(71.927 76.966)">
      <ellipse id="Ellipse_1" data-name="Ellipse 1" class="cls-3" cx="14.038" cy="13.843" rx="14.038" ry="13.843" transform="translate(18.232)"/>
      <ellipse id="Ellipse_2" data-name="Ellipse 2" class="cls-3" cx="14.038" cy="13.843" rx="14.038" ry="13.843" transform="translate(0 17.35)"/>
    </g>
    <g id="Group_3" data-name="Group 3" transform="translate(134.237 75.301)">
      <ellipse id="Ellipse_3" data-name="Ellipse 3" class="cls-4" cx="12.065" cy="11.897" rx="12.065" ry="11.897"/>
      <ellipse id="Ellipse_4" data-name="Ellipse 4" class="cls-4" cx="12.065" cy="11.897" rx="12.065" ry="11.897" transform="translate(27.294 15.508)"/>
    </g>
    <path id="Path_40" data-name="Path 40" class="cls-5" d="M207.582,261.582a11.806,11.806,0,0,1-11.824,11.79H82.82a11.79,11.79,0,1,1,5.566-22.189,13.767,13.767,0,0,1-.144-2,13.949,13.949,0,0,1,23.15-10.444c-.015-.268-.018-.537-.018-.809a19.991,19.991,0,0,1,38.654-7.1,13.325,13.325,0,0,1,23.832,11.558,10.109,10.109,0,0,1,14.416,9.116,9.91,9.91,0,0,1-.048,1,11.825,11.825,0,0,1,19.355,9.083Z" transform="translate(-4.731 -137.528)"/>
    <g id="Group_4" data-name="Group 4" transform="translate(148.711 87.105)">
      <path id="Path_41" data-name="Path 41" class="cls-3" d="M304.445,251.425q0,.354-.018.7a2.663,2.663,0,0,0,2.845,2.815q.356-.025.718-.025c4.834,0,8.614,4,9.735,8.807a1.53,1.53,0,0,0,2.226.983,11.874,11.874,0,0,1,9.171-.882,9.913,9.913,0,0,0,.048-.992,10.109,10.109,0,0,0-14.416-9.116,13.326,13.326,0,0,0-20.417-15.2A13.3,13.3,0,0,1,304.445,251.425Z" transform="translate(-294.335 -235.968)"/>
      <path id="Path_42" data-name="Path 42" class="cls-3" d="M396.107,304.121a11.767,11.767,0,0,0-7.526,2.7,11.776,11.776,0,0,1,3.274,20.877h4.253a11.79,11.79,0,1,0,0-23.58Z" transform="translate(-353.791 -278.963)"/>
    </g>
    <path id="Path_43" data-name="Path 43" class="cls-6" d="M201,117.148,221.3,95l20.3,22.148Z" transform="translate(-86.743 -59.932)"/>
    <path id="Path_44" data-name="Path 44" class="cls-6" d="M255.848,117.148,241.06,101.016,246.575,95l20.3,22.148Z" transform="translate(-112.015 -59.932)"/>
    <rect id="Rectangle_16" data-name="Rectangle 16" class="cls-6" width="22.148" height="31.746" transform="translate(123.485 57.217)"/>
    <rect id="Rectangle_17" data-name="Rectangle 17" class="cls-6" width="11.074" height="31.746" transform="translate(134.56 57.217)"/>
    <path id="Path_45" data-name="Path 45" d="M231.269,479.537h14.766a2.769,2.769,0,0,0,0-5.537H231.269a2.769,2.769,0,0,0,0,5.537Z" transform="translate(-104.092 -299.027)"/>
    <path id="Path_46" data-name="Path 46" d="M191.027,109.494c-.429,0-.856.02-1.281.058V13.843A13.858,13.858,0,0,0,175.9,0H93.216A13.858,13.858,0,0,0,79.373,13.843v9.6a2.769,2.769,0,0,0,5.537,0v-9.6a8.315,8.315,0,0,1,8.306-8.306h12v6.091a7.946,7.946,0,0,0,7.937,7.937h42.82a7.946,7.946,0,0,0,7.937-7.937V5.537h12a8.315,8.315,0,0,1,8.306,8.306V92.475a14.91,14.91,0,0,0-16.186-3.354,16.219,16.219,0,0,0-7.06-4.172A14.785,14.785,0,0,0,148.4,72.686v-12.7h6.46a2.768,2.768,0,0,0,2.041-4.639L136.6,33.2a2.768,2.768,0,0,0-4.082,0l-20.3,22.148a2.769,2.769,0,0,0,2.041,4.639h6.46V78.479a22.442,22.442,0,0,0-3.85,1.419A16.846,16.846,0,0,0,87.391,90.809c0,.268.008.534.021.8-.479-.04-.961-.062-1.446-.062-.355,0-.706.015-1.056.036V35.345a2.769,2.769,0,0,0-5.537,0V92.879a16.634,16.634,0,0,0-10.217,15.279,16.394,16.394,0,0,0,.5,4.031,14.544,14.544,0,0,0,8.435,26.423h1.285v36.545h0A13.858,13.858,0,0,0,93.216,189H175.9a13.858,13.858,0,0,0,13.843-13.843h0v-21.41a2.769,2.769,0,0,0-5.537,0v12.735H84.91v-27.87h2.43a2.769,2.769,0,0,0,0-5.537H78.088a9.022,9.022,0,1,1,0-18.043A8.948,8.948,0,0,1,82.35,116.1a2.768,2.768,0,0,0,4.044-2.843,11.059,11.059,0,0,1-.115-1.6,11.21,11.21,0,0,1,9.512-11.019,11.442,11.442,0,0,1,1.662-.121,11.166,11.166,0,0,1,6.789,2.3,2.76,2.76,0,0,0,.592.738,11.114,11.114,0,0,1,1,15.731,2.769,2.769,0,0,0,4.145,3.671,16.639,16.639,0,0,0-.566-22.676,17.195,17.195,0,0,1,11.3-15.995v4.684a2.768,2.768,0,0,0,2.769,2.769h17.983a16.818,16.818,0,0,1,.81,1.536,16.035,16.035,0,0,0,5.6,20.917,2.769,2.769,0,1,0,2.988-4.662,10.511,10.511,0,0,1-3.231-14.481,2.766,2.766,0,0,0,.33-.744,10.553,10.553,0,0,1,18.556,9.629,2.769,2.769,0,0,0,3.788,3.436,7.28,7.28,0,0,1,3.13-.7,7.386,7.386,0,0,1,6.843,4.673,7.342,7.342,0,0,1,.462,3.358,2.768,2.768,0,0,0,4.523,2.408,9.033,9.033,0,1,1,5.762,15.972h-91.9a2.769,2.769,0,0,0,0,5.537h85.087v3.045a2.769,2.769,0,0,0,5.537,0v-3.045h1.281a14.559,14.559,0,1,0,0-29.118ZM158.369,11.628a2.4,2.4,0,0,1-2.4,2.4h-42.82a2.4,2.4,0,0,1-2.4-2.4V5.537h47.619Zm25.84,160.392v3.138a8.315,8.315,0,0,1-8.306,8.306H93.216a8.315,8.315,0,0,1-8.306-8.306V172.02ZM80.852,109.76a14.655,14.655,0,0,0-6.027.1,11.03,11.03,0,0,1-.133-1.7A11.188,11.188,0,0,1,85.966,97.084a11.474,11.474,0,0,1,2.8.344A16.83,16.83,0,0,0,80.852,109.76ZM104.221,96.4a16.733,16.733,0,0,0-6.768-1.427q-.6,0-1.209.044a16.7,16.7,0,0,0-3.054-1.862,10.87,10.87,0,0,1-.263-2.35A11.186,11.186,0,0,1,104.2,79.734a11.308,11.308,0,0,1,7.915,3.19A22.485,22.485,0,0,0,104.221,96.4ZM134.56,39.166l14.009,15.282H120.55Zm-8.306,20.82h16.611V86.194H126.254ZM148.4,86.547V78.311a9.262,9.262,0,0,1,6.744,6.089A16.048,16.048,0,0,0,148.4,86.547Zm25.035,14.579q-.4,0-.793.024.017-.374.017-.751a15.954,15.954,0,0,0-1.386-6.529,9.472,9.472,0,0,1,2.32-.293,9.224,9.224,0,0,1,9.295,9.129,8.956,8.956,0,0,1-.289,2.237A12.811,12.811,0,0,0,173.437,101.126Z"/>
    <path id="Path_47" data-name="Path 47" d="M206.269,24.537a2.769,2.769,0,0,0,2.769-2.769h0a2.769,2.769,0,0,0-5.537,0h0A2.769,2.769,0,0,0,206.269,24.537Z" transform="translate(-88.32 -11.986)"/>
    <path id="Path_48" data-name="Path 48" d="M224.269,24.537a2.769,2.769,0,0,0,2.769-2.769h0a2.769,2.769,0,0,0-5.537,0h0A2.769,2.769,0,0,0,224.269,24.537Z" transform="translate(-99.676 -11.986)"/>
  </g>
</svg>
