<svg xmlns="http://www.w3.org/2000/svg" viewBox="0 0 394.44 282.291">
  <defs>
    <style>
      .cls-1, .cls-4, .cls-9 {
        fill: #53565a;
      }

      .cls-1, .cls-10, .cls-11, .cls-12, .cls-13, .cls-14, .cls-2, .cls-3, .cls-4, .cls-5, .cls-6, .cls-7, .cls-8, .cls-9 {
        fill-rule: evenodd;
      }

      .cls-2, .cls-3 {
        fill: none;
      }

      .cls-12, .cls-14, .cls-2, .cls-4, .cls-5, .cls-6, .cls-9 {
        stroke: #fff;
      }

      .cls-12, .cls-14, .cls-2, .cls-3, .cls-9 {
        stroke-linejoin: round;
        stroke-miterlimit: 10;
        stroke-width: 4px;
      }

      .cls-3 {
        stroke: #fefefe;
      }

      .cls-13, .cls-5 {
        fill: #fff;
      }

      .cls-6, .cls-7 {
        fill: #4f9edc;
      }

      .cls-8 {
        fill: #0d51a5;
      }

      .cls-10, .cls-12 {
        fill: #c99700;
      }

      .cls-11 {
        fill: #0b458b;
      }

      .cls-14 {
        fill: rgba(0,0,0,0);
      }
    </style>
  </defs>
  <g id="Group_98" data-name="Group 98" transform="translate(-1273.297 -7644.531)">
    <g id="Mexico_City_MX" data-name="Mexico City, MX" transform="translate(510 -304)">
      <path id="Path_325" data-name="Path 325" class="cls-1" d="M252.219,408.9h240.3v32.6h-240.3Z" transform="translate(513.079 7786.006)"/>
      <path id="Path_326" data-name="Path 326" class="cls-2" d="M252.219,408.9h240.3v32.6h-240.3Z" transform="translate(513.079 7786.006)"/>
      <path id="Path_327" data-name="Path 327" class="cls-1" d="M252.4,334.595H492.7v61.2H252.4Z" transform="translate(513.048 7800.626)"/>
      <path id="Path_328" data-name="Path 328" class="cls-3" d="M252.4,334.595H492.7v61.2H252.4Z" transform="translate(513.048 7800.626)"/>
      <path id="Path_329" data-name="Path 329" class="cls-1" d="M265.141,410.733H484.53v31.136H265.141Z" transform="translate(510.859 7785.646)"/>
      <path id="Path_330" data-name="Path 330" class="cls-2" d="M265.141,410.733H484.53v31.136H265.141Z" transform="translate(510.859 7785.646)"/>
      <path id="Path_331" data-name="Path 331" class="cls-1" d="M265.141,334.154H484.53v61.2H265.141Z" transform="translate(510.859 7800.713)"/>
      <path id="Path_332" data-name="Path 332" class="cls-2" d="M265.141,334.154H484.53v61.2H265.141Z" transform="translate(510.859 7800.713)"/>
      <path id="Path_333" data-name="Path 333" class="cls-1" d="M440.348,301.946h0c.524-12.391,11.734-22.264,25.554-22.5s25.448,9.233,26.509,21.6Z" transform="translate(480.765 7811.479)"/>
      <path id="Path_334" data-name="Path 334" class="cls-2" d="M440.348,301.946h0c.524-12.391,11.734-22.264,25.554-22.5s25.448,9.233,26.509,21.6Z" transform="translate(480.765 7811.479)"/>
      <path id="Path_335" data-name="Path 335" class="cls-4" d="M290.3,301.849h0c.525-12.417,11.759-22.31,25.607-22.551s25.5,9.253,26.564,21.642Z" transform="translate(506.538 7811.506)"/>
      <path id="Path_336" data-name="Path 336" class="cls-2" d="M290.3,301.849h0c.525-12.417,11.759-22.31,25.607-22.551s25.5,9.253,26.564,21.642Z" transform="translate(506.538 7811.506)"/>
      <path id="Path_337" data-name="Path 337" class="cls-1" d="M344.922,274.32c.891-21.052,19.936-37.825,43.415-38.234s43.235,15.687,45.037,36.693Z" transform="translate(497.156 7820.009)"/>
      <path id="Path_338" data-name="Path 338" class="cls-2" d="M344.922,274.32c.891-21.052,19.936-37.825,43.415-38.234s43.235,15.687,45.037,36.693Z" transform="translate(497.156 7820.009)"/>
      <path id="Path_339" data-name="Path 339" class="cls-1" d="M343.864,281.791h89.492V300.8H343.864Z" transform="translate(497.338 7811.015)"/>
      <path id="Path_340" data-name="Path 340" class="cls-2" d="M343.864,281.791h89.492V300.8H343.864Z" transform="translate(497.338 7811.015)"/>
      <path id="Path_341" data-name="Path 341" class="cls-1" d="M357.672,281.791h66.29V300.8h-66.29Z" transform="translate(494.966 7811.015)"/>
      <path id="Path_342" data-name="Path 342" class="cls-2" d="M357.672,281.791h66.29V300.8h-66.29Z" transform="translate(494.966 7811.015)"/>
      <path id="Path_343" data-name="Path 343" class="cls-1" d="M372.522,281.862h41.431v19.013H372.522Z" transform="translate(492.415 7811.001)"/>
      <path id="Path_344" data-name="Path 344" class="cls-2" d="M372.522,281.862h41.431v19.013H372.522Z" transform="translate(492.415 7811.001)"/>
      <path id="Path_345" data-name="Path 345" class="cls-1" d="M388.207,281.862h14.915v19.013H388.207Z" transform="translate(489.721 7811.001)"/>
      <path id="Path_346" data-name="Path 346" class="cls-2" d="M388.207,281.862h14.915v19.013H388.207Z" transform="translate(489.721 7811.001)"/>
      <path id="Path_347" data-name="Path 347" class="cls-1" d="M278.729,305.514H476.836v7.434H278.729Z" transform="translate(508.525 7806.348)"/>
      <path id="Path_348" data-name="Path 348" class="cls-2" d="M278.729,305.514H476.836v7.434H278.729Z" transform="translate(508.525 7806.348)"/>
      <path id="Path_349" data-name="Path 349" class="cls-1" d="M278.729,314.2H476.836V331.32H278.729Z" transform="translate(508.525 7804.639)"/>
      <path id="Path_350" data-name="Path 350" class="cls-3" d="M278.729,314.2H476.836V331.32H278.729Z" transform="translate(508.525 7804.639)"/>
      <path id="Path_351" data-name="Path 351" class="cls-5" d="M390.234,227.256h11.558v6.55H390.234Z" transform="translate(489.373 7821.745)"/>
      <path id="Path_352" data-name="Path 352" class="cls-2" d="M390.234,227.256h11.558v6.55H390.234Z" transform="translate(489.373 7821.745)"/>
      <path id="Path_353" data-name="Path 353" class="cls-5" d="M389.386,226.241l1.368-5.308H400.87l1.368,5.308Z" transform="translate(489.519 7822.989)"/>
      <path id="Path_354" data-name="Path 354" class="cls-2" d="M389.386,226.241l1.368-5.308H400.87l1.368,5.308Z" transform="translate(489.519 7822.989)"/>
      <path id="Path_355" data-name="Path 355" class="cls-6" d="M394.69,214.115h0c0-2.6,1-4.712,2.227-4.712h0c.591,0,1.157.5,1.575,1.38a8.061,8.061,0,0,1,.652,3.332h0c0,2.6-1,4.712-2.227,4.712h0C395.687,218.827,394.69,216.717,394.69,214.115Z" transform="translate(488.608 7825.257)"/>
      <path id="Path_356" data-name="Path 356" class="cls-2" d="M394.69,214.115h0c0-2.6,1-4.712,2.227-4.712h0c.591,0,1.157.5,1.575,1.38a8.061,8.061,0,0,1,.652,3.332h0c0,2.6-1,4.712-2.227,4.712h0C395.687,218.827,394.69,216.717,394.69,214.115Z" transform="translate(488.608 7825.257)"/>
      <path id="Path_357" data-name="Path 357" class="cls-5" d="M394.362,206.139h0a2.345,2.345,0,0,1,2.461-2.208h0a2.345,2.345,0,0,1,2.461,2.208h0a2.345,2.345,0,0,1-2.461,2.208h0A2.345,2.345,0,0,1,394.362,206.139Z" transform="translate(488.664 7826.334)"/>
      <path id="Path_358" data-name="Path 358" class="cls-2" d="M394.362,206.139h0a2.345,2.345,0,0,1,2.461-2.208h0a2.345,2.345,0,0,1,2.461,2.208h0a2.345,2.345,0,0,1-2.461,2.208h0A2.345,2.345,0,0,1,394.362,206.139Z" transform="translate(488.664 7826.334)"/>
      <path id="Path_359" data-name="Path 359" class="cls-6" d="M395.686,216.272l-8.752-7.852,2.606-.085,6.11,5.481,6.569-5.893,2.878-.094Z" transform="translate(489.94 7825.567)"/>
      <path id="Path_360" data-name="Path 360" class="cls-2" d="M395.686,216.272l-8.752-7.852,2.606-.085,6.11,5.481,6.569-5.893,2.878-.094Z" transform="translate(489.94 7825.567)"/>
      <path id="Path_361" data-name="Path 361" class="cls-1" d="M278.729,333.724H476.836v61.2H278.729Z" transform="translate(508.525 7800.797)"/>
      <path id="Path_362" data-name="Path 362" class="cls-2" d="M278.729,333.724H476.836v61.2H278.729Z" transform="translate(508.525 7800.797)"/>
      <path id="Path_363" data-name="Path 363" class="cls-1" d="M368.508,392.4V344.8l23.718-23.906L415.943,344.8v47.6Z" transform="translate(493.105 7803.322)"/>
      <path id="Path_364" data-name="Path 364" class="cls-2" d="M368.508,392.4V344.8l23.718-23.906L415.943,344.8v47.6Z" transform="translate(493.105 7803.322)"/>
      <path id="Path_365" data-name="Path 365" class="cls-1" d="M283.1,396.365V359.552l18.341-18.487,18.341,18.487v36.813Z" transform="translate(507.775 7799.353)"/>
      <path id="Path_366" data-name="Path 366" class="cls-2" d="M283.1,396.365V359.552l18.341-18.487,18.341,18.487v36.813Z" transform="translate(507.775 7799.353)"/>
      <path id="Path_367" data-name="Path 367" class="cls-1" d="M469.493,396.972V360.159l18.341-18.487,18.341,18.487v36.813Z" transform="translate(475.759 7799.233)"/>
      <path id="Path_368" data-name="Path 368" class="cls-2" d="M469.493,396.972V360.159l18.341-18.487,18.341,18.487v36.813Z" transform="translate(475.759 7799.233)"/>
      <path id="Path_369" data-name="Path 369" class="cls-4" d="M291.583,369.824h21.544V395.61H291.583Z" transform="translate(506.317 7793.695)"/>
      <path id="Path_370" data-name="Path 370" class="cls-2" d="M291.583,369.824h21.544V395.61H291.583Z" transform="translate(506.317 7793.695)"/>
      <path id="Path_371" data-name="Path 371" class="cls-1" d="M334.638,370.306h21.544v25.786H334.638Z" transform="translate(498.922 7793.6)"/>
      <path id="Path_372" data-name="Path 372" class="cls-2" d="M334.638,370.306h21.544v25.786H334.638Z" transform="translate(498.922 7793.6)"/>
      <path id="Path_373" data-name="Path 373" class="cls-1" d="M434.567,370.313h21.544V396.1H434.567Z" transform="translate(481.758 7793.599)"/>
      <path id="Path_374" data-name="Path 374" class="cls-2" d="M434.567,370.313h21.544V396.1H434.567Z" transform="translate(481.758 7793.599)"/>
      <path id="Path_375" data-name="Path 375" class="cls-1" d="M478.664,369.827h21.544v25.786H478.664Z" transform="translate(474.184 7793.694)"/>
      <path id="Path_376" data-name="Path 376" class="cls-2" d="M478.664,369.827h21.544v25.786H478.664Z" transform="translate(474.184 7793.694)"/>
      <path id="Path_377" data-name="Path 377" class="cls-1" d="M381.809,391.373V360.924L394.238,348.4l12.429,12.528v30.449Z" transform="translate(490.82 7797.911)"/>
      <path id="Path_378" data-name="Path 378" class="cls-2" d="M381.809,391.373V360.924L394.238,348.4l12.429,12.528v30.449Z" transform="translate(490.82 7797.911)"/>
      <path id="Path_379" data-name="Path 379" class="cls-7" d="M283.858,312.894h0a3.958,3.958,0,0,1,4.06-3.575,4,4,0,0,1,4.211,3.431Z" transform="translate(507.644 7805.599)"/>
      <path id="Path_380" data-name="Path 380" class="cls-2" d="M283.858,312.894h0a3.958,3.958,0,0,1,4.06-3.575,4,4,0,0,1,4.211,3.431Z" transform="translate(507.644 7805.599)"/>
      <path id="Path_381" data-name="Path 381" class="cls-7" d="M299.283,312.894h0a3.958,3.958,0,0,1,4.06-3.575,4,4,0,0,1,4.211,3.431Z" transform="translate(504.995 7805.599)"/>
      <path id="Path_382" data-name="Path 382" class="cls-2" d="M299.283,312.894h0a3.958,3.958,0,0,1,4.06-3.575,4,4,0,0,1,4.211,3.431Z" transform="translate(504.995 7805.599)"/>
      <path id="Path_383" data-name="Path 383" class="cls-7" d="M314.959,312.915h0a3.958,3.958,0,0,1,4.06-3.575,4,4,0,0,1,4.211,3.431Z" transform="translate(502.302 7805.595)"/>
      <path id="Path_384" data-name="Path 384" class="cls-2" d="M314.959,312.915h0a3.958,3.958,0,0,1,4.06-3.575,4,4,0,0,1,4.211,3.431Z" transform="translate(502.302 7805.595)"/>
      <path id="Path_385" data-name="Path 385" class="cls-7" d="M330.384,312.915h0a3.958,3.958,0,0,1,4.06-3.575,4,4,0,0,1,4.211,3.431Z" transform="translate(499.653 7805.595)"/>
      <path id="Path_386" data-name="Path 386" class="cls-2" d="M330.384,312.915h0a3.958,3.958,0,0,1,4.06-3.575,4,4,0,0,1,4.211,3.431Z" transform="translate(499.653 7805.595)"/>
      <path id="Path_387" data-name="Path 387" class="cls-7" d="M454.984,312.894h0a3.958,3.958,0,0,1,4.06-3.575,4,4,0,0,1,4.211,3.431Z" transform="translate(478.251 7805.599)"/>
      <path id="Path_388" data-name="Path 388" class="cls-2" d="M454.984,312.894h0a3.958,3.958,0,0,1,4.06-3.575,4,4,0,0,1,4.211,3.431Z" transform="translate(478.251 7805.599)"/>
      <path id="Path_389" data-name="Path 389" class="cls-7" d="M470.409,312.894h0a3.958,3.958,0,0,1,4.06-3.575,4,4,0,0,1,4.211,3.431Z" transform="translate(475.602 7805.599)"/>
      <path id="Path_390" data-name="Path 390" class="cls-2" d="M470.409,312.894h0a3.958,3.958,0,0,1,4.06-3.575,4,4,0,0,1,4.211,3.431Z" transform="translate(475.602 7805.599)"/>
      <path id="Path_391" data-name="Path 391" class="cls-7" d="M486.086,312.915h0a3.958,3.958,0,0,1,4.06-3.575,4,4,0,0,1,4.211,3.431Z" transform="translate(472.909 7805.595)"/>
      <path id="Path_392" data-name="Path 392" class="cls-2" d="M486.086,312.915h0a3.958,3.958,0,0,1,4.06-3.575,4,4,0,0,1,4.211,3.431Z" transform="translate(472.909 7805.595)"/>
      <path id="Path_393" data-name="Path 393" class="cls-7" d="M501.51,312.915h0a3.958,3.958,0,0,1,4.06-3.575,4,4,0,0,1,4.211,3.431Z" transform="translate(470.26 7805.595)"/>
      <path id="Path_394" data-name="Path 394" class="cls-2" d="M501.51,312.915h0a3.958,3.958,0,0,1,4.06-3.575,4,4,0,0,1,4.211,3.431Z" transform="translate(470.26 7805.595)"/>
      <path id="Path_395" data-name="Path 395" class="cls-1" d="M278.1,409.255H476.2v31.911H278.1Z" transform="translate(508.634 7785.937)"/>
      <path id="Path_396" data-name="Path 396" class="cls-2" d="M278.1,409.255H476.2v31.911H278.1Z" transform="translate(508.634 7785.937)"/>
      <path id="Path_397" data-name="Path 397" class="cls-1" d="M328.55,409.265H444.524v31.911H328.55Z" transform="translate(499.968 7785.935)"/>
      <path id="Path_398" data-name="Path 398" class="cls-2" d="M328.55,409.265H444.524v31.911H328.55Z" transform="translate(499.968 7785.935)"/>
      <path id="Path_399" data-name="Path 399" class="cls-8" d="M368.508,411h6.629v29.735h-6.629Z" transform="translate(493.105 7785.594)"/>
      <path id="Path_400" data-name="Path 400" class="cls-9" d="M368.508,411h6.629v29.735h-6.629Z" transform="translate(493.105 7785.594)"/>
      <path id="Path_401" data-name="Path 401" class="cls-8" d="M381.165,411h6.629v29.735h-6.629Z" transform="translate(490.931 7785.594)"/>
      <path id="Path_402" data-name="Path 402" class="cls-9" d="M381.165,411h6.629v29.735h-6.629Z" transform="translate(490.931 7785.594)"/>
      <path id="Path_403" data-name="Path 403" class="cls-1" d="M393.532,411.027h6.629v29.735h-6.629Z" transform="translate(488.807 7785.588)"/>
      <path id="Path_404" data-name="Path 404" class="cls-2" d="M393.532,411.027h6.629v29.735h-6.629Z" transform="translate(488.807 7785.588)"/>
      <path id="Path_405" data-name="Path 405" class="cls-1" d="M405.408,411.022h6.629v29.735h-6.629Z" transform="translate(486.767 7785.589)"/>
      <path id="Path_406" data-name="Path 406" class="cls-2" d="M405.408,411.022h6.629v29.735h-6.629Z" transform="translate(486.767 7785.589)"/>
      <path id="Path_407" data-name="Path 407" class="cls-8" d="M418.065,411.022h6.629v29.735h-6.629Z" transform="translate(484.593 7785.589)"/>
      <path id="Path_408" data-name="Path 408" class="cls-9" d="M418.065,411.022h6.629v29.735h-6.629Z" transform="translate(484.593 7785.589)"/>
      <path id="Path_409" data-name="Path 409" class="cls-1" d="M295.592,442.515V427.559l7.452-7.511,7.452,7.511v14.956Z" transform="translate(505.629 7783.813)"/>
      <path id="Path_410" data-name="Path 410" class="cls-2" d="M295.592,442.515V427.559l7.452-7.511,7.452,7.511v14.956Z" transform="translate(505.629 7783.813)"/>
      <path id="Path_411" data-name="Path 411" class="cls-1" d="M483.162,443.479V428.523l7.452-7.511,7.452,7.511v14.956Z" transform="translate(473.411 7783.624)"/>
      <path id="Path_412" data-name="Path 412" class="cls-2" d="M483.162,443.479V428.523l7.452-7.511,7.452,7.511v14.956Z" transform="translate(473.411 7783.624)"/>
      <path id="Path_413" data-name="Path 413" class="cls-1" d="M339.64,421.492H352.9v21.694H339.64Z" transform="translate(498.063 7783.529)"/>
      <path id="Path_414" data-name="Path 414" class="cls-2" d="M339.64,421.492H352.9v21.694H339.64Z" transform="translate(498.063 7783.529)"/>
      <path id="Path_415" data-name="Path 415" class="cls-1" d="M439.569,421.974h13.258v21.694H439.569Z" transform="translate(480.899 7783.434)"/>
      <path id="Path_416" data-name="Path 416" class="cls-2" d="M439.569,421.974h13.258v21.694H439.569Z" transform="translate(480.899 7783.434)"/>
      <path id="Path_417" data-name="Path 417" class="cls-10" d="M517.543,430.422H600.1v7.448H517.543Z" transform="translate(467.506 7781.772)"/>
      <path id="Path_418" data-name="Path 418" class="cls-2" d="M517.543,430.422H600.1v7.448H517.543Z" transform="translate(467.506 7781.772)"/>
      <path id="Path_419" data-name="Path 419" class="cls-10" d="M526.143,420.177h68.8v8.151h-68.8Z" transform="translate(466.029 7783.788)"/>
      <path id="Path_420" data-name="Path 420" class="cls-2" d="M526.143,420.177h68.8v8.151h-68.8Z" transform="translate(466.029 7783.788)"/>
      <path id="Path_421" data-name="Path 421" class="cls-10" d="M508.746,439.818h96.317v8.172H508.746Z" transform="translate(469.017 7779.923)"/>
      <path id="Path_422" data-name="Path 422" class="cls-2" d="M508.746,439.818h96.317v8.172H508.746Z" transform="translate(469.017 7779.923)"/>
      <path id="Path_423" data-name="Path 423" class="cls-10" d="M544.9,398.993H582.17v17.128H544.9Z" transform="translate(462.808 7787.956)"/>
      <path id="Path_424" data-name="Path 424" class="cls-2" d="M544.9,398.993H582.17v17.128H544.9Z" transform="translate(462.808 7787.956)"/>
      <path id="Path_425" data-name="Path 425" class="cls-10" d="M544.512,372.833h37.273V393.7H544.512Z" transform="translate(462.874 7793.103)"/>
      <path id="Path_426" data-name="Path 426" class="cls-2" d="M544.512,372.833h37.273V393.7H544.512Z" transform="translate(462.874 7793.103)"/>
      <path id="Path_427" data-name="Path 427" class="cls-11" d="M541.666,361.292h41.127v9.652H541.666Z" transform="translate(463.363 7795.374)"/>
      <path id="Path_428" data-name="Path 428" class="cls-12" d="M541.666,361.292h41.127v9.652H541.666Z" transform="translate(463.363 7795.374)"/>
      <path id="Path_429" data-name="Path 429" class="cls-7" d="M564.175,383.605h3.854v3.738h-3.854Z" transform="translate(459.496 7790.983)"/>
      <path id="Path_430" data-name="Path 430" class="cls-2" d="M564.175,383.605h3.854v3.738h-3.854Z" transform="translate(459.496 7790.983)"/>
      <path id="Path_431" data-name="Path 431" class="cls-10" d="M551.443,325.454h25.711V353.8H551.443Z" transform="translate(461.683 7802.424)"/>
      <path id="Path_432" data-name="Path 432" class="cls-2" d="M551.443,325.454h25.711V353.8H551.443Z" transform="translate(461.683 7802.424)"/>
      <path id="Path_433" data-name="Path 433" class="cls-8" d="M551.443,290.569h25.711V318.91H551.443Z" transform="translate(461.683 7809.288)"/>
      <path id="Path_434" data-name="Path 434" class="cls-12" d="M551.443,290.569h25.711V318.91H551.443Z" transform="translate(461.683 7809.288)"/>
      <path id="Path_435" data-name="Path 435" class="cls-10" d="M551.443,265.213h25.711v20.865H551.443Z" transform="translate(461.683 7814.277)"/>
      <path id="Path_436" data-name="Path 436" class="cls-2" d="M551.443,265.213h25.711v20.865H551.443Z" transform="translate(461.683 7814.277)"/>
      <path id="Path_437" data-name="Path 437" class="cls-10" d="M551.443,248.393h25.711v13.39H551.443Z" transform="translate(461.683 7817.586)"/>
      <path id="Path_438" data-name="Path 438" class="cls-2" d="M551.443,248.393h25.711v13.39H551.443Z" transform="translate(461.683 7817.586)"/>
      <path id="Path_439" data-name="Path 439" class="cls-10" d="M543.654,240.976h37.273v5.914H543.654Z" transform="translate(463.021 7819.045)"/>
      <path id="Path_440" data-name="Path 440" class="cls-2" d="M543.654,240.976h37.273v5.914H543.654Z" transform="translate(463.021 7819.045)"/>
      <path id="Path_441" data-name="Path 441" class="cls-10" d="M553.349,223.865h21.856v13.39H553.349Z" transform="translate(461.356 7822.412)"/>
      <path id="Path_442" data-name="Path 442" class="cls-2" d="M553.349,223.865h21.856v13.39H553.349Z" transform="translate(461.356 7822.412)"/>
      <path id="Path_443" data-name="Path 443" class="cls-7" d="M564.009,234.788h3.854v3.738h-3.854Z" transform="translate(459.525 7820.263)"/>
      <path id="Path_444" data-name="Path 444" class="cls-2" d="M564.009,234.788h3.854v3.738h-3.854Z" transform="translate(459.525 7820.263)"/>
      <path id="Path_445" data-name="Path 445" class="cls-10" d="M590.028,415.561v-16.2l8.991,16.2Z" transform="translate(455.056 7787.882)"/>
      <path id="Path_446" data-name="Path 446" class="cls-2" d="M590.028,415.561v-16.2l8.991,16.2Z" transform="translate(455.056 7787.882)"/>
      <path id="Path_447" data-name="Path 447" class="cls-10" d="M543.239,415.34V399.147l-7.868,16.193Z" transform="translate(464.444 7787.925)"/>
      <path id="Path_448" data-name="Path 448" class="cls-2" d="M543.239,415.34V399.147l-7.868,16.193Z" transform="translate(464.444 7787.925)"/>
      <path id="Path_449" data-name="Path 449" class="cls-10" d="M551.745,221.789l2.8-10.85h18.709l2.8,10.85Z" transform="translate(461.632 7824.955)"/>
      <path id="Path_450" data-name="Path 450" class="cls-2" d="M551.745,221.789l2.8-10.85h18.709l2.8,10.85Z" transform="translate(461.632 7824.955)"/>
      <path id="Path_451" data-name="Path 451" class="cls-13" d="M561.775,197h0c0-5.319,1.885-9.632,4.211-9.632h0c1.117,0,2.188,1.015,2.978,2.821A17.64,17.64,0,0,1,570.2,197h0c0,5.319-1.885,9.632-4.211,9.632h0C563.66,206.634,561.775,202.322,561.775,197Z" transform="translate(459.909 7829.592)"/>
      <path id="Path_452" data-name="Path 452" class="cls-2" d="M561.775,197h0c0-5.319,1.885-9.632,4.211-9.632h0c1.117,0,2.188,1.015,2.978,2.821A17.64,17.64,0,0,1,570.2,197h0c0,5.319-1.885,9.632-4.211,9.632h0C563.66,206.634,561.775,202.322,561.775,197Z" transform="translate(459.909 7829.592)"/>
      <path id="Path_453" data-name="Path 453" class="cls-13" d="M561.154,180.7h0a4.585,4.585,0,0,1,4.654-4.513h0a4.728,4.728,0,0,1,3.291,1.322,4.445,4.445,0,0,1,1.363,3.191h0a4.585,4.585,0,0,1-4.654,4.513h0A4.585,4.585,0,0,1,561.154,180.7Z" transform="translate(460.015 7831.793)"/>
      <path id="Path_454" data-name="Path 454" class="cls-2" d="M561.154,180.7h0a4.585,4.585,0,0,1,4.654-4.513h0a4.728,4.728,0,0,1,3.291,1.322,4.445,4.445,0,0,1,1.363,3.191h0a4.585,4.585,0,0,1-4.654,4.513h0A4.585,4.585,0,0,1,561.154,180.7Z" transform="translate(460.015 7831.793)"/>
      <path id="Path_455" data-name="Path 455" class="cls-13" d="M563.658,201.411l-16.55-16.051,4.927-.173,11.553,11.2,12.422-12.047,5.443-.191Z" transform="translate(462.428 7830.226)"/>
      <path id="Path_456" data-name="Path 456" class="cls-2" d="M563.658,201.411l-16.55-16.051,4.927-.173,11.553,11.2,12.422-12.047,5.443-.191Z" transform="translate(462.428 7830.226)"/>
      <path id="Path_457" data-name="Path 457" class="cls-1" d="M621.732,389.883h84.395v49.191H621.732Z" transform="translate(449.61 7789.748)"/>
      <path id="Path_458" data-name="Path 458" class="cls-2" d="M621.732,389.883h84.395v49.191H621.732Z" transform="translate(449.61 7789.748)"/>
      <path id="Path_459" data-name="Path 459" class="cls-1" d="M621.617,420.177h84.4v24.856h-84.4Z" transform="translate(449.63 7783.788)"/>
      <path id="Path_460" data-name="Path 460" class="cls-2" d="M621.617,420.177h84.4v24.856h-84.4Z" transform="translate(449.63 7783.788)"/>
      <path id="Path_461" data-name="Path 461" class="cls-1" d="M660.776,389.883h15.669v49.191H660.776Z" transform="translate(442.904 7789.748)"/>
      <path id="Path_462" data-name="Path 462" class="cls-2" d="M660.776,389.883h15.669v49.191H660.776Z" transform="translate(442.904 7789.748)"/>
      <path id="Path_463" data-name="Path 463" class="cls-1" d="M635.673,354.416H696.4v28.61H635.673Z" transform="translate(447.216 7796.726)"/>
      <path id="Path_464" data-name="Path 464" class="cls-2" d="M635.673,354.416H696.4v28.61H635.673Z" transform="translate(447.216 7796.726)"/>
      <path id="Path_465" data-name="Path 465" class="cls-1" d="M641.564,187.422H689.6V321.56h-48.04Z" transform="translate(446.204 7829.582)"/>
      <path id="Path_466" data-name="Path 466" class="cls-2" d="M641.564,187.422H689.6V321.56h-48.04Z" transform="translate(446.204 7829.582)"/>
      <path id="Path_467" data-name="Path 467" class="cls-1" d="M646.623,165.681h38.246V183.1H646.623Z" transform="translate(445.335 7833.86)"/>
      <path id="Path_468" data-name="Path 468" class="cls-2" d="M646.623,165.681h38.246V183.1H646.623Z" transform="translate(445.335 7833.86)"/>
      <path id="Path_469" data-name="Path 469" class="cls-1" d="M654.817,161.786l3.917-15.2H675.97l3.917,15.2Z" transform="translate(443.928 7837.616)"/>
      <path id="Path_470" data-name="Path 470" class="cls-2" d="M654.817,161.786l3.917-15.2H675.97l3.917,15.2Z" transform="translate(443.928 7837.616)"/>
      <path id="Path_471" data-name="Path 471" class="cls-8" d="M667.452,104.667h3.134V135.06h-3.134Z" transform="translate(441.757 7845.864)"/>
      <path id="Path_472" data-name="Path 472" class="cls-14" d="M667.452,104.667h3.134V135.06h-3.134Z" transform="translate(441.757 7845.864)"/>
      <path id="Path_473" data-name="Path 473" class="cls-5" d="M668.07,198.495H643v4.8H668.07Z" transform="translate(445.957 7827.403)"/>
      <path id="Path_474" data-name="Path 474" class="cls-5" d="M668.074,214.009H643v4.8h25.071Z" transform="translate(445.957 7824.351)"/>
      <path id="Path_475" data-name="Path 475" class="cls-5" d="M668.074,229.524H643v4.8h25.071Z" transform="translate(445.957 7821.299)"/>
      <path id="Path_476" data-name="Path 476" class="cls-5" d="M668.074,245.039H643v4.8h25.071Z" transform="translate(445.957 7818.246)"/>
      <path id="Path_477" data-name="Path 477" class="cls-5" d="M668.074,260.553H643v4.8h25.071Z" transform="translate(445.957 7815.194)"/>
      <path id="Path_478" data-name="Path 478" class="cls-5" d="M668.074,276.068H643v4.8h25.071Z" transform="translate(445.957 7812.141)"/>
      <path id="Path_479" data-name="Path 479" class="cls-5" d="M668.074,291.583H643v4.8h25.071Z" transform="translate(445.957 7809.088)"/>
      <path id="Path_480" data-name="Path 480" class="cls-5" d="M668.075,307.1H643v4.8h25.071Z" transform="translate(445.957 7806.036)"/>
      <path id="Path_481" data-name="Path 481" class="cls-5" d="M668.074,323.081H643v5.283h25.071Z" transform="translate(445.957 7802.891)"/>
      <path id="Path_482" data-name="Path 482" class="cls-5" d="M668.074,338.6H643v5.283h25.071Z" transform="translate(445.957 7799.839)"/>
      <path id="Path_483" data-name="Path 483" class="cls-13" d="M645.816,199.606h-3.134V315.1h3.134Z" transform="translate(446.012 7827.185)"/>
    </g>
  </g>
</svg>
