<svg xmlns="http://www.w3.org/2000/svg" viewBox="0 0 134.221 133.02">
  <defs>
    <style>
      .cls-1 {
        fill: #fff;
      }

      .cls-2 {
        fill: #00bdf2;
      }
    </style>
  </defs>
  <g id="Group_111" data-name="Group 111" transform="translate(-982 -1454)">
    <g id="_010-success" data-name="010-success" transform="translate(982 1454)">
      <g id="Group_106" data-name="Group 106" transform="translate(0 0)">
        <g id="Group_105" data-name="Group 105">
          <path id="Path_27" data-name="Path 27" class="cls-1" d="M133.948,131.9,115.294,97.94V97.5h-.248l-6.678-12.151a2.217,2.217,0,0,0-1.942-1.151H94.494L88.508,72.223l-8.686-23.89V36.607l.987-.665a27.6,27.6,0,0,0,12.315-23V4.383a2.217,2.217,0,0,0-2.217-2.217H82.039a2.217,2.217,0,0,0-2.217,2.217V14.945A9.333,9.333,0,0,1,74.7,23.3a8.812,8.812,0,0,0,.683-3.4V15.468a8.868,8.868,0,1,0-17.736,0V19.9a8.778,8.778,0,0,0,1.233,4.434h-3.45A11.1,11.1,0,0,0,44.35,35.421V50.94a2.217,2.217,0,0,0,2.217,2.217H52.16L44.571,72.123l-5.911,9.855H26.45a2.217,2.217,0,0,0-2,1.233L.231,131.985a2.217,2.217,0,0,0,2,3.2H13.312v-4.434H5.8L21.217,99.714h8.722l5.986,7.981,3.547-2.66-6.651-8.868a2.217,2.217,0,0,0-1.774-.887H23.419l4.405-8.868h8.5L33.5,92.072l3.968,1.982,4.4-8.795,5.959-9.932H85.1L91.139,87.4a2.217,2.217,0,0,0,1.984,1.226h11.99l4.877,8.868H99.775a2.217,2.217,0,0,0-1.9,1.075l-6.651,11.085,3.8,2.284,6.006-10.01h11.393l15.834,28.821H116.48l-8.2-12.315a2.217,2.217,0,0,0-1.851-.987H88.69v4.434h16.55l5.913,8.868H93.124v4.434H132a2.217,2.217,0,0,0,1.944-3.283ZM62.086,15.468a4.434,4.434,0,0,1,8.868,0V19.9a4.434,4.434,0,1,1-8.868,0ZM60.926,70.893,66.52,56.908l5.593,13.985Zm15.962,0L68.579,50.118a2.217,2.217,0,0,0-4.119,0L56.151,70.893h-6.31l7.653-19.131a2.194,2.194,0,0,0,.142-.823h.016V35.421H53.218v13.3H48.784v-13.3a6.651,6.651,0,0,1,6.651-6.651H73.171a2.216,2.216,0,0,0,.991-.233l2.452-1.226a13.746,13.746,0,0,0,7.642-12.366V6.6H88.69v6.338A23.176,23.176,0,0,1,78.35,32.26l-1.975,1.317a2.217,2.217,0,0,0-.987,1.845v13.3a2.273,2.273,0,0,0,.133.758l7.786,21.412Z" transform="translate(0 -2.166)"/>
        </g>
      </g>
      <g id="Group_108" data-name="Group 108" transform="translate(17.744 99.765)">
        <g id="Group_107" data-name="Group 107">
          <path id="Path_28" data-name="Path 28" class="cls-1" d="M134.834,392.424l-6.651-17.736a2.217,2.217,0,0,0-2.077-1.437h-5.4l-6.006-10.01a2.217,2.217,0,0,0-1.9-1.075H99.5a2.217,2.217,0,0,0-1.9,1.075L91.6,373.251H75.115a2.217,2.217,0,0,0-1.984,1.226l-8.868,17.736a2.217,2.217,0,0,0,1.984,3.208h66.51a2.217,2.217,0,0,0,2.077-3Zm-65-1.437,6.651-13.3H92.851a2.217,2.217,0,0,0,1.9-1.075l6.006-10.01h10.792l3.991,6.651h-7.17a2.217,2.217,0,0,0-1.774.887l-6.651,8.868,3.547,2.66,5.986-7.981H124.57l4.988,13.3Z" transform="translate(-64.029 -362.166)"/>
        </g>
      </g>
      <g id="Group_110" data-name="Group 110" transform="translate(59.868 84.246)">
        <g id="Group_109" data-name="Group 109">
          <path id="Path_29" data-name="Path 29" class="cls-1" d="M237.887,307.241a2.217,2.217,0,0,0-1.9-1.075H216.034V310.6h18.7l6.006,10.01,3.8-2.284Z" transform="translate(-216.034 -306.166)"/>
        </g>
      </g>
    </g>
    <g id="_010-success-2" data-name="010-success" transform="translate(1026.349 1454)">
      <g id="Group_90" data-name="Group 90" transform="translate(0 0)">
        <g id="Group_89" data-name="Group 89">
          <path id="Path_19" data-name="Path 19" class="cls-2" d="M204.192,72.223l-8.686-23.89V36.607l.987-.665a27.6,27.6,0,0,0,12.315-23V4.383a2.217,2.217,0,0,0-2.217-2.217h-8.868a2.217,2.217,0,0,0-2.217,2.217V14.945a9.333,9.333,0,0,1-5.117,8.356,8.813,8.813,0,0,0,.683-3.4V15.468a8.868,8.868,0,0,0-17.736,0V19.9a8.778,8.778,0,0,0,1.233,4.434h-3.45a11.1,11.1,0,0,0-11.085,11.085V50.94a2.217,2.217,0,0,0,2.217,2.217h5.593l-7.589,18.966C187.818,72.1,204.192,72.223,204.192,72.223ZM177.77,15.468a4.434,4.434,0,0,1,8.868,0V19.9a4.434,4.434,0,0,1-8.868,0Zm-1.159,55.425L182.2,56.908,187.8,70.893Zm15.962,0-8.309-20.776a2.217,2.217,0,0,0-4.119,0l-8.309,20.776h-6.31l7.653-19.131a2.194,2.194,0,0,0,.142-.823h.016V35.421H168.9v13.3h-4.434v-13.3a6.651,6.651,0,0,1,6.651-6.651h17.736a2.216,2.216,0,0,0,.991-.233l2.452-1.226a13.746,13.746,0,0,0,7.642-12.366V6.6h4.434v6.338a23.176,23.176,0,0,1-10.34,19.321l-1.975,1.317a2.217,2.217,0,0,0-.987,1.845v13.3a2.273,2.273,0,0,0,.133.758l7.786,21.412Z" transform="translate(-160.034 -2.166)"/>
        </g>
      </g>
    </g>
  </g>
</svg>
