<svg xmlns="http://www.w3.org/2000/svg" viewBox="0 0 200 200">
  <defs>
    <style>
      .cls-1 {
        fill: none;
      }

      .cls-2 {
        fill: #a7a9ac;
      }

      .cls-3 {
        fill: #3c92ca;
      }
    </style>
  </defs>
  <g id="Group_2" data-name="Group 2" transform="translate(-104 -65)">
    <rect id="Rectangle_50" data-name="Rectangle 50" class="cls-1" width="200" height="200" transform="translate(104 65)"/>
    <g id="handshake" transform="translate(124 27.987)">
      <g id="Group_13" data-name="Group 13" transform="translate(0 84.014)">
        <rect id="XMLID_60_" class="cls-2" width="52.892" height="21.62" transform="translate(2.971 52.996) rotate(-71.07)"/>
        <path id="Path_102" data-name="Path 102" d="M55.436,91.215l-1.989.978a10.377,10.377,0,0,1-7.957.457l-3.326-1.174a2.469,2.469,0,0,0-.587-.293L21.1,84.171A2.962,2.962,0,0,0,17.347,86L.161,136.054a2.94,2.94,0,0,0,1.826,3.75l20.447,7.011a3.39,3.39,0,0,0,.946.163,2.98,2.98,0,0,0,2.8-1.989L42.392,97.835l1.109.391a16.454,16.454,0,0,0,12.555-.717l1.989-.978a10.358,10.358,0,0,1,7.892-.489l37.6,12.946a7.7,7.7,0,0,1-2.609,4.435c-1.6,1.109-3.978,1.109-7.109.033l-16.762-5.739a2.946,2.946,0,0,0-2.348.2,3.1,3.1,0,0,0-1.467,1.859c-.033.1-2.348,8.772-9.75,12.751-4.663,2.511-10.468,2.609-17.284.293a2.949,2.949,0,0,0-1.924,5.576,34.272,34.272,0,0,0,11.022,2.022,22.7,22.7,0,0,0,10.957-2.674c6.62-3.555,10.044-9.783,11.609-13.5l13.99,4.794c4.989,1.728,9.164,1.467,12.392-.783,5.185-3.587,5.446-10.859,5.479-11.185a2.959,2.959,0,0,0-1.989-2.87L67.828,90.432A16.505,16.505,0,0,0,55.436,91.215Zm-33.85,49.046-14.87-5.087L21.945,90.726l14.87,5.087Z" transform="translate(0 -84.014)"/>
        <rect id="XMLID_142_" class="cls-3" width="52.89" height="21.619" transform="translate(137.379 60.308) rotate(-116.073)"/>
        <path id="Path_103" data-name="Path 103" d="M198.432,144.287l-7.011,6.457a89.582,89.582,0,0,1-21.295,14.544l-37.208,18.2a3.318,3.318,0,1,1-2.9-5.968l.457-.228h0l20.349-9.946a2.953,2.953,0,1,0-2.576-5.315L127.9,171.973h0L117.656,177a3.3,3.3,0,0,1-4.435-1.533,3.207,3.207,0,0,1-.163-2.511,3.287,3.287,0,0,1,1.663-1.891l7.729-3.783h0l22.11-10.827a2.953,2.953,0,0,0-2.576-5.315l-22.142,10.859h0l-.848.424L108.427,167.6a3.207,3.207,0,0,1-2.511.163,3.3,3.3,0,0,1-.359-6.1l3.652-1.794h0l7.468-3.652,2.087-1.011h0l17.153-8.413a2.953,2.953,0,0,0-2.576-5.316l-18.588,9.1-8.12,3.978a3.33,3.33,0,0,1-4.435-1.533,3.207,3.207,0,0,1-.163-2.511,3.287,3.287,0,0,1,1.663-1.891l14.186-6.946a2.953,2.953,0,1,0-2.576-5.315l-14.186,6.946a9.086,9.086,0,0,0-4.663,5.283,9.112,9.112,0,0,0,3.261,10.4,9.252,9.252,0,0,0-.978,9.685,9.086,9.086,0,0,0,5.283,4.663,9.232,9.232,0,0,0,2.935.489,8.894,8.894,0,0,0,.946,4.272,9.23,9.23,0,0,0,8.283,5.152,8.965,8.965,0,0,0,4.044-.946l2.087-1.011a9.53,9.53,0,0,0,.88,3.228,9.23,9.23,0,0,0,8.283,5.152,8.965,8.965,0,0,0,4.044-.946l37.208-18.2a95.466,95.466,0,0,0,22.7-15.49l8.316-7.663,19.044-9.327a2.95,2.95,0,0,0,1.37-3.946L200.878,86.664a2.963,2.963,0,0,0-3.946-1.37L177.5,94.784a2.951,2.951,0,0,0-1.37,3.946Zm-1.565-52.372,20.642,42.23-14.12,6.913-20.642-42.23Z" transform="translate(-64.666 -84.68)"/>
      </g>
    </g>
  </g>
</svg>
