<svg xmlns="http://www.w3.org/2000/svg" viewBox="0 0 200 200">
  <defs>
    <style>
      .cls-1 {
        fill: none;
      }

      .cls-2 {
        fill: #a7a9ac;
      }

      .cls-3 {
        fill: #3c92ca;
      }
    </style>
  </defs>
  <g id="Group_1" data-name="Group 1" transform="translate(-104 -323)">
    <rect id="Rectangle_51" data-name="Rectangle 51" class="cls-1" width="200" height="200" transform="translate(104 323)"/>
    <g id="user-2" transform="translate(77.85 348)">
      <g id="Group_1-2" data-name="Group 1" transform="translate(73.15)">
        <path id="XMLID_7410_" class="cls-2" d="M198.259,123.612h.245c22.86-.245,19.551-30.766,19.551-30.766-.95-20.378-17.988-20.225-19.673-20.163-1.685-.061-18.723-.245-19.673,20.163C178.739,92.876,175.43,123.4,198.259,123.612Z" transform="translate(-146.257 -50.404)"/>
        <path id="Path_1" data-name="Path 1" d="M125.734,0A52.532,52.532,0,0,0,87.307,88.407a3.358,3.358,0,0,0,.644.674A52.562,52.562,0,1,0,125.734,0Zm-30.7,88.131c14.28-4.658,19.305-10.327,21.052-14A22.228,22.228,0,0,0,124.968,76h.674a22.137,22.137,0,0,0,9.53-2.176c1.624,3.647,6.527,9.53,21.236,14.311a46.821,46.821,0,0,1-61.379,0ZM125.4,70.449h-.184c-4.872-.061-8.58-1.593-11.338-4.719-6.987-7.845-5.455-22.8-5.455-22.952v-.184c.735-16.241,12.748-17.5,16.425-17.5h.95c3.647,0,15.659,1.256,16.425,17.5v.184c.031.153,1.532,15.077-5.455,22.952C133.977,68.856,130.27,70.388,125.4,70.449Zm35.516,13.269c-20.286-5.884-20.96-13.085-20.96-13.146v.153h-.306a16.67,16.67,0,0,0,1.256-1.287c8.366-9.438,6.987-25.618,6.833-27.15-.8-16.793-12.319-22.768-21.971-22.768h-.981c-9.622,0-21.144,5.945-21.971,22.737-.153,1.5-1.563,17.712,6.834,27.15.521.582,1.1,1.134,1.655,1.655-.46,1.532-3.463,7.569-20.807,12.625a47.024,47.024,0,1,1,70.419.031Z" transform="translate(-73.15)"/>
        <path id="Path_2" data-name="Path 2" class="cls-3" d="M192.487,404.389A2.8,2.8,0,0,0,189.7,401.6h-77.16a2.789,2.789,0,1,0,0,5.577H189.7A2.8,2.8,0,0,0,192.487,404.389Z" transform="translate(-98.534 -278.536)"/>
        <path id="Path_3" data-name="Path 3" d="M209.637,474.089a2.8,2.8,0,0,0-2.789-2.789h-50.01a2.789,2.789,0,1,0,0,5.577h50.041A2.813,2.813,0,0,0,209.637,474.089Z" transform="translate(-129.259 -326.877)"/>
      </g>
    </g>
  </g>
</svg>
