<svg xmlns="http://www.w3.org/2000/svg" viewBox="0 0 104.856 160.027">
  <defs>
    <style>
      .cls-1 {
        fill: #3c92ca;
      }
    </style>
  </defs>
  <g id="Group_133" data-name="Group 133" transform="translate(3417 1836)">
    <g id="Group_202" data-name="Group 202" transform="translate(-3391.683 -1801.932)">
      <g id="Group_201" data-name="Group 201" transform="translate(0 0)">
        <circle id="Ellipse_19" data-name="Ellipse 19" class="cls-1" cx="14.846" cy="14.846" r="14.846"/>
        <circle id="Ellipse_20" data-name="Ellipse 20" class="cls-1" cx="14.846" cy="14.846" r="14.846" transform="translate(24.379)"/>
      </g>
      <rect id="Rectangle_67" data-name="Rectangle 67" class="cls-1" width="37.194" height="17.816" rx="8.908" transform="translate(8.439 18.441)"/>
      <path id="Path_840" data-name="Path 840" class="cls-1" d="M-5.86,2.146H16.285L5.593,10.93Z" transform="translate(21.532 33.843)"/>
    </g>
    <g id="Group_200" data-name="Group 200" transform="translate(-3417 -1836)">
      <g id="growth" transform="translate(0 0)">
        <g id="Group_168" data-name="Group 168" transform="translate(49.303)">
          <g id="Group_167" data-name="Group 167">
            <path id="Path_824" data-name="Path 824" d="M249.128,0A3.125,3.125,0,0,0,246,3.126V14.5a3.126,3.126,0,0,0,6.251,0V3.126A3.125,3.125,0,0,0,249.128,0Z" transform="translate(-246.002)"/>
          </g>
        </g>
        <g id="Group_170" data-name="Group 170" transform="translate(65.704 12.112)">
          <g id="Group_169" data-name="Group 169">
            <path id="Path_825" data-name="Path 825" d="M309.38,39.668a3.126,3.126,0,0,0-4.42,0l-5.566,5.566a3.126,3.126,0,0,0,4.42,4.42l5.566-5.566A3.126,3.126,0,0,0,309.38,39.668Z" transform="translate(-298.478 -38.753)"/>
          </g>
        </g>
        <g id="Group_172" data-name="Group 172" transform="translate(27.335 12.113)">
          <g id="Group_171" data-name="Group 171">
            <path id="Path_826" data-name="Path 826" d="M186.618,45.236l-5.566-5.566a3.126,3.126,0,0,0-4.42,4.42l5.566,5.566a3.126,3.126,0,0,0,4.42-4.42Z" transform="translate(-175.716 -38.754)"/>
          </g>
        </g>
        <g id="Group_174" data-name="Group 174" transform="translate(7.847 153.776)">
          <g id="Group_173" data-name="Group 173">
            <path id="Path_827" data-name="Path 827" d="M118.7,492.916a3.124,3.124,0,1,0,.916,2.21A3.149,3.149,0,0,0,118.7,492.916Z" transform="translate(-113.365 -492)"/>
          </g>
        </g>
        <g id="Group_176" data-name="Group 176" transform="translate(0 71.567)">
          <g id="Group_175" data-name="Group 175">
            <path id="Path_828" data-name="Path 828" d="M182.145,311.185H143.814v-4.414a10.607,10.607,0,0,0,1.792.375,11.847,11.847,0,0,0,1.412.084,13.971,13.971,0,0,0,6.927-1.928c5.824-3.362,8.238-9.714,5.5-14.461a9.075,9.075,0,0,0-6.932-4.314,13.617,13.617,0,0,0-8.34,1.844c-.121.07-.238.143-.356.215v-4.165c.908.042,1.974.071,3.172.071,8.693,0,24.178-1.565,34.363-11.562,13.762-13.506,11.834-37.314,11.466-40.816a3.125,3.125,0,0,0-2.922-2.97c-1.931-.171-25.989-1.987-40.082,11.837a38.039,38.039,0,0,0-9.124,15.076,38.045,38.045,0,0,0-9.123-15.076c-14-13.729-37.821-12.032-40.03-11.841a3.126,3.126,0,0,0-2.97,2.942c-.354,3.33-2.359,27.283,11.463,40.847,10.186,10,25.67,11.562,34.363,11.562,1.2,0,2.264-.03,3.172-.071v4.166c-.118-.072-.236-.146-.357-.216a13.612,13.612,0,0,0-8.34-1.844,8.666,8.666,0,0,0-7.2,12.475,13.61,13.61,0,0,0,5.767,6.3,13.974,13.974,0,0,0,6.927,1.928,11.821,11.821,0,0,0,1.412-.084,10.612,10.612,0,0,0,1.793-.375v4.414H111.309a3.126,3.126,0,0,0,0,6.251h70.836a3.126,3.126,0,0,0,0-6.251Zm-38.319-12.792a6.43,6.43,0,0,1,3.47-4.609,7.8,7.8,0,0,1,3.808-1.09,5.491,5.491,0,0,1,.659.039,3,3,0,0,1,2.267,1.233c.834,1.444-.28,4.231-3.21,5.923a7.45,7.45,0,0,1-4.467,1.052,3,3,0,0,1-2.267-1.233,2.1,2.1,0,0,1-.261-.911C143.828,298.663,143.829,298.529,143.826,298.394Zm33.145-29.924c-8.106,7.956-20.856,9.569-28.728,9.732l18.9-18.959h15.95A28.477,28.477,0,0,1,176.971,268.47Zm9.867-28.99a60.633,60.633,0,0,1-1.669,13.512h-11.8Zm-28.707,2.769c5.845-3.933,12.808-5.652,18.079-6.4,2.163-.305,4.188-.473,5.973-.557l-18.549,18.61,0,0-5.5,5.518Zm-6.251,5.795V265.7l-8,8.025C144.157,266.747,145.69,255.959,151.879,248.045Zm-46.711-12.191c5.271.744,12.234,2.463,18.079,6.4v17.178l-5.5-5.517,0,0L99.2,235.3C100.98,235.382,103.005,235.549,105.168,235.854ZM94.54,239.481l13.468,13.512h-11.8A60.652,60.652,0,0,1,94.54,239.481Zm9.867,28.989a28.461,28.461,0,0,1-6.119-9.226h15.95l18.906,18.969C125.282,278.058,112.539,276.453,104.406,268.47ZM129.5,265.7V248.045c6.19,7.914,7.723,18.7,8,25.679Zm7.793,34.008a3,3,0,0,1-2.267,1.233,7.961,7.961,0,0,1-7.611-4.394,2.473,2.473,0,0,1,2.2-3.813,5.508,5.508,0,0,1,.659-.039,7.8,7.8,0,0,1,3.808,1.09,6.431,6.431,0,0,1,3.47,4.609c0,.135,0,.269,0,.4A2.093,2.093,0,0,1,137.29,299.708Z" transform="translate(-88.26 -228.977)"/>
          </g>
        </g>
        <g id="Group_178" data-name="Group 178" transform="translate(11.767 115.522)">
          <g id="Group_177" data-name="Group 177">
            <path id="Path_829" data-name="Path 829" d="M125.909,369.607h0Z" transform="translate(-125.909 -369.607)"/>
          </g>
        </g>
      </g>
      <g id="Group_199" data-name="Group 199" transform="translate(22.504 31.051)">
        <g id="Group_191" data-name="Group 191" transform="translate(0 0)">
          <path id="Path_836" data-name="Path 836" d="M163.471,93.5a18.067,18.067,0,0,0-11.622,4.283A18.067,18.067,0,0,0,140.226,93.5,18.456,18.456,0,0,0,122,112.142c0,5.942,4.906,13.188,14.583,21.537A132.73,132.73,0,0,0,150.657,144.2a2.227,2.227,0,0,0,2.383,0,132.761,132.761,0,0,0,14.074-10.525c9.676-8.349,14.582-15.6,14.582-21.537A18.456,18.456,0,0,0,163.471,93.5Zm-11.622,46.164c-8.071-5.32-25.393-18.6-25.393-27.527A14,14,0,0,1,140.226,97.96a13.464,13.464,0,0,1,9.985,4.416,2.228,2.228,0,0,0,3.274,0,13.464,13.464,0,0,1,9.985-4.416,14,14,0,0,1,13.771,14.182C177.242,121.072,159.919,134.349,151.848,139.669Z" transform="translate(-122 -93.505)"/>
        </g>
      </g>
    </g>
  </g>
</svg>
