<svg xmlns="http://www.w3.org/2000/svg" viewBox="0 0 183 183">
  <defs>
    <style>
      .cls-1 {
        fill: none;
      }

      .cls-2 {
        fill: #3c92ca;
      }
    </style>
  </defs>
  <g id="Group_267" data-name="Group 267" transform="translate(3311 -1278)">
    <rect id="Rectangle_74" data-name="Rectangle 74" class="cls-1" width="183" height="183" transform="translate(-3311 1278)"/>
    <g id="Group_266" data-name="Group 266" transform="translate(801 2913.877)">
      <g id="Group_203" data-name="Group 203" transform="translate(-4052.844 -1584.331)">
        <g id="Group_201" data-name="Group 201">
          <circle id="Ellipse_19" data-name="Ellipse 19" class="cls-2" cx="17.843" cy="17.843" r="17.843"/>
          <circle id="Ellipse_20" data-name="Ellipse 20" class="cls-2" cx="17.843" cy="17.843" r="17.843" transform="translate(29.301)"/>
        </g>
        <rect id="Rectangle_67" data-name="Rectangle 67" class="cls-2" width="44.702" height="21.412" rx="10.706" transform="translate(10.143 22.163)"/>
        <path id="Path_840" data-name="Path 840" class="cls-2" d="M-5.86,2.146H20.756L7.9,12.7Z" transform="translate(24.695 41.109)"/>
      </g>
      <g id="heart" transform="translate(-4089 -1613)">
        <g id="Group_180" data-name="Group 180" transform="translate(0 14.462)">
          <g id="Group_179" data-name="Group 179">
            <path id="Path_830" data-name="Path 830" d="M50.35,156.307H47.8A32.18,32.18,0,0,0,51.51,141.3a32.482,32.482,0,0,0-6.468-19.384l-12.09-16.1a10.016,10.016,0,1,0-15.809,12.3L30.709,134.95a2.678,2.678,0,0,0,4.172-3.36L21.316,114.749a4.672,4.672,0,0,1-.866-4.149,4.659,4.659,0,0,1,8.221-1.571l12.09,16.1A27.094,27.094,0,0,1,46.154,141.3a26.855,26.855,0,0,1-4.418,14.778l-.153.232H17.562L5.83,123.677a8.01,8.01,0,0,1-.474-2.718V64.177a4.821,4.821,0,1,1,9.641,0V83.494a2.678,2.678,0,0,0,5.356,0V64.177A10.177,10.177,0,1,0,0,64.177v56.781a13.347,13.347,0,0,0,.79,4.531l11.081,30.818H8.57a2.678,2.678,0,0,0-2.678,2.678v15a2.678,2.678,0,1,0,5.356,0v-12.32H47.672v12.32a2.678,2.678,0,1,0,5.356,0v-15A2.678,2.678,0,0,0,50.35,156.307Z" transform="translate(0 -54)"/>
          </g>
        </g>
        <g id="Group_182" data-name="Group 182" transform="translate(34.459 125.583)">
          <g id="Group_181" data-name="Group 181">
            <path id="Path_831" data-name="Path 831" d="M133.169,469.61a2.678,2.678,0,0,0-3.783.178l-.021.023a2.678,2.678,0,1,0,3.961,3.605l.021-.023A2.678,2.678,0,0,0,133.169,469.61Z" transform="translate(-128.667 -468.913)"/>
          </g>
        </g>
        <g id="Group_184" data-name="Group 184" transform="translate(14.998 51.777)">
          <g id="Group_183" data-name="Group 183">
            <path id="Path_832" data-name="Path 832" d="M60.571,194.115a2.676,2.676,0,1,0,.785,1.893A2.7,2.7,0,0,0,60.571,194.115Z" transform="translate(-56 -193.33)"/>
          </g>
        </g>
        <g id="Group_186" data-name="Group 186" transform="translate(97.286 125.583)">
          <g id="Group_185" data-name="Group 185">
            <path id="Path_833" data-name="Path 833" d="M367.933,469.812l-.021-.023a2.678,2.678,0,1,0-3.961,3.6l.021.023a2.678,2.678,0,1,0,3.961-3.605Z" transform="translate(-363.253 -468.913)"/>
          </g>
        </g>
        <g id="Group_188" data-name="Group 188" transform="translate(122.792 105.569)">
          <g id="Group_187" data-name="Group 187">
            <path id="Path_834" data-name="Path 834" d="M463.061,394.965a2.676,2.676,0,1,0,.785,1.893A2.693,2.693,0,0,0,463.061,394.965Z" transform="translate(-458.49 -394.18)"/>
          </g>
        </g>
        <g id="Group_190" data-name="Group 190" transform="translate(84.095 14.462)">
          <g id="Group_189" data-name="Group 189">
            <path id="Path_835" data-name="Path 835" d="M356.851,54a10.189,10.189,0,0,0-10.177,10.177v38.742a10.115,10.115,0,0,0-2.71-.929,9.946,9.946,0,0,0-9.889,3.823l-12.09,16.1a32.269,32.269,0,0,0-2.762,34.394h-2.545A2.678,2.678,0,0,0,314,158.985v15a2.678,2.678,0,1,0,5.356,0v-12.32H355.78v12.32a2.678,2.678,0,1,0,5.356,0v-15a2.678,2.678,0,0,0-2.678-2.678H325.444l-.152-.232a26.927,26.927,0,0,1,.977-30.946l12.09-16.1a4.659,4.659,0,0,1,8.221,1.571c.039.145.07.292.1.439v.675a2.668,2.668,0,0,0,.05.513,4.667,4.667,0,0,1-1.012,2.522L332.148,131.59a2.678,2.678,0,0,0,4.172,3.36l13.565-16.841a10.046,10.046,0,0,0,2.146-7.413V64.177a4.821,4.821,0,1,1,9.641,0v56.781a8.008,8.008,0,0,1-.474,2.718l-5.124,14.249a2.678,2.678,0,1,0,5.04,1.813l5.124-14.249a13.351,13.351,0,0,0,.79-4.531V64.177A10.189,10.189,0,0,0,356.851,54Z" transform="translate(-314 -54)"/>
          </g>
        </g>
        <g id="Group_192" data-name="Group 192" transform="translate(32.674 25.042)">
          <g id="Group_191" data-name="Group 191">
            <path id="Path_836" data-name="Path 836" d="M171.861,93.505a21.722,21.722,0,0,0-13.974,5.15,21.722,21.722,0,0,0-13.974-5.15A22.19,22.19,0,0,0,122,115.913c0,7.144,5.9,15.856,17.533,25.895a159.581,159.581,0,0,0,16.922,12.654,2.678,2.678,0,0,0,2.865,0,159.613,159.613,0,0,0,16.922-12.654c11.634-10.038,17.533-18.751,17.533-25.895A22.19,22.19,0,0,0,171.861,93.505Zm-13.974,55.5c-9.7-6.4-30.531-22.36-30.531-33.1a16.829,16.829,0,0,1,16.558-17.052,16.188,16.188,0,0,1,12.005,5.31,2.678,2.678,0,0,0,3.937,0,16.188,16.188,0,0,1,12.005-5.31,16.829,16.829,0,0,1,16.558,17.052C188.419,126.65,167.592,142.613,157.888,149.01Z" transform="translate(-122 -93.505)"/>
          </g>
        </g>
        <g id="Group_194" data-name="Group 194" transform="translate(65.883)">
          <g id="Group_193" data-name="Group 193">
            <path id="Path_837" data-name="Path 837" d="M248.678,0A2.678,2.678,0,0,0,246,2.678v9.308a2.678,2.678,0,0,0,5.356,0V2.678A2.678,2.678,0,0,0,248.678,0Z" transform="translate(-246)"/>
          </g>
        </g>
        <g id="Group_196" data-name="Group 196" transform="translate(79.301 9.909)">
          <g id="Group_195" data-name="Group 195">
            <path id="Path_838" data-name="Path 838" d="M305.225,37.785a2.679,2.679,0,0,0-3.788,0l-4.553,4.553a2.678,2.678,0,0,0,3.788,3.787l4.553-4.553A2.678,2.678,0,0,0,305.225,37.785Z" transform="translate(-296.099 -37)"/>
          </g>
        </g>
        <g id="Group_198" data-name="Group 198" transform="translate(47.912 9.909)">
          <g id="Group_197" data-name="Group 197">
            <path id="Path_839" data-name="Path 839" d="M188.024,42.338l-4.553-4.553a2.678,2.678,0,0,0-3.788,3.787l4.553,4.553a2.678,2.678,0,0,0,3.788-3.787Z" transform="translate(-178.898 -37)"/>
          </g>
        </g>
      </g>
    </g>
  </g>
</svg>
