<svg xmlns="http://www.w3.org/2000/svg" viewBox="0 0 200 200">
  <defs>
    <style>
      .cls-1 {
        fill: none;
      }

      .cls-2 {
        fill: #3c92ca;
      }

      .cls-3 {
        fill: #333;
      }

      .cls-4 {
        fill: #bbda72;
      }
    </style>
  </defs>
  <g id="Group_41" data-name="Group 41" transform="translate(-552 -329)">
    <rect id="Rectangle_55" data-name="Rectangle 55" class="cls-1" width="200" height="200" transform="translate(552 329)"/>
    <g id="_010-smartphone-40" data-name="010-smartphone-40" transform="translate(490.5 335)">
      <path id="Path_4" data-name="Path 4" class="cls-2" d="M207.762,190.963H125.074A11.074,11.074,0,0,1,114,179.889V18.574A11.074,11.074,0,0,1,125.074,7.5h82.688a11.074,11.074,0,0,1,11.074,11.074V179.889A11.074,11.074,0,0,1,207.762,190.963Z" transform="translate(-4.731 -4.731)"/>
      <path id="Path_5" data-name="Path 5" class="cls-2" d="M349.074,7.5H338a11.074,11.074,0,0,1,11.074,11.074V179.889A11.074,11.074,0,0,1,338,190.963h11.074a11.074,11.074,0,0,0,11.074-11.074V18.574A11.074,11.074,0,0,0,349.074,7.5Z" transform="translate(-146.044 -4.731)"/>
      <path id="Path_6" data-name="Path 6" class="cls-3" d="M231.988,21.527h-42.82A5.168,5.168,0,0,1,184,16.359V7.5h53.156v8.859A5.168,5.168,0,0,1,231.988,21.527Z" transform="translate(-48.892 -4.731)"/>
      <path id="Path_7" data-name="Path 7" class="cls-3" d="M289.168,7.5v8.859A5.168,5.168,0,0,1,284,21.527h11.074a5.168,5.168,0,0,0,5.168-5.168V7.5Z" transform="translate(-111.978 -4.731)"/>
      <path id="Path_70" data-name="Path 70" class="cls-2" d="M0,0H104.836V11.074H0Z" transform="translate(109.269 158.177)"/>
      <rect id="Rectangle_11" data-name="Rectangle 11" class="cls-2" width="11.074" height="11.074" transform="translate(203.03 158.177)"/>
      <path id="Path_8" data-name="Path 8" class="cls-3" d="M207.762,475.48H125.074A11.074,11.074,0,0,1,114,464.406V458.5H218.836v5.906A11.074,11.074,0,0,1,207.762,475.48Z" transform="translate(-4.731 -289.249)"/>
      <path id="Path_9" data-name="Path 9" class="cls-3" d="M349.074,458.5v5.906A11.074,11.074,0,0,1,338,475.48h11.074a11.074,11.074,0,0,0,11.074-11.074V458.5Z" transform="translate(-146.044 -289.249)"/>
      <path id="Path_10" data-name="Path 10" class="cls-4" d="M233.586,245.465H177.477A1.477,1.477,0,0,1,176,243.988V197.477A1.477,1.477,0,0,1,177.477,196h56.109a1.477,1.477,0,0,1,1.477,1.477v46.512A1.477,1.477,0,0,1,233.586,245.465Z" transform="translate(-43.845 -123.648)"/>
      <path id="Path_11" data-name="Path 11" class="cls-4" d="M313.074,196H302a1.477,1.477,0,0,1,1.477,1.477v46.512A1.477,1.477,0,0,1,302,245.465h11.074a1.477,1.477,0,0,0,1.477-1.477V197.477A1.477,1.477,0,0,0,313.074,196Z" transform="translate(-123.333 -123.648)"/>
      <path id="Path_33" data-name="Path 33" class="cls-3" d="M7.383,0a7.414,7.414,0,0,1,7.285,6.178,7.1,7.1,0,0,1,.1,1.2A7.383,7.383,0,1,1,7.383,0Z" transform="translate(154.304 82.769)"/>
      <path id="Path_12" data-name="Path 12" d="M214.1,206.652a2.768,2.768,0,0,0-2.769,2.769v12.735h-99.3V91.019a2.769,2.769,0,0,0-5.537,0V230.831h0a13.858,13.858,0,0,0,13.843,13.843H203.03a13.858,13.858,0,0,0,13.843-13.843h0V209.42A2.768,2.768,0,0,0,214.1,206.652Zm-2.769,24.179a8.315,8.315,0,0,1-8.306,8.306H120.343a8.315,8.315,0,0,1-8.306-8.306v-3.138h99.3Z" transform="translate(0 -55.673)"/>
      <path id="Path_13" data-name="Path 13" d="M203.03,0H120.343A13.858,13.858,0,0,0,106.5,13.843v9.6a2.769,2.769,0,0,0,5.537,0v-9.6a8.315,8.315,0,0,1,8.306-8.306h12v6.091a7.946,7.946,0,0,0,7.937,7.937H183.1a7.946,7.946,0,0,0,7.937-7.937V5.537h12a8.315,8.315,0,0,1,8.306,8.306V141.658a2.769,2.769,0,0,0,5.537,0V13.843A13.858,13.858,0,0,0,203.03,0ZM185.5,11.628a2.4,2.4,0,0,1-2.4,2.4h-42.82a2.4,2.4,0,0,1-2.4-2.4V5.537H185.5Z"/>
      <path id="Path_14" data-name="Path 14" d="M231.269,479.537h14.766a2.769,2.769,0,0,0,0-5.537H231.269a2.769,2.769,0,0,0,0,5.537Z" transform="translate(-76.965 -299.027)"/>
      <path id="Path_15" data-name="Path 15" d="M200.8,118.5a24.945,24.945,0,0,0-24.917,24.917v.923h-3.138a4.25,4.25,0,0,0-4.245,4.245V195.1a4.25,4.25,0,0,0,4.245,4.245h4.491a2.769,2.769,0,0,0,0-5.537h-3.2V149.877h53.525V193.8H189.11a2.769,2.769,0,0,0,0,5.537h39.744A4.25,4.25,0,0,0,233.1,195.1V148.585a4.25,4.25,0,0,0-4.245-4.245h-3.138v-.923A24.945,24.945,0,0,0,200.8,118.5Zm-19.38,24.917a19.38,19.38,0,1,1,38.76,0v.923H181.42Z" transform="translate(-39.113 -74.757)"/>
      <path id="Path_16" data-name="Path 16" d="M238.651,248.954a2.768,2.768,0,0,0,2.769-2.769v-9.554a10.151,10.151,0,1,0-5.537,0v9.554A2.769,2.769,0,0,0,238.651,248.954Zm-4.614-22.087a4.614,4.614,0,1,1,4.614,4.614A4.619,4.619,0,0,1,234.037,226.867Z" transform="translate(-76.965 -136.717)"/>
      <path id="Path_17" data-name="Path 17" d="M206.269,24.537a2.769,2.769,0,0,0,2.769-2.769h0a2.769,2.769,0,0,0-5.537,0h0A2.769,2.769,0,0,0,206.269,24.537Z" transform="translate(-61.193 -11.986)"/>
      <path id="Path_18" data-name="Path 18" d="M224.269,24.537a2.769,2.769,0,0,0,2.769-2.769h0a2.769,2.769,0,0,0-5.537,0h0A2.769,2.769,0,0,0,224.269,24.537Z" transform="translate(-72.549 -11.986)"/>
    </g>
  </g>
</svg>
