<svg xmlns="http://www.w3.org/2000/svg" viewBox="0 0 200 200">
  <defs>
    <style>
      .cls-1 {
        fill: none;
      }

      .cls-2 {
        fill: #3c92ca;
      }

      .cls-3 {
        fill: #323232;
      }

      .cls-4 {
        fill: #bbda72;
      }

      .cls-5 {
        fill: #ccc;
      }

      .cls-6 {
        fill: #e0e0e0;
      }

      .cls-7 {
        fill: #f0f0f0;
      }

      .cls-8 {
        fill: #ededed;
      }
    </style>
  </defs>
  <g id="Group_43" data-name="Group 43" transform="translate(-1051 -570)">
    <rect id="Rectangle_59" data-name="Rectangle 59" class="cls-1" width="200" height="200" transform="translate(1051 570)"/>
    <g id="_043-smartphone-7" data-name="043-smartphone-7" transform="translate(1000.5 576)">
      <path id="Path_71" data-name="Path 71" class="cls-2" d="M207.762,190.963H125.074A11.074,11.074,0,0,1,114,179.889V18.574A11.074,11.074,0,0,1,125.074,7.5h82.688a11.074,11.074,0,0,1,11.074,11.074V179.889A11.074,11.074,0,0,1,207.762,190.963Z" transform="translate(-16.087 -4.731)"/>
      <path id="Path_72" data-name="Path 72" class="cls-2" d="M349.074,7.5H338a11.074,11.074,0,0,1,11.074,11.074V179.889A11.074,11.074,0,0,1,338,190.963h11.074a11.074,11.074,0,0,0,11.074-11.074V18.574A11.074,11.074,0,0,0,349.074,7.5Z" transform="translate(-157.399 -4.731)"/>
      <path id="Path_73" data-name="Path 73" class="cls-3" d="M231.988,21.527h-42.82A5.168,5.168,0,0,1,184,16.359V7.5h53.156v8.859A5.168,5.168,0,0,1,231.988,21.527Z" transform="translate(-60.247 -4.731)"/>
      <path id="Path_74" data-name="Path 74" class="cls-3" d="M289.168,7.5v8.859A5.168,5.168,0,0,1,284,21.527h11.074a5.168,5.168,0,0,0,5.168-5.168V7.5Z" transform="translate(-123.333 -4.731)"/>
      <rect id="Rectangle_20" data-name="Rectangle 20" class="cls-2" width="104.836" height="11.074" transform="translate(97.913 158.177)"/>
      <rect id="Rectangle_21" data-name="Rectangle 21" class="cls-2" width="11.074" height="11.074" transform="translate(191.675 158.177)"/>
      <path id="Path_75" data-name="Path 75" class="cls-3" d="M207.762,475.48H125.074A11.074,11.074,0,0,1,114,464.406V458.5H218.836v5.906A11.074,11.074,0,0,1,207.762,475.48Z" transform="translate(-16.087 -289.249)"/>
      <path id="Path_76" data-name="Path 76" class="cls-3" d="M349.074,458.5v5.906A11.074,11.074,0,0,1,338,475.48h11.074a11.074,11.074,0,0,0,11.074-11.074V458.5Z" transform="translate(-157.399 -289.249)"/>
      <path id="Path_77" data-name="Path 77" class="cls-4" d="M214.125,330v11.074H164.74a1.681,1.681,0,0,1-1.607-1.2,8.418,8.418,0,0,0-16.14,0,1.681,1.681,0,0,1-1.607,1.2H96V330Z" transform="translate(-4.731 -208.184)"/>
      <rect id="Rectangle_22" data-name="Rectangle 22" class="cls-4" width="11.074" height="11.074" transform="translate(198.319 121.816)"/>
      <g id="Group_5" data-name="Group 5" transform="translate(91.269 56.597)">
        <rect id="Rectangle_23" data-name="Rectangle 23" class="cls-5" width="59.063" height="65.22"/>
        <rect id="Rectangle_24" data-name="Rectangle 24" class="cls-5" width="59.063" height="65.22" transform="translate(59.063)"/>
      </g>
      <g id="Group_6" data-name="Group 6" transform="translate(99.707 49.677)">
        <path id="Path_78" data-name="Path 78" class="cls-6" d="M169.484,141.494l-50.625-6.918V199.8l50.625,6.917Z" transform="translate(-118.859 -134.576)"/>
        <path id="Path_79" data-name="Path 79" class="cls-6" d="M256,141.494l50.625-6.918V199.8L256,206.715Z" transform="translate(-205.377 -134.576)"/>
      </g>
      <path id="Path_80" data-name="Path 80" class="cls-7" d="M183.9,189.949l-42.188-16.728V108L183.9,124.728Z" transform="translate(-33.572 -68.133)"/>
      <path id="Path_81" data-name="Path 81" class="cls-8" d="M256,189.949l42.188-16.728V108L256,124.728Z" transform="translate(-105.67 -68.133)"/>
      <path id="Path_82" data-name="Path 82" d="M209.394,53.828h-3.876V13.843A13.858,13.858,0,0,0,191.675,0H108.987A13.858,13.858,0,0,0,95.145,13.843v9.6a2.769,2.769,0,0,0,5.537,0v-9.6a8.315,8.315,0,0,1,8.306-8.306h12v6.091a7.946,7.946,0,0,0,7.937,7.937h42.82a7.946,7.946,0,0,0,7.937-7.937V5.537h12a8.315,8.315,0,0,1,8.306,8.306V47.018l-4.693.64V39.867a2.769,2.769,0,0,0-3.789-2.574L150.332,53.617,109.165,37.294a2.769,2.769,0,0,0-3.789,2.574v7.791l-4.694-.641V35.345a2.769,2.769,0,0,0-5.537,0V53.828H91.269A2.769,2.769,0,0,0,88.5,56.6v76.294h0a2.769,2.769,0,0,0,2.769,2.769h3.876v39.5A13.858,13.858,0,0,0,108.987,189h82.688a13.858,13.858,0,0,0,13.843-13.843v-21.41h0a2.769,2.769,0,0,0-5.537,0v12.735h-99.3V135.659h2.276a2.769,2.769,0,0,0,0-5.537H94.037v-5.537h50.378a11.205,11.205,0,0,0-4.541,5.537H114.955a2.769,2.769,0,0,0,0,5.537h25.7a4.425,4.425,0,0,0,4.257-3.162,5.65,5.65,0,0,1,10.841,0,4.425,4.425,0,0,0,4.257,3.163H199.98v6a2.769,2.769,0,0,0,5.537,0v-6h3.876a2.768,2.768,0,0,0,2.769-2.769h0V56.6A2.768,2.768,0,0,0,209.394,53.828Zm-35.253-42.2a2.4,2.4,0,0,1-2.4,2.4h-42.82a2.4,2.4,0,0,1-2.4-2.4V5.537h47.619ZM199.98,172.02v3.138a8.315,8.315,0,0,1-8.306,8.306H108.987a8.315,8.315,0,0,1-8.306-8.306V172.02Zm6.645-52.972H191.043l10.291-1.406a2.768,2.768,0,0,0,2.394-2.743V59.365h2.9v59.683Zm-8.435-66.2v59.632l-25.644,3.5,20.994-8.324a2.769,2.769,0,0,0,1.748-2.574V53.247Zm-8.439,50.357L153.1,117.74V58.476l36.65-14.532ZM147.563,58.475V117.74l-36.65-14.532V43.944Zm-45.087-5.624,2.9.4v51.842a2.769,2.769,0,0,0,1.748,2.574l20.994,8.324-25.642-3.5V52.851Zm-8.439,6.514h2.9V114.9a2.769,2.769,0,0,0,2.394,2.743l10.29,1.406H94.037Zm112.588,70.757H160.788a11.2,11.2,0,0,0-4.541-5.537h50.378Z"/>
      <path id="Path_83" data-name="Path 83" d="M206.269,24.537a2.769,2.769,0,0,0,2.769-2.769h0a2.769,2.769,0,0,0-5.537,0h0A2.769,2.769,0,0,0,206.269,24.537Z" transform="translate(-72.549 -11.986)"/>
      <path id="Path_84" data-name="Path 84" d="M224.269,24.537a2.769,2.769,0,0,0,2.769-2.769h0a2.769,2.769,0,0,0-5.537,0h0A2.769,2.769,0,0,0,224.269,24.537Z" transform="translate(-83.904 -11.986)"/>
      <path id="Path_85" data-name="Path 85" d="M231.269,479.537h14.766a2.769,2.769,0,0,0,0-5.537H231.269a2.769,2.769,0,0,0,0,5.537Z" transform="translate(-88.32 -299.027)"/>
    </g>
  </g>
</svg>
