<?xml version="1.0" encoding="utf-8"?>
<!-- Generator: Adobe Illustrator 22.1.0, SVG Export Plug-In . SVG Version: 6.00 Build 0)  -->
<svg version="1.1" id="Capa_1" xmlns="http://www.w3.org/2000/svg" xmlns:xlink="http://www.w3.org/1999/xlink" x="0px" y="0px"
	 viewBox="0 0 200 200" style="enable-background:new 0 0 200 200;" xml:space="preserve">
<style type="text/css">
	.st0{fill:none;}
	.st1{fill:#007377;}
	.st2{fill:#323232;}
	.st3{fill:#BBDA72;}
</style>
<g id="Group_45" transform="translate(-1051 -71)">
	<rect id="Rectangle_57" x="1051" y="71" class="st0" width="200" height="200"/>
	<g id="_018-smartphone-32" transform="translate(989.5 77)">
		<path id="Path_19" class="st1" d="M203,186.2h-82.7c-6.1,0-11.1-5-11.1-11.1V13.8c0-6.1,5-11.1,11.1-11.1H203
			c6.1,0,11.1,5,11.1,11.1l0,0v161.3C214.1,181.3,209.1,186.2,203,186.2z"/>
		<path id="Path_20" class="st1" d="M203,2.8h-11c6.1,0,11.1,5,11.1,11.1l0,0v161.3c0,6.1-5,11.1-11.1,11.1h11
			c6.1,0,11.1-5,11.1-11.1l0,0V13.8C214.1,7.7,209.1,2.8,203,2.8L203,2.8z"/>
		<path id="Path_21" class="st2" d="M183.1,16.8h-42.8c-2.9,0-5.2-2.3-5.2-5.2V2.8h53.2v8.9C188.3,14.5,186,16.8,183.1,16.8z"/>
		<path id="Path_22" class="st2" d="M177.2,2.8v8.9c0,2.9-2.3,5.2-5.2,5.2h11.1c2.9,0,5.2-2.3,5.2-5.2V2.8H177.2z"/>
		<rect id="Rectangle_12" x="109.3" y="158.2" class="st1" width="104.8" height="11.1"/>
		<rect id="Rectangle_13" x="203" y="158.2" class="st1" width="11.1" height="11.1"/>
		<path id="Path_23" class="st2" d="M203,186.2h-82.7c-6.1,0-11.1-5-11.1-11.1l0,0v-5.9H214v5.9C214.1,181.3,209.1,186.2,203,186.2
			L203,186.2z"/>
		<path id="Path_24" class="st2" d="M203,169.3v5.9c0,6.1-5,11.1-11.1,11.1l0,0H203c6.1,0,11.1-5,11.1-11.1l0,0v-5.9H203z"/>
		<path id="Path_25" class="st3" d="M180.1,94.5c0,10.2-8.3,18.5-18.5,18.5s-18.5-8.3-18.5-18.5S151.4,76,161.6,76l0,0
			C171.9,76,180.1,84.2,180.1,94.5C180.1,94.4,180.1,94.5,180.1,94.5z"/>
		<path id="Path_26" class="st3" d="M161.7,76c-1.9,0-3.7,0.3-5.5,0.8c9.7,3.1,15.1,13.4,12.1,23.1c-1.8,5.8-6.3,10.3-12.1,12.1
			c9.7,3.1,20.1-2.3,23.1-12.1s-2.3-19.9-12.1-23C165.4,76.3,163.6,76,161.7,76z"/>
		<path id="Path_27" d="M214.1,151c-1.5,0-2.8,1.2-2.8,2.8l0,0v12.7H112V35.3c0-1.5-1.3-2.7-2.8-2.7s-2.7,1.2-2.7,2.7v139.8l0,0
			c0,7.6,6.2,13.8,13.8,13.8H203c7.6,0,13.8-6.2,13.8-13.8l0,0v-21.4C216.9,152.2,215.6,151,214.1,151L214.1,151z M211.3,175.2
			c0,4.6-3.7,8.3-8.3,8.3h-82.7c-4.6,0-8.3-3.7-8.3-8.3V172h99.3V175.2z"/>
		<path id="Path_28" d="M203,0h-82.7c-7.6,0-13.8,6.2-13.8,13.8v9.6c0,1.5,1.3,2.7,2.8,2.7s2.7-1.2,2.7-2.7v-9.6
			c0-4.6,3.7-8.3,8.3-8.3h12v6.1c0,4.4,3.6,7.9,7.9,7.9H183c4.4,0,7.9-3.6,7.9-7.9V5.5h12c4.6,0,8.3,3.7,8.3,8.3v127.8
			c0,1.5,1.3,2.7,2.8,2.7s2.7-1.2,2.7-2.7V13.8C216.9,6.2,210.7,0,203,0z M185.5,11.6c0,1.3-1.1,2.4-2.4,2.4h-42.8
			c-1.3,0-2.4-1.1-2.4-2.4V5.5h47.6V11.6z"/>
		<path id="Path_29" d="M154.3,180.5h14.8c1.5,0,2.7-1.3,2.7-2.8s-1.2-2.7-2.7-2.7h-14.8c-1.5,0-2.7,1.3-2.7,2.8
			S152.8,180.5,154.3,180.5z"/>
		<path id="Path_30" d="M195,99.1c0.4,1.5,2,2.3,3.4,1.8l0,0c3.3-1,7.8-2.8,7.8-6.5c0-1.9-0.9-4.6-8.9-6.8c-5.5-1.4-11-2.2-16.6-2.7
			c-2.1-4.1-5.4-7.5-9.5-9.5c-0.3-3-0.6-5.9-1-8.5c-0.5-3.8-1.4-7.6-2.7-11.3c-0.5-1.4-2.2-5.7-5.8-5.7c-1.9,0-4.6,0.9-6.8,8.9
			c-1.4,5.5-2.2,11-2.7,16.6c-4.1,2.1-7.5,5.4-9.5,9.5c-5.6,0.4-11.2,1.3-16.6,2.7c-3.8,1-8.9,2.9-8.9,6.8c0,3.6,4.3,5.2,5.7,5.8
			c3.7,1.3,7.4,2.2,11.3,2.7c2.6,0.4,5.5,0.7,8.5,1c2,4.1,5.4,7.5,9.5,9.5c0.4,5.6,1.3,11.2,2.7,16.6c1,3.8,2.9,8.9,6.8,8.9
			c3.6,0,5.2-4.3,5.8-5.7c1.3-3.7,2.2-7.4,2.7-11.3c0.4-2.6,0.7-5.5,1-8.5c4.1-2,7.5-5.4,9.5-9.5c1.9-0.2,3.8-0.4,5.6-0.6
			c1.5-0.2,2.6-1.5,2.4-3.1c-0.2-1.5-1.5-2.6-3.1-2.4h-0.1c-1,0.1-2,0.2-3,0.4c0.4-2.5,0.4-5,0-7.4c10.2,1.1,15.3,2.7,17.3,3.7
			c-1,0.5-2,0.9-3,1.2C195.3,96.1,194.5,97.7,195,99.1L195,99.1z M161.7,56.3c0.7,1.4,1.9,4.5,3,11.5c0.3,1.8,0.5,3.7,0.7,5.7
			c-2.5-0.4-5-0.4-7.4,0C159.1,63.4,160.7,58.3,161.7,56.3z M161.7,78.8c1.4,0,2.8,0.2,4.2,0.6c0.3,4.8,0.5,9.9,0.5,15.1
			c0,1.6,0,3.1-0.1,4.7c-1.5,0-3.1,0-4.7,0c-5.2,0-10.3-0.2-15.1-0.5c-2.3-8.4,2.6-17,10.9-19.3C158.9,79,160.3,78.8,161.7,78.8
			L161.7,78.8z M135,97.5c-7-1.1-10.2-2.3-11.5-3c2-1,7-2.6,17.3-3.7c-0.4,2.5-0.4,5,0,7.4C138.8,98,136.8,97.8,135,97.5L135,97.5z
			 M149.6,104.5c3.9,0.2,8,0.3,12.1,0.3c1.5,0,3,0,4.5,0c-0.1,1.7-0.2,3.3-0.3,4.9C159.9,111.3,153.5,109.3,149.6,104.5L149.6,104.5
			z M164.7,121.1c-1.1,7-2.3,10.2-3,11.5c-1-2-2.6-7-3.7-17.3c2.5,0.4,5,0.4,7.4,0C165.2,117.4,164.9,119.3,164.7,121.1L164.7,121.1
			z M171.9,106.4c-0.1,0.1-0.1,0.1-0.2,0.2c0-0.7,0.1-1.4,0.1-2.1c0.7,0,1.4-0.1,2.1-0.1C173.2,105.2,172.6,105.8,171.9,106.4
			L171.9,106.4z M171.9,99c0-1.5,0-3,0-4.5c0-4.1-0.1-8.2-0.3-12.1c4.8,3.9,6.8,10.4,5.2,16.3C175.2,98.8,173.6,98.9,171.9,99
			L171.9,99z"/>
		<path id="Path_31" d="M145.1,12.6c1.5,0,2.8-1.2,2.8-2.8l0,0c0-1.5-1.3-2.7-2.8-2.7s-2.7,1.2-2.7,2.7l0,0
			C142.3,11.3,143.5,12.6,145.1,12.6z"/>
		<path id="Path_32" d="M151.7,12.6c1.5,0,2.8-1.2,2.8-2.8l0,0c0-1.5-1.3-2.7-2.8-2.7S149,8.3,149,9.8l0,0
			C149,11.3,150.2,12.6,151.7,12.6z"/>
	</g>
</g>
</svg>
