<?xml version="1.0" encoding="utf-8"?>
<!-- Generator: Adobe Illustrator 22.1.0, SVG Export Plug-In . SVG Version: 6.00 Build 0)  -->
<svg version="1.1" id="Capa_1" xmlns="http://www.w3.org/2000/svg" xmlns:xlink="http://www.w3.org/1999/xlink" x="0px" y="0px"
	 viewBox="0 0 200 200" style="enable-background:new 0 0 200 200;" xml:space="preserve">
<style type="text/css">
	.st0{fill:none;}
	.st1{fill:#007377;}
	.st2{fill:#333333;}
	.st3{fill:#00C8DE;}
	.st4{fill:#F5F5F5;}
	.st5{fill:#BBDA72;}
</style>
<g id="Group_40" transform="translate(-552 -71)">
	<rect id="Rectangle_54" x="552" y="71" class="st0" width="200" height="200"/>
	<g id="_040-smartphone-10" transform="translate(523.502 77)">
		<path id="Path_49" class="st1" d="M169.6,186.2H86.9c-6.1,0-11.1-5-11.1-11.1V13.8c0-6.1,5-11.1,11.1-11.1h82.7
			c6.1,0,11.1,5,11.1,11.1l0,0v161.3C180.7,181.3,175.7,186.2,169.6,186.2z"/>
		<path id="Path_50" class="st1" d="M169.6,2.8h-11.1c6.1,0,11.1,5,11.1,11.1l0,0v161.3c0,6.1-5,11.1-11.1,11.1h11.1
			c6.1,0,11.1-5,11.1-11.1l0,0V13.8C180.7,7.7,175.7,2.8,169.6,2.8L169.6,2.8z"/>
		<path id="Path_51" class="st2" d="M149.7,16.8h-42.8c-2.9,0-5.2-2.3-5.2-5.2V2.8h53.2v8.9C154.8,14.5,152.5,16.8,149.7,16.8z"/>
		<path id="Path_52" class="st2" d="M143.8,2.8v8.9c0,2.9-2.3,5.2-5.2,5.2h11.1c2.9,0,5.2-2.3,5.2-5.2V2.8H143.8z"/>
		<rect id="Rectangle_18" x="75.8" y="158.2" class="st1" width="104.8" height="11.1"/>
		<rect id="Rectangle_19" x="169.6" y="158.2" class="st1" width="11.1" height="11.1"/>
		<path id="Path_53" class="st2" d="M169.6,186.2H86.9c-6.1,0-11.1-5-11.1-11.1l0,0v-5.9h104.8v5.9
			C180.7,181.3,175.7,186.2,169.6,186.2L169.6,186.2z"/>
		<path id="Path_54" class="st2" d="M169.6,169.3v5.9c0,6.1-5,11.1-11.1,11.1l0,0h11.1c6.1,0,11.1-5,11.1-11.1l0,0v-5.9H169.6z"/>
		<path id="Path_55" class="st3" d="M167,107.8l-33.2-14.1V48.9L167,63V107.8z"/>
		<path id="Path_56" class="st4" d="M167,107.8l33.2-14.1V48.9L167,63V107.8z"/>
		<path id="Path_57" class="st4" d="M189.2,53.6v44.8l11.1-4.7V48.9L189.2,53.6z"/>
		<path id="Path_58" class="st5" d="M200.2,48.9L167,63l-33.2-14.1L167,34L200.2,48.9z"/>
		<path id="Path_59" class="st5" d="M167,34l-10.8,4.8l32.9,14.8L167,63l0,0l33.2-14.1L167,34z"/>
		<path id="Path_60" class="st3" d="M82.8,142.9l-26.6-11.2V95.8L82.8,107V142.9z"/>
		<path id="Path_61" class="st4" d="M82.8,142.9l26.6-11.2V95.8L82.8,107V142.9z"/>
		<path id="Path_62" class="st4" d="M98.4,100.4v35.9l11.1-4.7V95.8L98.4,100.4z"/>
		<path id="Path_63" class="st5" d="M109.4,95.8L82.8,107L56.3,95.8l26.6-12L109.4,95.8z"/>
		<path id="Path_64" class="st5" d="M98.3,100.4l11.1-4.7l-26.6-12l-10.7,4.8L98.3,100.4z"/>
		<path id="Path_65" d="M180.7,150.6c-1.5,0-2.8,1.2-2.8,2.8v13.1H78.6v-22.4l3.2,1.3c0.1,0,0.2,0.1,0.3,0.1l0,0
			c0.1,0,0.2,0.1,0.3,0.1h0.1c0.1,0,0.2,0,0.4,0l0,0c0.1,0,0.2,0,0.4,0h0.1c0.1,0,0.2,0,0.3-0.1l0,0c0.1,0,0.2-0.1,0.3-0.1
			l26.6-11.2c1-0.4,1.7-1.4,1.7-2.6V95.8c0-0.1,0-0.2,0-0.4v-0.1c0-0.1,0-0.2-0.1-0.3v-0.1c0-0.1-0.1-0.2-0.1-0.2s0-0.1-0.1-0.1
			c0-0.1-0.1-0.1-0.1-0.2c0,0,0-0.1-0.1-0.1c0-0.1-0.1-0.1-0.1-0.2l-0.1-0.1c-0.1-0.1-0.1-0.1-0.2-0.2c0,0,0,0-0.1-0.1
			s-0.2-0.1-0.3-0.2l0,0c0,0-0.1,0-0.1-0.1c-0.1,0-0.2-0.1-0.2-0.1l0,0L84,81.3c-0.7-0.3-1.6-0.3-2.3,0l-3.1,1.4V35.3
			c0-1.5-1.2-2.8-2.7-2.8s-2.8,1.2-2.8,2.7v0.1v49.9l-17.9,8.1l0,0c-0.1,0-0.1,0.1-0.2,0.1c0,0-0.1,0-0.1,0.1l0,0
			c-0.1,0.1-0.2,0.1-0.2,0.2c-0.1,0-0.1,0.1-0.1,0.1l-0.1,0.1L54.4,94L54,94.2c0,0-0.1,0.1-0.1,0.2s-0.1,0.1-0.1,0.2
			s-0.1,0.1-0.1,0.2s0,0.1-0.1,0.2s0,0.1-0.1,0.2s0,0.1,0,0.2s0,0.1,0,0.2s0,0.2,0,0.4l0,0l0,0l0,0v35.8c0,1.1,0.7,2.1,1.7,2.5
			l17.9,7.6v33.4l0,0c0,7.6,6.2,13.8,13.8,13.8h82.7c7.6,0,13.8-6.2,13.8-13.8l0,0v-21.8C183.4,151.9,182.2,150.6,180.7,150.6z
			 M106.7,129.8l-21,8.9v-29.8l21-8.9l0,0V129.8z M82.8,86.8l19.7,8.9l0,0L82.8,104l-19.7-8.3L82.8,86.8z M59,99.9l21,8.9v29.8l0,0
			l-21-8.9V99.9z M177.9,175.2c0,4.6-3.7,8.3-8.3,8.3H86.9c-4.6,0-8.3-3.7-8.3-8.3V172h99.3V175.2z"/>
		<path id="Path_66" d="M120.9,180.5h14.8c1.5,0,2.7-1.3,2.7-2.8s-1.2-2.7-2.7-2.7h-14.8c-1.5,0-2.7,1.3-2.7,2.8
			S119.4,180.5,120.9,180.5z"/>
		<path id="Path_67" d="M203,48.6C203,48.5,203,48.5,203,48.6c0-0.2,0-0.3-0.1-0.4v-0.1c0-0.1-0.1-0.2-0.1-0.2s0-0.1-0.1-0.1
			c0-0.1-0.1-0.1-0.1-0.2c0,0,0-0.1-0.1-0.1c0-0.1-0.1-0.1-0.1-0.2l-0.1-0.1c-0.1-0.1-0.1-0.1-0.2-0.2c0,0,0,0-0.1-0.1
			s-0.2-0.1-0.3-0.2l0,0c0,0-0.1,0-0.1-0.1c-0.1,0-0.1-0.1-0.2-0.1l0,0l-17.9-8.1V13.8c0-7.6-6.2-13.8-13.8-13.8H86.9
			c-7.6,0-13.8,6.2-13.8,13.8v9.6c0,1.5,1.2,2.8,2.7,2.8s2.8-1.2,2.8-2.7v-0.1v-9.6c0-4.6,3.7-8.3,8.3-8.3h12v6.1
			c0,4.4,3.6,7.9,7.9,7.9h42.8c4.4,0,7.9-3.6,7.9-7.9V5.5h12c4.6,0,8.3,3.7,8.3,8.3v22l-9.8-4.4c-0.7-0.3-1.6-0.3-2.3,0l-33.2,15
			c0,0,0,0-0.1,0s-0.1,0.1-0.2,0.1s-0.1,0.1-0.1,0.1l0,0c-0.1,0-0.1,0.1-0.2,0.1c-0.1,0.1-0.2,0.1-0.2,0.2l-0.1,0.1
			c0,0-0.1,0.1-0.1,0.2s-0.1,0.1-0.1,0.1s-0.1,0.1-0.1,0.2s-0.1,0.1-0.1,0.2s-0.1,0.1-0.1,0.2s0,0.1-0.1,0.2s0,0.1-0.1,0.2
			s0,0.1,0,0.2s0,0.1,0,0.2c0,0.1,0,0.2,0,0.3l0,0l0,0l0,0v44.8c0,1.1,0.7,2.1,1.7,2.6l5.7,2.4c1.4,0.6,3,0,3.6-1.4s0-3-1.4-3.6l0,0
			l-4-1.7v-39l27.7,11.7v38.8l-12.8-5.4c-1.4-0.6-3,0.1-3.6,1.5s0.1,3,1.5,3.6l16.6,7c0.1,0,0.2,0.1,0.3,0.1l0,0
			c0.1,0,0.2,0.1,0.3,0.1h0.1c0.1,0,0.2,0,0.4,0l0,0c0.1,0,0.2,0,0.4,0h0.1c0.1,0,0.2,0,0.3-0.1l0,0c0.1,0,0.2-0.1,0.3-0.1l9.8-4.2
			v35.4c0,1.5,1.2,2.8,2.7,2.8s2.8-1.2,2.8-2.7v-0.1v-37.7l17.9-7.6c1-0.4,1.7-1.4,1.7-2.6V48.9C203,48.8,203,48.7,203,48.6z
			 M152.1,11.6c0,1.3-1.1,2.4-2.4,2.4h-42.8c-1.3,0-2.4-1.1-2.4-2.4V5.5h47.6V11.6z M167,37l26.3,11.8l0,0L167,60l-26.3-11.1L167,37
			z M197.5,91.9L197.5,91.9C197.4,91.9,197.5,91.9,197.5,91.9l-27.7,11.7V64.8l27.7-11.7l0,0V91.9z"/>
		<path id="Path_68" d="M111.6,12.6c1.5,0,2.8-1.2,2.8-2.8l0,0c0-1.5-1.2-2.8-2.7-2.8s-2.8,1.2-2.8,2.7v0.1l0,0
			C108.9,11.3,110.1,12.6,111.6,12.6z"/>
		<path id="Path_69" d="M118.3,12.6c1.5,0,2.8-1.2,2.8-2.8l0,0c0-1.5-1.2-2.8-2.7-2.8s-2.8,1.2-2.8,2.7v0.1l0,0
			C115.5,11.3,116.8,12.6,118.3,12.6z"/>
	</g>
</g>
</svg>
