<?xml version="1.0" encoding="utf-8"?>
<!-- Generator: Adobe Illustrator 22.1.0, SVG Export Plug-In . SVG Version: 6.00 Build 0)  -->
<svg version="1.1" id="Capa_1" xmlns="http://www.w3.org/2000/svg" xmlns:xlink="http://www.w3.org/1999/xlink" x="0px" y="0px"
	 viewBox="0 0 200 200" style="enable-background:new 0 0 200 200;" xml:space="preserve">
<style type="text/css">
	.st0{fill:none;}
	.st1{fill:#007377;}
	.st2{fill:#333333;}
	.st3{fill:#BBDA72;}
</style>
<g id="Group_41" transform="translate(-552 -329)">
	<rect id="Rectangle_55" x="552" y="329" class="st0" width="200" height="200"/>
	<g id="_010-smartphone-40" transform="translate(490.5 335)">
		<path id="Path_4" class="st1" d="M203,186.2h-82.7c-6.1,0-11.1-5-11.1-11.1V13.8c0-6.1,5-11.1,11.1-11.1H203
			c6.1,0,11.1,5,11.1,11.1l0,0v161.3C214.1,181.3,209.1,186.2,203,186.2z"/>
		<path id="Path_5" class="st1" d="M203,2.8h-11c6.1,0,11.1,5,11.1,11.1l0,0v161.3c0,6.1-5,11.1-11.1,11.1h11
			c6.1,0,11.1-5,11.1-11.1l0,0V13.8C214.1,7.7,209.1,2.8,203,2.8L203,2.8z"/>
		<path id="Path_6" class="st2" d="M183.1,16.8h-42.8c-2.9,0-5.2-2.3-5.2-5.2V2.8h53.2v8.9C188.3,14.5,186,16.8,183.1,16.8z"/>
		<path id="Path_7" class="st2" d="M177.2,2.8v8.9c0,2.9-2.3,5.2-5.2,5.2h11.1c2.9,0,5.2-2.3,5.2-5.2V2.8H177.2z"/>
		<path id="Path_70" class="st1" d="M109.3,158.2h104.8v11.1H109.3V158.2z"/>
		<rect id="Rectangle_11" x="203" y="158.2" class="st1" width="11.1" height="11.1"/>
		<path id="Path_8" class="st2" d="M203,186.2h-82.7c-6.1,0-11.1-5-11.1-11.1l0,0v-5.9H214v5.9C214.1,181.3,209.1,186.2,203,186.2
			L203,186.2z"/>
		<path id="Path_9" class="st2" d="M203,169.3v5.9c0,6.1-5,11.1-11.1,11.1l0,0H203c6.1,0,11.1-5,11.1-11.1l0,0v-5.9H203z"/>
		<path id="Path_10" class="st3" d="M189.7,121.8h-56.1c-0.8,0-1.5-0.7-1.5-1.5V73.8c0-0.8,0.7-1.5,1.5-1.5l0,0h56.1
			c0.8,0,1.5,0.7,1.5,1.5l0,0v46.5C191.2,121.2,190.6,121.8,189.7,121.8z"/>
		<path id="Path_11" class="st3" d="M189.7,72.4h-11.1c0.8,0,1.5,0.7,1.5,1.5v46.5c0,0.8-0.7,1.5-1.5,1.5h11.1
			c0.8,0,1.5-0.7,1.5-1.5V73.8C191.2,73,190.6,72.4,189.7,72.4z"/>
		<path id="Path_33" class="st2" d="M161.7,82.8c3.6,0,6.7,2.6,7.3,6.2c0.1,0.4,0.1,0.8,0.1,1.2c0,4.1-3.3,7.4-7.4,7.4
			s-7.4-3.3-7.4-7.4C154.3,86.1,157.6,82.8,161.7,82.8L161.7,82.8z"/>
		<path id="Path_12" d="M214.1,151c-1.5,0-2.8,1.2-2.8,2.8l0,0v12.7H112V35.3c0-1.5-1.3-2.7-2.8-2.7s-2.7,1.2-2.7,2.7v139.8l0,0
			c0,7.6,6.2,13.8,13.8,13.8H203c7.6,0,13.8-6.2,13.8-13.8l0,0v-21.4C216.9,152.2,215.6,151,214.1,151L214.1,151z M211.3,175.2
			c0,4.6-3.7,8.3-8.3,8.3h-82.7c-4.6,0-8.3-3.7-8.3-8.3V172h99.3V175.2z"/>
		<path id="Path_13" d="M203,0h-82.7c-7.6,0-13.8,6.2-13.8,13.8v9.6c0,1.5,1.3,2.7,2.8,2.7s2.7-1.2,2.7-2.7v-9.6
			c0-4.6,3.7-8.3,8.3-8.3h12v6.1c0,4.4,3.6,7.9,7.9,7.9H183c4.4,0,7.9-3.6,7.9-7.9V5.5h12c4.6,0,8.3,3.7,8.3,8.3v127.8
			c0,1.5,1.3,2.7,2.8,2.7s2.7-1.2,2.7-2.7V13.8C216.9,6.2,210.7,0,203,0z M185.5,11.6c0,1.3-1.1,2.4-2.4,2.4h-42.8
			c-1.3,0-2.4-1.1-2.4-2.4V5.5h47.6V11.6z"/>
		<path id="Path_14" d="M154.3,180.5h14.8c1.5,0,2.7-1.3,2.7-2.8s-1.2-2.7-2.7-2.7h-14.8c-1.5,0-2.7,1.3-2.7,2.8
			S152.8,180.5,154.3,180.5z"/>
		<path id="Path_15" d="M161.7,43.7c-13.8,0-24.9,11.2-24.9,24.9v0.9h-3.1c-2.3,0-4.2,1.9-4.2,4.2v46.5c0,2.3,1.9,4.2,4.2,4.2h4.5
			c1.5,0,2.7-1.3,2.7-2.8s-1.2-2.7-2.7-2.7H135V75.1h53.5V119H150c-1.5,0-2.7,1.3-2.7,2.8s1.2,2.7,2.7,2.7h39.7
			c2.3,0,4.2-1.9,4.2-4.2V73.8c0-2.3-1.9-4.2-4.2-4.2h-3.1v-0.9C186.6,54.9,175.4,43.8,161.7,43.7z M142.3,68.7
			c0-10.7,8.7-19.4,19.4-19.4s19.4,8.7,19.4,19.4l0,0v0.9h-38.8L142.3,68.7L142.3,68.7z"/>
		<path id="Path_16" d="M161.7,112.2c1.5,0,2.8-1.2,2.8-2.8l0,0v-9.6c5.4-1.5,8.5-7.1,7-12.5s-7.1-8.5-12.5-7s-8.5,7.1-7,12.5
			c1,3.4,3.6,6,7,7v9.6C158.9,111,160.2,112.2,161.7,112.2z M157.1,90.1c0-2.5,2.1-4.6,4.6-4.6s4.6,2.1,4.6,4.6s-2.1,4.6-4.6,4.6
			l0,0C159.1,94.8,157.1,92.7,157.1,90.1L157.1,90.1z"/>
		<path id="Path_17" d="M145.1,12.6c1.5,0,2.8-1.2,2.8-2.8l0,0c0-1.5-1.3-2.7-2.8-2.7s-2.7,1.2-2.7,2.7l0,0
			C142.3,11.3,143.5,12.6,145.1,12.6z"/>
		<path id="Path_18" d="M151.7,12.6c1.5,0,2.8-1.2,2.8-2.8l0,0c0-1.5-1.3-2.7-2.8-2.7S149,8.3,149,9.8l0,0
			C149,11.3,150.2,12.6,151.7,12.6z"/>
	</g>
</g>
</svg>
