<?xml version="1.0" encoding="utf-8"?>
<!-- Generator: Adobe Illustrator 22.1.0, SVG Export Plug-In . SVG Version: 6.00 Build 0)  -->
<svg version="1.1" id="Capa_1" xmlns="http://www.w3.org/2000/svg" xmlns:xlink="http://www.w3.org/1999/xlink" x="0px" y="0px"
	 viewBox="0 0 200 200" style="enable-background:new 0 0 200 200;" xml:space="preserve">
<style type="text/css">
	.st0{fill:none;}
	.st1{fill:#007377;}
	.st2{fill:#323232;}
	.st3{fill:#BBDA72;}
	.st4{fill:#CCCCCC;}
	.st5{fill:#E0E0E0;}
	.st6{fill:#F0F0F0;}
	.st7{fill:#EDEDED;}
</style>
<g id="Group_43" transform="translate(-1051 -570)">
	<rect id="Rectangle_59" x="1051" y="570" class="st0" width="200" height="200"/>
	<g id="_043-smartphone-7" transform="translate(1000.5 576)">
		<path id="Path_71" class="st1" d="M191.7,186.2H109c-6.1,0-11.1-5-11.1-11.1V13.8c0-6.1,5-11.1,11.1-11.1h82.7
			c6.1,0,11.1,5,11.1,11.1l0,0v161.3C202.7,181.3,197.8,186.2,191.7,186.2z"/>
		<path id="Path_72" class="st1" d="M191.7,2.8h-11.1c6.1,0,11.1,5,11.1,11.1l0,0v161.3c0,6.1-5,11.1-11.1,11.1h11.1
			c6.1,0,11.1-5,11.1-11.1l0,0V13.8C202.7,7.7,197.8,2.8,191.7,2.8L191.7,2.8z"/>
		<path id="Path_73" class="st2" d="M171.7,16.8h-42.8c-2.9,0-5.2-2.3-5.2-5.2V2.8h53.2v8.9C176.9,14.5,174.6,16.8,171.7,16.8z"/>
		<path id="Path_74" class="st2" d="M165.8,2.8v8.9c0,2.9-2.3,5.2-5.2,5.2h11.1c2.9,0,5.2-2.3,5.2-5.2V2.8H165.8z"/>
		<rect id="Rectangle_20" x="97.9" y="158.2" class="st1" width="104.8" height="11.1"/>
		<rect id="Rectangle_21" x="191.7" y="158.2" class="st1" width="11.1" height="11.1"/>
		<path id="Path_75" class="st2" d="M191.7,186.2H109c-6.1,0-11.1-5-11.1-11.1l0,0v-5.9h104.8v5.9
			C202.7,181.3,197.8,186.2,191.7,186.2L191.7,186.2z"/>
		<path id="Path_76" class="st2" d="M191.7,169.3v5.9c0,6.1-5,11.1-11.1,11.1l0,0h11.1c6.1,0,11.1-5,11.1-11.1l0,0v-5.9H191.7z"/>
		<path id="Path_77" class="st3" d="M209.4,121.8v11.1H160c-0.7,0-1.4-0.5-1.6-1.2c-1.3-4.5-6-7-10.5-5.7c-2.7,0.8-4.9,2.9-5.7,5.7
			c-0.2,0.7-0.9,1.2-1.6,1.2H91.3v-11.1C91.3,121.8,209.4,121.8,209.4,121.8z"/>
		<rect id="Rectangle_22" x="198.3" y="121.8" class="st3" width="11.1" height="11.1"/>
		<g id="Group_5" transform="translate(91.269 56.597)">
			<rect id="Rectangle_23" x="0" y="0" class="st4" width="59.1" height="65.2"/>
			<rect id="Rectangle_24" x="59.1" y="0" class="st4" width="59.1" height="65.2"/>
		</g>
		<g id="Group_6" transform="translate(99.707 49.677)">
			<path id="Path_78" class="st5" d="M50.6,6.9L0,0v65.2l50.6,6.9V6.9z"/>
			<path id="Path_79" class="st5" d="M50.6,6.9L101.2,0v65.2l-50.6,6.9V6.9z"/>
		</g>
		<path id="Path_80" class="st6" d="M150.3,121.8l-42.2-16.7V39.9l42.2,16.7V121.8z"/>
		<path id="Path_81" class="st7" d="M150.3,121.8l42.2-16.7V39.9l-42.2,16.7V121.8z"/>
		<path id="Path_82" d="M209.4,53.8h-3.9v-40c0-7.6-6.2-13.8-13.8-13.8H109c-7.6,0-13.8,6.2-13.8,13.8v9.6c0,1.5,1.3,2.7,2.8,2.7
			s2.7-1.2,2.7-2.7v-9.6c0-4.6,3.7-8.3,8.3-8.3h12v6.1c0,4.4,3.6,7.9,7.9,7.9h42.8c4.4,0,7.9-3.6,7.9-7.9V5.5h12
			c4.6,0,8.3,3.7,8.3,8.3V47l-4.7,0.6v-7.8c0-1.5-1.2-2.8-2.8-2.8c-0.3,0-0.7,0.1-1,0.2l-41.2,16.3L109,37.2c-1.4-0.6-3,0.1-3.6,1.6
			c-0.1,0.3-0.2,0.7-0.2,1v7.8l-4.7-0.6V35.3c0-1.5-1.3-2.7-2.8-2.7S95,33.8,95,35.3v18.5h-3.9c-1.5,0-2.8,1.2-2.8,2.8l0,0v76.3l0,0
			c0,1.5,1.2,2.8,2.8,2.8H95v39.5c0,7.6,6.2,13.8,13.8,13.8h82.7c7.6,0,13.8-6.2,13.8-13.8v-21.4l0,0c0-1.5-1.3-2.7-2.8-2.7
			s-2.7,1.2-2.7,2.7v12.7h-99.3v-30.8h2.3c1.5,0,2.7-1.3,2.7-2.8s-1.2-2.7-2.7-2.7H94v-5.5h50.4c-2.1,1.3-3.7,3.2-4.5,5.5H115
			c-1.5,0-2.7,1.3-2.7,2.8s1.2,2.7,2.7,2.7h25.7c2,0,3.7-1.3,4.3-3.2c0.9-3,4-4.7,7-3.8c1.8,0.5,3.3,2,3.8,3.8
			c0.6,1.9,2.3,3.2,4.3,3.2h40v6c0,1.5,1.3,2.7,2.8,2.7s2.7-1.2,2.7-2.7v-6h3.9c1.5,0,2.8-1.2,2.8-2.8l0,0l0,0V56.6
			C212.2,55.1,210.9,53.8,209.4,53.8L209.4,53.8z M174.1,11.6c0,1.3-1.1,2.4-2.4,2.4h-42.8c-1.3,0-2.4-1.1-2.4-2.4l0,0V5.5h47.6
			V11.6z M200,172v3.1c0,4.6-3.7,8.3-8.3,8.3H109c-4.6,0-8.3-3.7-8.3-8.3V172H200z M206.6,119H191l10.3-1.4c1.4-0.2,2.4-1.4,2.4-2.7
			V59.4h2.9L206.6,119L206.6,119z M198.2,52.8v59.6l-25.6,3.5l21-8.3c1.1-0.4,1.7-1.4,1.7-2.6V53.2L198.2,52.8z M189.8,103.2
			l-36.7,14.5V58.5L189.7,44L189.8,103.2z M147.6,58.5v59.3l-36.7-14.5V43.9L147.6,58.5z M102.5,52.9l2.9,0.4v51.8
			c0,1.1,0.7,2.2,1.7,2.6l21,8.3l-25.6-3.5C102.5,112.5,102.5,52.9,102.5,52.9z M94,59.4h2.9v55.5c0,1.4,1,2.6,2.4,2.7l10.3,1.4H94
			V59.4z M206.6,130.1h-45.8c-0.9-2.3-2.5-4.2-4.5-5.5h50.4v5.5H206.6z"/>
		<path id="Path_83" d="M133.7,12.6c1.5,0,2.8-1.2,2.8-2.8l0,0c0-1.5-1.3-2.7-2.8-2.7S131,8.3,131,9.8l0,0
			C131,11.3,132.2,12.6,133.7,12.6z"/>
		<path id="Path_84" d="M140.4,12.6c1.5,0,2.8-1.2,2.8-2.8l0,0c0-1.5-1.3-2.7-2.8-2.7s-2.7,1.2-2.7,2.7l0,0
			C137.6,11.3,138.8,12.6,140.4,12.6z"/>
		<path id="Path_85" d="M142.9,180.5h14.8c1.5,0,2.7-1.3,2.7-2.8s-1.2-2.7-2.7-2.7h-14.8c-1.5,0-2.7,1.3-2.7,2.8
			C140.3,179.3,141.5,180.5,142.9,180.5z"/>
	</g>
</g>
</svg>
