<?xml version="1.0" encoding="utf-8"?>
<!-- Generator: Adobe Illustrator 22.1.0, SVG Export Plug-In . SVG Version: 6.00 Build 0)  -->
<svg version="1.1" id="Capa_1" xmlns="http://www.w3.org/2000/svg" xmlns:xlink="http://www.w3.org/1999/xlink" x="0px" y="0px"
	 viewBox="0 0 200 200" style="enable-background:new 0 0 200 200;" xml:space="preserve">
<style type="text/css">
	.st0{fill:none;}
	.st1{fill:#007377;}
	.st2{fill:#333333;}
	.st3{fill:#8797A3;}
	.st4{fill:#81909C;}
	.st5{fill:#ABBFCF;}
	.st6{fill:#BBDA72;}
</style>
<g id="Group_42" transform="translate(-551 -587)">
	<rect id="Rectangle_56" x="551" y="587" class="st0" width="200" height="200"/>
	<g id="_023-smartphone-27" transform="translate(516.5 593)">
		<path id="Path_34" class="st1" d="M175.9,186.2H93.2c-6.1,0-11.1-5-11.1-11.1V13.8c0-6.1,5-11.1,11.1-11.1h82.7
			c6.1,0,11.1,5,11.1,11.1l0,0v161.3C187,181.3,182,186.2,175.9,186.2z"/>
		<path id="Path_35" class="st1" d="M175.9,2.8h-11.1c6.1,0,11.1,5,11.1,11.1l0,0v161.3c0,6.1-5,11.1-11.1,11.1h11.1
			c6.1,0,11.1-5,11.1-11.1l0,0V13.8C187,7.7,182,2.8,175.9,2.8L175.9,2.8z"/>
		<path id="Path_36" class="st2" d="M156,16.8h-42.8c-2.9,0-5.2-2.3-5.2-5.2V2.8h53.2v8.9C161.1,14.5,158.8,16.8,156,16.8z"/>
		<path id="Path_37" class="st2" d="M150.1,2.8v8.9c0,2.9-2.3,5.2-5.2,5.2H156c2.9,0,5.2-2.3,5.2-5.2V2.8H150.1z"/>
		<rect id="Rectangle_14" x="82.1" y="158.2" class="st1" width="104.8" height="11.1"/>
		<rect id="Rectangle_15" x="175.9" y="158.2" class="st1" width="11.1" height="11.1"/>
		<path id="Path_38" class="st2" d="M175.9,186.2H93.2c-6.1,0-11.1-5-11.1-11.1l0,0v-5.9H187v5.9C187,181.3,182,186.2,175.9,186.2
			L175.9,186.2z"/>
		<path id="Path_39" class="st2" d="M175.9,169.3v5.9c0,6.1-5,11.1-11.1,11.1l0,0h11.1c6.1,0,11.1-5,11.1-11.1l0,0v-5.9H175.9z"/>
		<g id="Group_2" transform="translate(71.927 76.966)">
			<ellipse id="Ellipse_1" class="st3" cx="32.3" cy="13.8" rx="14" ry="13.8"/>
			<ellipse id="Ellipse_2" class="st3" cx="14" cy="31.2" rx="14" ry="13.8"/>
		</g>
		<g id="Group_3" transform="translate(134.237 75.301)">
			<ellipse id="Ellipse_3" class="st4" cx="12.1" cy="11.9" rx="12.1" ry="11.9"/>
			<ellipse id="Ellipse_4" class="st4" cx="39.4" cy="27.4" rx="12.1" ry="11.9"/>
		</g>
		<path id="Path_40" class="st5" d="M202.9,124.1c0,6.5-5.3,11.8-11.8,11.8l0,0h-113c-6.5,0-11.8-5.3-11.8-11.8s5.3-11.8,11.8-11.8
			c1.9,0,3.8,0.5,5.5,1.4c-0.1-0.7-0.1-1.3-0.1-2c0-7.7,6.3-13.9,14-13.9c3.4,0,6.6,1.2,9.2,3.5c0-0.3,0-0.5,0-0.8
			c0-11,9-20,20.1-19.9c8.3,0,15.6,5.1,18.6,12.8c3.9-6.2,12.2-8.1,18.4-4.2c5.3,3.3,7.5,9.9,5.5,15.7c5.1-2.4,11.1-0.2,13.5,4.8
			c0.6,1.3,1,2.8,1,4.3c0,0.3,0,0.7,0,1c5-4.2,12.5-3.4,16.6,1.6C201.9,118.7,202.8,121.3,202.9,124.1L202.9,124.1z"/>
		<g id="Group_4" transform="translate(148.711 87.105)">
			<path id="Path_41" class="st3" d="M10.1,15.5c0,0.2,0,0.5,0,0.7c-0.1,1.5,1,2.7,2.5,2.8c0.1,0,0.2,0,0.3,0c0.2,0,0.5,0,0.7,0
				c4.8,0,8.6,4,9.7,8.8c0.2,0.8,1,1.3,1.8,1.1c0.1,0,0.3-0.1,0.4-0.1c2.8-1.5,6.1-1.8,9.2-0.9c0-0.3,0-0.7,0-1
				c0-5.6-4.6-10.1-10.1-10.1c-1.5,0-2.9,0.3-4.3,1c2.4-6.9-1.2-14.6-8.1-17C8.1-0.7,3.5,0,0,2.5C5.9,4,10.1,9.3,10.1,15.5z"/>
			<path id="Path_42" class="st3" d="M42.3,25.2c-2.7,0-5.4,0.9-7.5,2.7c6.2,1.9,9.7,8.5,7.7,14.7c-0.8,2.5-2.3,4.6-4.5,6.1h4.3
				c6.5,0,11.8-5.3,11.8-11.8S48.9,25.2,42.3,25.2L42.3,25.2L42.3,25.2z"/>
		</g>
		<path id="Path_43" class="st6" d="M114.3,57.2l20.3-22.1l20.3,22.1C154.9,57.2,114.3,57.2,114.3,57.2z"/>
		<path id="Path_44" class="st6" d="M143.8,57.2L129,41.1l5.5-6l20.3,22.1C154.8,57.2,143.8,57.2,143.8,57.2z"/>
		<rect id="Rectangle_16" x="123.5" y="57.2" class="st6" width="22.1" height="31.7"/>
		<rect id="Rectangle_17" x="134.6" y="57.2" class="st6" width="11.1" height="31.7"/>
		<path id="Path_45" d="M127.2,180.5H142c1.5,0,2.7-1.3,2.7-2.8s-1.2-2.7-2.7-2.7h-14.8c-1.5,0-2.7,1.3-2.7,2.8
			S125.7,180.5,127.2,180.5z"/>
		<path id="Path_46" d="M191,109.5c-0.4,0-0.9,0-1.3,0.1V13.8c0-7.6-6.2-13.8-13.8-13.8H93.2c-7.6,0-13.8,6.2-13.8,13.8v9.6
			c0,1.5,1.3,2.7,2.8,2.7s2.7-1.2,2.7-2.7v-9.6c0-4.6,3.7-8.3,8.3-8.3h12v6.1c0,4.4,3.6,7.9,7.9,7.9H156c4.4,0,7.9-3.6,7.9-7.9V5.5
			h12c4.6,0,8.3,3.7,8.3,8.3v78.6c-4.2-4.3-10.6-5.6-16.2-3.4c-2-2-4.4-3.4-7.1-4.2c-1-6.4-6.1-11.4-12.6-12.3V60h6.5
			c1.5,0,2.8-1.2,2.8-2.8c0-0.7-0.3-1.4-0.7-1.9l-20.3-22.1c-1-1.1-2.8-1.2-3.9-0.2c-0.1,0.1-0.1,0.1-0.2,0.2l-20.3,22.1
			c-1,1.1-1,2.9,0.2,3.9c0.5,0.5,1.2,0.7,1.9,0.7h6.5v18.5c-1.3,0.4-2.6,0.8-3.8,1.4c-6.2-7-16.8-7.6-23.8-1.5
			c-3.6,3.1-5.6,7.6-5.7,12.4c0,0.3,0,0.5,0,0.8c-0.5,0-1-0.1-1.4-0.1s-0.7,0-1.1,0V35.3c0-1.5-1.3-2.7-2.8-2.7s-2.7,1.2-2.7,2.7
			v57.5c-6.2,2.6-10.2,8.6-10.2,15.3c0,1.4,0.2,2.7,0.5,4c-6.6,4.6-8.1,13.7-3.5,20.3c2.7,3.9,7.2,6.2,11.9,6.2h1.3v36.5l0,0
			c0,7.6,6.2,13.8,13.8,13.8H176c7.6,0,13.8-6.2,13.8-13.8l0,0v-21.4c0-1.5-1.3-2.7-2.8-2.7s-2.7,1.2-2.7,2.7v12.7H84.9v-27.9h2.4
			c1.5,0,2.7-1.3,2.7-2.8s-1.2-2.7-2.7-2.7H78c-5,0.1-9.1-3.9-9.1-8.9c-0.1-5,3.9-9.1,8.9-9.1c0.1,0,0.1,0,0.2,0
			c1.5,0,3,0.4,4.3,1.1s3,0.2,3.7-1.1c0.3-0.5,0.4-1.1,0.3-1.7c-0.1-0.5-0.1-1.1-0.1-1.6c0-5.5,4.1-10.2,9.5-11
			c0.6-0.1,1.1-0.1,1.7-0.1c2.5,0,4.8,0.8,6.8,2.3c0.2,0.3,0.4,0.5,0.6,0.7c4.6,4,5.1,11.1,1,15.7l0,0c-1,1.2-0.8,2.9,0.3,3.9
			c1.1,1,2.8,0.9,3.8-0.2c5.8-6.5,5.5-16.4-0.6-22.7c0.1-7.2,4.6-13.5,11.3-16V89c0,1.5,1.2,2.8,2.8,2.8l0,0h18
			c0.3,0.5,0.6,1,0.8,1.5c-3.8,7.4-1.4,16.4,5.6,20.9c1.3,0.8,3,0.5,3.8-0.8s0.5-3-0.8-3.8c0,0,0,0-0.1,0c-4.9-3.1-6.3-9.6-3.2-14.5
			c0.1-0.2,0.3-0.5,0.3-0.7c3.4-4.8,10-5.9,14.7-2.5c3.9,2.7,5.4,7.7,3.8,12.1c-0.5,1.4,0.2,3,1.7,3.5c0.7,0.2,1.4,0.2,2.1-0.1
			c1-0.5,2-0.7,3.1-0.7c3,0,5.7,1.9,6.8,4.7c0.4,1.1,0.6,2.2,0.5,3.4c-0.2,1.5,1,2.9,2.5,3c0.7,0.1,1.5-0.2,2-0.6
			c3.8-3.2,9.5-2.7,12.7,1.2c3.2,3.8,2.7,9.5-1.2,12.7c-1.6,1.4-3.7,2.1-5.8,2.1H99.1c-1.5,0-2.7,1.3-2.7,2.8s1.2,2.7,2.7,2.7h85.1
			v3c0,1.5,1.3,2.7,2.8,2.7s2.7-1.2,2.7-2.7v-3h1.3c8,0,14.6-6.5,14.6-14.6C205.6,116,199.1,109.5,191,109.5L191,109.5L191,109.5z
			 M158.4,11.6c0,1.3-1.1,2.4-2.4,2.4h-42.8c-1.3,0-2.4-1.1-2.4-2.4l0,0V5.5h47.6V11.6z M184.2,172v3.1c0,4.6-3.7,8.3-8.3,8.3H93.2
			c-4.6,0-8.3-3.7-8.3-8.3V172H184.2z M80.9,109.8c-2-0.4-4-0.4-6,0.1c-0.1-0.6-0.1-1.1-0.1-1.7c0-6.2,5-11.2,11.2-11.1
			c0.9,0,1.9,0.1,2.8,0.3C84.4,100.1,81.5,104.7,80.9,109.8z M104.2,96.4c-2.1-0.9-4.4-1.4-6.8-1.4c-0.4,0-0.8,0-1.2,0
			c-0.9-0.7-2-1.4-3.1-1.9c-0.2-0.8-0.3-1.6-0.3-2.3c0.1-6.2,5.1-11.1,11.3-11.1c3,0,5.8,1.1,7.9,3.2
			C108,86.3,105.2,91.1,104.2,96.4z M134.6,39.2l14,15.3h-28L134.6,39.2z M126.3,60h16.6v26.2h-16.6C126.3,86.2,126.3,60,126.3,60z
			 M148.4,86.5v-8.2c3.2,0.7,5.7,3,6.7,6.1C152.8,84.6,150.5,85.3,148.4,86.5z M173.4,101.1c-0.3,0-0.5,0-0.8,0c0-0.2,0-0.5,0-0.8
			c0-2.2-0.5-4.5-1.4-6.5c0.8-0.2,1.5-0.3,2.3-0.3c5.1,0,9.2,4,9.3,9.1c0,0.8-0.1,1.5-0.3,2.2C180.2,102.5,176.9,101.1,173.4,101.1
			L173.4,101.1z"/>
		<path id="Path_47" d="M117.9,12.6c1.5,0,2.8-1.2,2.8-2.8l0,0c0-1.5-1.3-2.7-2.8-2.7s-2.7,1.2-2.7,2.7l0,0
			C115.2,11.3,116.4,12.6,117.9,12.6z"/>
		<path id="Path_48" d="M124.6,12.6c1.5,0,2.8-1.2,2.8-2.8l0,0c0-1.5-1.3-2.7-2.8-2.7s-2.7,1.2-2.7,2.7l0,0
			C121.8,11.3,123.1,12.6,124.6,12.6z"/>
	</g>
</g>
</svg>
