<?xml version="1.0" encoding="utf-8"?>
<!-- Generator: Adobe Illustrator 22.1.0, SVG Export Plug-In . SVG Version: 6.00 Build 0)  -->
<svg version="1.1" id="Capa_1" xmlns="http://www.w3.org/2000/svg" xmlns:xlink="http://www.w3.org/1999/xlink" x="0px" y="0px"
	 viewBox="0 0 200 200" style="enable-background:new 0 0 200 200;" xml:space="preserve">
<style type="text/css">
	.st0{fill:none;}
	.st1{fill:#007377;}
	.st2{fill:#333333;}
	.st3{fill:#BBDA72;}
	.st4{fill:#D8F4FF;}
	.st5{fill:#F5F5F5;}
</style>
<g id="Group_44" transform="translate(-1051 -319)">
	<rect id="Rectangle_58" x="1051" y="319" class="st0" width="200" height="200"/>
	<g id="_048-smartphone-2" transform="translate(989.5 325)">
		<path id="Path_86" class="st1" d="M203,186.2h-82.7c-6.1,0-11.1-5-11.1-11.1V13.8c0-6.1,5-11.1,11.1-11.1H203
			c6.1,0,11.1,5,11.1,11.1l0,0v161.3C214.1,181.3,209.1,186.2,203,186.2z"/>
		<path id="Path_87" class="st1" d="M203,2.8h-11c6.1,0,11.1,5,11.1,11.1l0,0v161.3c0,6.1-5,11.1-11.1,11.1h11
			c6.1,0,11.1-5,11.1-11.1l0,0V13.8C214.1,7.7,209.1,2.8,203,2.8L203,2.8z"/>
		<path id="Path_88" class="st2" d="M183.1,16.8h-42.8c-2.9,0-5.2-2.3-5.2-5.2V2.8h53.2v8.9C188.3,14.5,186,16.8,183.1,16.8z"/>
		<path id="Path_89" class="st2" d="M177.2,2.8v8.9c0,2.9-2.3,5.2-5.2,5.2h11.1c2.9,0,5.2-2.3,5.2-5.2V2.8H177.2z"/>
		<rect id="Rectangle_25" x="109.3" y="158.2" class="st1" width="104.8" height="11.1"/>
		<rect id="Rectangle_26" x="203" y="158.2" class="st1" width="11.1" height="11.1"/>
		<path id="Path_90" class="st2" d="M203,186.2h-82.7c-6.1,0-11.1-5-11.1-11.1l0,0v-5.9H214v5.9C214.1,181.3,209.1,186.2,203,186.2
			L203,186.2z"/>
		<path id="Path_91" class="st2" d="M203,169.3v5.9c0,6.1-5,11.1-11.1,11.1l0,0H203c6.1,0,11.1-5,11.1-11.1l0,0v-5.9H203z"/>
		<rect id="Rectangle_27" x="126.6" y="45.8" class="st3" width="70.1" height="87.1"/>
		<rect id="Rectangle_28" x="185.7" y="45.8" class="st3" width="11.1" height="87.1"/>
		<path id="Path_92" class="st4" d="M150.6,82l-5.1,5.1l-1.5,9.4l9.4-1.5l5.1-5.1L150.6,82z"/>
		<rect id="Rectangle_29" x="126.6" y="45.9" class="st3" width="70.1" height="11.8"/>
		
			<rect id="Rectangle_30" x="142" y="60.2" transform="matrix(0.7071 -0.7071 0.7071 0.7071 4.6649 142.7951)" class="st5" width="65.5" height="11.1"/>
		<path id="Path_93" class="st5" d="M201.8,46.5l-7.8-7.8l3.9-3.9c2.2-2.2,5.7-2.2,7.8,0l0,0l0,0c2.2,2.2,2.2,5.7,0,7.8l0,0
			L201.8,46.5z"/>
		
			<rect id="Rectangle_31" x="148.3" y="75.5" transform="matrix(0.7071 -0.7071 0.7071 0.7071 -10.6354 136.4337)" class="st5" width="22.1" height="11.1"/>
		<path id="Path_94" d="M214.1,151c-1.5,0-2.8,1.2-2.8,2.8l0,0v12.7H112V35.3c0-1.5-1.3-2.7-2.8-2.7s-2.7,1.2-2.7,2.7v139.8l0,0
			c0,7.6,6.2,13.8,13.8,13.8H203c7.6,0,13.8-6.2,13.8-13.8l0,0v-21.4C216.9,152.2,215.6,151,214.1,151L214.1,151z M211.3,175.2
			c0,4.6-3.7,8.3-8.3,8.3h-82.7c-4.6,0-8.3-3.7-8.3-8.3V172h99.3V175.2z"/>
		<path id="Path_95" d="M203,0h-82.7c-7.6,0-13.8,6.2-13.8,13.8v9.6c0,1.5,1.3,2.7,2.8,2.7s2.7-1.2,2.7-2.7v-9.6
			c0-4.6,3.7-8.3,8.3-8.3h12v6.1c0,4.4,3.6,7.9,7.9,7.9H183c4.4,0,7.9-3.6,7.9-7.9V5.5h12c4.6,0,8.3,3.7,8.3,8.3v127.8
			c0,1.5,1.3,2.7,2.8,2.7s2.7-1.2,2.7-2.7V13.8C216.9,6.2,210.7,0,203,0z M185.5,11.6c0,1.3-1.1,2.4-2.4,2.4h-42.8
			c-1.3,0-2.4-1.1-2.4-2.4V5.5h47.6V11.6z"/>
		<path id="Path_96" d="M154.3,180.5h14.8c1.5,0,2.7-1.3,2.7-2.8s-1.2-2.7-2.7-2.7h-14.8c-1.5,0-2.7,1.3-2.7,2.8
			S152.8,180.5,154.3,180.5z"/>
		<path id="Path_97" d="M149.8,135.6h46.9c1.5,0,2.8-1.2,2.8-2.8l0,0V52.6l0,0l8.1-8.1l0,0c3.3-3.2,3.3-8.5,0.1-11.7
			s-8.5-3.3-11.7-0.1l-0.1,0.1l0,0L185.7,43h-59c-1.5,0-2.8,1.2-2.8,2.8v87.1c0,1.5,1.2,2.8,2.8,2.8H138c1.5,0,2.7-1.3,2.7-2.8
			s-1.2-2.7-2.7-2.7h-8.6V60.5h38.7l-5.8,5.8h-24c-1.5,0-2.7,1.3-2.7,2.8s1.2,2.7,2.7,2.7h18.4l-4.8,4.8h-13.6
			c-1.5,0-2.7,1.3-2.7,2.8s1.2,2.7,2.7,2.7h8.1l-3,3c-0.4,0.4-0.7,0.9-0.8,1.5l-0.1,0.3h-4.3c-1.5,0-2.7,1.3-2.7,2.8
			s1.2,2.7,2.7,2.7h3.4l-0.6,3.5c-0.1,0.4,0,0.9,0.1,1.3h-2.9c-1.5,0-2.7,1.3-2.7,2.8s1.2,2.7,2.7,2.7h46.5c1.5,0,2.7-1.3,2.7-2.8
			s-1.2-2.7-2.7-2.7h-30.2c0.2-0.1,0.4-0.3,0.6-0.4l4.4-4.4h25.3c1.5,0,2.7-1.3,2.7-2.8s-1.2-2.7-2.7-2.7h-19.7l4.8-4.8h14.9
			c1.5,0,2.7-1.3,2.7-2.8s-1.2-2.7-2.7-2.7h-9.4l4.8-4.8h4.6c1.5,0,2.8-1.2,2.8-2.8c0-1.2-0.8-2.3-2-2.6l5.9-5.9h2.4v69.6h-44.2
			c-1.5,0-2.8,1.2-2.8,2.8C147,134.4,148.3,135.6,149.8,135.6L149.8,135.6z M193.9,42.5l3.9,3.9l0,0l0,0l0,0l-26.7,26.7l0,0l0,0
			l-3.9-3.9L193.9,42.5L193.9,42.5 M148,89.2l3.2,3.2l-3.8,0.6L148,89.2z M151.5,84.9L151.5,84.9L151.5,84.9l11.7-11.7l0,0l3.9,3.9
			l-11.7,11.7L151.5,84.9z M203.7,36.7c1.1,1.1,1.1,2.8,0,3.9l0,0l-2,2l-3.9-3.9l2-2C200.9,35.6,202.6,35.6,203.7,36.7L203.7,36.7z
			 M129.4,55v-6.3H180l-6.3,6.3H129.4z"/>
		<path id="Path_98" d="M138.4,113.1h46.5c1.5,0,2.7-1.3,2.7-2.8s-1.2-2.7-2.7-2.7h-46.5c-1.5,0-2.7,1.3-2.7,2.8
			S136.9,113.1,138.4,113.1z"/>
		<path id="Path_99" d="M138.4,123.5h46.5c1.5,0,2.7-1.3,2.7-2.8s-1.2-2.7-2.7-2.7h-46.5c-1.5,0-2.7,1.3-2.7,2.8
			C135.7,122.2,136.9,123.4,138.4,123.5z"/>
		<path id="Path_100" d="M145.1,12.6c1.5,0,2.8-1.2,2.8-2.8l0,0c0-1.5-1.3-2.7-2.8-2.7s-2.7,1.2-2.7,2.7l0,0
			C142.3,11.3,143.5,12.6,145.1,12.6z"/>
		<path id="Path_101" d="M151.7,12.6c1.5,0,2.8-1.2,2.8-2.8l0,0c0-1.5-1.3-2.7-2.8-2.7S149,8.3,149,9.8l0,0
			C149,11.3,150.2,12.6,151.7,12.6z"/>
	</g>
</g>
</svg>
