<?xml version="1.0" encoding="utf-8"?>
<!-- Generator: Adobe Illustrator 22.1.0, SVG Export Plug-In . SVG Version: 6.00 Build 0)  -->
<svg version="1.1" id="Capa_1" xmlns="http://www.w3.org/2000/svg" xmlns:xlink="http://www.w3.org/1999/xlink" x="0px" y="0px"
	 viewBox="0 0 382 382" style="enable-background:new 0 0 382 382;" xml:space="preserve">
<style type="text/css">
	.st0{fill:none;}
	.st1{fill:#007377;}
</style>
<g id="Group_106" transform="translate(1455 -6870)">
	<rect id="Rectangle_57" x="-1455" y="6870" class="st0" width="382" height="382"/>
	<g id="Group_98" transform="translate(-70 -725.984)">
		<g id="woman" transform="translate(-1317 7645)">
			<g id="Group_73" transform="translate(75.012 225.736)">
				<g id="Group_72">
					<path id="Path_800" d="M131,38.1c0-0.2,0.3,1.5-7-34.8c-0.4-2.3-2.7-3.7-4.9-3.3s-3.7,2.7-3.3,4.9l0,0
						c6.9,34.7,7.3,34.8,7,37.9c-0.3,2.9-1.6,6.3-8.8,6.3H93v-39c0-2.3-1.9-4.2-4.2-4.2c-2.3,0-4.2,1.9-4.2,4.2v39.1H4.2
						C1.9,49.1,0,51,0,53.3c-0.1,2.3,1.8,4.2,4.1,4.2c0.1,0,0.1,0,0.2,0H114C126.5,57.5,132.6,49.4,131,38.1z"/>
				</g>
			</g>
			<g id="Group_76" transform="translate(0 0)">
				<g id="Group_75">
					<g id="Group_74">
						<path id="Path_801" d="M177.4,182.7L177.4,182.7L177.4,182.7C177.4,182.7,177.3,182.7,177.4,182.7z"/>
						<path id="Path_802" d="M177.5,182.8L177.5,182.8L177.5,182.8L177.5,182.8z"/>
						<path id="Path_803" d="M177.6,182.8"/>
						<path id="Path_804" d="M195.2,210c-1.6-7.8-2.1-14.1-8.2-20.6c-2.7-2.8-5.9-5.1-9.4-6.7l0,0c-29.1-10.1-22.3-7.8-44.7-15.4
							h26.9c6.7,0,12.2-5.3,12.3-12c4.2-70.6,4-67.7,4-67.9c-0.2-20.2,3.6-60.7-41.1-81.5c-3.7-1.7-7.5-3.1-11.4-4.1
							c-31.1-6-52,4.5-61.4,18.5C46,24.6,36,39.6,33.4,63.8c-0.2,2.3,1.5,4.3,3.8,4.5c2.2,0.2,4.2-1.4,4.5-3.7
							c2.9-26.8,14.6-34.8,24-36.8c1.2-0.3,2.3-1.1,2.8-2.2C68.6,25.5,81.3,2,121.9,9.9c5.9,1.7,11.4,4.2,16.6,7.4
							c40.9,26.3,28,63.3,25.1,137.6c0,0.1,0,0.2,0,0.2c0,2.1-1.8,3.9-3.9,3.9h-29.2v-2.9c17.8-9.5,28.9-28,28.9-48.1V96.5
							c0-4.9-3.9-8.9-8.8-9.1c-35.3-1.5-54.3-20.2-60.9-28.1c-1.6-2-4-3.2-6.6-3.3c-2.6,0-5.1,1-6.9,2.9C71,64.4,64.3,68.3,57,70.1
							c-4.8,1.1-8.1,5.4-8.1,10.3c0.4,20.9-0.8,29.1,1,37.9L50,119c2.9,14.8,12.9,28.3,25.7,35.9v4H49.5c-2.1,0-3.9-1.7-3.9-3.9
							c0-0.1,0-0.2,0-0.2c-5.6-94.6-4-65.1-4.3-71.5c-0.2-2.3-2.2-4-4.5-3.9c-2.3,0.2-4,2.1-3.9,4.4c0,0.1,4.3,71.4,4.3,71.4
							c0.1,6.7,5.6,12,12.3,12h23.9c-4.2,1.4-43.8,15.1-44.6,15.4c-8.5,3.6-14.6,11.2-16.4,20.2C0,265.7-0.4,264.7,0.1,269.5
							c0.4,4.1,3,13.7,17.1,13.7h42.3c2.3,0.1,4.2-1.8,4.2-4.1c0.1-2.3-1.8-4.2-4.1-4.2c-0.1,0-0.1,0-0.2,0H46.8v-39.1
							c0-2.3-1.9-4.2-4.2-4.2s-4.2,1.9-4.2,4.2v39.1H17.3c-6.4,0-9.7-2.7-8.7-9.8c13.2-65.8,12.3-61.4,12.8-63.1
							c3.6-11,13.2-12.4,22.6-15.7c0.9,18.3,6,37.9,24.4,37.9c12.1,0,25.8-9.4,34.8-17.4c11.3,9.9,29.1,21.7,42.9,15.8
							c10-4.3,15.3-16.1,16.3-36.2c12,4.2,11,3.3,15.2,5.9c7.5,5.4,7.7,11,9.4,19.4c0.4,2.3,2.7,3.7,4.9,3.3
							C194.1,214.5,195.6,212.3,195.2,210L195.2,210z M58,116.7c-1.3-6-0.7-10.4-0.8-36.2c0-1.1,0.7-2,1.7-2.3
							c15.7-3.8,22.8-13.8,23.8-13.8c1.1,0,20.8,29.4,67.4,31.4c0.4,0,0.8,0.4,0.8,0.8c0,15.6,0.7,19.4-4.7,31.7
							c-2.1,4.3-4.8,8.2-8.1,11.7C112.4,167,65.5,154.4,58,116.7z M63.6,214.9c-6.9-3-10.8-13.8-11.3-31.5l5-1.8
							c7.7,12.3,20.2,20.9,34.5,23.7C84.5,210.8,72,218.5,63.6,214.9L63.6,214.9z M65.4,178.8l11.9-4c4.1-1.4,6.8-5.2,6.8-9.5V159
							c2.7,1,5.5,1.9,8.3,2.5c9.9,2.1,20.1,1.5,29.7-1.8v5.5c0,4.3,2.8,8.1,6.8,9.5l11.9,4C122.9,205.1,82.6,204.1,65.4,178.8
							L65.4,178.8z M142.7,214.9c-8.4,3.6-20.9-4.2-28.2-9.6c14.3-2.8,26.7-11.4,34.5-23.7l5.1,1.8
							C153.5,201.1,149.6,212,142.7,214.9L142.7,214.9z"/>
					</g>
				</g>
			</g>
		</g>
		<g id="user" transform="translate(-1137.401 7719.222)">
			<g id="Group_18" transform="translate(0 0)">
				<g id="XMLID_546_" transform="translate(3.04 3.292)">
					<path id="XMLID_547_" class="st1" d="M15.1,60.8C11.3,64,6.4,65.5,1.5,65c-0.7-0.2-1.1-0.9-1-1.6c0.1-0.4,0.3-0.7,0.6-0.8
						c3.4-1.8,5.3-5.6,6.4-8.4C-2.9,41.4-2.5,21.8,8.9,9.6C19.7-2.3,38.1-3.2,50,7.6c0.7,0.6,1.4,1.3,2,2
						c11.9,13.1,11.9,33.1,0,46.1C42.6,66.2,27,68.3,15.1,60.8z"/>
				</g>
				<path id="Path_118" d="M67.1,35.9c0.1-9.4-3.4-18.5-9.8-25.4C45.4-2.6,25.1-3.6,12.1,8.3c-0.8,0.7-1.5,1.5-2.2,2.2
					C-2.2,23.4-3.3,43.8,7.1,58c-0.9,2.1-2.3,3.8-4.2,5c-1.7,0.9-2.6,2.8-2.3,4.7c0.2,1.9,1.6,3.4,3.5,3.8c0.8,0.1,1.7,0.2,2.5,0.2
					c4.2-0.1,8.3-1.4,11.7-3.8c12.9,7.1,29.1,4.4,39-6.6C63.6,54.4,67.1,45.3,67.1,35.9z M33.5,65.3c-4.9,0-9.7-1.4-13.9-4
					c-0.5-0.3-1-0.5-1.5-0.5c-0.7,0-1.4,0.2-1.9,0.7c-1.7,1.5-3.8,2.5-5.9,3.2c1.3-1.8,2.4-3.8,3.2-5.8c0.5-1.2,0.3-2.5-0.5-3.4
					c-9.6-11.9-9.1-28.9,1.2-40.2c9.7-10.7,26.3-11.5,37-1.8c0.6,0.6,1.3,1.2,1.8,1.8c10.7,11.8,10.7,29.8,0,41.6
					C48,62.1,40.9,65.3,33.5,65.3z"/>
				<path id="Path_119" d="M33.5,32.7c-0.8,0-1.6,0.4-2.1,1c-1.2,1.3-1.2,3.3,0,4.6c1,1.2,2.9,1.3,4,0.3c0.1-0.1,0.2-0.2,0.3-0.3
					c1.2-1.3,1.2-3.3,0-4.6C35.1,33,34.3,32.6,33.5,32.7z"/>
				<path id="Path_120" d="M44.8,32.7c-0.8,0-1.6,0.4-2.1,1c-1.2,1.3-1.2,3.3,0,4.6c1,1.2,2.9,1.3,4,0.3c0.1-0.1,0.2-0.2,0.3-0.3
					c1.2-1.3,1.2-3.3,0-4.6C46.4,33,45.6,32.6,44.8,32.7z"/>
				<path id="Path_121" d="M22.2,32.7c-0.8,0-1.6,0.4-2.1,1c-1.2,1.3-1.2,3.3,0,4.6c1,1.2,2.9,1.3,4,0.3c0.1-0.1,0.2-0.2,0.3-0.3
					c1.2-1.3,1.2-3.3,0-4.6C23.8,33,23,32.6,22.2,32.7z"/>
			</g>
		</g>
	</g>
</g>
</svg>
