<?xml version="1.0" encoding="utf-8"?>
<!-- Generator: Adobe Illustrator 22.1.0, SVG Export Plug-In . SVG Version: 6.00 Build 0)  -->
<svg version="1.1" id="Capa_1" xmlns="http://www.w3.org/2000/svg" xmlns:xlink="http://www.w3.org/1999/xlink" x="0px" y="0px"
	 viewBox="0 0 382 382" style="enable-background:new 0 0 382 382;" xml:space="preserve">
<style type="text/css">
	.st0{fill:none;}
	.st1{fill:#007377;}
</style>
<g id="Group_104" transform="translate(2072 -6521)">
	<rect id="Rectangle_60" x="-2072" y="6521" class="st0" width="382" height="382"/>
	<g id="Group_97" transform="translate(-2200 350.694)">
		<g id="user-5" transform="translate(287.715 6442.03)">
			<g id="Group_20" transform="translate(0 0)">
				<path id="XMLID_11967_" class="st1" d="M50.2,26L28.6,47.6l0,0l0,0L7.1,26c-5.3-5.3-5.3-13.8,0-19s13.8-5.3,19,0l2.6,2.6L31.3,7
					c5.3-5.2,13.7-5.2,19,0.1C55.4,12.3,55.4,20.8,50.2,26L50.2,26L50.2,26z"/>
				<path id="Path_126" d="M40.7,0C36.3,0,32.1,1.7,29,4.8l-0.4,0.4l-0.4-0.4C21.8-1.6,11.3-1.7,4.8,4.7s-6.5,16.9-0.1,23.4l0.1,0.1
					l21.6,21.6l0,0c0.6,0.6,1.4,0.9,2.2,0.9l0,0c0.8,0,1.6-0.3,2.2-0.9l21.6-21.6c6.4-6.4,6.5-16.9,0-23.3l0,0
					C49.3,1.7,45.1,0,40.7,0z M48,23.9L28.6,43.2L9.2,23.8C5.1,19.8,5,13.3,9.1,9.2c4-4.1,10.5-4.1,14.6-0.1
					c0.1,0.1,0.1,0.1,0.2,0.2l2.6,2.6c1.2,1.2,3.1,1.2,4.3,0.1c0,0,0,0,0.1-0.1l2.6-2.6c4-4,10.5-4.1,14.6-0.1c0,0,0,0,0.1,0.1
					C52,13.3,52,19.8,48,23.9z"/>
			</g>
		</g>
		<g id="woman" transform="translate(217 6220.08)">
			<g id="Group_73" transform="translate(74.288 225.739)">
				<g id="Group_72">
					<path id="Path_800" d="M129.7,38.1c0-0.2,0.3,1.5-6.9-34.8c-0.4-2.2-2.6-3.7-4.9-3.3c-2.2,0.4-3.7,2.6-3.3,4.9l0,0
						c6.8,34.7,7.3,34.8,6.9,37.9c-0.3,2.9-1.6,6.3-8.7,6.3H92.1v-39c0-2.3-1.9-4.1-4.2-4.1c-2.3,0-4.1,1.9-4.1,4.1v39.1H4.1
						C1.9,49.2,0,51,0,53.3s1.9,4.2,4.1,4.2l0,0h108.7C125.3,57.5,131.3,49.4,129.7,38.1z"/>
				</g>
			</g>
			<g id="Group_76" transform="translate(0 0)">
				<g id="Group_75">
					<g id="Group_74">
						<path id="Path_801" d="M175.7,182.7L175.7,182.7L175.7,182.7C175.7,182.7,175.6,182.7,175.7,182.7z"/>
						<path id="Path_802" d="M175.8,182.8L175.8,182.8L175.8,182.8L175.8,182.8z"/>
						<path id="Path_803" d="M175.9,182.8"/>
						<path id="Path_804" d="M193.3,210c-1.6-7.8-2.1-14.1-8.1-20.6c-2.7-2.8-5.8-5.1-9.3-6.7l0,0c-28.8-10.1-22.1-7.8-44.3-15.4
							h26.6c6.7,0,12.1-5.4,12.1-12c4.2-70.6,4-67.7,4-67.9c-0.2-20.2,3.6-60.7-40.7-81.5c-3.6-1.7-7.4-3.1-11.3-4.1
							c-30.8-6-51.5,4.5-60.8,18.5c-16,4.4-25.8,19.4-28.4,43.6c-0.2,2.3,1.4,4.3,3.7,4.6s4.3-1.4,4.6-3.7l0,0
							C44.2,38,55.8,29.9,65.1,27.9c1.2-0.3,2.2-1.1,2.8-2.2C68,25.5,80.5,2,120.7,9.9c5.8,1.7,11.3,4.2,16.4,7.4
							c40.5,26.3,27.8,63.3,24.8,137.6c0,0.1,0,0.2,0,0.2c0,2.1-1.7,3.8-3.9,3.9h-28.9v-2.9c17.6-9.6,28.6-28,28.6-48.1V96.5
							c0-4.9-3.8-8.9-8.7-9.1c-35-1.5-53.8-20.2-60.3-28.1c-1.6-2-4-3.2-6.6-3.3s-5.1,0.9-6.9,2.8c-5.1,5.5-11.7,9.4-19,11.3
							c-4.7,1.2-8.1,5.4-8.1,10.3c0.4,20.9-0.8,29.1,1,37.9l0.1,0.7c2.8,14.8,12.7,28.3,25.5,35.9v4H49.1c-2.1,0-3.8-1.7-3.8-3.9
							c0-0.1,0-0.2,0-0.2c-5.6-94.6-3.9-65.1-4.3-71.5c-0.1-2.3-2.1-4-4.4-3.9s-4,2.1-3.9,4.4c0,0.1,4.3,71.4,4.3,71.4
							c0.1,6.7,5.5,12,12.1,12h23.7c-4.2,1.4-43.4,15.1-44.2,15.4c-8.4,3.6-14.5,11.2-16.2,20.2C0,265.7-0.4,264.7,0.1,269.5
							c0.4,4.1,3,13.7,16.9,13.7h42c2.3,0,4.1-1.9,4.1-4.2c0-2.3-1.9-4.1-4.1-4.1H46.3v-39.1c0-2.3-1.9-4.1-4.2-4.1
							s-4.2,1.9-4.2,4.1v39.1h-21c-6.3,0-9.6-2.7-8.6-9.8C21.4,199.3,20.5,203.7,21,202c3.6-11.1,13.1-12.5,22.4-15.7
							c0.9,18.3,5.9,37.9,24.1,37.9c12,0,25.5-9.4,34.5-17.4c11.2,9.9,28.8,21.7,42.5,15.8c9.9-4.3,15.2-16.1,16.1-36.2
							c11.9,4.2,10.9,3.3,15.1,5.9c7.4,5.4,7.7,11,9.3,19.4c0.4,2.2,2.6,3.7,4.9,3.3S193.7,212.3,193.3,210L193.3,210z M57.5,116.7
							c-1.2-6-0.7-10.4-0.8-36.2c0-1.1,0.7-2,1.7-2.3C73.9,74.4,80.9,64.3,82,64.4c1,0,20.6,29.4,66.8,31.4c0.4,0,0.8,0.4,0.8,0.8
							c0,15.6,0.7,19.4-4.6,31.7c-2.1,4.3-4.8,8.2-8.1,11.7C111.3,167,64.8,154.4,57.5,116.7z M63,214.9c-6.9-3-10.7-13.8-11.2-31.5
							l4.9-1.8c7.6,12.3,20,20.9,34.2,23.7C83.7,210.8,71.3,218.5,63,214.9L63,214.9z M64.8,178.8l11.8-4c4.1-1.4,6.8-5.2,6.8-9.5
							V159c2.7,1,5.4,1.9,8.2,2.5c9.8,2.1,20,1.5,29.4-1.8v5.5c0,4.3,2.7,8.1,6.8,9.5l11.8,4C121.7,205.1,81.8,204.1,64.8,178.8
							L64.8,178.8z M141.3,214.9c-8.3,3.6-20.7-4.2-27.9-9.6c14.2-2.8,26.5-11.4,34.1-23.7l5,1.8C152.1,201.1,148.2,212,141.3,214.9
							L141.3,214.9z"/>
					</g>
				</g>
			</g>
		</g>
	</g>
</g>
</svg>
