<?xml version="1.0" encoding="utf-8"?>
<!-- Generator: Adobe Illustrator 22.1.0, SVG Export Plug-In . SVG Version: 6.00 Build 0)  -->
<svg version="1.1" id="Capa_1" xmlns="http://www.w3.org/2000/svg" xmlns:xlink="http://www.w3.org/1999/xlink" x="0px" y="0px"
	 viewBox="0 0 382 382" style="enable-background:new 0 0 382 382;" xml:space="preserve">
<style type="text/css">
	.st0{fill:none;}
	.st1{fill:#007377;}
</style>
<g id="Group_105" transform="translate(813 -7368)">
	<rect id="Rectangle_59" x="-813" y="7368" class="st0" width="382" height="382"/>
	<g id="startup" transform="translate(-790.244 7402)">
		<g id="Group_21">
			<rect id="Rectangle_34" x="38.9" y="217.2" class="st1" width="260.4" height="42.6"/>
			<path id="Path_127" d="M168.3,281.5c-3.2,0-5.8,2.6-5.8,5.8v15h-50.2c-3.2,0-5.8,2.6-5.8,5.8c0,3.2,2.6,5.8,5.8,5.8h112.1
				c3.2,0,5.8-2.6,5.8-5.8s-2.6-5.8-5.8-5.8l0,0h-50.2v-15C174.1,284.1,171.5,281.5,168.3,281.5L168.3,281.5z"/>
			<path id="Path_128" d="M45.4,265.6h245.7c7.8,0,14-6.3,14-14l0,0V82.4c0-7.8-6.3-14-14-14l0,0h-68.8c-3.2,0-5.8,2.6-5.8,5.8
				c0,3.2,2.6,5.8,5.8,5.8l0,0h68.8c1.3,0,2.4,1.1,2.4,2.4l0,0v169.2c0,1.3-1.1,2.4-2.4,2.4l0,0H45.4c-1.3,0-2.4-1.1-2.4-2.4l0,0
				v-28.2h231.8c3.2,0,5.8-2.6,5.8-5.8s-2.6-5.8-5.8-5.8h-29.3c-2.5-17.1-17.2-29.8-34.5-29.9c-3.2,0-5.8,2.6-5.8,5.8
				s2.6,5.8,5.8,5.8l0,0c10.9,0,20.3,7.6,22.7,18.2h-26.6c-2.3-18-16.4-32.1-34.4-34.4v-40.5c0-3.2-2.6-5.8-5.8-5.8
				s-5.8,2.6-5.8,5.8v40.7c-17.3,2.9-30.6,16.8-32.9,34.2h-26.7c2.4-10.6,11.8-18.2,22.7-18.2c3.2,0,5.8-2.6,5.8-5.8
				s-2.6-5.8-5.8-5.8l0,0c-17.3,0-32,12.8-34.5,29.9H40c-0.9-0.5-1.8-0.8-2.8-0.8c-3.2,0-5.8,2.6-5.8,5.8v34.7
				C31.4,259.3,37.7,265.5,45.4,265.6z M167.7,188.6c13.6,0,25.3,9.8,27.7,23.1h-55.3C142.4,198.4,154.1,188.6,167.7,188.6
				L167.7,188.6z"/>
			<path id="Path_129" d="M37.2,199.1c3.2,0,5.8-2.6,5.8-5.8v-111c0-1.3,1.1-2.4,2.4-2.4l0,0h68.9c3.2,0,5.8-2.6,5.8-5.8
				c0-3.2-2.6-5.8-5.8-5.8l0,0h-69c-7.8,0-14,6.3-14,14l0,0v111C31.3,196.5,33.9,199.1,37.2,199.1z"/>
			<circle id="Ellipse_5" cx="167.8" cy="239.5" r="6.7"/>
			<path id="Path_130" d="M116.3,146c0,3.2,2.6,5.8,5.8,5.8H134v13.5c0,3.2,2.6,5.8,5.8,5.8s5.8-2.6,5.8-5.8l0,0v-13.5h0.8
				c3.2,0,5.8-2.6,5.8-5.8s-2.6-5.8-5.8-5.8h-18.6v-6.5c0-2.2,0.7-4.3,1.9-6.1l10.5-15.1c2.5-3.6,3.9-7.9,3.8-12.2V49.8
				c0-4.8,1.7-9.3,4.8-13l18.9-22.1l19,22.1c3.1,3.6,4.9,8.2,4.9,13v50.8c0,4.1,1.2,8,3.3,11.5l9.8,15.5c1.1,1.7,1.7,3.7,1.7,5.7
				v6.9h-17.6c-3.2,0-5.8,2.6-5.8,5.8c0,2.9,2.2,5.4,5.1,5.8v13.5c0,3.2,2.6,5.8,5.8,5.8s5.8-2.6,5.8-5.8l0,0v-13.5h12.4
				c3.2,0,5.8-2.6,5.8-5.8v-12.7c0-4.2-1.2-8.4-3.5-11.9l-9.8-15.5c-1-1.6-1.5-3.4-1.5-5.3V49.9c0-7.6-2.8-14.9-7.7-20.7L172.2,2
				c-1.1-1.3-2.7-2-4.4-2s-3.3,0.8-4.4,2.1l-23.3,27.3c-4.9,5.7-7.6,13-7.6,20.5v50.5c0,2-0.6,3.9-1.7,5.6l-10.6,15
				c-2.6,3.7-4,8.2-4,12.8L116.3,146L116.3,146z"/>
		</g>
	</g>
</g>
</svg>
