<?xml version="1.0" encoding="utf-8"?>
<!-- Generator: Adobe Illustrator 22.1.0, SVG Export Plug-In . SVG Version: 6.00 Build 0)  -->
<svg version="1.1" id="Layer_1" xmlns="http://www.w3.org/2000/svg" xmlns:xlink="http://www.w3.org/1999/xlink" x="0px" y="0px"
	 viewBox="0 0 471.2 216.1" style="enable-background:new 0 0 471.2 216.1;" xml:space="preserve">
<style type="text/css">
	.st0{fill:#FFFFFF;}
</style>
<g>
	<path class="st0" d="M422,112.6c-5.2-1.7-10.7-3.3-15.8-4.6c2.7-3.2,7.4-8.8,10.8-13.5c3.6-4.8,5.3-8.6,5.3-12.4
		c0-3.2-1.2-6.6-3.6-10.7c-4.2-7.5-11.6-14.8-17.9-19.6c-4.6-3.3-11.5-7.3-18.1-7.3c-3.7,0-7.4,1.5-10.4,5.1
		c-3.3,4.4-6.5,9.1-9.3,13.4c-2.3-3.6-6.2-9.6-9.7-14.3c-5.1-6.5-9.1-9.2-15.3-9.2c-11.3,0-23.9,7-30.6,11.5
		c-5.4,3.9-13.6,10.4-13.6,18.4c0,2.4,0.8,5,2.8,7.6c3.2,4.5,6.7,8.9,10,12.9c-4.1,1.1-11.2,2.9-16.7,4.6
		c-10.9,3.5-15.5,8.4-15.5,22.7c0,6.2,0.9,13.3,3.5,21.1c2.7,8.3,8.4,22.6,21.7,18.2c5.2-1.7,10.6-3.6,15.5-5.5
		c-0.3,4.2-0.7,8.3-0.7,14c0,14.4,2.9,18.6,11.9,22.9c8,3.6,18.2,5.2,26.5,5.2c8.7,0,24.2-1,24.2-14.8c0-8.6-0.1-11.2-0.4-16.3
		c3.9,1.5,10.7,4.2,16.3,5.9c3.7,1.2,6.6,1.8,9.3,1.8c4.7,0,8.4-2.3,13.1-7.3c8.2-8.7,15.9-25.5,15.9-36.5
		C431.5,120.4,429.3,114.9,422,112.6 M325.9,73.6c10-7.2,20.5-8.8,28.3-8.8c3,0,5.6,0.2,7.4,0.5c-5.3,8.2-7.8,14.3-8,17.2
		c-0.2-0.7-1.7-5.1-8-5.1c-6.7,0-13.2,4.2-18,4.2c-3.4,0-4.3-2.8-4.3-4C323.3,76.5,323.9,75,325.9,73.6 M314.3,123.3
		c0.1,4.6-0.5,7.4-3.3,8.3c-2.1,0.7-4.4,0-5.5-3.7c-5.3-15.8,0.1-29.7,3-35.7c6,6.9,10.8,11.5,13.7,12.9c-0.5-0.1-1.1,0-1.7,0.3
		C313.4,107.6,314.1,117.4,314.3,123.3 M351.2,164.4c-17.3,0-28.9-9.4-33.5-14c4.1-1.9,8.1-3.6,10.8-5.3c1.9-1.1,3.9-2.2,5.5-3.9
		c-0.2,0.6-0.3,1.3-0.3,2.1c0,7.2,9.6,9.6,15.3,11.3c4.5,1.3,7.4,2.9,7.4,5.8C356.5,162.5,355.2,164.4,351.2,164.4 M371,138.7
		c-2.7-2.6-7.7-4.4-17-4.4c-8.4,0-14.9,1.3-18.2,4.2c0.8-1.6,1.2-3.5,1.2-6c0-2.9-0.7-6.3-2.2-10.9c-2.6-7.9-5.9-13.7-9.7-15.8
		c3.8,0.5,8.8-0.9,16.4-6.3c6.8-4.9,11.3-9.8,12.1-14c0.7,3.7,3.6,8,11.1,13.5c6.8,4.9,12.9,7.6,17.2,7.1c-3.4,1.8-6.7,5.9-9.6,14.6
		c-1.6,4.9-2.5,9-2.5,12.5C370,135.4,370.3,137.2,371,138.7 M394.3,144.7c-6,8.2-13.4,12.8-17.6,15c-0.4-4.8-0.9-9-1.5-12.2
		c-0.5-2.1-1-4.4-2.2-6.4c0.5,0.4,1.2,0.7,2,1c6.9,2.3,12.2-6.1,15.6-10.9c2.3-3.2,4.3-4.9,6.6-4.9c1.6,0,4,1,4,3.5
		C401.1,132.4,398.7,138.3,394.3,144.7 M387.9,104.8c-1,0-1.9,0.1-2.9,0.3c1.1-0.8,3-2.8,3-5.9c0-4.8-4.4-10.1-7.1-13.7
		c-2-2.6-3.3-4.8-3.3-6.7c0-2,1.8-3.9,3.9-3.9c1.1,0,2.2,0.4,3.6,1.4c14,10,17.8,24.3,18.8,31C397.7,105.8,391.4,104.8,387.9,104.8
		 M262.5,64h-22.4c-15.3-15.8-35.4-24.3-55.9-24.3c-20.8,0.1-40.6,8.6-55.9,24.3H106c16.7-24.9,46.7-41.5,78.2-41.5
		C216.3,22.5,246.3,39.7,262.5,64"/>
	<path class="st0" d="M43.8,127c0,17.8,12.4,30.5,29.5,30.5c8.2,0,16.2-3.7,23.1-10.7l0.4-0.5l11.1,13.3l-0.3,0.3
		c-9.2,10.8-20.2,16.1-33.7,16.1c-13.6,0-25.9-4.5-34.9-12.8c-9.6-8.9-14.8-21.5-14.8-36.4c0-14.9,5.1-27.5,14.8-36.4
		c9-8.3,21.4-12.8,34.9-12.8c13.5,0,24.5,5.2,33.7,16.1l0.3,0.3l-11.1,13.3l-0.4-0.4c-6.9-7.1-14.8-10.8-23.1-10.8
		C56.2,96.5,43.8,109.3,43.8,127 M119,174.4h19.5v-13.3V79.4H119V174.4z M200.3,158.5c-6.3,0-9.1-3.3-9.1-10.7V97.4H211V79.5h-19.8
		V49.9l-19.1,10.3v19.3h-16.5v17.9h16.5V151c0,14.6,8.7,24.6,21.6,24.8c8.7,0.2,14.1-2.4,17.2-4.4l0.2-0.1l4.7-18.3l-1.1,0.7
		C209.5,156.9,204.7,158.5,200.3,158.5 M230.8,79.4v95h19.5v-10.5V79.4H230.8z"/>
	<path class="st0" d="M282.7,55.4c0,4.9-3.7,8.6-8.6,8.6c-4.9,0-8.6-3.7-8.6-8.6c0-4.9,3.7-8.6,8.6-8.6
		C278.9,46.8,282.7,50.5,282.7,55.4 M284.3,55.4c0-5.8-4.4-10.2-10.2-10.2c-5.8,0-10.3,4.4-10.3,10.2c0,5.8,4.4,10.3,10.3,10.3
		C279.9,65.7,284.3,61.2,284.3,55.4 M278.7,53c0-2.3-1.7-3.4-3.7-3.4h-4.9v11.2h1.9v-4.3h2.2l2.2,4.3h2.2l-2.3-4.5
		C277.8,55.9,278.7,54.8,278.7,53 M276.8,53.1c0,1.1-0.8,1.6-1.8,1.6h-2.9v-3.2h2.9C276,51.5,276.8,52,276.8,53.1"/>
	<path class="st0" d="M433.8,55.4c0,4.9-3.7,8.6-8.6,8.6c-4.9,0-8.6-3.7-8.6-8.6c0-4.9,3.7-8.6,8.6-8.6
		C430.1,46.8,433.8,50.5,433.8,55.4 M435.5,55.4c0-5.8-4.4-10.2-10.2-10.2c-5.8,0-10.3,4.4-10.3,10.2c0,5.8,4.4,10.3,10.3,10.3
		C431.1,65.7,435.5,61.2,435.5,55.4 M429.9,53c0-2.3-1.7-3.4-3.7-3.4h-4.9v11.2h1.9v-4.3h2.2l2.2,4.3h2.2l-2.3-4.5
		C429,55.9,429.9,54.8,429.9,53 M428,53.1c0,1.1-0.8,1.6-1.8,1.6h-2.9v-3.2h2.9C427.2,51.5,428,52,428,53.1"/>
</g>
</svg>
