<?xml version="1.0" encoding="utf-8"?>
<!-- Generator: Adobe Illustrator 22.1.0, SVG Export Plug-In . SVG Version: 6.00 Build 0)  -->
<svg version="1.1" id="Layer_1" xmlns="http://www.w3.org/2000/svg" xmlns:xlink="http://www.w3.org/1999/xlink" x="0px" y="0px"
	 viewBox="0 0 420.5 420.6" style="enable-background:new 0 0 420.5 420.6;" xml:space="preserve">
<style type="text/css">
	.st0{fill:#ED1C24;}
	.st1{fill:#004785;}
</style>
<g>
	<path class="st0" d="M404.4,205.4c-5.2-1.7-10.7-3.3-15.8-4.6c2.7-3.2,7.4-8.8,10.8-13.5c3.6-4.8,5.3-8.6,5.3-12.4
		c0-3.2-1.2-6.6-3.6-10.7c-4.2-7.5-11.6-14.8-17.9-19.6c-4.6-3.3-11.5-7.3-18.1-7.3c-3.7,0-7.4,1.5-10.4,5.1
		c-3.3,4.4-6.5,9.1-9.3,13.4c-2.3-3.6-6.2-9.6-9.7-14.3c-5.1-6.5-9.1-9.2-15.3-9.2c-11.3,0-23.9,7-30.6,11.5
		c-5.4,3.9-13.6,10.4-13.6,18.4c0,2.4,0.8,5,2.8,7.6c3.2,4.5,6.7,8.9,10,12.9c-4.1,1.1-11.2,2.9-16.7,4.6
		c-10.9,3.5-15.5,8.4-15.5,22.7c0,6.2,0.9,13.3,3.5,21.1c2.7,8.3,8.4,22.6,21.7,18.2c5.2-1.7,10.6-3.6,15.5-5.5
		c-0.3,4.2-0.7,8.3-0.7,14c0,14.4,2.9,18.6,11.9,22.9c8,3.6,18.2,5.2,26.5,5.2c8.7,0,24.2-1,24.2-14.8c0-8.6-0.1-11.2-0.4-16.3
		c3.9,1.5,10.7,4.2,16.3,5.9c3.7,1.2,6.6,1.8,9.3,1.8c4.7,0,8.4-2.3,13.1-7.3c8.2-8.7,15.9-25.5,15.9-36.5
		C413.9,213.2,411.7,207.7,404.4,205.4 M308.3,166.4c10-7.2,20.5-8.8,28.3-8.8c3,0,5.6,0.2,7.4,0.5c-5.3,8.2-7.8,14.3-8,17.2
		c-0.2-0.7-1.7-5.1-8-5.1c-6.7,0-13.2,4.2-18,4.2c-3.4,0-4.3-2.8-4.3-4C305.6,169.3,306.3,167.8,308.3,166.4 M296.7,216.1
		c0.1,4.6-0.5,7.4-3.3,8.3c-2.1,0.7-4.4,0-5.5-3.7c-5.3-15.8,0.1-29.7,3-35.7c6,6.9,10.8,11.5,13.7,12.9c-0.5-0.1-1.1,0-1.7,0.3
		C295.8,200.4,296.5,210.2,296.7,216.1 M333.6,257.2c-17.3,0-28.9-9.4-33.5-14c4.1-1.9,8.1-3.6,10.8-5.3c1.9-1.1,3.9-2.2,5.5-3.9
		c-0.2,0.6-0.3,1.3-0.3,2.1c0,7.2,9.6,9.6,15.3,11.3c4.5,1.3,7.4,2.9,7.4,5.8C338.9,255.3,337.6,257.2,333.6,257.2 M353.4,231.5
		c-2.7-2.6-7.7-4.4-17-4.4c-8.4,0-14.9,1.3-18.2,4.2c0.8-1.6,1.2-3.5,1.2-6c0-2.9-0.7-6.3-2.2-10.9c-2.6-7.9-5.9-13.7-9.7-15.8
		c3.8,0.5,8.8-0.9,16.4-6.3c6.8-4.9,11.3-9.8,12.1-14c0.7,3.7,3.6,8,11.1,13.5c6.8,4.9,12.9,7.6,17.2,7.1c-3.4,1.8-6.7,5.9-9.6,14.6
		c-1.6,4.9-2.5,9-2.5,12.5C352.4,228.2,352.7,230,353.4,231.5 M376.7,237.5c-6,8.2-13.4,12.8-17.6,15c-0.4-4.8-0.9-9-1.5-12.2
		c-0.5-2.1-1-4.4-2.2-6.4c0.5,0.4,1.2,0.7,2,1c6.9,2.3,12.2-6.1,15.6-10.9c2.3-3.2,4.3-4.9,6.6-4.9c1.6,0,4,1,4,3.5
		C383.5,225.2,381.1,231.2,376.7,237.5 M370.3,197.6c-1,0-1.9,0.1-2.9,0.3c1.1-0.8,3-2.8,3-5.9c0-4.8-4.4-10.1-7.1-13.7
		c-2-2.6-3.3-4.8-3.3-6.7c0-2,1.8-3.9,3.9-3.9c1.1,0,2.2,0.4,3.6,1.4c14,10,17.8,24.3,18.8,31C380.1,198.6,373.8,197.6,370.3,197.6
		 M244.9,156.8h-22.4c-15.3-15.8-35.4-24.3-55.9-24.3c-20.8,0.1-40.6,8.6-55.9,24.3H88.4c16.7-24.9,46.7-41.5,78.2-41.5
		C198.7,115.3,228.7,132.5,244.9,156.8"/>
	<path class="st1" d="M26.2,219.8c0,17.8,12.4,30.5,29.5,30.5c8.2,0,16.2-3.7,23.1-10.7l0.4-0.5l11.1,13.3l-0.3,0.3
		C80.7,263.8,69.7,269,56.2,269c-13.6,0-25.9-4.5-34.9-12.8c-9.6-8.9-14.8-21.5-14.8-36.4c0-14.9,5.1-27.5,14.8-36.4
		c9-8.3,21.4-12.8,34.9-12.8c13.5,0,24.5,5.2,33.7,16.1l0.3,0.3l-11.1,13.3l-0.4-0.4c-6.9-7.1-14.8-10.8-23.1-10.8
		C38.6,189.3,26.2,202.1,26.2,219.8 M101.3,267.2h19.5v-13.3v-81.8h-19.5V267.2z M182.7,251.3c-6.3,0-9.1-3.3-9.1-10.7v-50.4h19.8
		v-17.9h-19.8v-29.6l-19.1,10.3v19.3H138v17.9h16.5v53.6c0,14.6,8.7,24.6,21.6,24.8c8.7,0.2,14.1-2.4,17.2-4.4l0.2-0.1l4.7-18.3
		l-1.1,0.7C191.9,249.7,187,251.3,182.7,251.3 M213.2,172.2v95h19.5v-10.5v-84.5H213.2z"/>
</g>
</svg>
