<svg xmlns="http://www.w3.org/2000/svg" viewBox="0 0 382 382">
  <defs>
    <style>
      .cls-1 {
        fill: none;
      }

      .cls-2 {
        fill: #3c92ca;
      }
    </style>
  </defs>
  <g id="Group_104" data-name="Group 104" transform="translate(2072 -6521)">
    <rect id="Rectangle_60" data-name="Rectangle 60" class="cls-1" width="382" height="382" transform="translate(-2072 6521)"/>
    <g id="Group_97" data-name="Group 97" transform="translate(-2200 350.694)">
      <g id="user-5" transform="translate(287.715 6442.03)">
        <g id="Group_20" data-name="Group 20" transform="translate(0 0)">
          <path id="XMLID_11967_" class="cls-2" d="M216.528,371.988l-21.556,21.556-.034-.034h0l-21.523-21.556A13.445,13.445,0,0,1,192.43,352.94l2.61,2.61,2.576-2.576a13.409,13.409,0,1,1,18.913,19.014Z" transform="translate(-166.365 -345.958)"/>
          <path id="Path_126" data-name="Path 126" d="M201.006,340a16.463,16.463,0,0,0-11.693,4.847l-.407.407-.407-.407A16.513,16.513,0,1,0,165.147,368.2L186.7,389.756l.034.034a3.082,3.082,0,0,0,2.169.915h0a3.082,3.082,0,0,0,2.169-.915l21.556-21.556a16.488,16.488,0,0,0,0-23.353A16.144,16.144,0,0,0,201.006,340Zm7.287,23.861-19.387,19.387-19.421-19.421a10.342,10.342,0,1,1,14.642-14.608l2.61,2.61a3.028,3.028,0,0,0,4.338,0l2.576-2.576a10.311,10.311,0,0,1,14.642,0,10.351,10.351,0,0,1,0,14.608Z" transform="translate(-160.3 -340)"/>
        </g>
      </g>
      <g id="woman" transform="translate(217 6220.08)">
        <g id="Group_73" data-name="Group 73" transform="translate(74.288 225.739)">
          <g id="Group_72" data-name="Group 72">
            <path id="Path_800" data-name="Path 800" d="M335.383,446.192c-.029-.206.307,1.521-6.917-34.77a4.15,4.15,0,0,0-8.141,1.621c6.811,34.728,7.265,34.78,6.926,37.929-.315,2.93-1.589,6.292-8.694,6.292H297.745V418.147a4.15,4.15,0,0,0-8.3,0v39.118H209.829a4.15,4.15,0,1,0,0,8.3H318.558C330.983,465.567,336.987,457.5,335.383,446.192Z" transform="translate(-205.679 -408.082)"/>
          </g>
        </g>
        <g id="Group_76" data-name="Group 76" transform="translate(0 0)">
          <g id="Group_75" data-name="Group 75">
            <g id="Group_74" data-name="Group 74">
              <path id="Path_801" data-name="Path 801" d="M388.972,330.3l.088.039.006,0C389.014,330.315,388.92,330.271,388.972,330.3Z" transform="translate(-213.285 -147.583)"/>
              <path id="Path_802" data-name="Path 802" d="M389.22,330.408l.007,0,.03.014Z" transform="translate(-213.402 -147.636)"/>
              <path id="Path_803" data-name="Path 803" d="M389.286,330.439Z" transform="translate(-213.432 -147.65)"/>
              <path id="Path_804" data-name="Path 804" d="M264.667,210.027c-1.579-7.82-2.114-14.058-8.123-20.579a30.534,30.534,0,0,0-9.335-6.671l-.049-.022c-28.779-10.1-22.124-7.77-44.3-15.438h26.646a12.165,12.165,0,0,0,12.15-12.015c4.165-70.642,4-67.678,4-67.923-.169-20.222,3.556-60.749-40.681-81.524a75.392,75.392,0,0,0-11.264-4.132c-30.816-6-51.542,4.529-60.81,18.507-16,4.387-25.821,19.413-28.433,43.6a4.15,4.15,0,0,0,8.253.891c2.89-26.755,14.5-34.788,23.722-36.816a4.151,4.151,0,0,0,2.8-2.156c.122-.238,12.689-23.7,52.882-15.876a62.358,62.358,0,0,1,16.427,7.424c40.461,26.335,27.759,63.287,24.811,137.628,0,.081-.007.163-.007.244a3.854,3.854,0,0,1-3.85,3.85H200.635v-2.9a54.539,54.539,0,0,0,28.58-48.092V96.542a9.081,9.081,0,0,0-8.715-9.083c-35.006-1.511-53.822-20.167-60.287-28.119a8.882,8.882,0,0,0-6.55-3.268,8.981,8.981,0,0,0-6.853,2.792A39.119,39.119,0,0,1,127.791,70.12a10.586,10.586,0,0,0-8.05,10.319c.389,20.907-.841,29.111.99,37.932l.146.734c2.824,14.812,12.727,28.321,25.5,35.883v4.028H120.453a3.855,3.855,0,0,1-3.85-3.85c0-.081,0-.163-.007-.244-5.588-94.64-3.92-65.117-4.3-71.526a4.15,4.15,0,1,0-8.286.49c0,.089,4.288,71.358,4.292,71.416a12.164,12.164,0,0,0,12.149,12.016h23.693c-4.174,1.428-43.421,15.052-44.163,15.385a27.538,27.538,0,0,0-16.207,20.191C71.368,265.731,71,264.681,71.523,269.522c.444,4.12,2.983,13.7,16.948,13.7h41.876a4.15,4.15,0,0,0,0-8.3H117.733V235.806a4.15,4.15,0,0,0-8.3,0v39.118H88.47c-6.345,0-9.582-2.656-8.622-9.8,13.1-65.78,12.155-61.374,12.716-63.083,3.572-11.069,13.074-12.455,22.363-15.743.878,18.277,5.923,37.854,24.137,37.854,12.01,0,25.521-9.445,34.47-17.4,11.164,9.917,28.772,21.705,42.464,15.806,9.875-4.256,15.176-16.142,16.143-36.248,11.9,4.212,10.93,3.3,15.054,5.947,7.409,5.357,7.661,11.03,9.33,19.384a4.15,4.15,0,0,0,8.141-1.62ZM128.859,116.689c-1.242-5.978-.718-10.374-.818-36.249a2.3,2.3,0,0,1,1.731-2.259c15.529-3.82,22.561-13.835,23.571-13.815,1.048.04,20.584,29.391,66.8,31.385a.8.8,0,0,1,.773.79c-.016,15.644.706,19.4-4.634,31.718a46.367,46.367,0,0,1-8.059,11.663C182.656,166.991,136.23,154.45,128.859,116.689Zm5.5,98.252c-6.864-2.959-10.728-13.84-11.235-31.545l4.945-1.752a52.077,52.077,0,0,0,34.182,23.666C155.1,210.758,142.642,218.514,134.355,214.941Zm1.777-36.1,11.76-4.033a10.033,10.033,0,0,0,6.779-9.49v-6.26a53.8,53.8,0,0,0,8.248,2.477,55.055,55.055,0,0,0,29.414-1.761v5.546a10.032,10.032,0,0,0,6.778,9.49l11.76,4.033C193.131,205.1,153.166,204.059,136.133,178.839Zm76.58,36.1c-8.278,3.567-20.711-4.16-27.905-9.642a52.1,52.1,0,0,0,34.135-23.66l5.006,1.773C223.44,201.107,219.574,211.984,212.713,214.941Z" transform="translate(-71.385 -0.001)"/>
            </g>
          </g>
        </g>
      </g>
    </g>
  </g>
</svg>
