<svg xmlns="http://www.w3.org/2000/svg" viewBox="0 0 382 382">
  <defs>
    <style>
      .cls-1 {
        fill: none;
      }

      .cls-2 {
        fill: #3c92ca;
      }
    </style>
  </defs>
  <g id="Group_105" data-name="Group 105" transform="translate(813 -7368)">
    <rect id="Rectangle_59" data-name="Rectangle 59" class="cls-1" width="382" height="382" transform="translate(-813 7368)"/>
    <g id="startup" transform="translate(-790.244 7402)">
      <g id="Group_21" data-name="Group 21">
        <rect id="Rectangle_34" data-name="Rectangle 34" class="cls-2" width="260.448" height="42.649" transform="translate(38.854 217.158)"/>
        <path id="Path_127" data-name="Path 127" d="M210.239,438.9a5.858,5.858,0,0,0-5.836,5.836v15.007H154.186a5.836,5.836,0,0,0,0,11.672H266.292a5.836,5.836,0,1,0,0-11.672H216.075V444.736A5.816,5.816,0,0,0,210.239,438.9Z" transform="translate(-41.963 -157.416)"/>
        <path id="Path_128" data-name="Path 128" d="M45.4,303.812h245.7a14.041,14.041,0,0,0,14.045-14.045V120.645A14.041,14.041,0,0,0,291.093,106.6H222.341a5.836,5.836,0,1,0,0,11.672h68.752a2.436,2.436,0,0,1,2.437,2.437V289.895a2.436,2.436,0,0,1-2.437,2.437H45.4a2.436,2.436,0,0,1-2.437-2.437V261.74h231.78a5.836,5.836,0,0,0,0-11.672H245.429a34.95,34.95,0,0,0-34.5-29.886,5.836,5.836,0,1,0,0,11.672,23.31,23.31,0,0,1,22.7,18.214H207.077a39.878,39.878,0,0,0-34.376-34.44V175.159a5.836,5.836,0,0,0-11.672,0v40.725a39.946,39.946,0,0,0-32.9,34.183h-26.68a23.31,23.31,0,0,1,22.7-18.214,5.836,5.836,0,1,0,0-11.672,34.95,34.95,0,0,0-34.5,29.886H40.008a5.984,5.984,0,0,0-2.822-.77,5.858,5.858,0,0,0-5.836,5.836v34.7A14.111,14.111,0,0,0,45.4,303.812Zm122.3-76.961A28.225,28.225,0,0,1,195.4,250H140.057A28.054,28.054,0,0,1,167.7,226.851Z" transform="translate(0 -38.233)"/>
        <path id="Path_129" data-name="Path 129" d="M37.186,237.3a5.858,5.858,0,0,0,5.836-5.836V120.509a2.436,2.436,0,0,1,2.437-2.437H114.4a5.836,5.836,0,1,0,0-11.672H45.4A14.041,14.041,0,0,0,31.35,120.445V231.4A5.871,5.871,0,0,0,37.186,237.3Z" transform="translate(0 -38.161)"/>
        <circle id="Ellipse_5" data-name="Ellipse 5" cx="6.734" cy="6.734" r="6.734" transform="translate(161.029 232.742)"/>
        <path id="Path_130" data-name="Path 130" d="M163.75,146.033a5.858,5.858,0,0,0,5.836,5.836h11.929v13.468a5.836,5.836,0,1,0,11.672,0V151.869h.77a5.836,5.836,0,0,0,0-11.672h-18.6v-6.478a10.413,10.413,0,0,1,1.924-6.093L187.8,112.555a21.34,21.34,0,0,0,3.848-12.25V49.832a19.978,19.978,0,0,1,4.81-12.955l18.92-22.126,18.984,22.062a20,20,0,0,1,4.874,13.019v50.794a21.547,21.547,0,0,0,3.335,11.48l9.813,15.456a10.585,10.585,0,0,1,1.667,5.708v6.862H236.414a5.825,5.825,0,0,0-.705,11.608v13.532a5.836,5.836,0,1,0,11.672,0V151.805h12.442a5.858,5.858,0,0,0,5.836-5.836v-12.7a22.469,22.469,0,0,0-3.463-11.929l-9.812-15.456a9.668,9.668,0,0,1-1.539-5.259V49.9a31.8,31.8,0,0,0-7.7-20.651L219.675,1.988A5.743,5.743,0,0,0,215.25,0a5.9,5.9,0,0,0-4.425,2.052L187.544,29.309a31.677,31.677,0,0,0-7.568,20.523V100.37a9.579,9.579,0,0,1-1.732,5.58l-10.518,15.071a22.111,22.111,0,0,0-3.976,12.763v12.25Z" transform="translate(-47.487 0)"/>
      </g>
    </g>
  </g>
</svg>
