<svg xmlns="http://www.w3.org/2000/svg" viewBox="0 0 106.368 132.961">
  <defs>
    <style>
      .cls-1 {
        fill: #6b6b6b;
      }

      .cls-2 {
        fill: #00bdf2;
      }
    </style>
  </defs>
  <g id="_002-web" data-name="002-web" transform="translate(-48)">
    <g id="Group_2" data-name="Group 2" transform="translate(48)">
      <g id="Group_1" data-name="Group 1">
        <path id="Path_1" data-name="Path 1" class="cls-1" d="M143.288,0H59.08A11.093,11.093,0,0,0,48,11.08V70.912a11.093,11.093,0,0,0,11.08,11.08h30.3l-3.164,11.08H79.024V97.5h44.32V93.072h-7.193l-3.164-11.08h30.3a11.093,11.093,0,0,0,11.08-11.08V11.08A11.093,11.093,0,0,0,143.288,0ZM90.827,93.072l3.164-11.08h14.386l3.164,11.08Zm59.11-22.16a6.648,6.648,0,0,1-6.648,6.648H59.08a6.648,6.648,0,0,1-6.648-6.648V66.48h97.5Zm0-8.864h-97.5V11.08A6.648,6.648,0,0,1,59.08,4.432h84.208a6.648,6.648,0,0,1,6.648,6.648Z" transform="translate(-48)"/>
      </g>
    </g>
    <g id="Group_4" data-name="Group 4" transform="translate(54.648 101.936)">
      <g id="Group_3" data-name="Group 3">
        <path id="Path_2" data-name="Path 2" class="cls-1" d="M136.264,368H74.216A2.216,2.216,0,0,0,72,370.216v26.592a2.216,2.216,0,0,0,2.216,2.216h62.048a2.216,2.216,0,0,0,2.216-2.216V370.216A2.216,2.216,0,0,0,136.264,368Zm-2.216,26.592H76.432v-22.16h57.616Z" transform="translate(-72 -368)"/>
      </g>
    </g>
    <g id="Group_6" data-name="Group 6" transform="translate(63.512 119.665)">
      <g id="Group_5" data-name="Group 5" transform="translate(0)">
        <rect id="Rectangle_2" data-name="Rectangle 2" class="cls-1" width="4.432" height="4.432"/>
      </g>
    </g>
    <g id="Group_8" data-name="Group 8" transform="translate(63.512 110.8)">
      <g id="Group_7" data-name="Group 7" transform="translate(0)">
        <rect id="Rectangle_3" data-name="Rectangle 3" class="cls-1" width="4.432" height="4.432"/>
      </g>
    </g>
    <g id="Group_10" data-name="Group 10" transform="translate(72.376 110.8)">
      <g id="Group_9" data-name="Group 9">
        <rect id="Rectangle_4" data-name="Rectangle 4" class="cls-1" width="4.432" height="4.432"/>
      </g>
    </g>
    <g id="Group_12" data-name="Group 12" transform="translate(81.24 110.8)">
      <g id="Group_11" data-name="Group 11">
        <rect id="Rectangle_5" data-name="Rectangle 5" class="cls-1" width="4.432" height="4.432"/>
      </g>
    </g>
    <g id="Group_14" data-name="Group 14" transform="translate(98.968 110.8)">
      <g id="Group_13" data-name="Group 13">
        <rect id="Rectangle_6" data-name="Rectangle 6" class="cls-1" width="4.432" height="4.432"/>
      </g>
    </g>
    <g id="Group_16" data-name="Group 16" transform="translate(90.104 110.8)">
      <g id="Group_15" data-name="Group 15">
        <rect id="Rectangle_7" data-name="Rectangle 7" class="cls-1" width="4.432" height="4.432"/>
      </g>
    </g>
    <g id="Group_18" data-name="Group 18" transform="translate(107.832 119.665)">
      <g id="Group_17" data-name="Group 17">
        <rect id="Rectangle_8" data-name="Rectangle 8" class="cls-1" width="4.432" height="4.432"/>
      </g>
    </g>
    <g id="Group_20" data-name="Group 20" transform="translate(107.832 110.8)">
      <g id="Group_19" data-name="Group 19">
        <rect id="Rectangle_9" data-name="Rectangle 9" class="cls-1" width="4.432" height="4.432"/>
      </g>
    </g>
    <g id="Group_22" data-name="Group 22" transform="translate(72.376 119.665)">
      <g id="Group_21" data-name="Group 21">
        <rect id="Rectangle_10" data-name="Rectangle 10" class="cls-1" width="31.024" height="4.432"/>
      </g>
    </g>
    <g id="Group_24" data-name="Group 24" transform="translate(125.56 101.936)">
      <g id="Group_23" data-name="Group 23">
        <path id="Path_3" data-name="Path 3" class="cls-1" d="M339.08,368A11.08,11.08,0,0,0,328,379.08v8.864a11.08,11.08,0,1,0,22.16,0V379.08A11.08,11.08,0,0,0,339.08,368Zm6.648,19.944a6.648,6.648,0,1,1-13.3,0V379.08a6.648,6.648,0,0,1,13.3,0Z" transform="translate(-328 -368)"/>
      </g>
    </g>
    <g id="Group_26" data-name="Group 26" transform="translate(134.424 110.8)">
      <g id="Group_25" data-name="Group 25">
        <rect id="Rectangle_11" data-name="Rectangle 11" class="cls-1" width="4.432" height="4.432"/>
      </g>
    </g>
    <g id="Group_28" data-name="Group 28" transform="translate(94.604 19.381)">
      <g id="Group_27" data-name="Group 27" transform="translate(0)">
        <rect id="Rectangle_12" data-name="Rectangle 12" class="cls-2" width="32.251" height="4.43" transform="translate(0 31.006) rotate(-74.032)"/>
      </g>
    </g>
    <g id="Group_30" data-name="Group 30" transform="translate(72.377 22.674)">
      <g id="Group_29" data-name="Group 29">
        <path id="Path_4" data-name="Path 4" class="cls-2" d="M152.933,85.26l-2.837-3.4-13.3,11.08a2.216,2.216,0,0,0,0,3.4l13.3,11.08,2.837-3.4L141.68,94.638Z" transform="translate(-136.004 -81.856)"/>
      </g>
    </g>
    <g id="Group_32" data-name="Group 32" transform="translate(113.062 22.674)">
      <g id="Group_31" data-name="Group 31">
        <path id="Path_5" data-name="Path 5" class="cls-2" d="M299.3,93.219a2.214,2.214,0,0,0-.283-.283l-13.3-11.08-2.836,3.4,11.253,9.378-11.253,9.378,2.836,3.4,13.3-11.08A2.216,2.216,0,0,0,299.3,93.219Z" transform="translate(-282.88 -81.856)"/>
      </g>
    </g>
  </g>
</svg>
