<?xml version="1.0" encoding="utf-8"?>
<!-- Generator: Adobe Illustrator 22.1.0, SVG Export Plug-In . SVG Version: 6.00 Build 0)  -->
<svg version="1.1" id="Capa_1" xmlns="http://www.w3.org/2000/svg" xmlns:xlink="http://www.w3.org/1999/xlink" x="0px" y="0px"
	 viewBox="0 0 200 200" style="enable-background:new 0 0 200 200;" xml:space="preserve">
<style type="text/css">
	.st0{fill:none;}
	.st1{fill:#007377;}
</style>
<g id="Group_50" transform="translate(-350 -312)">
	<rect id="Rectangle_64" x="350" y="312" class="st0" width="200" height="200"/>
	<g id="laptop-1" transform="translate(374 308.05)">
		<g id="Group_32" transform="translate(0 41.95)">
			<path id="Path_762" class="st1" d="M43.4,62.8v16.3c0,0.8,0.6,1.4,1.4,1.4c0.4,0,0.8-0.2,1.1-0.5l14.9-17.2h50.9
				c4.5,0,8.1-3.6,8.1-8.1l0,0v-44c0-4.5-3.6-8.1-8.1-8.1l0,0H37.3c-4.5,0-8.1,3.6-8.1,8.1l0,0v44c0,4.5,3.6,8.1,8.1,8.1l0,0
				L43.4,62.8z"/>
			<path id="Path_763" d="M25.9,105.5h32.7c0.9,2.7,3.4,4.5,6.2,4.5h19.3c2.8,0,5.3-1.8,6.2-4.5H123c1.5,0,2.8-1.2,2.8-2.8
				c0-1.5-1.2-2.8-2.8-2.8H87.9c-1.5,0-2.8,1.2-2.8,2.8v0.7c0,0.6-0.5,1.1-1.1,1.1H64.8c-0.6,0-1.1-0.5-1.1-1.1v-0.7
				c0-1.5-1.2-2.8-2.8-2.8h-35c-1.5,0-2.8,1.2-2.8,2.8S24.4,105.5,25.9,105.5z"/>
			<path id="Path_764" d="M146.1,100H138V30.2c0-1.5-1.2-2.8-2.8-2.8s-2.8,1.2-2.8,2.8v72.5c0,1.5,1.2,2.8,2.8,2.8h8.2v4.4
				c0,4.4-3.6,8-8,8H13.5c-4.4,0-8-3.6-8-8v-4.4h8.2c1.5,0,2.8-1.2,2.8-2.8V30.2c0-1.5-1.2-2.8-2.8-2.8c-1.5,0-2.8,1.2-2.8,2.8l0,0
				V100H2.8c-1.5,0-2.8,1.2-2.8,2.8v7.2c0,7.5,6.1,13.5,13.5,13.5h121.8c7.5,0,13.5-6.1,13.5-13.5v-7.2
				C148.9,101.2,147.7,100,146.1,100z"/>
			<path id="Path_765" d="M86.4,21.1L68.8,38.6l-6.2-6.3c-1.1-1.1-2.8-1-3.9,0.1c-1,1.1-1,2.8,0,3.8l8.2,8.2
				c0.5,0.5,1.2,0.8,1.9,0.8c0.7,0,1.4-0.3,1.9-0.8L90.3,25c1.1-1.1,1-2.8,0-3.9C89.2,20.1,87.5,20.1,86.4,21.1L86.4,21.1z"/>
			<path id="Path_766" d="M111.7,0H37.3c-6,0-10.8,4.8-10.8,10.8v44c0,6,4.8,10.8,10.8,10.8h3.4v13.5c0,2.3,1.9,4.2,4.2,4.2
				c1.2,0,2.4-0.5,3.2-1.5l14-16.3h49.7c6,0,10.8-4.8,10.8-10.8v-44C122.5,4.8,117.7,0,111.7,0C111.8,0,111.7,0,111.7,0z M117,54.8
				c0,2.9-2.4,5.3-5.3,5.3H60.8c-0.8,0-1.6,0.3-2.1,0.9L46.1,75.6V62.8c0-1.5-1.2-2.8-2.8-2.8h-6.2c-2.9,0-5.3-2.4-5.3-5.3v-44
				c0-2.9,2.4-5.3,5.3-5.3h74.5c2.9,0,5.3,2.4,5.3,5.3L117,54.8L117,54.8z"/>
		</g>
	</g>
</g>
</svg>
