<?xml version="1.0" encoding="utf-8"?>
<!-- Generator: Adobe Illustrator 22.1.0, SVG Export Plug-In . SVG Version: 6.00 Build 0)  -->
<svg version="1.1" id="Capa_1" xmlns="http://www.w3.org/2000/svg" xmlns:xlink="http://www.w3.org/1999/xlink" x="0px" y="0px"
	 viewBox="0 0 403.4 403" style="enable-background:new 0 0 403.4 403;" xml:space="preserve">
<style type="text/css">
	.st0{fill:none;}
	.st1{fill:#007377;}
</style>
<g id="Group_306" transform="translate(-4753 -10636)">
	<rect id="Rectangle_77" x="4753" y="10636" class="st0" width="403" height="403"/>
	<g id="Group_285" transform="translate(3755.412 -1469.001)">
		<g id="user-3" transform="translate(1247.61 12159.909)">
			<g id="Group_33" transform="translate(0 0)">
				<path id="XMLID_1407_" class="st1" d="M129.4,105.7H69.7l-32.1,30.7v-30.7H24c-9.6,0-17.3-7.8-17.3-17.3V23.9
					c0-9.6,7.8-17.3,17.3-17.3h105.4c9.6,0,17.3,7.8,17.3,17.3v64.4C146.7,97.8,139,105.6,129.4,105.7z"/>
				<path id="Path_769" d="M129.4,0H24C10.7,0,0,10.7,0,24v64.3c0,13.2,10.7,23.9,24,24h7v24.1c0,2.6,1.6,5,4,6
					c0.8,0.4,1.7,0.5,2.6,0.5c1.7,0,3.3-0.7,4.6-1.8l30.1-28.9h57.1c13.2,0,23.9-10.7,24-24V23.9C153.3,10.7,142.6,0,129.4,0z
					 M140.2,88.3c0,5.9-4.8,10.8-10.8,10.8H69.7c-1.7,0-3.3,0.7-4.6,1.8l-20.9,20v-15.3c0-3.7-3-6.6-6.6-6.6H24
					c-5.9,0-10.8-4.8-10.8-10.8V23.9C13.2,18,18,13.1,24,13.1h105.4c5.9,0,10.8,4.8,10.8,10.8V88.3z"/>
				<path id="Path_770" d="M76.7,51.4c-1.8,0-3.4,0.7-4.7,2c-1.2,1.2-1.9,2.9-1.9,4.7c0,3.6,3,6.6,6.6,6.6s6.6-3,6.6-6.6
					C83.3,54.3,80.3,51.4,76.7,51.4L76.7,51.4z"/>
				<path id="Path_771" d="M101.2,51.4c-1.8,0-3.4,0.7-4.7,2c-1.2,1.2-1.9,2.9-1.9,4.7c0,3.6,3,6.6,6.6,6.6s6.6-3,6.6-6.6
					C107.8,54.3,104.9,51.4,101.2,51.4L101.2,51.4L101.2,51.4z"/>
				<path id="Path_772" d="M52.1,51.4c-3.7,0-6.8,2.9-6.8,6.6c0,3.7,2.9,6.8,6.6,6.8s6.8-2.9,6.8-6.6c0-1.8-0.7-3.6-2-4.8
					C55.6,52.1,53.9,51.4,52.1,51.4z"/>
			</g>
		</g>
		<g id="woman" transform="translate(1019 12157.001)">
			<g id="Group_62" transform="translate(92.16 279.759)">
				<g id="Group_61">
					<path id="Path_793" d="M160.9,47.2c0-0.3,0.4,1.9-8.6-43.1c-0.6-2.8-3.3-4.6-6.1-4s-4.6,3.3-4,6.1l0,0c8.4,43,9,43.1,8.6,47
						c-0.4,3.6-2,7.8-10.8,7.8h-25.8V12.5c0-2.8-2.3-5.1-5.1-5.1s-5.1,2.3-5.1,5.1V61H5.1c-2.8,0-5.2,2.2-5.2,5.1
						c0,2.8,2.2,5.2,5.1,5.2h0.1H140C155.4,71.2,162.9,61.2,160.9,47.2z"/>
				</g>
			</g>
			<g id="Group_65" transform="translate(0 0)">
				<g id="Group_64">
					<g id="Group_63">
						<path id="Path_794" d="M218,226.4h0.1l0,0C218,226.5,217.9,226.4,218,226.4z"/>
						<path id="Path_795" d="M218.1,226.5L218.1,226.5L218.1,226.5L218.1,226.5z"/>
						<path id="Path_796" d="M218.2,226.5"/>
						<path id="Path_797" d="M239.8,260.3c-2-9.7-2.6-17.4-10.1-25.5c-3.3-3.5-7.2-6.3-11.6-8.3H218c-35.7-12.5-27.4-9.6-55-19.1
							h33.1c8.3,0,15-6.6,15.1-14.9c5.2-87.5,5-83.9,5-84.2c-0.2-25.1,4.4-75.3-50.5-101c-3.3-1.6-11.1-4.6-14-5.1
							c-38.2-7.4-63.9,5.6-75.4,22.9c-19.9,5.4-32,24.1-35.3,54c-0.3,2.8,1.8,5.3,4.7,5.6c2.8,0.3,5.2-1.7,5.6-4.5
							c3.6-33.2,18-43.1,29.4-45.6c1.5-0.3,2.8-1.3,3.5-2.7c0.2-0.3,15.7-29.4,65.6-19.7c2.2,0.4,12,3.8,20.4,9.2
							C220.4,54,204.6,99.8,201,192c0,0.1,0,0.2,0,0.3c0,2.6-2.1,4.8-4.8,4.8h-35.8v-3.6c21.9-11.8,35.5-34.7,35.5-59.6v-14.2
							c0-6-4.8-11-10.8-11.3c-43.4-1.9-66.8-25-74.8-34.8c-2-2.5-5-3.9-8.1-4.1c-3.2-0.1-6.3,1.1-8.5,3.5C87.2,79.8,79,84.6,70,86.9
							c-5.9,1.4-10,6.7-10,12.8c0.5,25.9-1,36.1,1.2,47l0.2,0.9c3.5,18.4,15.8,35.1,31.6,44.5v5H60.9c-2.6,0-4.8-2.1-4.8-4.8
							c0-0.1,0-0.2,0-0.3c-6.9-117.3-4.9-80.7-5.3-88.6c-0.2-2.8-2.7-5-5.5-4.8s-4.9,2.6-4.8,5.4c0,0.1,5.3,88.4,5.3,88.5
							c0.1,8.3,6.8,14.9,15.1,14.9h29.4c-5.2,1.8-53.9,18.7-54.8,19.1c-10.5,4.5-18,13.9-20.1,25C0,329.3-0.5,328,0.2,334
							c0.6,5.1,3.7,17,21,17h52c2.8,0,5.2-2.2,5.2-5.1c0-2.8-2.2-5.2-5.1-5.2h-0.1H57.5v-48.5c0-2.8-2.3-5.1-5.2-5.1
							s-5.2,2.3-5.2,5.1v48.5h-26c-7.9,0-11.9-3.3-10.7-12.1c16.3-81.5,15.1-76.1,15.8-78.2c4.4-13.7,16.2-15.4,27.7-19.5
							c1.1,22.7,7.3,46.9,29.9,46.9c14.9,0,31.7-11.7,42.8-21.6c13.8,12.3,35.7,26.9,52.7,19.6c12.2-5.3,18.8-20,20-44.9
							c14.8,5.2,13.6,4.1,18.7,7.4c9.2,6.6,9.5,13.7,11.6,24c0.6,2.8,3.3,4.6,6.1,4C238.5,265.7,240.3,263,239.8,260.3L239.8,260.3z
							 M71.3,144.6c-1.5-7.4-0.9-12.9-1-44.9c0-1.3,0.9-2.5,2.1-2.8c19.3-4.7,28-17.1,29.2-17.1c1.3,0.1,25.5,36.4,82.9,38.9
							c0.5,0,1,0.4,1,1c0,19.4,0.9,24-5.7,39.3c-2.6,5.3-5.9,10.2-10,14.5C138,207,80.4,191.4,71.3,144.6z M78.1,266.4
							c-8.5-3.7-13.3-17.2-13.9-39.1l6.1-2.2c9.5,15.2,24.8,25.9,42.4,29.3C103.8,261.2,88.4,270.8,78.1,266.4z M80.3,221.6l14.6-5
							c5-1.7,8.4-6.4,8.4-11.8V197c3.3,1.3,6.7,2.3,10.2,3.1c12.1,2.6,24.8,1.8,36.5-2.2v6.9c0,5.3,3.4,10,8.4,11.8l14.6,5
							C151,254.2,101.5,252.9,80.3,221.6L80.3,221.6z M175.3,266.4c-10.3,4.4-25.7-5.2-34.6-11.9c17.6-3.5,32.9-14.1,42.3-29.3
							l6.2,2.2C188.6,249.2,183.8,262.7,175.3,266.4L175.3,266.4z"/>
					</g>
				</g>
			</g>
		</g>
	</g>
</g>
</svg>
