<?xml version="1.0" encoding="utf-8"?>
<!-- Generator: Adobe Illustrator 22.1.0, SVG Export Plug-In . SVG Version: 6.00 Build 0)  -->
<svg version="1.1" id="Capa_1" xmlns="http://www.w3.org/2000/svg" xmlns:xlink="http://www.w3.org/1999/xlink" x="0px" y="0px"
	 viewBox="0 0 200 200" style="enable-background:new 0 0 200 200;" xml:space="preserve">
<style type="text/css">
	.st0{fill:none;}
	.st1{fill:#007377;}
</style>
<g id="Group_49" transform="translate(-350 -54)">
	<rect id="Rectangle_63" x="350" y="54" class="st0" width="200" height="200"/>
	<g id="like-1" transform="translate(365.35 79)">
		<g id="Group_31" transform="translate(10.65 0)">
			<path id="XMLID_314_" class="st1" d="M51.4,98.9H39.1c-0.7,0-1.2-0.5-1.2-1.2V64.1c0-0.7,0.5-1.2,1.2-1.2h12.3
				c0.7,0,1.2,0.5,1.2,1.2v33.6C52.6,98.4,52.1,98.9,51.4,98.9z"/>
			<path id="Path_760" d="M134.1,75.9c-0.3-0.5-0.3-1.2,0-1.7l8.5-16.6c1.9-3.7,0.4-8.2-3.2-10.1l0,0L122.7,39
				c-0.6-0.3-0.9-0.8-1-1.4l-2.9-18.4c-0.6-3.6-3.7-6.3-7.4-6.3c-0.4,0-0.8,0-1.2,0.1l-18.4,2.9c-0.6,0.1-1.2-0.1-1.7-0.5L77,2.2
				c-2.9-2.9-7.7-2.9-10.6,0L53.3,15.4c-0.4,0.4-0.8,0.6-1.4,0.6l0,0c-0.1,0-0.2,0-0.3,0l-18.4-3c-0.4-0.1-0.8-0.1-1.2-0.1
				c-3.7,0-6.8,2.7-7.4,6.3l-2.9,18.4c-0.1,0.6-0.5,1.1-1,1.4L4.1,47.5C0.4,49.4-1,53.9,0.8,57.6l0,0l8.5,16.6
				c0.3,0.5,0.3,1.2,0,1.7L0.8,92.5c-1.9,3.7-0.4,8.2,3.2,10.1l0,0l16.6,8.4c0.6,0.3,0.9,0.8,1,1.4l2.9,18.4
				c0.6,3.6,3.7,6.3,7.4,6.3c0.4,0,0.8,0,1.2-0.1l18.4-2.9c0.6-0.1,1.2,0.1,1.7,0.5l13.2,13.2c2.9,2.9,7.7,2.9,10.6,0l13.2-13.2
				c0.4-0.4,1.1-0.6,1.7-0.5l18.4,2.9c0.4,0.1,0.8,0.1,1.2,0.1c3.7,0,6.8-2.7,7.4-6.3l2.9-18.4c0.1-0.6,0.5-1.1,1-1.4l16.6-8.5
				c3.7-1.9,5.1-6.4,3.3-10.1l0,0L134.1,75.9z M137.8,96.5c-0.1,0.5-0.5,0.9-1,1.1l-16.6,8.5c-2.1,1.1-3.6,3.1-4,5.5l-2.9,18.4
				c-0.2,1-1.1,1.7-2.2,1.6l0,0l-18.4-2.9c-2.4-0.4-4.8,0.4-6.5,2.1L73,144c-0.8,0.7-1.9,0.7-2.7,0l-13.2-13.2
				c-1.4-1.4-3.3-2.2-5.3-2.2c-0.4,0-0.8,0-1.2,0.1l-18.4,2.9c-1,0.2-2-0.6-2.2-1.6l-2.9-18.4c-0.4-2.4-1.9-4.4-4-5.5L6.6,97.5
				C5.7,97.1,5.3,96,5.8,95l0,0l8.5-16.6c1.1-2.1,1.1-4.7,0-6.8L5.8,55c-0.2-0.4-0.3-1-0.1-1.4c0.1-0.5,0.5-0.9,1-1.1L23.3,44
				c2.1-1.1,3.6-3.1,4-5.5l2.9-18.4c0.2-1,1.1-1.7,2.2-1.6l0,0l18.4,2.9c0.4,0.1,0.8,0.1,1.2,0.1l0,0c2,0,3.9-0.8,5.3-2.2L70.4,6.1
				c0.8-0.7,1.9-0.7,2.7,0l13.2,13.2c1.7,1.7,4.1,2.5,6.5,2.1l18.4-2.9c1-0.2,2,0.5,2.2,1.6l2.9,18.4c0.4,2.4,1.9,4.4,4,5.5
				l16.6,8.5c0.9,0.5,1.3,1.6,0.8,2.5l0,0l-8.5,16.6c-1.1,2.1-1.1,4.7,0,6.8l8.5,16.6C137.9,95.4,137.9,96,137.8,96.5L137.8,96.5z"
				/>
			<path id="Path_761" d="M95.8,56.9H81.9v-9.7c0-4.9-1.5-8.5-4.4-10.6c-4.5-3.3-10.4-1.6-11-1.4c-1.2,0.4-1.9,1.4-1.9,2.6v12.1
				c0,8.4-9.6,11.5-10.6,11.8c-1-1.1-2.3-1.7-3.8-1.7h-9.8c-2.9,0-5.2,2.3-5.2,5.2v31.2c0,2.9,2.3,5.2,5.2,5.2h9.8
				c1.1,0,2.2-0.4,3.1-1c2,1.8,4.5,2.8,7.2,2.8H90c7,0,11.7-3.8,12.5-10.3l4-25.2c0-0.1,0-0.3,0-0.4
				C106.5,61.6,101.7,56.9,95.8,56.9z M49.8,96.1h-9.1V65.7h9.1C49.8,65.7,49.8,96.1,49.8,96.1z M97,92.4L97,92.4
				c-0.2,1.4-0.7,5.5-6.9,5.5H60.5c-2.8,0-5.1-2.3-5.1-5.1V67.1l0,0c0.6-0.2,14.8-4.3,14.8-17.2v-9.7c1.4-0.2,2.9,0.1,4.1,0.9
				c1.4,1,2.1,3.1,2.1,6.1v12.5c0,1.5,1.3,2.8,2.8,2.8h16.6c2.7,0,5,2.2,5.1,4.9L97,92.4z"/>
		</g>
	</g>
</g>
</svg>
