<?xml version="1.0" encoding="utf-8"?>
<!-- Generator: Adobe Illustrator 22.1.0, SVG Export Plug-In . SVG Version: 6.00 Build 0)  -->
<svg version="1.1" id="Capa_1" xmlns="http://www.w3.org/2000/svg" xmlns:xlink="http://www.w3.org/1999/xlink" x="0px" y="0px"
	 viewBox="0 0 403.1 403" style="enable-background:new 0 0 403.1 403;" xml:space="preserve">
<style type="text/css">
	.st0{fill:none;}
	.st1{fill:#007377;}
</style>
<g id="Group_305" transform="translate(-4753 -11569)">
	<g id="Group_302" transform="translate(0 451)">
		<rect id="Rectangle_78" x="4754" y="11119" class="st0" width="403" height="403"/>
		<g id="Group_286" transform="translate(5425.5 -1336)">
			<g id="woman" transform="translate(-644 12506)">
				<g id="Group_62" transform="translate(92.065 279.759)">
					<g id="Group_61">
						<path id="Path_793" d="M161.7,48.2c0-0.3,0.4,1.9-8.6-43.1c-0.6-2.8-3.3-4.6-6-4c-2.8,0.6-4.6,3.3-4,6c8.4,43,9,43.1,8.6,47
							c-0.4,3.6-2,7.8-10.8,7.8h-25.8V13.5c0-2.8-2.4-5.1-5.2-5.1c-2.8,0-5,2.3-5.1,5.1V62H6.1c-2.8,0-5.2,2.2-5.2,5.1
							c0,2.8,2.2,5.2,5.1,5.2h0.1h134.7C156.3,72.2,163.7,62.2,161.7,48.2z"/>
					</g>
				</g>
				<g id="Group_65" transform="translate(0 0)">
					<g id="Group_64">
						<g id="Group_63">
							<path id="Path_799" class="st1" d="M114.1,253.4l-40.6-32.7c-4.6-4.6-4.7-3.3-9.2,1.3l1.7,5c-4.6,4.6-6.4,25.1-1.9,29.6
								l15.4,14.6c4.6,4.6,22.1,0.6,26.7-3.9l2.9-2.9C113.6,259.7,118.7,257.9,114.1,253.4z"/>
							<path id="Path_798" class="st1" d="M141.7,253.9l41.1-27.8c5.1-4,5-2.7,9,2.4l2.4,3.6c4,5.1-1.3,26.8-6.4,30.7l-19.7,10
								c-5.1,4-19.4,0.4-23.4-4.6l-2.5-3.2C138.2,260,136.7,257.9,141.7,253.9z"/>
							<path id="Path_794" d="M218.7,227.4h0.1l0,0C218.8,227.5,218.7,227.4,218.7,227.4z"/>
							<path id="Path_795" d="M218.9,227.5L218.9,227.5L218.9,227.5L218.9,227.5z"/>
							<path id="Path_796" d="M218.9,227.5"/>
							<path id="Path_797" d="M240.5,261.3c-2-9.7-2.6-17.4-10.1-25.5c-3.3-3.5-7.2-6.3-11.6-8.3h-0.1
								c-35.7-12.5-27.4-9.6-54.9-19.1h33c8.2,0,15-6.6,15.1-14.9c5.2-87.5,5-83.9,5-84.2c-0.2-25.1,4.4-75.3-50.4-101
								c-3.3-1.6-11-4.6-14-5.1c-38.2-7.4-63.9,5.6-75.4,22.9c-19.8,5.4-32,24.1-35.2,54c-0.3,2.8,1.7,5.4,4.5,5.7s5.4-1.7,5.7-4.5
								v-0.1c3.6-33.2,18-43.1,29.4-45.6c1.5-0.3,2.8-1.3,3.5-2.7c0.2-0.3,15.7-29.4,65.5-19.7c2.2,0.4,12,3.8,20.4,9.2
								C221,55,205.3,100.8,201.6,193c0,0.1,0,0.2,0,0.3c0,2.6-2.1,4.8-4.8,4.8H161v-3.6c21.9-11.8,35.5-34.7,35.4-59.6v-14.2
								c0-6-4.8-11-10.8-11.3c-43.4-1.9-66.7-25-74.7-34.8c-2-2.5-5-3.9-8.1-4.1c-3.2-0.1-6.3,1.1-8.5,3.5
								c-6.4,6.8-14.5,11.7-23.6,14c-5.9,1.5-10,6.7-10,12.8c0.5,25.9-1,36.1,1.2,47l0.2,0.9c3.5,18.4,15.8,35.1,31.6,44.5v5H61.8
								c-2.6,0-4.8-2.1-4.8-4.8c0-0.1,0-0.2,0-0.3c-6.9-117.3-4.9-80.7-5.3-88.6c-0.2-2.8-2.6-5-5.4-4.8c-2.8,0.2-5,2.6-4.8,5.4
								c0,0.1,5.3,88.4,5.3,88.5c0.1,8.2,6.8,14.9,15.1,14.9h29.4c-5.2,1.8-53.8,18.7-54.7,19.1c-10.4,4.5-18,13.9-20.1,25
								C1,330.3,0.5,329,1.2,335c0.6,5.1,3.7,17,21,17h51.9c2.8,0,5.2-2.2,5.2-5.1c0-2.8-2.2-5.2-5.1-5.2h-0.1H58.4v-48.5
								c0-2.8-2.4-5.1-5.2-5.1s-5,2.3-5.1,5.1v48.5h-26c-7.9,0-11.9-3.3-10.7-12.1c16.2-81.5,15.1-76.1,15.8-78.2
								c4.4-13.7,16.2-15.4,27.7-19.5c1.1,22.6,7.3,46.9,29.9,46.9c14.9,0,31.6-11.7,42.7-21.6c13.8,12.3,35.7,26.9,52.6,19.6
								c12.2-5.3,18.8-20,20-44.9c14.7,5.2,13.5,4.1,18.7,7.4c9.2,6.6,9.5,13.7,11.6,24c0.6,2.8,3.3,4.5,6.1,4
								C239.3,266.7,241,264,240.5,261.3L240.5,261.3z M72.2,145.6c-1.5-7.4-0.9-12.9-1-44.9c0-1.3,0.9-2.5,2.1-2.8
								c19.2-4.7,28-17.1,29.2-17.1c1.3,0.1,25.5,36.4,82.8,38.9c0.5,0,1,0.4,1,1c0,19.4,0.9,24-5.7,39.3c-2.6,5.3-5.9,10.2-10,14.5
								C138.9,208,81.4,192.4,72.2,145.6z M79,267.4c-8.5-3.7-13.3-17.2-13.9-39.1l6.1-2.2c9.4,15.2,24.8,25.9,42.4,29.3
								C104.7,262.2,89.3,271.8,79,267.4L79,267.4z M81.2,222.6l14.6-5c5-1.7,8.4-6.4,8.4-11.8V198c3.3,1.3,6.7,2.3,10.2,3.1
								c12.1,2.6,24.7,1.8,36.5-2.2v6.9c0,5.3,3.4,10,8.4,11.8l14.6,5C151.9,255.2,102.4,253.9,81.2,222.6L81.2,222.6z M176.1,267.4
								c-10.3,4.4-25.7-5.2-34.6-11.9c17.6-3.5,32.9-14.1,42.3-29.3l6.2,2.2C189.4,250.2,184.7,263.7,176.1,267.4L176.1,267.4z"/>
						</g>
					</g>
				</g>
			</g>
		</g>
	</g>
	<g id="Group_303" transform="translate(0 451)">
		<path id="Path_885" class="st1" d="M5044.5,11246.2l-25.2-25.2l35.7-5.3L5044.5,11246.2z"/>
		<path id="Path_884" class="st1" d="M5074.7,11277.2l-31.2,17.3l4.8-35.8L5074.7,11277.2z"/>
		<path id="Path_883" class="st1" d="M5114.8,11259.2l5,35.3l-31.7-17.3L5114.8,11259.2z"/>
		<path id="Path_882" class="st1" d="M5107.7,11216l35.3,4.9l-25.3,25.7L5107.7,11216z"/>
		<path id="Path_881" class="st1" d="M5065.3,11207.6l15.6-32l16.6,32H5065.3z"/>
		<circle id="Ellipse_23" class="st1" cx="5081.5" cy="11241.5" r="37.5"/>
		<g id="favorites" transform="translate(5004.803 11166.688)">
			<g id="Group_290" transform="translate(8.737 3.81)">
				<g id="Group_289">
					<path id="Path_875" d="M131.8,59.5c3.9-3.8,4-10.2,0.2-14.1c-1.5-1.6-3.5-2.6-5.7-2.9l-33.1-4.8c-0.6-0.1-1.2-0.5-1.5-1.1
						l-14.8-30c-2.4-4.9-8.4-7-13.4-4.5c-2,1-3.6,2.6-4.5,4.5l-14.8,30c-0.3,0.6-0.9,1-1.5,1.1L9.5,42.4C4,43.2,0.3,48.3,1.1,53.7
						c0.3,2.2,1.3,4.2,2.9,5.7l24,23.4c0.5,0.5,0.7,1.1,0.6,1.8l-5.7,33c-0.9,5.4,2.7,10.6,8.1,11.5c2.2,0.4,4.4,0,6.3-1L67,112.5
						c0.6-0.3,1.3-0.3,1.9,0l29.6,15.6c4.9,2.6,10.9,0.7,13.5-4.2c1-1.9,1.4-4.2,1-6.3l-5.7-33c-0.1-0.6,0.1-1.3,0.6-1.8L131.8,59.5
						z M99.4,85.9l5.7,33c0.2,1.1-0.5,2.1-1.6,2.3c-0.4,0.1-0.9,0-1.3-0.2l-29.6-15.6c-2.9-1.5-6.4-1.5-9.3,0L33.6,121
						c-1,0.5-2.2,0.1-2.7-0.8c-0.2-0.4-0.3-0.8-0.2-1.3l5.7-33c0.6-3.2-0.5-6.5-2.9-8.8L9.6,53.8c-0.8-0.8-0.8-2,0-2.8
						c0.3-0.3,0.7-0.5,1.1-0.6l33.1-4.8c3.2-0.5,6.1-2.5,7.5-5.5l14.8-30c0.5-1,1.7-1.4,2.7-0.9c0.4,0.2,0.7,0.5,0.9,0.9l0,0
						l14.8,30c1.5,2.9,4.3,5,7.5,5.5l33.1,4.8c1.1,0.2,1.8,1.2,1.7,2.3c-0.1,0.4-0.3,0.8-0.6,1.1l-24,23.3
						C99.9,79.4,98.8,82.7,99.4,85.9z"/>
				</g>
			</g>
			<g id="Group_292" transform="translate(111.667 8.606)">
				<g id="Group_291">
					<path id="Path_876" d="M11.6,1.8C9.8,0.5,7.3,0.9,6,2.6L1.8,8.5c-1.3,1.8-0.9,4.3,0.9,5.6S7,15,8.3,13.2l0,0l4.2-5.8
						C13.7,5.6,13.4,3.1,11.6,1.8L11.6,1.8z"/>
				</g>
			</g>
			<g id="Group_294" transform="translate(27.353 8.583)">
				<g id="Group_293">
					<path id="Path_877" d="M12.5,8.5L8.2,2.6C6.9,0.9,4.4,0.4,2.7,1.7C0.9,3,0.4,5.5,1.7,7.3c0,0,0,0,0,0.1L6,13.2
						c1.3,1.8,3.8,2.2,5.6,0.9S13.8,10.3,12.5,8.5L12.5,8.5z"/>
				</g>
			</g>
			<g id="Group_296" transform="translate(0 90.569)">
				<g id="Group_295">
					<path id="Path_878" d="M15.6,3.8c-0.7-2.1-2.9-3.2-5-2.6l0,0L3.8,3.4c-2.1,0.7-3.3,2.9-2.6,5s2.9,3.3,5,2.6h0.1l6.9-2.2
						C15.2,8.1,16.3,5.9,15.6,3.8z"/>
				</g>
			</g>
			<g id="Group_298" transform="translate(71.638 137.626)">
				<g id="Group_297">
					<path id="Path_879" d="M5,1C2.8,1,1,2.8,1,5v7.2c0,2.2,1.8,4,4,4s4-1.8,4-4V5C9,2.8,7.2,1,5,1z"/>
				</g>
			</g>
			<g id="Group_300" transform="translate(136.418 90.574)">
				<g id="Group_299">
					<path id="Path_880" d="M13.1,3.4L6.2,1.2c-2.1-0.7-4.3,0.5-5,2.6s0.5,4.3,2.6,5l6.9,2.2c2.1,0.7,4.3-0.5,5-2.6
						C16.3,6.4,15.2,4.1,13.1,3.4L13.1,3.4z"/>
				</g>
			</g>
		</g>
	</g>
</g>
</svg>
