<svg xmlns="http://www.w3.org/2000/svg" viewBox="0 0 556.945 290.61">
  <defs>
    <style>
      .cls-1, .cls-4, .cls-8 {
        fill: none;
        stroke-linejoin: round;
        stroke-miterlimit: 10;
        stroke-width: 6px;
      }

      .cls-1 {
        stroke: #c99700;
      }

      .cls-1, .cls-2, .cls-3, .cls-4, .cls-5, .cls-6, .cls-7, .cls-8, .cls-9 {
        fill-rule: evenodd;
      }

      .cls-2 {
        fill: rgba(0,0,0,0);
      }

      .cls-3 {
        fill: #fff;
      }

      .cls-4 {
        stroke: #4f9edc;
      }

      .cls-5 {
        fill: #53565a;
      }

      .cls-6 {
        fill: #4f9edc;
      }

      .cls-7 {
        fill: #0d51a5;
      }

      .cls-8 {
        stroke: #fff;
      }

      .cls-9 {
        fill: #d8d8d8;
      }
    </style>
  </defs>
  <g id="Group_97" data-name="Group 97" transform="translate(-173.022 -7643.532)">
    <g id="Jacksonville_FL" data-name="Jacksonville, FL" transform="translate(-18.546 7513.311)">
      <path id="Path_696" data-name="Path 696" class="cls-1" d="M574.022,362.827l49.945,65.524" transform="translate(-28.953 -17.382)"/>
      <path id="Path_698" data-name="Path 698" class="cls-1" d="M626.472,375.346l-48.875,54" transform="translate(-29.223 -18.329)"/>
      <path id="Path_690" data-name="Path 690" class="cls-1" d="M658.536,374.094l13.045,16.06,30.9,38.037" transform="translate(-35.351 -18.235)"/>
      <path id="Path_682" data-name="Path 682" class="cls-2" d="M769.948,436.8H501.514" transform="translate(-23.464 -22.982)"/>
      <path id="Path_692" data-name="Path 692" class="cls-1" d="M655.8,428.383l15.478-17.766,28.548-32.768" transform="translate(-35.144 -18.519)"/>
      <path id="Path_683" data-name="Path 683" class="cls-1" d="M769.948,436.8H501.514" transform="translate(-23.464 -22.982)"/>
      <path id="Path_684" data-name="Path 684" class="cls-3" d="M629.471,266.419h27.976V427.683H629.471Z" transform="translate(-33.15 -10.083)"/>
      <path id="Path_685" data-name="Path 685" class="cls-2" d="M707.4,375.346l2.392,54.284" transform="translate(-39.049 -18.329)"/>
      <path id="Path_686" data-name="Path 686" class="cls-1" d="M707.4,375.346l2.392,54.284" transform="translate(-39.049 -18.329)"/>
      <path id="Path_687" data-name="Path 687" class="cls-2" d="M743.938,396.654l-32.516,38.369" transform="translate(-39.354 -19.942)"/>
      <path id="Path_688" data-name="Path 688" class="cls-1" d="M743.938,396.654l-32.516,38.369" transform="translate(-39.354 -19.942)"/>
      <path id="Path_689" data-name="Path 689" class="cls-2" d="M658.536,374.094l43.94,54.1" transform="translate(-35.351 -18.235)"/>
      <path id="Path_691" data-name="Path 691" class="cls-2" d="M655.8,428.383l44.026-50.534" transform="translate(-35.144 -18.519)"/>
      <path id="Path_693" data-name="Path 693" class="cls-2" d="M571.38,364.079l.538,71" transform="translate(-28.753 -17.476)"/>
      <path id="Path_694" data-name="Path 694" class="cls-4" d="M571.38,364.079l.538,71" transform="translate(-28.753 -17.476)"/>
      <path id="Path_695" data-name="Path 695" class="cls-2" d="M574.022,362.827l49.945,65.524" transform="translate(-28.953 -17.382)"/>
      <path id="Path_697" data-name="Path 697" class="cls-2" d="M626.472,375.346l-48.875,54" transform="translate(-29.223 -18.329)"/>
      <path id="Path_699" data-name="Path 699" class="cls-2" d="M563.3,365.331l-50.285,63.541" transform="translate(-24.334 -17.571)"/>
      <path id="Path_700" data-name="Path 700" class="cls-4" d="M563.3,365.331l-50.285,63.541" transform="translate(-24.334 -17.571)"/>
      <path id="Path_701" data-name="Path 701" class="cls-2" d="M507.995,359.071l57.8,71.847" transform="translate(-23.954 -17.097)"/>
      <path id="Path_702" data-name="Path 702" class="cls-4" d="M507.995,359.071l57.8,71.847" transform="translate(-23.954 -17.097)"/>
      <path id="Path_703" data-name="Path 703" class="cls-2" d="M704.505,375.271l-196.51-16.2" transform="translate(-23.954 -17.097)"/>
      <path id="Path_704" data-name="Path 704" class="cls-1" d="M704.505,375.271l-196.51-16.2" transform="translate(-23.954 -17.097)"/>
      <path id="Path_705" data-name="Path 705" class="cls-5" d="M637.037,273.593h14.548V422.127H637.037Z" transform="translate(-33.723 -10.626)"/>
      <path id="Path_706" data-name="Path 706" class="cls-2" d="M719.28,375.346,786.5,433.719" transform="translate(-39.949 -18.329)"/>
      <path id="Path_707" data-name="Path 707" class="cls-1" d="M719.28,375.346,786.5,433.719" transform="translate(-39.949 -18.329)"/>
      <path id="Path_708" data-name="Path 708" class="cls-2" d="M218.736,436.555H485.987" transform="translate(-2.057 -22.963)"/>
      <path id="Path_709" data-name="Path 709" class="cls-1" d="M218.736,436.555H485.987" transform="translate(-2.057 -22.963)"/>
      <path id="Path_710" data-name="Path 710" class="cls-6" d="M378.2,266.923H350.349V427.476H378.2Z" transform="translate(-12.02 -10.122)"/>
      <path id="Path_711" data-name="Path 711" class="cls-2" d="M302.707,375.369l-2.382,54.045" transform="translate(-8.233 -18.331)"/>
      <path id="Path_712" data-name="Path 712" class="cls-4" d="M302.707,375.369l-2.382,54.045" transform="translate(-8.233 -18.331)"/>
      <path id="Path_713" data-name="Path 713" class="cls-2" d="M263.868,396.583l32.373,38.2" transform="translate(-5.473 -19.937)"/>
      <path id="Path_714" data-name="Path 714" class="cls-1" d="M263.868,396.583l32.373,38.2" transform="translate(-5.473 -19.937)"/>
      <path id="Path_715" data-name="Path 715" class="cls-2" d="M347.962,374.123l-43.746,53.859" transform="translate(-8.528 -18.237)"/>
      <path id="Path_716" data-name="Path 716" class="cls-4" d="M347.962,374.123l-43.746,53.859" transform="translate(-8.528 -18.237)"/>
      <path id="Path_717" data-name="Path 717" class="cls-2" d="M350.677,428.172l-43.831-50.311" transform="translate(-8.727 -18.52)"/>
      <path id="Path_718" data-name="Path 718" class="cls-4" d="M350.677,428.172l-43.831-50.311" transform="translate(-8.727 -18.52)"/>
      <path id="Path_719" data-name="Path 719" class="cls-2" d="M438.272,364.151l-.536,70.685" transform="translate(-18.636 -17.482)"/>
      <path id="Path_720" data-name="Path 720" class="cls-4" d="M438.272,364.151l-.536,70.685" transform="translate(-18.636 -17.482)"/>
      <path id="Path_721" data-name="Path 721" class="cls-2" d="M431.614,362.9l-49.725,65.236" transform="translate(-14.408 -17.388)"/>
      <path id="Path_722" data-name="Path 722" class="cls-4" d="M431.614,362.9l-49.725,65.236" transform="translate(-14.408 -17.388)"/>
      <path id="Path_723" data-name="Path 723" class="cls-2" d="M379.482,375.369l48.66,53.757" transform="translate(-14.226 -18.331)"/>
      <path id="Path_724" data-name="Path 724" class="cls-1" d="M379.482,375.369l48.66,53.757" transform="translate(-14.226 -18.331)"/>
      <path id="Path_725" data-name="Path 725" class="cls-2" d="M442.26,365.4l50.063,63.261" transform="translate(-18.978 -17.576)"/>
      <path id="Path_726" data-name="Path 726" class="cls-4" d="M442.26,365.4l50.063,63.261" transform="translate(-18.978 -17.576)"/>
      <path id="Path_727" data-name="Path 727" class="cls-2" d="M496.709,359.166l-57.54,71.53" transform="translate(-18.744 -17.105)"/>
      <path id="Path_728" data-name="Path 728" class="cls-4" d="M496.709,359.166l-57.54,71.53" transform="translate(-18.744 -17.105)"/>
      <path id="Path_729" data-name="Path 729" class="cls-2" d="M289.754,375.295,485.4,359.166" transform="translate(-7.433 -17.105)"/>
      <path id="Path_730" data-name="Path 730" class="cls-1" d="M289.754,375.295,485.4,359.166" transform="translate(-7.433 -17.105)"/>
      <path id="Path_731" data-name="Path 731" class="cls-7" d="M371.763,274.065H357.279V421.944h14.484Z" transform="translate(-12.545 -10.662)"/>
      <path id="Path_732" data-name="Path 732" class="cls-2" d="M285.588,375.369l-66.919,58.116" transform="translate(-2.052 -18.331)"/>
      <path id="Path_733" data-name="Path 733" class="cls-1" d="M285.588,375.369l-66.919,58.116" transform="translate(-2.052 -18.331)"/>
      <path id="Path_734" data-name="Path 734" class="cls-2" d="M505.8,354.514v75.418" transform="translate(-23.788 -16.752)"/>
      <path id="Path_735" data-name="Path 735" class="cls-4" d="M505.8,354.514v75.418" transform="translate(-23.788 -16.752)"/>
      <path id="Path_736" data-name="Path 736" class="cls-5" d="M290.789,216.445h85.058V420.758H290.789Z" transform="translate(-7.511 -6.3)"/>
      <path id="Path_737" data-name="Path 737" class="cls-8" d="M290.789,216.445h85.058V420.758H290.789Z" transform="translate(-7.511 -6.3)"/>
      <path id="Path_738" data-name="Path 738" class="cls-3" d="M300.828,219.992h10.347V410.68H300.828Z" transform="translate(-8.271 -6.569)"/>
      <path id="Path_739" data-name="Path 739" class="cls-5" d="M302.625,172.508l30.711-27.249,30.711,27.249Z" transform="translate(-8.407 -0.911)"/>
      <path id="Path_740" data-name="Path 740" class="cls-8" d="M302.625,172.508l30.711-27.249,30.711,27.249Z" transform="translate(-8.407 -0.911)"/>
      <path id="Path_741" data-name="Path 741" class="cls-3" d="M293.995,176.077h77.719v36.272H293.995Z" transform="translate(-7.754 -3.244)"/>
      <path id="Path_742" data-name="Path 742" class="cls-8" d="M293.995,176.077h77.719v36.272H293.995Z" transform="translate(-7.754 -3.244)"/>
      <path id="Path_743" data-name="Path 743" class="cls-5" d="M322.011,186.1H346.5v19.539H322.011Z" transform="translate(-9.875 -4.003)"/>
      <path id="Path_744" data-name="Path 744" class="cls-5" d="M363.516,186.012h9.866v19.539h-9.866Z" transform="translate(-13.017 -3.996)"/>
      <path id="Path_745" data-name="Path 745" class="cls-5" d="M297.1,185.921h9.866V205.46H297.1Z" transform="translate(-7.989 -3.99)"/>
      <path id="Path_746" data-name="Path 746" class="cls-3" d="M360.32,219.9h10.347V410.587H360.32Z" transform="translate(-12.775 -6.562)"/>
      <path id="Path_747" data-name="Path 747" class="cls-3" d="M246.247,322.715h10.9V429.933h-10.9Z" transform="translate(-4.139 -14.345)"/>
      <path id="Path_748" data-name="Path 748" class="cls-5" d="M202.1,366.138h0c-7.365-14.028-1.69-32.862,12.675-42.068s31.981-5.3,39.346,8.732h0c-10.338-4.06-22.444-2.59-32.678,3.968A43.578,43.578,0,0,0,202.1,366.138Z" transform="translate(-0.553 -14.07)"/>
      <path id="Path_749" data-name="Path 749" class="cls-5" d="M191.6,334.694h0c-.812-16.192,11.971-30.142,28.552-31.157s30.682,11.288,31.494,27.48h0A37.46,37.46,0,0,0,220.892,318.2a38.383,38.383,0,0,0-29.287,16.5Z" transform="translate(0 -12.889)"/>
      <path id="Path_750" data-name="Path 750" class="cls-5" d="M309.5,297.826h0c-7.4-14.091-25.092-18.018-39.521-8.771s-20.129,28.165-12.731,42.256h0a43.773,43.773,0,0,1,19.429-29.5c10.279-6.587,22.44-8.064,32.824-3.985Z" transform="translate(-4.727 -11.418)"/>
      <path id="Path_751" data-name="Path 751" class="cls-5" d="M315.747,328.266h0c-.816-16.265-14.979-28.623-31.634-27.6s-29.5,15.032-28.679,31.3h0a38.554,38.554,0,0,1,29.418-16.571,37.628,37.628,0,0,1,30.9,12.878Z" transform="translate(-4.832 -12.671)"/>
      <path id="Path_752" data-name="Path 752" class="cls-5" d="M292.931,273.864h0c-13.588-10.172-32.189-6.051-41.546,9.205s-5.927,35.87,7.661,46.042h0a45.681,45.681,0,0,1,4.641-36.833c6.666-10.868,17.5-17.691,29.244-18.415Z" transform="translate(-4.129 -10.224)"/>
      <path id="Path_753" data-name="Path 753" class="cls-3" d="M417.16,133.221H558.977V380.954H417.16Z" transform="translate(-17.078)"/>
      <path id="Path_754" data-name="Path 754" class="cls-8" d="M417.16,133.221H558.977V380.954H417.16Z" transform="translate(-17.078)"/>
      <path id="Path_755" data-name="Path 755" class="cls-5" d="M429.09,171.825H549.156V383.876H429.09Z" transform="translate(-17.981 -2.922)"/>
      <path id="Path_756" data-name="Path 756" class="cls-9" d="M375.009,436.649,413.346,381.8H556.064L594.4,436.649Z" transform="translate(-13.887 -18.818)"/>
      <path id="Path_757" data-name="Path 757" class="cls-8" d="M375.009,436.649,413.346,381.8H556.064L594.4,436.649Z" transform="translate(-13.887 -18.818)"/>
      <path id="Path_758" data-name="Path 758" class="cls-5" d="M393.4,428.114,427.593,379.2H544.737l34.189,48.914Z" transform="translate(-15.279 -18.621)"/>
    </g>
  </g>
</svg>
