<?xml version="1.0" encoding="utf-8"?>
<!-- Generator: Adobe Illustrator 22.1.0, SVG Export Plug-In . SVG Version: 6.00 Build 0)  -->
<svg version="1.1" xmlns="http://www.w3.org/2000/svg" xmlns:xlink="http://www.w3.org/1999/xlink" x="0px" y="0px"
	 viewBox="0 0 500 221.6" style="enable-background:new 0 0 500 221.6;" xml:space="preserve">
<style type="text/css">
	.st0{fill:#2B9994;}
	.st1{fill:#5BC9EB;}
	.st2{fill:#007377;}
	.st3{fill:#22A4EB;}
	.st4{fill:#036B6B;}
	.st5{fill:#07A4EB;}
	.st6{fill:#62D2F5;}
	.st7{fill:#035E5E;}
</style>
<g id="BACKGROUND">
</g>
<g id="OBJECTS">
	<g id="XMLID_168_">
		<g id="XMLID_28_">
			<rect id="XMLID_93_" x="128.6" y="199.9" class="st0" width="20.5" height="11.4"/>
			<g id="XMLID_18_">
				<rect id="XMLID_88_" x="159.6" y="199.9" class="st0" width="26.5" height="11.4"/>
				<rect id="XMLID_85_" x="189.3" y="199.9" class="st0" width="2.3" height="11.4"/>
				<rect id="XMLID_82_" x="195.7" y="199.9" class="st0" width="3" height="11.4"/>
				<rect id="XMLID_79_" x="204.6" y="199.9" class="st0" width="4.6" height="11.4"/>
				<rect id="XMLID_76_" x="217.5" y="199.9" class="st0" width="4.6" height="11.4"/>
				<rect id="XMLID_73_" x="228.1" y="199.9" class="st0" width="3" height="11.4"/>
				<rect id="XMLID_70_" x="235.2" y="199.9" class="st0" width="2.3" height="11.4"/>
				<rect id="XMLID_64_" x="240.6" y="199.9" class="st0" width="26.5" height="11.4"/>
				<rect id="XMLID_66_" x="277.6" y="199.9" class="st1" width="20.5" height="11.4"/>
				<path id="XMLID_63_" class="st2" d="M295.3,186.6v13.4h-17.7v-1.4c0-1.4-0.6-2.8-1.5-3.7c-1-1-2.3-1.5-3.7-1.5
					c-2.9,0-5.2,2.3-5.2,5.2v1.4h-26.5v-3.6h-3.2v3.6h-2.3v-3.6h-4.1v3.6h-3v-3.6h-6v3.6h-4.6v-3.6h-8.4v3.6h-4.6v-3.6h-6v3.6h-3
					v-3.6h-4.1v3.6h-2.3v-3.6h-3.2v3.6h-26.5v-1.4c0-1.4-0.6-2.8-1.5-3.7c-1-1-2.3-1.5-3.7-1.5c-2.9,0-5.2,2.3-5.2,5.2v1.4h-17.7
					v-13.4H295.3z"/>
				<polygon id="XMLID_59_" class="st2" points="295.3,162 295.3,181.8 279.9,181.8 279.9,164.8 275.5,164.8 275.5,181.8 
					272.8,181.8 272.9,164.8 268.4,164.8 268.4,181.8 252.9,181.8 252.9,164.8 248.5,164.8 248.5,181.8 245.8,181.8 245.8,164.8 
					241.4,164.8 241.4,181.8 225.7,181.8 225.7,164.8 221.3,164.8 221.3,181.8 218.6,181.8 218.6,164.8 214.2,164.8 214.2,181.8 
					212.5,181.8 212.5,164.8 208.1,164.8 208.1,181.8 205.4,181.8 205.4,164.8 201,164.8 201,181.8 185.4,181.8 185.4,164.8 
					181,164.8 181,181.8 178.3,181.8 178.3,164.8 173.9,164.8 173.9,181.8 158.3,181.8 158.3,164.8 153.9,164.8 153.9,181.8 
					151.2,181.8 151.2,164.8 146.8,164.8 146.8,181.8 131.4,181.8 131.4,162 				"/>
				<path id="XMLID_136_" class="st2" d="M129.4,154.3v7.7h168v-7.7H129.4z M275.5,154.6h4.4l0,3.7h-4.4L275.5,154.6z M268.4,154.6
					h4.4l0,3.7h-4.4L268.4,154.6z M248.5,154.6h4.4v3.7h-4.4V154.6z M241.4,154.6h4.4v3.7h-4.4V154.6z M221.3,154.6h4.4v3.7h-4.4
					V154.6z M214.2,154.6h4.4v3.7h-4.4V154.6z M208.1,154.6h4.4v3.7h-4.4V154.6z M201,154.6h4.4v3.7H201V154.6z M181,154.6h4.4v3.7
					H181V154.6z M173.9,154.6h4.4v3.7h-4.4V154.6z M153.9,154.6h4.4v3.7h-4.4V154.6z M146.8,154.6h4.4v3.7h-4.4V154.6z"/>
				<path id="XMLID_116_" class="st2" d="M230.6,138.8c2.6,2.9,4.1,6.5,4.1,10.3h-1.1c0-3.9-1.7-7.5-4.5-10.3h-13
					c5.6,1.3,9.8,5.4,9.8,10.3h-1.1c0-5.3-5.5-9.7-12.3-9.7c-6.8,0-12.3,4.3-12.3,9.7h-1.1c0-4.9,4.1-9.1,9.8-10.3h-13
					c-2.8,2.8-4.5,6.4-4.5,10.3h-1.1c0-3.9,1.5-7.4,4.1-10.3h-65v10.4h168v-10.4H230.6z M154.3,141.8c3.1,0,5.6,2.5,5.6,5.6h-11.2
					C148.7,144.4,151.2,141.8,154.3,141.8z M272.4,141.8c3.1,0,5.6,2.5,5.6,5.6h-11.2C266.8,144.4,269.3,141.8,272.4,141.8z"/>
				<path id="XMLID_43_" class="st2" d="M229.1,138.8h-13c-1.1-0.3-2.3-0.4-3.6-0.4c-1.2,0-2.5,0.1-3.6,0.4h-13
					c0.4-0.4,0.9-0.8,1.4-1.2c3.9-3.2,9.3-5.2,15.3-5.2s11.4,2,15.3,5.2C228.2,137.9,228.7,138.3,229.1,138.8z"/>
				<path id="XMLID_99_" class="st2" d="M145.2,127.2v11.6h49.2c0.4-0.4,0.8-0.8,1.2-1.2c4.1-3.8,10.1-6.2,16.9-6.2
					c6.7,0,12.8,2.4,16.9,6.2c0.4,0.4,0.8,0.8,1.2,1.2h50.9v-11.6H145.2z M172.5,129c1.8,0,3.3,1.5,3.3,3.3h-6.7
					C169.1,130.5,170.6,129,172.5,129z M162.6,129c1.8,0,3.3,1.5,3.3,3.3h-6.7C159.3,130.5,160.7,129,162.6,129z M152.7,129
					c1.8,0,3.3,1.5,3.3,3.3h-6.7C149.4,130.5,150.9,129,152.7,129z M274,129c1.8,0,3.3,1.5,3.3,3.3h-6.7
					C270.7,130.5,272.2,129,274,129z M264.1,129c1.8,0,3.3,1.5,3.3,3.3h-6.7C260.8,130.5,262.3,129,264.1,129z M254.3,129
					c1.8,0,3.3,1.5,3.3,3.3h-6.7C250.9,130.5,252.4,129,254.3,129z"/>
				<rect id="XMLID_32_" x="128.8" y="153.1" class="st0" width="169.2" height="1.2"/>
				<rect id="XMLID_89_" x="128.8" y="149.1" class="st0" width="169.2" height="1.2"/>
				<rect id="XMLID_33_" x="128" y="151.9" class="st2" width="170.7" height="1.2"/>
				<rect id="XMLID_35_" x="128" y="150.3" class="st2" width="170.7" height="1.2"/>
				<rect id="XMLID_34_" x="127.1" y="151.3" class="st2" width="172.5" height="1.2"/>
				<rect id="XMLID_26_" x="129.4" y="158.5" class="st0" width="168" height="3.5"/>
				<polygon id="XMLID_61_" class="st0" points="297.4,181.8 295.3,186.9 131.4,186.9 129.4,181.8 				"/>
				<path id="XMLID_46_" class="st2" d="M217,82.5h-7.3c-14,0-25.3,11.3-25.3,25.3l0,0h57.9l0,0C242.3,93.8,231,82.5,217,82.5z"/>
				<path id="XMLID_123_" class="st2" d="M277,126.9c-0.1-8.9-16.6-16.1-26.3-16.8c-0.5,0-0.9,0-1.4,0h-72c-0.4,0-0.9,0-1.4,0
					c-9.7,0.7-26.3,8.1-26.3,17H277L277,126.9z M186.4,127h-5.1v-11.7c0-1.4,1.2-2.6,2.6-2.6c1.4,0,2.6,1.2,2.6,2.6V127z M196.2,127
					h-5.1v-11.7c0-1.4,1.2-2.6,2.6-2.6c1.4,0,2.6,1.2,2.6,2.6V127z M206.1,127H201v-11.7c0-1.4,1.2-2.6,2.6-2.6
					c1.4,0,2.6,1.2,2.6,2.6V127z M215.9,127h-5.1v-11.7c0-1.4,1.2-2.6,2.6-2.6c1.4,0,2.6,1.2,2.6,2.6V127z M225.8,127h-5.1v-11.7
					c0-1.4,1.2-2.6,2.6-2.6c1.4,0,2.6,1.2,2.6,2.6V127z M235.6,127h-5.1v-11.7c0-1.4,1.2-2.6,2.6-2.6c1.4,0,2.6,1.2,2.6,2.6V127z
					 M245.5,127h-5.1v-11.7c0-1.4,1.2-2.6,2.6-2.6c1.4,0,2.6,1.2,2.6,2.6V127z"/>
				<rect id="XMLID_49_" x="207" y="80.2" class="st0" width="12.6" height="2.3"/>
				<polygon id="XMLID_58_" class="st2" points="220.5,68.6 220.5,80.2 206.2,80.2 206.2,68.6 208.5,68.6 208.5,71.6 210.8,71.6 
					210.8,68.6 215.9,68.6 215.9,71.6 218.2,71.6 218.2,68.6 				"/>
				<g id="XMLID_50_">
					<path id="XMLID_53_" class="st3" d="M211.6,65.4l0-0.2C211.5,65.3,211.6,65.4,211.6,65.4z"/>
					<path id="XMLID_52_" class="st3" d="M215.2,65.3l0,0.2C215.2,65.4,215.2,65.3,215.2,65.3z"/>
					<path id="XMLID_51_" class="st2" d="M214.3,60.2l-0.4,0.8v-1.6c0,0-0.4-0.1-0.5,0.1c-0.1-0.2-0.5-0.1-0.5-0.1V61l-0.4-0.8
						l-0.5-0.4v-1.1h0.5l0.3-1l-0.7-0.6l-0.7,0.7l0.3,1v0.7l-3.3-2.4l0.3,1.8l2.9,3.7h0.9v1l-0.9,0.8l0,0.9c0,0,0.2,0,0.4,0.2v0.5
						h1.4h1.4v-0.5c0.3-0.2,0.4-0.2,0.4-0.2l0-0.9l-0.9-0.8v-1h0.9l2.9-3.7l0.3-1.8L214.3,60.2z"/>
				</g>
				<rect id="XMLID_54_" x="213" y="65.4" class="st2" width="0.8" height="3.2"/>
			</g>
			<g id="XMLID_30_">
				<rect id="XMLID_67_" x="190.3" y="149.1" class="st3" width="1.1" height="0"/>
				<rect id="XMLID_62_" x="233.7" y="149.1" class="st3" width="1.1" height="0"/>
			</g>
			<g id="XMLID_56_">
				<rect id="XMLID_69_" x="199.1" y="149.1" class="st3" width="1.1" height="0"/>
				<rect id="XMLID_72_" x="224.8" y="149.1" class="st3" width="1.1" height="0"/>
			</g>
			<path id="XMLID_44_" class="st0" d="M145.2,137.5h50.4c-0.4,0.4-0.8,0.8-1.2,1.2h-49.2V137.5z"/>
			<path id="XMLID_41_" class="st0" d="M227.8,137.5c0.5,0.4,0.9,0.8,1.4,1.2h-13c-1.1-0.3-2.3-0.4-3.6-0.4c-1.2,0-2.5,0.1-3.6,0.4
				h-13c0.4-0.4,0.9-0.8,1.4-1.2H227.8z"/>
			<path id="XMLID_42_" class="st0" d="M281.5,137.5v1.2h-50.9c-0.4-0.4-0.8-0.8-1.2-1.2H281.5z"/>
			<rect id="XMLID_27_" x="147.1" y="125.8" class="st0" width="132.6" height="1.4"/>
			<path id="XMLID_143_" class="st0" d="M181.8,127.2L181.8,127.2l63.1,0v0h5.8v-21.9h-5.8v2.5h-8.3v-0.7c0-1-0.8-1.8-1.8-1.8
				c-1,0-1.8,0.8-1.8,1.8v0.7h-5.5v-0.7c0-1-0.8-1.8-1.8-1.8c-1,0-1.8,0.8-1.8,1.8v0.7h-5.5v-0.7c0-1-0.8-1.8-1.8-1.8
				c-1,0-1.8,0.8-1.8,1.8v0.7h-5.5v-0.7c0-1-0.8-1.8-1.8-1.8c-1,0-1.8,0.8-1.8,1.8v0.7h-5.5v-0.7c0-1-0.8-1.8-1.8-1.8
				c-1,0-1.8,0.8-1.8,1.8v0.7h-5.5v-0.7c0-1-0.8-1.8-1.8-1.8c-1,0-1.8,0.8-1.8,1.8v0.7h-5.9v-2.5H176v21.9H181.8z M240.3,115.4
				c0-1.4,1.2-2.6,2.6-2.6c1.4,0,2.6,1.2,2.6,2.6V127h-5.1V115.4z M230.5,115.4c0-1.4,1.2-2.6,2.6-2.6c1.4,0,2.6,1.2,2.6,2.6V127
				h-5.1V115.4z M220.6,115.4c0-1.4,1.2-2.6,2.6-2.6c1.4,0,2.6,1.2,2.6,2.6V127h-5.1V115.4z M210.8,115.4c0-1.4,1.2-2.6,2.6-2.6
				c1.4,0,2.6,1.2,2.6,2.6V127h-5.1V115.4z M201,115.4c0-1.4,1.2-2.6,2.6-2.6c1.4,0,2.6,1.2,2.6,2.6V127H201V115.4z M191.1,115.4
				c0-1.4,1.2-2.6,2.6-2.6c1.4,0,2.6,1.2,2.6,2.6V127h-5.1V115.4z M181.3,115.4c0-1.4,1.2-2.6,2.6-2.6c1.4,0,2.6,1.2,2.6,2.6V127
				h-5.1V115.4z"/>
		</g>
		<g id="XMLID_165_">
			<rect id="XMLID_167_" x="421.5" y="107.1" class="st4" width="35.7" height="11.6"/>
			<g id="XMLID_173_">
				<path id="XMLID_223_" class="st2" d="M414.3,113.6v95.1h50.1v-95.1H414.3z M427,192.7h-5.9v-5.9h5.9V192.7z M427,179.6h-5.9
					v-5.9h5.9V179.6z M427,166.5h-5.9v-5.9h5.9V166.5z M427,153.5h-5.9v-5.9h5.9V153.5z M427,140.4h-5.9v-5.9h5.9V140.4z M427,127.3
					h-5.9v-5.9h5.9V127.3z M437.2,192.7h-5.9v-5.9h5.9V192.7z M437.2,179.6h-5.9v-5.9h5.9V179.6z M437.2,166.5h-5.9v-5.9h5.9V166.5z
					 M437.2,153.5h-5.9v-5.9h5.9V153.5z M437.2,140.4h-5.9v-5.9h5.9V140.4z M437.2,127.3h-5.9v-5.9h5.9V127.3z M447.4,192.7h-5.9
					v-5.9h5.9V192.7z M447.4,179.6h-5.9v-5.9h5.9V179.6z M447.4,166.5h-5.9v-5.9h5.9V166.5z M447.4,153.5h-5.9v-5.9h5.9V153.5z
					 M447.4,140.4h-5.9v-5.9h5.9V140.4z M447.4,127.3h-5.9v-5.9h5.9V127.3z M457.6,192.7h-5.9v-5.9h5.9V192.7z M457.6,179.6h-5.9
					v-5.9h5.9V179.6z M457.6,166.5h-5.9v-5.9h5.9V166.5z M457.6,153.5h-5.9v-5.9h5.9V153.5z M457.6,140.4h-5.9v-5.9h5.9V140.4z
					 M457.6,127.3h-5.9v-5.9h5.9V127.3z"/>
			</g>
		</g>
		<g id="XMLID_164_">
			<polygon id="XMLID_107_" class="st0" points="379.5,137.5 340.9,137.5 253,211.3 467.5,211.3 			"/>
			<polygon id="XMLID_29_" class="st2" points="435.1,199.4 285.3,199.4 280.6,211.3 439.8,211.3 			"/>
			<polygon id="XMLID_36_" class="st2" points="425.7,189 294.8,189 290.7,199.4 429.7,199.4 			"/>
			<polygon id="XMLID_37_" class="st2" points="417.9,179.8 302.5,179.8 298.9,189 421.5,189 			"/>
			<polygon id="XMLID_38_" class="st2" points="408.3,172.1 312.1,172.1 309.1,179.8 411.3,179.8 			"/>
			<polygon id="XMLID_39_" class="st2" points="401.6,165.6 318.8,165.6 316.2,172.1 404.2,172.1 			"/>
			<polygon id="XMLID_40_" class="st5" points="394.9,160 325.6,160 323.4,165.6 397,165.6 			"/>
			<polygon id="XMLID_48_" class="st2" points="394.9,159.5 325.6,159.5 323.4,165 397,165 			"/>
			<polygon id="XMLID_45_" class="st2" points="390.2,154 330.2,154 328.1,159.5 392.4,159.5 			"/>
			<polygon id="XMLID_47_" class="st2" points="385.5,148.5 334.9,148.5 332.7,154 387.7,154 			"/>
			<polygon id="XMLID_55_" class="st2" points="380.9,143 339.6,143 337.4,148.5 383,148.5 			"/>
			<polygon id="XMLID_57_" class="st2" points="376.2,137.5 344.2,137.5 342.1,143 378.4,143 			"/>
			<rect id="XMLID_31_" x="287.7" y="197.1" class="st0" width="145" height="2.3"/>
			<rect id="XMLID_65_" x="287.7" y="186.8" class="st0" width="145" height="2.3"/>
			<rect id="XMLID_68_" x="297.8" y="177.5" class="st0" width="124.9" height="2.3"/>
			<rect id="XMLID_71_" x="306.2" y="169.8" class="st0" width="108.1" height="2.3"/>
			<rect id="XMLID_78_" x="312.9" y="163.9" class="st0" width="94.7" height="2.3"/>
			<rect id="XMLID_80_" x="323.8" y="157.3" class="st0" width="72.9" height="2.3"/>
			<rect id="XMLID_86_" x="329.1" y="151.7" class="st0" width="62.2" height="2.3"/>
			<rect id="XMLID_106_" x="331.7" y="146.2" class="st0" width="57.1" height="2.3"/>
			<rect id="XMLID_108_" x="336.7" y="140.7" class="st0" width="47" height="2.3"/>
			<rect id="XMLID_60_" x="348.6" y="137.5" class="st0" width="23.2" height="73.8"/>
			<g id="XMLID_111_">
				<rect id="XMLID_109_" x="350.6" y="137.5" class="st2" width="2.2" height="73.8"/>
				<rect id="XMLID_127_" x="367.6" y="137.5" class="st2" width="2.2" height="73.8"/>
			</g>
			<rect id="XMLID_128_" x="353.9" y="138.9" class="st2" width="12.6" height="1.7"/>
			<rect id="XMLID_130_" x="353.9" y="142.1" class="st2" width="12.6" height="1.7"/>
			<rect id="XMLID_131_" x="353.9" y="145.3" class="st2" width="12.6" height="1.7"/>
			<rect id="XMLID_132_" x="353.9" y="148.4" class="st2" width="12.6" height="1.7"/>
			<rect id="XMLID_133_" x="353.9" y="151.6" class="st2" width="12.6" height="1.7"/>
			<rect id="XMLID_134_" x="353.9" y="154.8" class="st2" width="12.6" height="1.7"/>
			<rect id="XMLID_135_" x="353.9" y="157.9" class="st2" width="12.6" height="1.7"/>
			<rect id="XMLID_137_" x="353.9" y="161.1" class="st2" width="12.6" height="1.7"/>
			<rect id="XMLID_138_" x="353.9" y="164.2" class="st2" width="12.6" height="1.7"/>
			<rect id="XMLID_139_" x="353.9" y="167.4" class="st2" width="12.6" height="1.7"/>
			<rect id="XMLID_140_" x="353.9" y="170.6" class="st2" width="12.6" height="1.7"/>
			<rect id="XMLID_150_" x="353.9" y="173.7" class="st2" width="12.6" height="1.7"/>
			<rect id="XMLID_151_" x="353.9" y="176.9" class="st2" width="12.6" height="1.7"/>
			<rect id="XMLID_152_" x="353.9" y="180.1" class="st2" width="12.6" height="1.7"/>
			<rect id="XMLID_153_" x="353.9" y="183.2" class="st2" width="12.6" height="1.7"/>
			<rect id="XMLID_154_" x="353.9" y="186.4" class="st2" width="12.6" height="1.7"/>
			<rect id="XMLID_155_" x="353.9" y="189.5" class="st2" width="12.6" height="1.7"/>
			<rect id="XMLID_156_" x="353.9" y="192.7" class="st2" width="12.6" height="1.7"/>
			<rect id="XMLID_157_" x="353.9" y="195.9" class="st2" width="12.6" height="1.7"/>
			<rect id="XMLID_158_" x="353.9" y="199" class="st2" width="12.6" height="1.7"/>
			<rect id="XMLID_159_" x="353.9" y="202.2" class="st2" width="12.6" height="1.7"/>
			<rect id="XMLID_160_" x="353.9" y="205.4" class="st2" width="12.6" height="1.7"/>
			<rect id="XMLID_161_" x="353.9" y="208.5" class="st5" width="12.6" height="1.7"/>
			<polygon id="XMLID_169_" class="st2" points="373.9,128.5 373.9,137.5 361.8,137.5 361.8,132.4 358.1,132.4 358.1,137.5 
				346.1,137.5 346.1,128.5 			"/>
			<rect id="XMLID_129_" x="345.3" y="126.8" class="st0" width="29.5" height="1.7"/>
			<rect id="XMLID_163_" x="345.3" y="120.2" class="st0" width="29.5" height="1.7"/>
			<rect id="XMLID_162_" x="346.1" y="121.9" class="st2" width="27.8" height="4.9"/>
		</g>
		<g id="XMLID_191_">
			<rect id="XMLID_192_" x="48.3" y="103.1" class="st2" width="33.2" height="3.4"/>
			<polygon id="XMLID_193_" class="st4" points="86.6,112.8 86.6,106.5 81.5,106.5 48.3,106.5 43.2,106.5 43.2,112.8 			"/>
			<path id="XMLID_196_" class="st2" d="M86.6,112.8H43.2h-3.9v98.5h51.3v-98.5H86.6z M78.8,119.9H85v9.1h-6.2V119.9z M78.8,138.4
				H85v9.1h-6.2V138.4z M78.8,156.9H85v9.1h-6.2V156.9z M78.8,175.4H85v9.1h-6.2V175.4z M67.5,119.9h6.2v9.1h-6.2V119.9z
				 M67.5,138.4h6.2v9.1h-6.2V138.4z M67.5,156.9h6.2v9.1h-6.2V156.9z M67.5,175.4h6.2v9.1h-6.2V175.4z M56.1,119.9h6.2v9.1h-6.2
				V119.9z M56.1,138.4h6.2v9.1h-6.2V138.4z M56.1,156.9h6.2v9.1h-6.2V156.9z M56.1,175.4h6.2v9.1h-6.2V175.4z M44.8,119.9H51v9.1
				h-6.2V119.9z M44.8,138.4H51v9.1h-6.2V138.4z M44.8,156.9H51v9.1h-6.2V156.9z M44.8,175.4H51v9.1h-6.2V175.4z M56.1,211.3v-18.6
				h17.5v18.6H56.1z"/>
		</g>
		<g id="XMLID_14_">
			<rect id="XMLID_3_" x="94.7" y="184.2" class="st0" width="44" height="27.1"/>
			<polygon id="XMLID_4_" class="st2" points="140.7,179.2 92.7,179.2 94.7,184.2 138.7,184.2 			"/>
			<rect id="XMLID_5_" x="96.6" y="173.9" class="st0" width="40.2" height="5.3"/>
			<rect id="XMLID_6_" x="105" y="166.1" class="st0" width="23.5" height="7.8"/>
			<rect id="XMLID_13_" x="106.9" y="61.8" class="st0" width="19.6" height="7.8"/>
			<g id="XMLID_9_">
				<rect id="XMLID_15_" x="113.1" y="44.5" class="st0" width="2.5" height="5.7"/>
				
					<rect id="XMLID_17_" x="115.3" y="39.5" transform="matrix(-1.836970e-16 1 -1 -1.836970e-16 159.7656 -73.6394)" class="st0" width="2.8" height="7.1"/>
				<rect id="XMLID_16_" x="117.7" y="44.5" class="st0" width="2.5" height="5.7"/>
				<rect id="XMLID_19_" x="115.4" y="37.4" class="st0" width="2.5" height="5.7"/>
			</g>
			<path id="XMLID_25_" class="st0" d="M131.2,50.2v3.6c0,1.7-0.5,3.3-1.5,4.6c-1.4,2.1-3.8,3.4-6.5,3.4h-13.1
				c-2.7,0-5.1-1.3-6.5-3.4c-0.9-1.3-1.5-2.9-1.5-4.6v-3.6H131.2z"/>
			<rect id="XMLID_7_" x="109" y="69.6" class="st0" width="15.3" height="96.5"/>
			<rect id="XMLID_8_" x="105" y="171.2" class="st2" width="23.5" height="2.7"/>
			<rect id="XMLID_10_" x="109" y="163.4" class="st2" width="15.3" height="2.7"/>
			<rect id="XMLID_11_" x="109" y="78" class="st2" width="15.3" height="2.7"/>
			<rect id="XMLID_12_" x="109" y="69.6" class="st2" width="15.3" height="2.7"/>
			<path id="XMLID_23_" class="st2" d="M129.8,58.4c-1.4,2.1-3.8,3.4-6.5,3.4h-13.1c-2.7,0-5.1-1.3-6.5-3.4H129.8z"/>
			<g id="XMLID_20_">
				<path id="XMLID_21_" class="st6" d="M111.2,36.8l0-0.5C111,36.4,111.2,36.8,111.2,36.8z"/>
				<path id="XMLID_22_" class="st6" d="M122.2,36.3l0,0.5C122.2,36.8,122.4,36.4,122.2,36.3z"/>
				<path id="XMLID_24_" class="st0" d="M119.4,20.8l-1.1,2.3v-5c0,0-1.1-0.4-1.6,0.2c-0.5-0.5-1.6-0.2-1.6-0.2v5l-1.1-2.3l-1.6-1.2
					v-3.4h1.4l0.8-2.9l-2.3-1.8l-2.1,2l1.1,3.1v2.1l-10-7.3l1.1,5.5l8.9,11.2h2.9v3l-2.9,2.3l0.1,2.7c0.1-0.1,0.5,0,1.4,0.5v1.6h4.2
					h4.2v-1.6c0.9-0.5,1.2-0.6,1.4-0.5l0.1-2.7l-2.9-2.3v-3h2.9l8.9-11.2l1.1-5.5L119.4,20.8z"/>
			</g>
		</g>
		<rect id="XMLID_166_" x="21.2" y="208.5" class="st7" width="457.6" height="2.8"/>
	</g>
</g>
<g id="DESIGNED_BY_FREEPIK">
</g>
</svg>
