<?xml version="1.0" encoding="utf-8"?>
<!-- Generator: Adobe Illustrator 22.1.0, SVG Export Plug-In . SVG Version: 6.00 Build 0)  -->
<svg version="1.1" id="Capa_1" xmlns="http://www.w3.org/2000/svg" xmlns:xlink="http://www.w3.org/1999/xlink" x="0px" y="0px"
	 viewBox="0 0 180 180" style="enable-background:new 0 0 180 180;" xml:space="preserve">
<style type="text/css">
	.st0{fill:none;}
	.st1{fill:#007377;}
</style>
<g id="Group_106" transform="translate(1845 -1728)">
	<rect id="Rectangle_63" x="-1845" y="1728" class="st0" width="180" height="180"/>
	<g id="Group_89" transform="translate(-2856 12)">
		<g id="user-9" transform="translate(1072.5 2211)">
			<g id="Group_14" transform="translate(-38.5 -480)">
				<circle id="XMLID_1944_" class="st1" cx="67.2" cy="14.4" r="11.6"/>
				<circle id="XMLID_1942_" class="st1" cx="120" cy="105.2" r="11.6"/>
				<path id="XMLID_1940_" class="st1" d="M14.4,93.6c6.4,0,11.6,5.2,11.6,11.6s-5.2,11.6-11.6,11.6s-11.6-5.2-11.6-11.6l0,0
					C2.8,98.8,8,93.6,14.4,93.6z"/>
				<path id="Path_104" d="M134.4,44.9c0-7.9-6.4-14.4-14.3-14.4c-4.2,0-8.1,1.8-10.8,4.9L80.8,19c2.6-7.5-1.5-15.7-9-18.2
					c-7.5-2.6-15.7,1.5-18.2,9c-0.5,1.5-0.8,3.1-0.8,4.6c0,1.6,0.3,3.1,0.8,4.6L25.2,35.4c-5.2-6-14.3-6.6-20.3-1.4
					s-6.6,14.3-1.4,20.3c2,2.3,4.7,3.9,7.7,4.6v32.2c-7.8,1.7-12.7,9.3-11,17.1s9.3,12.7,17.1,11c3-0.6,5.6-2.2,7.6-4.4l28.5,16.4
					c-0.5,1.4-0.7,2.9-0.7,4.4c0,7.9,6.4,14.4,14.4,14.4s14.4-6.4,14.4-14.4c0-1.5-0.2-3-0.7-4.4l28.5-16.4c5.3,5.9,14.4,6.4,20.3,1
					c5.9-5.3,6.4-14.4,1-20.3c-2.1-2.3-4.8-3.9-7.9-4.5V58.9C129.5,57.6,134.4,51.7,134.4,44.9z M120,36.1c4.9,0,8.8,3.9,8.8,8.8
					s-3.9,8.8-8.8,8.8s-8.8-3.9-8.8-8.8S115.1,36.1,120,36.1L120,36.1z M67.2,5.6c4.9,0,8.8,4,8.8,8.8c0,1.4-0.4,2.9-1,4.2
					c-0.1,0.1-0.1,0.1-0.2,0.2L74.7,19c-2.5,4.2-7.9,5.5-12.1,3s-5.5-7.9-3-12.1C61.3,7.2,64.1,5.6,67.2,5.6z M5.6,44.9
					c0-4.9,4-8.8,8.8-8.8s8.8,4,8.8,8.8c0,4.9-3.9,8.8-8.8,8.8S5.6,49.8,5.6,44.9L5.6,44.9L5.6,44.9z M14.4,114
					c-4.9,0-8.8-3.9-8.8-8.8s3.9-8.8,8.8-8.8s8.8,3.9,8.8,8.8l0,0C23.2,110,19.3,114,14.4,114L14.4,114z M67.2,144.5
					c-4.9,0-8.8-3.9-8.8-8.8c0-4.9,3.9-8.8,8.8-8.8s8.8,3.9,8.8,8.8C76,140.5,72.1,144.5,67.2,144.5z M78.1,126.4
					c-5.1-6-14.1-6.8-20.1-1.7c-0.6,0.5-1.2,1.1-1.7,1.7L27.9,110c0.6-1.6,0.9-3.2,0.9-4.8c0-7-5-12.9-11.9-14.2V59
					c7.8-1.4,13-8.8,11.7-16.6c-0.1-0.7-0.3-1.5-0.6-2.2l28.4-16.4c5.2,6,14.3,6.6,20.2,1.4c0.5-0.4,1-0.9,1.4-1.4l28.4,16.4
					c-2.6,7.5,1.5,15.7,9,18.2c0.6,0.2,1.2,0.4,1.8,0.5V91c-6.7,1.3-11.6,7.2-11.6,14.1c0,1.7,0.3,3.3,0.9,4.8L78.1,126.4z
					 M128.8,105.2c0,4.9-3.9,8.8-8.8,8.8s-8.8-3.9-8.8-8.8s3.9-8.8,8.8-8.8C124.9,96.3,128.8,100.3,128.8,105.2L128.8,105.2
					L128.8,105.2z"/>
			</g>
		</g>
		<g id="woman" transform="translate(1002.615 1767.208)">
			<g id="Group_84" transform="translate(91.526 61.205)">
				<g id="Group_83" transform="translate(0)">
					<path id="Path_805" d="M35.2,10.3c0-0.1,0.1,0.4-1.9-9.4c-0.1-0.6-0.7-1-1.3-0.9c-0.6,0.1-1,0.7-0.9,1.3
						c1.8,9.4,2,9.4,1.9,10.3c-0.1,0.8-0.4,1.7-2.4,1.7H25V2.7c0-0.6-0.5-1.1-1.1-1.1s-1.1,0.5-1.1,1.1v10.6H1.1
						c-0.6,0-1.1,0.5-1.1,1.1s0.5,1.1,1.1,1.1h29.5C34,15.6,35.6,13.4,35.2,10.3z"/>
				</g>
			</g>
			<g id="Group_87" transform="translate(71.385 0.001)">
				<g id="Group_86" transform="translate(0 0)">
					<g id="Group_85">
						<path id="Path_806" d="M47.6,49.5L47.6,49.5L47.6,49.5L47.6,49.5z"/>
						<path id="Path_807" d="M47.7,49.6L47.7,49.6L47.7,49.6L47.7,49.6z"/>
						<path id="Path_808" d="M47.7,49.6"/>
						<path id="Path_809" d="M52.4,56.9c-0.4-2.1-0.6-3.8-2.2-5.6c-0.7-0.8-1.6-1.4-2.5-1.8l0,0c-7.8-2.7-6-2.1-12-4.2h7.2
							c1.8,0,3.3-1.5,3.3-3.3c1.1-19.2,1.1-18.3,1.1-18.4c0-5.5,1-16.5-11-22.1c-1-0.5-2-0.8-3.1-1.1c-8.4-1.6-14,1.2-16.5,5
							c-4.3,1.2-7,5.3-7.7,11.8c-0.1,0.6,0.4,1.2,1,1.2c0.6,0.1,1.2-0.4,1.2-1c0.8-7.3,3.9-9.4,6.4-10C18,7.5,18.2,7.3,18.4,7
							c0-0.1,3.4-6.4,14.3-4.3c1.6,0.5,3.1,1.1,4.5,2c11,7.1,7.5,17.2,6.7,37.3c0,0,0,0,0,0.1c0,0.6-0.5,1-1,1H35v-0.8
							c4.8-2.6,7.8-7.6,7.7-13v-3.1c0-1.3-1-2.4-2.4-2.5c-9.5-0.4-14.6-5.5-16.3-7.6c-0.4-0.5-1.1-0.9-1.8-0.9
							c-0.7,0-1.4,0.2-1.9,0.8c-1.4,1.5-3.2,2.6-5.2,3.1c-1.3,0.3-2.2,1.5-2.2,2.8c0.1,5.7-0.2,7.9,0.3,10.3v0.2
							c0.8,4.1,3.3,7.6,6.9,9.7v1.1h-7c-0.6,0-1-0.5-1-1c0,0,0,0,0-0.1c-1.5-25.7-1.1-17.7-1.2-19.4c0-0.6-0.6-1.1-1.2-1.1
							s-1.1,0.6-1.1,1.2c0,0,1.2,19.3,1.2,19.4c0,1.8,1.5,3.3,3.3,3.3h6.4c-1.1,0.4-11.8,4.1-12,4.2c-2.3,1-3.9,3-4.4,5.5
							C0,72-0.1,71.8,0,73.1c0.1,1.1,0.8,3.7,4.6,3.7H16c0.6,0,1.1-0.5,1.1-1.1s-0.5-1.1-1.1-1.1h-3.4V63.9c0-0.6-0.5-1.1-1.1-1.1
							s-1.1,0.5-1.1,1.1v10.6H4.6c-1.7,0-2.6-0.7-2.3-2.7c3.5-17.8,3.3-16.6,3.4-17c1-3,3.5-3.4,6.1-4.3c0.2,5,1.6,10.3,6.5,10.3
							c3.3,0,6.9-2.6,9.3-4.7c3,2.7,7.8,5.9,11.5,4.3c2.7-1.2,4.1-4.4,4.4-9.8c3.2,1.1,3,0.9,4.1,1.6c2,1.5,2.1,3,2.5,5.3
							c0.1,0.6,0.7,1,1.3,0.9C52.1,58.1,52.5,57.6,52.4,56.9L52.4,56.9z M15.6,31.6c-0.3-1.6-0.2-2.8-0.2-9.8c0-0.3,0.2-0.5,0.5-0.6
							c2.4-0.7,4.6-2,6.4-3.7c4.5,5.3,11.1,8.4,18.1,8.5c0.1,0,0.2,0.1,0.2,0.2c0,4.2,0.2,5.3-1.3,8.6c-3,6.3-10.6,8.9-16.8,5.8
							C18.9,38.9,16.3,35.5,15.6,31.6L15.6,31.6z M17.1,58.3c-1.9-0.8-2.9-3.8-3-8.6l1.3-0.5c2.1,3.3,5.4,5.7,9.3,6.4
							C22.7,57.1,19.3,59.2,17.1,58.3z M17.6,48.5l3.2-1.1c1.1-0.4,1.8-1.4,1.8-2.6v-1.7c0.7,0.3,1.5,0.5,2.2,0.7
							c2.7,0.6,5.4,0.4,8-0.5v1.5c0,1.2,0.7,2.2,1.8,2.6l3.2,1.1C33,55.6,22.2,55.3,17.6,48.5z M38.3,58.3c-2.2,1-5.6-1.1-7.6-2.6
							c3.8-0.8,7.2-3.1,9.3-6.4l1.4,0.5C41.2,54.5,40.2,57.5,38.3,58.3z"/>
					</g>
				</g>
			</g>
		</g>
	</g>
</g>
</svg>
