<?xml version="1.0" encoding="utf-8"?>
<!-- Generator: Adobe Illustrator 22.1.0, SVG Export Plug-In . SVG Version: 6.00 Build 0)  -->
<svg version="1.1" id="Capa_1" xmlns="http://www.w3.org/2000/svg" xmlns:xlink="http://www.w3.org/1999/xlink" x="0px" y="0px"
	 viewBox="0 0 200 200" style="enable-background:new 0 0 200 200;" xml:space="preserve">
<style type="text/css">
	.st0{fill:none;}
	.st1{fill:#A7A9AC;}
	.st2{fill:#007377;}
</style>
<g id="Group_2" transform="translate(-104 -65)">
	<rect id="Rectangle_50" x="104" y="65" class="st0" width="200" height="200"/>
	<g id="handshake" transform="translate(124 27.987)">
		<g id="Group_13" transform="translate(0 84.014)">
			
				<rect id="XMLID_60_" x="-4.7" y="20.7" transform="matrix(0.3244 -0.9459 0.9459 0.3244 -15.0976 41.8927)" class="st1" width="52.9" height="21.6"/>
			<path id="Path_102" d="M55.4,7.2l-2,1c-2.5,1.2-5.3,1.4-8,0.5l-3.3-1.2c-0.2-0.1-0.4-0.2-0.6-0.3L21,0.2
				c-1.5-0.5-3.2,0.3-3.8,1.8l-17,50c-0.5,1.5,0.3,3.2,1.8,3.7l0,0l20.4,7c0.3,0.1,0.6,0.2,0.9,0.2c1.3,0,2.4-0.8,2.8-2l16.2-47.2
				l1.1,0.4c4.1,1.4,8.6,1.2,12.6-0.7l2-1c2.5-1.2,5.3-1.4,7.9-0.5L103.5,25c-0.3,1.7-1.3,3.3-2.6,4.4c-1.6,1.1-4,1.1-7.1,0L77,23.7
				c-0.8-0.3-1.6-0.2-2.3,0.2c-0.7,0.4-1.2,1.1-1.5,1.9c0,0.1-2.3,8.8-9.8,12.8C58.8,41,53,41.1,46.2,38.8c-1.5-0.5-3.2,0.3-3.8,1.8
				c-0.5,1.5,0.3,3.2,1.8,3.8c3.5,1.3,7.3,2,11,2c3.8,0,7.6-0.9,11-2.7c6.6-3.6,10-9.8,11.6-13.5l14,4.8c5,1.7,9.2,1.5,12.4-0.8
				c5.2-3.6,5.4-10.9,5.5-11.2c0-1.3-0.8-2.4-2-2.9L67.8,6.4C63.8,5.1,59.3,5.3,55.4,7.2z M21.6,56.2l-14.9-5L21.9,6.7l14.9,5.1
				L21.6,56.2z"/>
			
				<rect id="XMLID_142_" x="124.7" y="5.4" transform="matrix(0.8982 -0.4395 0.4395 0.8982 -0.1999 62.799)" class="st2" width="21.6" height="52.9"/>
			<path id="Path_103" d="M133.8,59.6l-7,6.5c-6.4,5.8-13.5,10.7-21.3,14.5L68.3,98.8c-1.6,0.8-3.6,0.2-4.5-1.5s-0.2-3.6,1.5-4.5
				h0.1l0.5-0.2l0,0l20.3-9.9c1.5-0.7,2.1-2.5,1.4-3.9c-0.7-1.5-2.5-2.1-3.9-1.4l-20.3,9.9l0,0l-10.2,5c-1.6,0.8-3.6,0.1-4.4-1.5
				l0,0c-0.4-0.8-0.5-1.7-0.2-2.5s0.9-1.5,1.7-1.9l7.7-3.8l0,0l22.1-10.8c1.5-0.7,2.1-2.5,1.4-3.9c-0.7-1.5-2.5-2.1-3.9-1.4
				L55.2,77.3l0,0l-0.8,0.4l-10.6,5.2c-0.8,0.4-1.7,0.5-2.5,0.2c-1.7-0.6-2.6-2.5-2.1-4.2c0.3-0.8,0.9-1.5,1.7-1.9l3.7-1.8l0,0
				l7.5-3.7l2.1-1l0,0l17.2-8.4c1.5-0.7,2.1-2.5,1.4-3.9s-2.5-2.1-3.9-1.4l-18.6,9.1l-8.1,4c-1.6,0.8-3.6,0.1-4.4-1.5
				c-0.4-0.8-0.5-1.7-0.2-2.5s0.9-1.5,1.7-1.9l13.9-7c1.5-0.7,2.1-2.5,1.4-3.9s-2.5-2.1-3.9-1.4l-14.2,6.9c-2.2,1.1-3.9,3-4.7,5.3
				c-1.3,3.8,0,8,3.3,10.4c-2.1,2.8-2.5,6.5-1,9.7c1.1,2.2,3,3.9,5.3,4.7c0.9,0.3,1.9,0.5,2.9,0.5c0,1.5,0.3,2.9,0.9,4.3
				c1.6,3.2,4.8,5.2,8.3,5.2c1.4,0,2.8-0.3,4-0.9l2.1-1c0.1,1.1,0.4,2.2,0.9,3.2c1.6,3.2,4.8,5.2,8.3,5.2c1.4,0,2.8-0.3,4-0.9
				L108,86.1c8.3-4,15.9-9.3,22.7-15.5l8.3-7.7l19-9.3c1.5-0.7,2.1-2.5,1.4-3.9l0,0L136.2,2c-0.7-1.5-2.5-2.1-3.9-1.4l-19.4,9.5
				c-1.5,0.7-2.1,2.5-1.4,3.9l0,0L133.8,59.6z M132.2,7.2l20.6,42.2l-14.1,6.9l-20.6-42.2L132.2,7.2z"/>
		</g>
	</g>
</g>
</svg>
