<?xml version="1.0" encoding="utf-8"?>
<!-- Generator: Adobe Illustrator 22.1.0, SVG Export Plug-In . SVG Version: 6.00 Build 0)  -->
<svg version="1.1" id="Capa_1" xmlns="http://www.w3.org/2000/svg" xmlns:xlink="http://www.w3.org/1999/xlink" x="0px" y="0px"
	 viewBox="0 0 200 200" style="enable-background:new 0 0 200 200;" xml:space="preserve">
<style type="text/css">
	.st0{fill:none;}
	.st1{fill:#A7A9AC;}
	.st2{fill:#007377;}
</style>
<g id="Group_1" transform="translate(-104 -323)">
	<rect id="Rectangle_51" x="104" y="323" class="st0" width="200" height="200"/>
	<g id="user-2" transform="translate(77.85 348)">
		<g id="Group_1-2" transform="translate(73.15)">
			<path id="XMLID_7410_" class="st1" d="M52,73.2h0.2C75.1,73,71.8,42.4,71.8,42.4c-0.9-20.4-18-20.2-19.7-20.2
				c-1.7-0.1-18.7-0.2-19.7,20.2C32.5,42.5,29.2,73,52,73.2z"/>
			<path id="Path_1" d="M52.6,0C23.6,0,0,23.5,0,52.5c0,13.3,5,26.2,14.2,35.9c0.2,0.3,0.4,0.5,0.6,0.7C35,110,68.2,110.5,89.1,90.4
				s21.5-53.4,1.3-74.3C80.5,5.8,66.8,0,52.6,0z M21.9,88.1c14.3-4.7,19.3-10.3,21.1-14c2.8,1.2,5.8,1.9,8.9,1.9h0.7
				c3.3,0,6.6-0.7,9.5-2.2c1.6,3.6,6.5,9.5,21.2,14.3C65.7,103.4,39.5,103.4,21.9,88.1L21.9,88.1z M52.2,70.4H52
				c-4.9-0.1-8.6-1.6-11.3-4.7c-7-7.8-5.5-22.8-5.5-23v-0.2C36,26.4,48,25.1,51.7,25.1h0.9c3.6,0,15.7,1.3,16.4,17.5v0.2
				c0,0.2,1.5,15.1-5.5,23C60.8,68.9,57.1,70.4,52.2,70.4z M87.8,83.7c-20.3-5.9-21-13.1-21-13.1v0.2h-0.3c0.4-0.4,0.9-0.8,1.3-1.3
				c8.4-9.4,7-25.6,6.8-27.2c-0.8-16.8-12.3-22.8-22-22.8h-1c-9.6,0-21.1,5.9-22,22.7c-0.2,1.5-1.6,17.7,6.8,27.2
				c0.5,0.6,1.1,1.1,1.7,1.7c-0.5,1.5-3.5,7.6-20.8,12.6C0.1,64.2,2,34.5,21.4,17.3s49.2-15.4,66.4,4.1
				C103.5,39.2,103.5,65.9,87.8,83.7L87.8,83.7z"/>
			<path id="Path_2" class="st2" d="M94,125.9c0-1.5-1.2-2.8-2.8-2.8H14c-1.5,0-2.8,1.2-2.8,2.7s1.2,2.8,2.7,2.8H14h77.2
				C92.7,128.6,93.9,127.4,94,125.9z"/>
			<path id="Path_3" d="M80.4,147.2c0-1.5-1.3-2.8-2.8-2.8h-50c-1.5,0-2.8,1.2-2.8,2.7s1.2,2.8,2.7,2.8h0.1h50
				C79.1,150,80.4,148.7,80.4,147.2z"/>
		</g>
	</g>
</g>
</svg>
