<?xml version="1.0" encoding="utf-8"?>
<!-- Generator: Adobe Illustrator 22.1.0, SVG Export Plug-In . SVG Version: 6.00 Build 0)  -->
<svg version="1.1" id="Capa_1" xmlns="http://www.w3.org/2000/svg" xmlns:xlink="http://www.w3.org/1999/xlink" x="0px" y="0px"
	 viewBox="0 0 104.9 160" style="enable-background:new 0 0 104.9 160;" xml:space="preserve">
<style type="text/css">
	.st0{fill:#007377;}
</style>
<g id="Group_133" transform="translate(3417 1836)">
	<g id="Group_202" transform="translate(-3391.683 -1801.932)">
		<g id="Group_201" transform="translate(0 0)">
			<circle id="Ellipse_19" class="st0" cx="14.8" cy="14.8" r="14.8"/>
			<circle id="Ellipse_20" class="st0" cx="39.2" cy="14.8" r="14.8"/>
		</g>
		<path id="Rectangle_67" class="st0" d="M17.3,18.4h19.4c4.9,0,8.9,4,8.9,8.9l0,0c0,4.9-4,8.9-8.9,8.9H17.3c-4.9,0-8.9-4-8.9-8.9
			l0,0C8.4,22.4,12.4,18.4,17.3,18.4z"/>
		<path id="Path_840" class="st0" d="M15.7,36h22.1l-10.7,8.8L15.7,36z"/>
	</g>
	<g id="Group_200" transform="translate(-3417 -1836)">
		<g id="growth" transform="translate(0 0)">
			<g id="Group_168" transform="translate(49.303)">
				<g id="Group_167">
					<path id="Path_824" d="M3.1,0C1.4,0,0,1.4,0,3.1l0,0v11.4c0,1.7,1.5,3.1,3.2,3.1s3-1.4,3.1-3.1V3.1C6.2,1.4,4.9,0,3.1,0z"/>
				</g>
			</g>
			<g id="Group_170" transform="translate(65.704 12.112)">
				<g id="Group_169">
					<path id="Path_825" d="M10.9,0.9c-1.2-1.2-3.2-1.2-4.4,0L0.9,6.5C-0.3,7.7-0.2,9.7,1,10.9s3.1,1.2,4.3,0l5.6-5.6
						C12.1,4.1,12.1,2.1,10.9,0.9z"/>
				</g>
			</g>
			<g id="Group_172" transform="translate(27.335 12.113)">
				<g id="Group_171">
					<path id="Path_826" d="M10.9,6.5L5.3,0.9C4.1-0.3,2.1-0.2,0.9,1s-1.2,3.1,0,4.3l5.6,5.6c1.2,1.2,3.2,1.2,4.4-0.1
						C12.1,9.6,12.1,7.7,10.9,6.5z"/>
				</g>
			</g>
			<g id="Group_174" transform="translate(7.847 153.776)">
				<g id="Group_173">
					<path id="Path_827" d="M5.3,0.9c-1.2-1.2-3.2-1.2-4.4,0s-1.2,3.2,0,4.4s3.2,1.2,4.4,0c0.6-0.6,1-1.3,1-2.2
						C6.2,2.3,5.9,1.5,5.3,0.9z"/>
				</g>
			</g>
			<g id="Group_176" transform="translate(0 71.567)">
				<g id="Group_175">
					<path id="Path_828" d="M93.9,82.2H55.6v-4.4c0.6,0.2,1.2,0.3,1.8,0.4c0.5,0.1,0.9,0.1,1.4,0.1c2.4,0,4.8-0.7,6.9-1.9
						c5.8-3.4,8.2-9.7,5.5-14.5c-1.5-2.5-4.1-4.1-6.9-4.3c-2.9-0.3-5.8,0.4-8.3,1.8c-0.1,0.1-0.2,0.1-0.4,0.2v-4.2
						c0.9,0,2,0.1,3.2,0.1c8.7,0,24.2-1.6,34.4-11.6C107,30.4,105,6.6,104.7,3.1c-0.1-1.6-1.3-2.9-2.9-3c-1.9-0.2-26-2-40.1,11.8
						c-4.2,4.2-7.3,9.4-9.1,15.1c-1.8-5.7-4.9-10.8-9.1-15.1C29.3-1.7,5.5,0,3.3,0.2c-1.6,0.1-2.9,1.3-3,2.9C0,6.4-2.1,30.4,11.8,44
						C22,54,37.4,55.5,46.1,55.5c1.2,0,2.3,0,3.2-0.1v4.2c-0.1-0.1-0.2-0.1-0.4-0.2c-2.5-1.5-5.4-2.1-8.3-1.8
						c-4.8,0.3-8.4,4.4-8.1,9.2c0.1,1.1,0.4,2.2,0.9,3.3c1.2,2.7,3.2,4.9,5.8,6.3c2.1,1.2,4.5,1.9,6.9,1.9c0.5,0,0.9,0,1.4-0.1
						c0.6-0.1,1.2-0.2,1.8-0.4v4.4H23c-1.7,0-3.1,1.5-3.1,3.2s1.4,3,3.1,3.1h70.8c1.7,0,3.1-1.5,3.1-3.2
						C96.9,83.6,95.6,82.2,93.9,82.2L93.9,82.2z M55.6,69.4c0.4-2,1.7-3.7,3.5-4.6c1.2-0.7,2.5-1.1,3.8-1.1c0.2,0,0.4,0,0.7,0
						c0.9,0,1.7,0.5,2.3,1.2c0.8,1.4-0.3,4.2-3.2,5.9c-1.3,0.8-2.9,1.2-4.5,1.1c-0.9,0-1.7-0.5-2.3-1.2c-0.2-0.3-0.2-0.6-0.3-0.9
						C55.6,69.7,55.6,69.6,55.6,69.4L55.6,69.4z M88.7,39.5c-8.1,8-20.9,9.6-28.7,9.7l18.9-19h15.9C93.4,33.7,91.3,36.8,88.7,39.5
						L88.7,39.5z M98.6,10.5c0,4.6-0.6,9.1-1.7,13.5H85.1L98.6,10.5z M69.9,13.3c5.8-4,12.8-5.7,18.1-6.4c2.2-0.3,4.2-0.5,6-0.6
						L75.4,24.9l0,0l-5.5,5.5V13.3z M63.6,19.1v17.7l-8,8C55.9,37.8,57.4,27,63.6,19.1L63.6,19.1z M16.9,6.9
						c5.3,0.7,12.2,2.5,18.1,6.4v17.2L29.5,25l0,0L10.9,6.3C12.7,6.4,14.7,6.6,16.9,6.9L16.9,6.9z M6.3,10.5L19.7,24H7.9
						C6.9,19.6,6.3,15.1,6.3,10.5z M16.1,39.5c-2.6-2.6-4.7-5.8-6.1-9.2h16l18.9,19C37,49.1,24.3,47.5,16.1,39.5L16.1,39.5z
						 M41.2,36.7V19.1c6.2,7.9,7.7,18.7,8,25.7L41.2,36.7z M49,70.7c-0.5,0.7-1.4,1.2-2.3,1.2c-3.2,0.2-6.2-1.5-7.6-4.4
						c-0.7-1.1-0.4-2.7,0.7-3.4c0.4-0.3,0.9-0.4,1.5-0.4c0.2,0,0.4,0,0.7,0c1.3,0,2.7,0.4,3.8,1.1c1.8,0.9,3.1,2.6,3.5,4.6
						c0,0.1,0,0.3,0,0.4C49.3,70.1,49.2,70.5,49,70.7L49,70.7z"/>
				</g>
			</g>
			<g id="Group_178" transform="translate(11.767 115.522)">
				<g id="Group_177">
					<path id="Path_829" d="M0,0L0,0z"/>
				</g>
			</g>
		</g>
		<g id="Group_199" transform="translate(22.504 31.051)">
			<g id="Group_191" transform="translate(0 0)">
				<path id="Path_836" d="M41.5,0c-4.3,0-8.4,1.5-11.6,4.3C26.6,1.5,22.5,0,18.2,0C8.1,0.1-0.1,8.5,0,18.6
					c0,5.9,4.9,13.2,14.6,21.5c4.5,3.8,9.2,7.3,14.1,10.5c0.7,0.5,1.7,0.5,2.4,0c4.9-3.2,9.6-6.7,14.1-10.5
					c9.7-8.3,14.6-15.6,14.6-21.5C59.8,8.5,51.6,0.1,41.5,0z M29.8,46.2c-8-5.4-25.3-18.6-25.3-27.6c-0.1-7.7,6-14,13.7-14.1
					c3.8,0,7.4,1.6,10,4.4c0.8,0.9,2.2,1,3.1,0.1l0.1-0.1c2.6-2.8,6.2-4.4,10-4.4c7.7,0.1,13.9,6.5,13.8,14.2
					C55.2,27.6,37.9,40.8,29.8,46.2L29.8,46.2z"/>
			</g>
		</g>
	</g>
</g>
</svg>
