<?xml version="1.0" encoding="utf-8"?>
<!-- Generator: Adobe Illustrator 22.1.0, SVG Export Plug-In . SVG Version: 6.00 Build 0)  -->
<svg version="1.1" id="Capa_1" xmlns="http://www.w3.org/2000/svg" xmlns:xlink="http://www.w3.org/1999/xlink" x="0px" y="0px"
	 viewBox="0 0 183 183" style="enable-background:new 0 0 183 183;" xml:space="preserve">
<style type="text/css">
	.st0{fill:none;}
	.st1{fill:#007377;}
</style>
<g id="Group_267" transform="translate(3311 -1278)">
	<rect id="Rectangle_74" x="-3311" y="1278" class="st0" width="183" height="183"/>
	<g id="Group_266" transform="translate(801 2913.877)">
		<g id="Group_203" transform="translate(-4052.844 -1584.331)">
			<g id="Group_201">
				<circle id="Ellipse_19" class="st1" cx="17.8" cy="17.8" r="17.8"/>
				<circle id="Ellipse_20" class="st1" cx="47.1" cy="17.8" r="17.8"/>
			</g>
			<path id="Rectangle_67" class="st1" d="M20.8,22.2h23.3c5.9,0,10.7,4.8,10.7,10.7l0,0c0,5.9-4.8,10.7-10.7,10.7H20.8
				c-5.9,0-10.7-4.8-10.7-10.7l0,0C10.1,27,14.9,22.2,20.8,22.2z"/>
			<path id="Path_840" class="st1" d="M18.8,43.3h26.6L32.6,53.8L18.8,43.3z"/>
		</g>
		<g id="heart" transform="translate(-4089 -1613)">
			<g id="Group_180" transform="translate(0 14.462)">
				<g id="Group_179">
					<path id="Path_830" d="M50.3,102.3h-2.5c2.4-4.6,3.7-9.8,3.7-15c0-7-2.3-13.8-6.5-19.4L33,51.8c-3.3-4.4-9.6-5.3-14-1.9
						s-5.3,9.6-1.9,14c0.1,0.1,0.1,0.1,0.2,0.2l13.6,16.8c0.9,1.2,2.6,1.3,3.8,0.4s1.3-2.6,0.4-3.8L21.3,60.7
						c-0.9-1.2-1.3-2.7-0.9-4.1c0.7-2.5,3.2-3.9,5.7-3.3c1,0.3,1.9,0.9,2.5,1.7l12.1,16.1c3.5,4.7,5.4,10.3,5.4,16.2
						c0,5.3-1.5,10.4-4.4,14.8l-0.2,0.2h-24L5.8,69.7c-0.3-0.9-0.5-1.8-0.5-2.7V10.2c0-2.7,2.1-4.9,4.8-4.9S15,7.4,15,10v0.1v19.3
						c0,1.5,1.2,2.7,2.7,2.7s2.7-1.2,2.7-2.7V10.2c0-5.6-4.5-10.2-10.1-10.3S0.1,4.4,0,10c0,0.1,0,0.1,0,0.2V67
						c0,1.5,0.3,3.1,0.8,4.5l11.1,30.8H8.6c-1.5,0-2.7,1.2-2.7,2.7v15c0,1.5,1.2,2.7,2.7,2.7s2.7-1.2,2.7-2.7l0,0v-12.3h36.4V120
						c0,1.5,1.2,2.7,2.7,2.7s2.7-1.2,2.7-2.7l0,0v-15C53,103.5,51.8,102.3,50.3,102.3C50.4,102.3,50.4,102.3,50.3,102.3z"/>
				</g>
			</g>
			<g id="Group_182" transform="translate(34.459 125.583)">
				<g id="Group_181">
					<path id="Path_831" d="M4.5,0.7c-1.1-1-2.8-0.9-3.8,0.2l0,0c-1,1.1-0.9,2.8,0.2,3.8s2.8,0.9,3.8-0.2l0,0l0,0
						C5.7,3.4,5.6,1.7,4.5,0.7z"/>
				</g>
			</g>
			<g id="Group_184" transform="translate(14.998 51.777)">
				<g id="Group_183">
					<path id="Path_832" d="M4.6,0.8c-1-1-2.7-1-3.8,0c-1,1-1,2.7,0,3.8s2.7,1,3.8,0c0.5-0.5,0.8-1.2,0.8-1.9S5.1,1.3,4.6,0.8z"/>
				</g>
			</g>
			<g id="Group_186" transform="translate(97.286 125.583)">
				<g id="Group_185">
					<path id="Path_833" d="M4.7,0.9L4.7,0.9C3.7-0.3,2-0.4,0.9,0.6s-1.3,2.6-0.3,3.8l0.1,0.1l0,0c1,1.1,2.7,1.2,3.8,0.2
						S5.7,2,4.7,0.9L4.7,0.9L4.7,0.9z"/>
				</g>
			</g>
			<g id="Group_188" transform="translate(122.792 105.569)">
				<g id="Group_187">
					<path id="Path_834" d="M4.6,0.8c-1-1-2.7-1-3.8,0s-1,2.7,0,3.8c1,1,2.7,1,3.8,0c0.5-0.5,0.8-1.2,0.8-1.9S5.1,1.3,4.6,0.8z"/>
				</g>
			</g>
			<g id="Group_190" transform="translate(84.095 14.462)">
				<g id="Group_189">
					<path id="Path_835" d="M42.9,0c-5.6,0-10.2,4.6-10.2,10.2v38.7c-0.9-0.4-1.8-0.7-2.7-0.9c-3.8-0.7-7.6,0.8-9.9,3.8L8,67.9
						c-7.5,10-8.6,23.4-2.8,34.4H2.7c-1.5,0-2.7,1.2-2.7,2.7l0,0v15c0,1.5,1.2,2.7,2.7,2.7s2.7-1.2,2.7-2.7l0,0v-12.3h36.4V120
						c0,1.5,1.2,2.7,2.7,2.7s2.7-1.2,2.7-2.7l0,0v-15c0-1.5-1.2-2.7-2.7-2.7l0,0h-33l-0.2-0.2c-6.2-9.5-5.8-21.9,1-30.9L24.4,55
						c1.5-2.1,4.5-2.5,6.5-0.9c0.8,0.6,1.4,1.5,1.7,2.5c0,0.1,0.1,0.3,0.1,0.4v0.7c0,0.2,0,0.3,0,0.5c-0.1,0.9-0.4,1.8-1,2.5
						L18.1,77.6c-0.9,1.2-0.7,2.8,0.4,3.8c1.2,0.9,2.8,0.7,3.8-0.4l0,0l13.6-16.8c1.7-2.1,2.4-4.8,2.1-7.4V10.2
						c0-2.7,2.1-4.9,4.8-4.9s4.9,2.1,4.9,4.8v0.1V67c0,0.9-0.2,1.8-0.5,2.7l-5.1,14.2c-0.5,1.4,0.2,2.9,1.6,3.4
						c1.4,0.5,2.9-0.2,3.4-1.6l5.1-14.2c0.5-1.5,0.8-3,0.8-4.5V10.2C53,4.6,48.5,0,42.9,0z"/>
				</g>
			</g>
			<g id="Group_192" transform="translate(32.674 25.042)">
				<g id="Group_191">
					<path id="Path_836" d="M49.9,0c-5.1,0-10.1,1.8-14,5.2C32,1.8,27,0,21.9,0C9.7,0.2-0.1,10.2,0,22.4c0,7.1,5.9,15.9,17.5,25.9
						c5.4,4.6,11,8.8,16.9,12.7c0.9,0.6,2,0.6,2.9,0c5.9-3.8,11.6-8.1,16.9-12.7c11.6-10,17.5-18.8,17.5-25.9
						C71.9,10.2,62.1,0.2,49.9,0z M35.9,55.5C26.2,49.1,5.4,33.1,5.4,22.4C5.2,13.1,12.6,5.5,21.9,5.3c4.6,0,8.9,1.9,12,5.3
						c1,1.1,2.7,1.2,3.8,0.2c0.1,0,0.1-0.1,0.2-0.2c3.1-3.4,7.4-5.3,12-5.3c9.3,0.1,16.7,7.8,16.6,17.1
						C66.4,33.1,45.6,49.1,35.9,55.5L35.9,55.5z"/>
				</g>
			</g>
			<g id="Group_194" transform="translate(65.883)">
				<g id="Group_193">
					<path id="Path_837" d="M2.7,0C1.2,0,0,1.2,0,2.7V12c0,1.5,1.2,2.7,2.7,2.7s2.7-1.2,2.7-2.7V2.7C5.4,1.2,4.2,0,2.7,0L2.7,0z"/>
				</g>
			</g>
			<g id="Group_196" transform="translate(79.301 9.909)">
				<g id="Group_195">
					<path id="Path_838" d="M9.1,0.8c-1-1-2.7-1-3.8,0L0.8,5.3c-1,1-1,2.7,0,3.8c1,1,2.7,1,3.8,0l0,0l4.6-4.6
						C10.2,3.5,10.2,1.8,9.1,0.8z"/>
				</g>
			</g>
			<g id="Group_198" transform="translate(47.912 9.909)">
				<g id="Group_197">
					<path id="Path_839" d="M9.1,5.3L4.6,0.8c-1-1-2.7-1-3.8,0c-1,1-1,2.7,0,3.8l0,0l4.6,4.6c1,1,2.7,1,3.8,0
						C10.2,8.1,10.2,6.4,9.1,5.3L9.1,5.3z"/>
				</g>
			</g>
		</g>
	</g>
</g>
</svg>
