<svg xmlns="http://www.w3.org/2000/svg" viewBox="0 0 200 200">
  <defs>
    <style>
      .cls-1 {
        fill: none;
      }

      .cls-2 {
        fill: #3c92ca;
      }
    </style>
  </defs>
  <g id="Group_50" data-name="Group 50" transform="translate(-350 -312)">
    <rect id="Rectangle_64" data-name="Rectangle 64" class="cls-1" width="200" height="200" transform="translate(350 312)"/>
    <g id="laptop-1" transform="translate(374 308.05)">
      <g id="Group_32" data-name="Group 32" transform="translate(0 41.95)">
        <path id="Path_762" data-name="Path 762" class="cls-2" d="M110.429,110.982v16.262a1.433,1.433,0,0,0,2.518.941l14.866-17.2h50.939a8.067,8.067,0,0,0,8.07-8.07V58.92a8.067,8.067,0,0,0-8.07-8.07H104.27a8.067,8.067,0,0,0-8.07,8.07v43.991a8.067,8.067,0,0,0,8.07,8.07Z" transform="translate(-67.014 -48.15)"/>
        <path id="Path_763" data-name="Path 763" d="M79.061,377.072h32.675a6.582,6.582,0,0,0,6.219,4.49H137.22a6.582,6.582,0,0,0,6.219-4.49h32.705a2.761,2.761,0,0,0,0-5.522h-35.1a2.771,2.771,0,0,0-2.761,2.761v.667a1.075,1.075,0,0,1-1.062,1.062H117.955a1.075,1.075,0,0,1-1.062-1.062v-.667a2.771,2.771,0,0,0-2.761-2.761H79.061a2.761,2.761,0,0,0,0,5.522Z" transform="translate(-53.151 -271.553)"/>
        <path id="Path_764" data-name="Path 764" d="M146.142,204.99h-8.191V135.211a2.761,2.761,0,1,0-5.522,0v72.54a2.771,2.771,0,0,0,2.761,2.761h8.161v4.4a8.021,8.021,0,0,1-8.009,8.009H13.531a8.021,8.021,0,0,1-8.009-8.009v-4.4h8.161a2.771,2.771,0,0,0,2.761-2.761v-72.54a2.761,2.761,0,1,0-5.522,0V204.99H2.761A2.771,2.771,0,0,0,0,207.751v7.16a13.544,13.544,0,0,0,13.531,13.531H135.372A13.544,13.544,0,0,0,148.9,214.911v-7.16A2.791,2.791,0,0,0,146.142,204.99Z" transform="translate(0 -104.993)"/>
        <path id="Path_765" data-name="Path 765" d="M219.349,109.73l-17.6,17.506-6.25-6.28a2.746,2.746,0,0,0-3.883,3.883l8.191,8.222a2.737,2.737,0,0,0,1.942.819,2.836,2.836,0,0,0,1.942-.789l19.538-19.447a2.757,2.757,0,0,0-3.883-3.914Z" transform="translate(-132.913 -88.614)"/>
        <path id="Path_766" data-name="Path 766" d="M172.483,41.95H98a10.825,10.825,0,0,0-10.8,10.8V96.742a10.825,10.825,0,0,0,10.8,10.8h3.4v13.5a4.2,4.2,0,0,0,4.187,4.187,4.094,4.094,0,0,0,3.155-1.456l14.047-16.262h49.665a10.825,10.825,0,0,0,10.8-10.8V52.72A10.753,10.753,0,0,0,172.483,41.95Zm5.309,54.792a5.315,5.315,0,0,1-5.309,5.309H121.544a2.811,2.811,0,0,0-2.093.941l-12.56,14.532V104.782a2.771,2.771,0,0,0-2.761-2.761H97.97a5.315,5.315,0,0,1-5.309-5.309V52.72a5.315,5.315,0,0,1,5.309-5.309h74.482a5.315,5.315,0,0,1,5.309,5.309V96.742Z" transform="translate(-60.745 -41.95)"/>
      </g>
    </g>
  </g>
</svg>
