<svg xmlns="http://www.w3.org/2000/svg" viewBox="0 0 412 412">
  <defs>
    <style>
      .cls-1 {
        fill: none;
      }

      .cls-2 {
        fill: #3c92ca;
      }
    </style>
  </defs>
  <g id="Group_271" data-name="Group 271" transform="translate(5164 -7881)">
    <rect id="Rectangle_74" data-name="Rectangle 74" class="cls-1" width="412" height="412" transform="translate(-5164 7881)"/>
    <g id="Group_270" data-name="Group 270" transform="translate(-4420 -4565.298)">
      <g id="woman" transform="translate(-644 12506)">
        <g id="Group_62" data-name="Group 62" transform="translate(76.93 233.768)">
          <g id="Group_61" data-name="Group 61">
            <path id="Path_793" data-name="Path 793" d="M340,447.548c-.03-.214.318,1.575-7.163-36.006a4.3,4.3,0,0,0-8.43,1.679c7.053,35.963,7.524,36.017,7.173,39.279-.326,3.034-1.645,6.516-9,6.516H301.02V418.5a4.3,4.3,0,1,0-8.6,0v40.509H209.977a4.3,4.3,0,1,0,0,8.6h112.6C335.439,467.611,341.657,459.26,340,447.548Z" transform="translate(-205.679 -408.082)"/>
          </g>
        </g>
        <g id="Group_65" data-name="Group 65" transform="translate(0 0)">
          <g id="Group_64" data-name="Group 64">
            <g id="Group_63" data-name="Group 63">
              <path id="Path_799" data-name="Path 799" class="cls-2" d="M48.045,0,4.731,4.652c-5.378,0-4.7.821-4.7,6.2L3.955,12.8c0,5.378,11.028,18.6,16.406,18.6l17.716-.519c5.378,0,13.422-12.7,13.422-18.077V9.367C51.5,3.989,53.423,0,48.045,0Z" transform="translate(60.534 176.915) rotate(45)"/>
              <path id="Path_798" data-name="Path 798" class="cls-2" d="M5.445,0,46.77,2.874c5.378,0,4.7.821,4.7,6.2l-.3,3.61c0,5.378-14.66,16.939-20.038,16.939L13.027,26.117C7.648,26.117,0,16.4,0,11.026V7.589C0,2.21.067,0,5.445,0Z" transform="matrix(0.788, -0.616, 0.616, 0.788, 113.306, 214.673)"/>
              <path id="Path_794" data-name="Path 794" d="M388.972,330.3l.091.041.006,0C389.016,330.316,388.919,330.271,388.972,330.3Z" transform="translate(-207.036 -141.084)"/>
              <path id="Path_795" data-name="Path 795" d="M389.22,330.408l.008,0,.031.014Z" transform="translate(-207.149 -141.135)"/>
              <path id="Path_796" data-name="Path 796" d="M389.286,330.439Z" transform="translate(-207.177 -141.148)"/>
              <path id="Path_797" data-name="Path 797" d="M271.542,217.5c-1.635-8.1-2.189-14.558-8.412-21.31a31.619,31.619,0,0,0-9.667-6.908l-.051-.023c-29.8-10.456-22.91-8.047-45.876-15.987H235.13a12.6,12.6,0,0,0,12.582-12.443c4.314-73.154,4.143-70.085,4.143-70.339-.175-20.942,3.682-62.91-42.128-84.424a78.072,78.072,0,0,0-11.664-4.279c-31.912-6.213-53.376,4.69-62.973,19.165-16.573,4.543-26.739,20.1-29.444,45.148a4.3,4.3,0,1,0,8.546.923c2.993-27.706,15.011-36.025,24.565-38.125a4.3,4.3,0,0,0,2.9-2.233c.127-.246,13.14-24.544,54.763-16.441a64.576,64.576,0,0,1,17.011,7.688c41.9,27.272,28.746,65.538,25.693,142.524-.005.084-.007.168-.007.253a3.991,3.991,0,0,1-3.987,3.987h-29.9v-3a56.479,56.479,0,0,0,29.6-49.8V99.975a9.4,9.4,0,0,0-9.025-9.406C189.553,89,170.068,69.685,163.372,61.45a9.2,9.2,0,0,0-6.783-3.384,9.3,9.3,0,0,0-7.1,2.891,40.51,40.51,0,0,1-19.7,11.657A10.962,10.962,0,0,0,121.461,83.3c.4,21.65-.871,30.146,1.025,39.281l.151.76c2.924,15.339,13.18,29.328,26.4,37.159v4.171H122.2a3.992,3.992,0,0,1-3.987-3.987c0-.084,0-.169-.007-.253-5.786-98.006-4.059-67.433-4.451-74.07a4.3,4.3,0,1,0-8.581.507c.005.092,4.441,73.9,4.444,73.956A12.6,12.6,0,0,0,122.2,173.268h24.536c-4.322,1.479-44.965,15.587-45.734,15.932a28.517,28.517,0,0,0-16.783,20.909c-12.849,65.074-13.231,63.986-12.689,69,.46,4.267,3.089,14.191,17.551,14.191h43.366a4.3,4.3,0,1,0,0-8.6H119.382v-40.51a4.3,4.3,0,0,0-8.6,0V284.7H89.077c-6.571,0-9.922-2.75-8.928-10.148C93.717,206.435,92.737,211,93.318,209.228c3.7-11.463,13.539-12.9,23.158-16.3.909,18.927,6.133,39.2,25,39.2,12.437,0,26.428-9.781,35.7-18.014,11.561,10.269,29.8,22.477,43.974,16.368,10.226-4.408,15.716-16.716,16.717-37.538,12.322,4.362,11.318,3.419,15.589,6.159,7.673,5.548,7.934,11.422,9.662,20.074a4.3,4.3,0,0,0,8.431-1.678ZM130.9,120.84c-1.286-6.19-.744-10.743-.847-37.539a2.385,2.385,0,0,1,1.793-2.34c16.082-3.956,23.364-14.327,24.409-14.306,1.086.042,21.316,30.436,69.174,32.5a.826.826,0,0,1,.8.819c-.017,16.2.732,20.086-4.8,32.847a48.018,48.018,0,0,1-8.346,12.077C186.613,172.93,138.536,159.943,130.9,120.84ZM136.6,222.586c-7.108-3.064-11.11-14.333-11.635-32.667l5.121-1.815a53.929,53.929,0,0,0,35.4,24.508C158.073,218.255,145.177,226.286,136.6,222.586Zm1.841-37.386,12.179-4.176a10.39,10.39,0,0,0,7.02-9.827v-6.483a55.707,55.707,0,0,0,8.542,2.565,57.013,57.013,0,0,0,30.46-1.824V171.2a10.389,10.389,0,0,0,7.019,9.827l12.179,4.177C197.461,212.4,156.075,211.317,138.436,185.2Zm79.3,37.386c-8.573,3.694-21.448-4.308-28.9-9.985a53.948,53.948,0,0,0,35.349-24.5l5.184,1.837C228.848,208.26,224.845,219.523,217.74,222.586Z" transform="translate(-71.385 -0.001)"/>
            </g>
          </g>
        </g>
      </g>
    </g>
  </g>
</svg>
