<svg xmlns="http://www.w3.org/2000/svg" viewBox="0 0 403.056 403">
  <defs>
    <style>
      .cls-1 {
        fill: none;
      }

      .cls-2 {
        fill: #3c92ca;
      }
    </style>
  </defs>
  <g id="Group_305" data-name="Group 305" transform="translate(-4753 -11569)">
    <g id="Group_302" data-name="Group 302" transform="translate(0 451)">
      <rect id="Rectangle_78" data-name="Rectangle 78" class="cls-1" width="403" height="403" transform="translate(4753 11118)"/>
      <g id="Group_286" data-name="Group 286" transform="translate(5425.5 -1336)">
        <g id="woman" transform="translate(-644 12506)">
          <g id="Group_62" data-name="Group 62" transform="translate(92.065 279.759)">
            <g id="Group_61" data-name="Group 61">
              <path id="Path_793" data-name="Path 793" d="M366.421,455.312c-.036-.256.381,1.884-8.572-43.09a5.143,5.143,0,0,0-10.088,2.009c8.44,43.039,9,43.1,8.584,47.006-.391,3.631-1.969,7.8-10.775,7.8H319.777V420.556a5.144,5.144,0,0,0-10.287,0v48.479H210.823a5.144,5.144,0,1,0,0,10.287H345.57C360.968,479.323,368.409,469.329,366.421,455.312Z" transform="translate(-205.679 -408.082)"/>
            </g>
          </g>
          <g id="Group_65" data-name="Group 65" transform="translate(0 0)">
            <g id="Group_64" data-name="Group 64">
              <g id="Group_63" data-name="Group 63">
                <path id="Path_799" data-name="Path 799" class="cls-2" d="M57.5,0,5.662,5.567c-6.436,0-5.629.983-5.629,7.42l4.7,2.336c0,6.437,13.2,22.255,19.634,22.255l21.2-.621c6.436,0,16.063-15.2,16.063-21.634V11.21C61.631,4.773,63.933,0,57.5,0Z" transform="translate(72.443 211.721) rotate(45)"/>
                <path id="Path_798" data-name="Path 798" class="cls-2" d="M6.517,0,55.971,3.439c6.437,0,5.63.983,5.63,7.42l-.354,4.32c0,6.436-17.544,20.271-23.981,20.271l-21.677-4.2C9.153,31.255,0,19.631,0,13.195V9.082C0,2.645.08,0,6.517,0Z" transform="matrix(0.788, -0.616, 0.616, 0.788, 135.598, 256.907)"/>
                <path id="Path_794" data-name="Path 794" d="M388.976,330.3l.109.049.007,0C389.028,330.321,388.912,330.267,388.976,330.3Z" transform="translate(-171.246 -103.861)"/>
                <path id="Path_795" data-name="Path 795" d="M389.22,330.408l.009,0,.037.017Z" transform="translate(-171.329 -103.898)"/>
                <path id="Path_796" data-name="Path 796" d="M389.286,330.439Z" transform="translate(-171.349 -103.908)"/>
                <path id="Path_797" data-name="Path 797" d="M310.92,260.286c-1.957-9.691-2.62-17.422-10.067-25.5a37.841,37.841,0,0,0-11.569-8.267l-.061-.027c-35.666-12.513-27.418-9.63-54.9-19.132h33.023A15.076,15.076,0,0,0,282.4,192.465c5.162-87.547,4.958-83.873,4.958-84.177C287.15,83.227,291.767,33,236.943,7.256,233.619,5.7,225.9,2.7,222.984,2.135,184.794-5.3,159.108,7.747,147.622,25.07c-19.834,5.437-32,24.059-35.237,54.03a5.144,5.144,0,1,0,10.228,1.1c3.582-33.157,17.964-43.113,29.4-45.626a5.144,5.144,0,0,0,3.471-2.672c.151-.295,15.725-29.372,65.537-19.675,2.188.425,11.96,3.753,20.358,9.2C291.521,54.07,275.778,99.864,272.125,192c-.006.1-.009.2-.009.3a4.777,4.777,0,0,1-4.771,4.771h-35.78v-3.6a67.59,67.59,0,0,0,35.42-59.6V119.644a11.254,11.254,0,0,0-10.8-11.257c-43.383-1.872-66.7-24.993-74.714-34.848a11.007,11.007,0,0,0-8.118-4.05,11.13,11.13,0,0,0-8.493,3.46A48.479,48.479,0,0,1,141.289,86.9a13.119,13.119,0,0,0-9.976,12.789c.482,25.91-1.043,36.077,1.226,47.009l.18.909c3.5,18.357,15.773,35.1,31.6,44.469v4.991H132.2a4.777,4.777,0,0,1-4.771-4.771c0-.1,0-.2-.009-.3-6.925-117.287-4.858-80.7-5.327-88.643a5.143,5.143,0,0,0-10.269.607c.006.11,5.314,88.434,5.318,88.506a15.075,15.075,0,0,0,15.057,14.891h29.363c-5.172,1.77-53.811,18.654-54.731,19.066a34.127,34.127,0,0,0-20.085,25.022c-15.377,77.876-15.834,76.574-15.185,82.574.55,5.106,3.7,16.983,21,16.983h51.9a5.144,5.144,0,1,0,0-10.287H128.824V292.234a5.144,5.144,0,0,0-10.287,0v48.479H92.558c-7.864,0-11.874-3.291-10.685-12.145,16.237-81.521,15.064-76.061,15.759-78.179,4.427-13.718,16.2-15.436,27.714-19.51,1.088,22.65,7.34,46.913,29.913,46.913,14.884,0,31.628-11.705,42.719-21.558,13.835,12.29,35.657,26.9,52.625,19.588,12.238-5.275,18.807-20,20.006-44.923,14.747,5.22,13.545,4.091,18.656,7.37,9.182,6.64,9.495,13.669,11.563,24.023a5.144,5.144,0,0,0,10.089-2.008ZM142.613,144.613c-1.539-7.408-.89-12.856-1.013-44.924a2.854,2.854,0,0,1,2.146-2.8c19.245-4.734,27.96-17.146,29.211-17.121,1.3.05,25.51,36.424,82.783,38.9a.989.989,0,0,1,.958.98c-.02,19.387.876,24.038-5.744,39.309a57.465,57.465,0,0,1-9.988,14.453C209.283,206.952,151.747,191.41,142.613,144.613Zm6.812,121.764c-8.506-3.667-13.3-17.152-13.924-39.093l6.129-2.172a64.539,64.539,0,0,0,42.362,29.329C175.128,261.193,159.694,270.8,149.424,266.376Zm2.2-44.741,14.575-5a12.433,12.433,0,0,0,8.4-11.761v-7.758a66.669,66.669,0,0,0,10.222,3.069,68.229,68.229,0,0,0,36.453-2.183v6.873a12.433,12.433,0,0,0,8.4,11.761l14.575,5C222.265,254.186,172.736,252.89,151.627,221.635Zm94.906,44.741c-10.259,4.42-25.668-5.155-34.583-11.949a64.562,64.562,0,0,0,42.3-29.322l6.2,2.2C259.826,249.231,255.036,262.711,246.533,266.376Z" transform="translate(-71.385 -0.001)"/>
              </g>
            </g>
          </g>
        </g>
      </g>
    </g>
    <g id="Group_303" data-name="Group 303" transform="translate(0 451)">
      <path id="Path_885" data-name="Path 885" class="cls-2" d="M33.452,6.84,45.079,40.525l-34.4-10.909Z" transform="matrix(-0.899, 0.438, -0.438, -0.899, 5076.582, 11236.71)"/>
      <path id="Path_884" data-name="Path 884" class="cls-2" d="M33.452,6.84,45.079,40.525l-34.4-10.909Z" transform="matrix(0.174, 0.985, -0.985, 0.174, 5074.625, 11242.078)"/>
      <path id="Path_883" data-name="Path 883" class="cls-2" d="M33.452,6.84,45.079,40.525l-34.4-10.909Z" transform="translate(5082.297 11245.078) rotate(11)"/>
      <path id="Path_882" data-name="Path 882" class="cls-2" d="M33.452,6.84,45.079,40.525l-34.4-10.909Z" transform="matrix(0.454, -0.891, 0.891, 0.454, 5085.387, 11241.731)"/>
      <path id="Path_881" data-name="Path 881" class="cls-2" d="M33.452,6.84,45.079,40.525l-34.4-10.909Z" transform="translate(5083.11 11235.102) rotate(-135)"/>
      <circle id="Ellipse_23" data-name="Ellipse 23" class="cls-2" cx="37.5" cy="37.5" r="37.5" transform="translate(5043 11203)"/>
      <g id="favorites" transform="translate(5004.803 11166.688)">
        <g id="Group_290" data-name="Group 290" transform="translate(8.737 3.81)">
          <g id="Group_289" data-name="Group 289">
            <path id="Path_875" data-name="Path 875" d="M160.335,62.273a9.974,9.974,0,0,0-5.528-17.014l-33.1-4.809a1.994,1.994,0,0,1-1.5-1.091L105.409,9.37a9.974,9.974,0,0,0-17.889,0L72.719,39.36a2,2,0,0,1-1.5,1.091L38.122,45.26a9.974,9.974,0,0,0-5.528,17.014L56.542,85.617a2,2,0,0,1,.574,1.766l-5.653,32.961A9.975,9.975,0,0,0,65.936,130.86l29.6-15.562a1.994,1.994,0,0,1,1.857,0l29.6,15.562a9.975,9.975,0,0,0,14.472-10.516l-5.653-32.961a2,2,0,0,1,.574-1.766ZM127.949,88.732l5.653,32.962a1.995,1.995,0,0,1-2.894,2.1l-29.6-15.562a9.975,9.975,0,0,0-9.283,0L62.223,123.8a1.995,1.995,0,0,1-2.894-2.1l5.653-32.961A9.972,9.972,0,0,0,62.113,79.9L38.165,56.56a2,2,0,0,1,1.106-3.4l33.094-4.809a9.973,9.973,0,0,0,7.511-5.457L94.676,12.9a1.995,1.995,0,0,1,3.578,0h0l14.8,29.989a9.972,9.972,0,0,0,7.51,5.457l33.1,4.809a2,2,0,0,1,1.105,3.4L130.818,79.9A9.971,9.971,0,0,0,127.949,88.732Z" transform="translate(-29.574 -3.81)"/>
          </g>
        </g>
        <g id="Group_292" data-name="Group 292" transform="translate(111.667 8.606)">
          <g id="Group_291" data-name="Group 291">
            <path id="Path_876" data-name="Path 876" d="M388.571,20.807A3.99,3.99,0,0,0,383,21.69l-4.235,5.829a3.99,3.99,0,0,0,6.456,4.691l4.235-5.829A3.99,3.99,0,0,0,388.571,20.807Z" transform="translate(-378.001 -20.045)"/>
          </g>
        </g>
        <g id="Group_294" data-name="Group 294" transform="translate(27.353 8.583)">
          <g id="Group_293" data-name="Group 293">
            <path id="Path_877" data-name="Path 877" d="M104.043,27.44l-4.235-5.829a3.99,3.99,0,1,0-6.456,4.69l4.235,5.829a3.99,3.99,0,1,0,6.456-4.69Z" transform="translate(-92.59 -19.966)"/>
          </g>
        </g>
        <g id="Group_296" data-name="Group 296" transform="translate(0 90.569)">
          <g id="Group_295" data-name="Group 295">
            <path id="Path_878" data-name="Path 878" d="M14.639,300.251a3.99,3.99,0,0,0-5.028-2.562l-6.853,2.227a3.99,3.99,0,1,0,2.466,7.589l6.853-2.227A3.99,3.99,0,0,0,14.639,300.251Z" transform="translate(0 -297.493)"/>
          </g>
        </g>
        <g id="Group_298" data-name="Group 298" transform="translate(71.638 137.626)">
          <g id="Group_297" data-name="Group 297">
            <path id="Path_879" data-name="Path 879" d="M246.489,456.786a3.99,3.99,0,0,0-3.99,3.99v7.206a3.99,3.99,0,0,0,7.98,0v-7.206A3.99,3.99,0,0,0,246.489,456.786Z" transform="translate(-242.499 -456.786)"/>
          </g>
        </g>
        <g id="Group_300" data-name="Group 300" transform="translate(136.418 90.574)">
          <g id="Group_299" data-name="Group 299">
            <path id="Path_880" data-name="Path 880" d="M473.86,299.936l-6.853-2.227a3.99,3.99,0,0,0-2.466,7.59l6.853,2.227a3.99,3.99,0,0,0,2.466-7.59Z" transform="translate(-461.783 -297.513)"/>
          </g>
        </g>
      </g>
    </g>
  </g>
</svg>
