<svg xmlns="http://www.w3.org/2000/svg" viewBox="0 0 241 241">
  <defs>
    <style>
      .cls-1 {
        fill: none;
      }

      .cls-2 {
        fill: #3c92ca;
      }
    </style>
  </defs>
  <g id="Group_99" data-name="Group 99" transform="translate(1693 -9779)">
    <rect id="Rectangle_56" data-name="Rectangle 56" class="cls-1" width="241" height="241" transform="translate(-1693 9779)"/>
    <g id="woman" transform="translate(-1634 9814.702)">
      <g id="Group_62" data-name="Group 62" transform="translate(44.406 134.935)">
        <g id="Group_61" data-name="Group 61">
          <path id="Path_793" data-name="Path 793" d="M283.209,430.862c-.018-.123.184.909-4.135-20.784a2.481,2.481,0,0,0-4.866.969c4.071,20.759,4.343,20.79,4.14,22.672-.188,1.751-.95,3.761-5.2,3.761H260.711V414.1a2.481,2.481,0,0,0-4.962,0v23.383H208.16a2.481,2.481,0,1,0,0,4.962h64.993C280.579,442.443,284.168,437.623,283.209,430.862Z" transform="translate(-205.679 -408.082)"/>
        </g>
      </g>
      <g id="Group_65" data-name="Group 65" transform="translate(0 0)">
        <g id="Group_64" data-name="Group 64">
          <g id="Group_63" data-name="Group 63">
            <path id="Path_799" data-name="Path 799" class="cls-2" d="M27.732,0l-25,2.685c-3.1,0-2.715.474-2.715,3.579L2.283,7.391c0,3.1,6.366,10.734,9.47,10.734l10.226-.3c3.1,0,7.747-7.33,7.747-10.435V5.407C29.726,2.3,30.837,0,27.732,0Z" transform="translate(34.941 102.119) rotate(45)"/>
            <path id="Path_798" data-name="Path 798" class="cls-2" d="M3.143,0,27,1.659c3.1,0,2.715.474,2.715,3.579l-.171,2.084c0,3.1-8.462,9.777-11.566,9.777L7.519,15.075C4.415,15.075,0,9.469,0,6.364V4.38C0,1.276.039,0,3.143,0Z" transform="matrix(0.788, -0.616, 0.616, 0.788, 65.403, 123.913)"/>
            <path id="Path_794" data-name="Path 794" d="M388.966,330.294l.053.023h0C388.991,330.3,388.935,330.279,388.966,330.294Z" transform="translate(-283.949 -221.077)"/>
            <path id="Path_795" data-name="Path 795" d="M389.22,330.408l0,0,.018.008Z" transform="translate(-284.125 -221.156)"/>
            <path id="Path_796" data-name="Path 796" d="M389.286,330.439Z" transform="translate(-284.169 -221.177)"/>
            <path id="Path_797" data-name="Path 797" d="M186.919,125.544c-.944-4.674-1.264-8.4-4.855-12.3a18.252,18.252,0,0,0-5.58-3.987l-.029-.013c-17.2-6.036-13.224-4.645-26.48-9.228H165.9a7.272,7.272,0,0,0,7.263-7.182c2.49-42.226,2.391-40.454,2.391-40.6-.1-12.088,2.125-36.313-24.317-48.731a45.065,45.065,0,0,0-6.733-2.47c-18.42-3.586-30.809,2.707-36.349,11.063-9.566,2.622-15.434,11.6-17,26.06a2.481,2.481,0,0,0,4.933.533c1.728-15.993,8.665-20.794,14.18-22.007a2.481,2.481,0,0,0,1.674-1.289c.073-.142,7.585-14.167,31.61-9.49a37.274,37.274,0,0,1,9.819,4.438c24.186,15.742,16.593,37.83,14.831,82.267,0,.048,0,.1,0,.146a2.3,2.3,0,0,1-2.3,2.3H148.644V93.318a32.6,32.6,0,0,0,17.084-28.747V57.708a5.428,5.428,0,0,0-5.21-5.429c-20.925-.9-32.172-12.055-36.036-16.808a5.309,5.309,0,0,0-3.915-1.954,5.368,5.368,0,0,0-4.1,1.669A23.383,23.383,0,0,1,105.1,41.915a6.328,6.328,0,0,0-4.812,6.168c.232,12.5-.5,17.4.592,22.674l.087.438a32.752,32.752,0,0,0,15.24,21.449v2.408H100.715a2.3,2.3,0,0,1-2.3-2.3c0-.049,0-.1,0-.146C95.07,36.034,96.067,53.681,95.84,49.85a2.481,2.481,0,0,0-4.953.293c0,.053,2.563,42.654,2.565,42.689a7.271,7.271,0,0,0,7.262,7.183h14.162c-2.495.854-25.955,9-26.4,9.2a16.461,16.461,0,0,0-9.688,12.069c-7.417,37.562-7.637,36.934-7.324,39.827.266,2.463,1.783,8.191,10.131,8.191h25.032a2.481,2.481,0,1,0,0-4.962h-7.54V140.953a2.481,2.481,0,0,0-4.962,0v23.383H81.6c-3.793,0-5.727-1.587-5.154-5.858,7.832-39.32,7.266-36.686,7.6-37.708,2.135-6.616,7.815-7.445,13.367-9.41.525,10.925,3.54,22.627,14.428,22.627,7.179,0,15.255-5.646,20.6-10.4,6.673,5.928,17.2,12.974,25.383,9.448,5.9-2.544,9.071-9.649,9.65-21.667,7.113,2.518,6.533,1.973,9,3.555,4.429,3.2,4.58,6.593,5.577,11.587a2.481,2.481,0,0,0,4.866-.969ZM105.74,69.751c-.742-3.573-.429-6.2-.489-21.668a1.377,1.377,0,0,1,1.035-1.35c9.283-2.283,13.486-8.27,14.089-8.258.627.024,12.3,17.568,39.928,18.761a.477.477,0,0,1,.462.473c-.01,9.351.422,11.594-2.77,18.96a27.717,27.717,0,0,1-4.817,6.971C137.9,99.819,110.146,92.323,105.74,69.751Zm3.285,58.73c-4.1-1.769-6.413-8.273-6.716-18.856l2.956-1.048A31.129,31.129,0,0,0,125.7,122.724C121.423,125.981,113.979,130.617,109.025,128.481Zm1.062-21.58,7.03-2.411a6,6,0,0,0,4.052-5.672V95.076a32.155,32.155,0,0,0,4.93,1.48A32.909,32.909,0,0,0,143.682,95.5v3.315a6,6,0,0,0,4.052,5.672l7.03,2.411C144.159,122.6,120.269,121.977,110.088,106.9Zm45.776,21.58c-4.948,2.132-12.38-2.487-16.68-5.763a31.14,31.14,0,0,0,20.4-14.143l2.992,1.06C162.275,120.212,159.965,126.714,155.864,128.481Z" transform="translate(-71.385 -0.001)"/>
          </g>
        </g>
      </g>
    </g>
  </g>
</svg>
