<svg xmlns="http://www.w3.org/2000/svg" viewBox="0 0 403.388 403">
  <defs>
    <style>
      .cls-1 {
        fill: none;
      }

      .cls-2 {
        fill: #3c92ca;
      }
    </style>
  </defs>
  <g id="Group_306" data-name="Group 306" transform="translate(-4753 -10636)">
    <rect id="Rectangle_77" data-name="Rectangle 77" class="cls-1" width="403" height="403" transform="translate(4753 10636)"/>
    <g id="Group_285" data-name="Group 285" transform="translate(3755.412 -1469.001)">
      <g id="user-3" transform="translate(1247.61 12159.909)">
        <g id="Group_33" data-name="Group 33" transform="translate(0 0)">
          <path id="XMLID_1407_" class="cls-2" d="M411.58,149.063H351.865L319.75,179.794V149.063H306.132A17.373,17.373,0,0,1,288.8,131.731V67.282A17.374,17.374,0,0,1,306.132,49.95H411.58a17.374,17.374,0,0,1,17.332,17.332v64.376A17.436,17.436,0,0,1,411.58,149.063Z" transform="translate(-282.173 -43.396)"/>
          <path id="Path_769" data-name="Path 769" d="M409.107,40.95H303.659A24.025,24.025,0,0,0,279.7,64.909v64.3a24.025,24.025,0,0,0,23.959,23.959h6.991v24.1a6.609,6.609,0,0,0,4.005,6.044,6.473,6.473,0,0,0,2.622.51,6.76,6.76,0,0,0,4.588-1.821L352.014,153.1h57.093a24.025,24.025,0,0,0,23.959-23.959v-64.3A23.962,23.962,0,0,0,409.107,40.95Zm10.778,88.262a10.8,10.8,0,0,1-10.778,10.778H349.392a6.76,6.76,0,0,0-4.588,1.821l-20.9,20.026V146.544a6.651,6.651,0,0,0-6.627-6.627H303.659a10.8,10.8,0,0,1-10.778-10.778v-64.3a10.8,10.8,0,0,1,10.778-10.778H409.107a10.8,10.8,0,0,1,10.778,10.778Z" transform="translate(-279.7 -40.95)"/>
          <path id="Path_770" data-name="Path 770" d="M382.554,111.55a6.622,6.622,0,0,0-4.661,1.966A6.552,6.552,0,0,0,376,118.177a6.591,6.591,0,1,0,6.554-6.627Z" transform="translate(-305.871 -60.137)"/>
          <path id="Path_771" data-name="Path 771" d="M416.254,111.55a6.622,6.622,0,0,0-4.661,1.966,6.552,6.552,0,0,0-1.893,4.661,6.591,6.591,0,1,0,6.554-6.627Z" transform="translate(-315.029 -60.137)"/>
          <path id="Path_772" data-name="Path 772" d="M348.827,111.55a6.715,6.715,0,1,0,4.661,1.966A6.448,6.448,0,0,0,348.827,111.55Z" transform="translate(-296.685 -60.137)"/>
        </g>
      </g>
      <g id="woman" transform="translate(1019 12157.001)">
        <g id="Group_62" data-name="Group 62" transform="translate(92.16 279.759)">
          <g id="Group_61" data-name="Group 61">
            <path id="Path_793" data-name="Path 793" d="M366.587,455.312c-.036-.256.381,1.884-8.581-43.09a5.148,5.148,0,0,0-10.1,2.009c8.449,43.039,9.013,43.1,8.593,47.006-.391,3.631-1.971,7.8-10.786,7.8h-25.82V420.556a5.149,5.149,0,0,0-10.3,0v48.479H210.828a5.144,5.144,0,1,0,0,10.287H345.715C361.128,479.323,368.577,469.329,366.587,455.312Z" transform="translate(-205.679 -408.082)"/>
          </g>
        </g>
        <g id="Group_65" data-name="Group 65" transform="translate(0 0)">
          <g id="Group_64" data-name="Group 64">
            <g id="Group_63" data-name="Group 63">
              <path id="Path_794" data-name="Path 794" d="M388.975,330.3l.109.049.007,0C389.028,330.321,388.912,330.267,388.975,330.3Z" transform="translate(-171.021 -103.861)"/>
              <path id="Path_795" data-name="Path 795" d="M389.22,330.408l.009,0,.037.017Z" transform="translate(-171.104 -103.898)"/>
              <path id="Path_796" data-name="Path 796" d="M389.286,330.439Z" transform="translate(-171.125 -103.908)"/>
              <path id="Path_797" data-name="Path 797" d="M311.167,260.286c-1.959-9.691-2.623-17.422-10.077-25.5a37.881,37.881,0,0,0-11.581-8.267l-.061-.027c-35.7-12.513-27.446-9.63-54.958-19.132h33.057a15.084,15.084,0,0,0,15.073-14.891c5.168-87.547,4.963-83.873,4.963-84.177C287.373,83.227,291.994,33,237.114,7.256,233.786,5.7,226.055,2.7,223.141,2.135,184.911-5.3,159.2,7.747,147.7,25.07c-19.854,5.437-32.033,24.059-35.274,54.03a5.149,5.149,0,0,0,10.238,1.1c3.586-33.157,17.983-43.113,29.429-45.626a5.149,5.149,0,0,0,3.474-2.672c.152-.295,15.741-29.372,65.6-19.675,2.191.425,11.972,3.753,20.379,9.2,50.2,32.638,34.437,78.432,30.78,170.563-.006.1-.009.2-.009.3a4.779,4.779,0,0,1-4.776,4.771H231.73v-3.595a67.58,67.58,0,0,0,35.456-59.6V119.644a11.259,11.259,0,0,0-10.812-11.257c-43.428-1.872-66.77-24.993-74.791-34.848a11.023,11.023,0,0,0-8.126-4.05,11.147,11.147,0,0,0-8.5,3.46A48.541,48.541,0,0,1,141.361,86.9a13.122,13.122,0,0,0-9.986,12.789c.482,25.91-1.044,36.077,1.228,47.009l.18.909c3.5,18.357,15.789,35.1,31.629,44.469v4.991H132.258a4.78,4.78,0,0,1-4.776-4.771c0-.1,0-.2-.009-.3-6.932-117.287-4.863-80.7-5.332-88.643a5.149,5.149,0,0,0-10.279.607c.006.11,5.32,88.434,5.324,88.506a15.083,15.083,0,0,0,15.072,14.891H161.65c-5.178,1.77-53.867,18.654-54.788,19.066a34.135,34.135,0,0,0-20.106,25.023c-15.393,77.876-15.85,76.574-15.2,82.574.551,5.106,3.7,16.983,21.025,16.983h51.951a5.144,5.144,0,1,0,0-10.287H128.883V292.235a5.149,5.149,0,0,0-10.3,0v48.479H92.58c-7.872,0-11.887-3.291-10.7-12.145,16.254-81.521,15.08-76.061,15.776-78.179,4.431-13.718,16.219-15.436,27.743-19.51,1.089,22.651,7.348,46.913,29.944,46.913,14.9,0,31.66-11.705,42.763-21.558,13.849,12.29,35.694,26.9,52.68,19.588,12.25-5.275,18.827-20,20.027-44.923,14.762,5.22,13.559,4.091,18.676,7.37,9.192,6.64,9.5,13.669,11.575,24.023a5.149,5.149,0,0,0,10.1-2.008ZM142.686,144.613c-1.541-7.408-.891-12.856-1.014-44.924a2.854,2.854,0,0,1,2.148-2.8c19.265-4.734,27.989-17.146,29.241-17.121,1.3.05,25.536,36.424,82.868,38.9a.989.989,0,0,1,.959.98c-.02,19.387.876,24.038-5.749,39.309a57.466,57.466,0,0,1-10,14.453C209.425,206.952,151.83,191.41,142.686,144.613ZM149.5,266.377c-8.515-3.667-13.309-17.152-13.939-39.093l6.135-2.172a64.606,64.606,0,0,0,42.406,29.329C175.235,261.193,159.786,270.8,149.5,266.377Zm2.2-44.741,14.59-5a12.434,12.434,0,0,0,8.409-11.761v-7.758a66.794,66.794,0,0,0,10.233,3.069,68.368,68.368,0,0,0,36.49-2.183v6.873a12.434,12.434,0,0,0,8.409,11.761l14.59,5C222.421,254.186,172.841,252.89,151.71,221.636Zm95,44.741c-10.27,4.42-25.694-5.155-34.619-11.949a64.628,64.628,0,0,0,42.347-29.322l6.21,2.2C260.021,249.232,255.225,262.712,246.713,266.377Z" transform="translate(-71.385 -0.001)"/>
            </g>
          </g>
        </g>
      </g>
    </g>
  </g>
</svg>
