<svg xmlns="http://www.w3.org/2000/svg" viewBox="0 0 200 200">
  <defs>
    <style>
      .cls-1 {
        fill: none;
      }

      .cls-2 {
        fill: #3c92ca;
      }
    </style>
  </defs>
  <g id="Group_49" data-name="Group 49" transform="translate(-350 -54)">
    <rect id="Rectangle_63" data-name="Rectangle 63" class="cls-1" width="200" height="200" transform="translate(350 54)"/>
    <g id="like-1" transform="translate(365.35 79)">
      <g id="Group_31" data-name="Group 31" transform="translate(10.65 0)">
        <path id="XMLID_314_" class="cls-2" d="M147.419,240.47H135.149a1.221,1.221,0,0,1-1.2-1.2V205.6a1.221,1.221,0,0,1,1.2-1.2h12.269a1.221,1.221,0,0,1,1.2,1.2V239.24A1.228,1.228,0,0,1,147.419,240.47Z" transform="translate(-96.035 -141.546)"/>
        <path id="Path_760" data-name="Path 760" d="M144.783,75.861a1.889,1.889,0,0,1,0-1.722l8.487-16.605a7.489,7.489,0,0,0-3.26-10.086l-16.636-8.426a1.873,1.873,0,0,1-1.015-1.415l-2.891-18.419a7.442,7.442,0,0,0-7.38-6.3,7.2,7.2,0,0,0-1.169.092L102.5,15.9a2.056,2.056,0,0,1-1.661-.523L87.68,2.183a7.5,7.5,0,0,0-10.578,0L63.91,15.375a1.857,1.857,0,0,1-1.353.554h0a1.046,1.046,0,0,1-.308-.031L43.83,12.977a7.784,7.784,0,0,0-1.169-.092,7.442,7.442,0,0,0-7.38,6.3L32.39,37.608a1.873,1.873,0,0,1-1.015,1.415L14.74,47.478a7.489,7.489,0,0,0-3.26,10.086L19.967,74.17a1.889,1.889,0,0,1,0,1.722L11.48,92.5a7.489,7.489,0,0,0,3.26,10.086l16.605,8.395a1.873,1.873,0,0,1,1.015,1.415l2.891,18.419a7.442,7.442,0,0,0,7.38,6.3,7.2,7.2,0,0,0,1.169-.092L62.218,134.1a2.056,2.056,0,0,1,1.661.523L77.04,147.817a7.5,7.5,0,0,0,10.578,0l13.161-13.192a1.841,1.841,0,0,1,1.661-.523l18.419,2.921a7.875,7.875,0,0,0,1.2.092,7.442,7.442,0,0,0,7.38-6.3l2.891-18.419a1.873,1.873,0,0,1,1.015-1.415l16.636-8.456a7.489,7.489,0,0,0,3.26-10.086Zm3.629,20.6a1.8,1.8,0,0,1-.953,1.107l-16.636,8.456a7.494,7.494,0,0,0-4,5.5l-2.891,18.419a1.892,1.892,0,0,1-2.183,1.568L103.331,128.6a7.49,7.49,0,0,0-6.458,2.091L83.713,143.881a1.991,1.991,0,0,1-2.706,0L67.846,130.689a7.548,7.548,0,0,0-5.289-2.183,7.2,7.2,0,0,0-1.169.092l-18.419,2.921a1.914,1.914,0,0,1-2.183-1.6L37.895,111.5a7.494,7.494,0,0,0-4-5.5L17.261,97.54a1.878,1.878,0,0,1-.83-2.552l8.487-16.605a7.555,7.555,0,0,0,0-6.8L16.431,54.982a1.835,1.835,0,0,1-.123-1.445,1.8,1.8,0,0,1,.953-1.107L33.9,43.973a7.494,7.494,0,0,0,4-5.5l2.891-18.419a1.892,1.892,0,0,1,2.183-1.568L61.388,21.4a7.784,7.784,0,0,0,1.169.092h0a7.548,7.548,0,0,0,5.289-2.183L81.007,6.119a1.991,1.991,0,0,1,2.706,0L96.874,19.311a7.58,7.58,0,0,0,6.458,2.091l18.419-2.921a1.915,1.915,0,0,1,2.183,1.568l2.891,18.419a7.494,7.494,0,0,0,4,5.5l16.636,8.456a1.878,1.878,0,0,1,.83,2.552L139.8,71.587a7.555,7.555,0,0,0,0,6.8l8.487,16.605A1.9,1.9,0,0,1,148.411,96.464Z" transform="translate(-10.65 0)"/>
        <path id="Path_761" data-name="Path 761" d="M185.59,134.74H171.752v-9.686c0-4.889-1.476-8.456-4.367-10.578-4.49-3.29-10.363-1.6-11.039-1.384a2.768,2.768,0,0,0-1.937,2.645v12.054c0,8.395-9.594,11.5-10.64,11.808a5.205,5.205,0,0,0-3.782-1.661h-9.84a5.21,5.21,0,0,0-5.2,5.2v31.212a5.21,5.21,0,0,0,5.2,5.2h9.84a5.431,5.431,0,0,0,3.106-1.015,10.62,10.62,0,0,0,7.226,2.829h29.52c7.011,0,11.685-3.844,12.485-10.3l3.967-25.215a2.03,2.03,0,0,0,.031-.431A10.749,10.749,0,0,0,185.59,134.74Zm-46,39.268h-9.1V143.535h9.1Zm47.2-3.752v.092c-.154,1.353-.677,5.443-6.95,5.443h-29.52a5.112,5.112,0,0,1-5.1-5.1V145.011h.031c.615-.154,14.791-4.274,14.791-17.22v-9.717a6.3,6.3,0,0,1,4.121.892c1.384,1.015,2.091,3.075,2.091,6.089v12.485a2.808,2.808,0,0,0,2.8,2.8h16.636a5.1,5.1,0,0,1,5.1,4.92Z" transform="translate(-89.802 -77.883)"/>
      </g>
    </g>
  </g>
</svg>
