<svg xmlns="http://www.w3.org/2000/svg" viewBox="0 0 403 403">
  <defs>
    <style>
      .cls-1 {
        fill: none;
      }

      .cls-2 {
        fill: #c79d1f;
      }
    </style>
  </defs>
  <g id="Group_308" data-name="Group 308" transform="translate(-5212 -11654)">
    <rect id="Rectangle_79" data-name="Rectangle 79" class="cls-1" width="403" height="403" transform="translate(5212 11654)"/>
    <g id="Group_32" data-name="Group 32" transform="translate(5256 11725)">
      <path id="Path_762" data-name="Path 762" class="cls-2" d="M126.276,177.95v34.372a3.029,3.029,0,0,0,5.323,1.988l31.422-36.36H270.689a17.05,17.05,0,0,0,17.058-17.058V67.908A17.05,17.05,0,0,0,270.689,50.85H113.258A17.05,17.05,0,0,0,96.2,67.908v92.984a17.05,17.05,0,0,0,17.058,17.058Z" transform="translate(-34.51 -45.143)"/>
      <path id="Path_763" data-name="Path 763" d="M82.136,383.221H151.2a13.913,13.913,0,0,0,13.146,9.491h40.721a13.913,13.913,0,0,0,13.146-9.491h69.129a5.836,5.836,0,0,0,0-11.671H213.147a5.857,5.857,0,0,0-5.836,5.836V378.8a2.272,2.272,0,0,1-2.244,2.244H164.346A2.272,2.272,0,0,1,162.1,378.8v-1.411a5.857,5.857,0,0,0-5.836-5.836H82.136a5.836,5.836,0,0,0,0,11.671Z" transform="translate(-27.371 -160.187)"/>
      <path id="Path_764" data-name="Path 764" d="M308.9,285.778H291.585V138.286a5.836,5.836,0,1,0-11.671,0V291.613a5.857,5.857,0,0,0,5.836,5.836H303v9.3a16.954,16.954,0,0,1-16.93,16.93H28.6a16.954,16.954,0,0,1-16.93-16.93v-9.3h17.25a5.857,5.857,0,0,0,5.836-5.836V138.286a5.836,5.836,0,1,0-11.671,0V285.778H5.836A5.857,5.857,0,0,0,0,291.613v15.134a28.627,28.627,0,0,0,28.6,28.6H286.134a28.627,28.627,0,0,0,28.6-28.6V291.613A5.9,5.9,0,0,0,308.9,285.778Z" transform="translate(0 -74.415)"/>
      <path id="Path_765" data-name="Path 765" d="M251.143,110.613l-37.194,37L200.74,134.34a5.8,5.8,0,0,0-8.208,8.208l17.314,17.378a5.786,5.786,0,0,0,4.1,1.731,6,6,0,0,0,4.1-1.667l41.3-41.105a5.827,5.827,0,0,0-8.208-8.272Z" transform="translate(-68.446 -65.98)"/>
      <path id="Path_766" data-name="Path 766" d="M267.461,41.95H110.029A22.88,22.88,0,0,0,87.2,64.779v92.984a22.88,22.88,0,0,0,22.829,22.829h7.182v28.537a8.867,8.867,0,0,0,8.85,8.85,8.654,8.654,0,0,0,6.669-3.078l29.691-34.372H267.4A22.88,22.88,0,0,0,290.226,157.7V64.715A22.729,22.729,0,0,0,267.461,41.95Zm11.222,115.813a11.234,11.234,0,0,1-11.222,11.222H159.792a5.941,5.941,0,0,0-4.425,1.988L128.818,201.69V174.757a5.857,5.857,0,0,0-5.836-5.836H109.965A11.235,11.235,0,0,1,98.743,157.7V64.715a11.235,11.235,0,0,1,11.222-11.222H267.4a11.235,11.235,0,0,1,11.222,11.222v93.048Z" transform="translate(-31.281 -41.95)"/>
    </g>
  </g>
</svg>
