<svg xmlns="http://www.w3.org/2000/svg" viewBox="0 0 403 403">
  <defs>
    <style>
      .cls-1 {
        fill: none;
      }

      .cls-2 {
        fill: #c79d1f;
      }
    </style>
  </defs>
  <g id="Group_309" data-name="Group 309" transform="translate(-5212 -10673)">
    <rect id="Rectangle_80" data-name="Rectangle 80" class="cls-1" width="403" height="403" transform="translate(5212 10673)"/>
    <g id="like-1" transform="translate(5262.35 10727.986)">
      <g id="Group_31" data-name="Group 31" transform="translate(10.65 0)">
        <path id="XMLID_314_" class="cls-2" d="M160.26,274.86H136.293a2.385,2.385,0,0,1-2.343-2.343V206.743a2.385,2.385,0,0,1,2.343-2.343H160.26a2.385,2.385,0,0,1,2.343,2.343v65.715A2.4,2.4,0,0,1,160.26,274.86Z" transform="translate(-59.885 -81.62)"/>
        <path id="Path_760" data-name="Path 760" d="M272.669,148.189a3.691,3.691,0,0,1,0-3.364l16.579-32.437a14.63,14.63,0,0,0-6.367-19.7l-32.5-16.459a3.66,3.66,0,0,1-1.982-2.763l-5.646-35.981a14.538,14.538,0,0,0-14.416-12.314,14.057,14.057,0,0,0-2.283.18l-35.981,5.706a4.017,4.017,0,0,1-3.244-1.021L161.122,4.265a14.647,14.647,0,0,0-20.664,0L114.689,30.034a3.627,3.627,0,0,1-2.643,1.081h0a2.044,2.044,0,0,1-.6-.06L75.464,25.349a15.205,15.205,0,0,0-2.283-.18A14.538,14.538,0,0,0,58.765,37.483L53.118,73.464a3.66,3.66,0,0,1-1.982,2.763l-32.5,16.519a14.63,14.63,0,0,0-6.367,19.7l16.579,32.437a3.691,3.691,0,0,1,0,3.364L12.272,180.686a14.63,14.63,0,0,0,6.367,19.7l32.437,16.4a3.66,3.66,0,0,1,1.982,2.763L58.7,255.531a14.538,14.538,0,0,0,14.416,12.314,14.06,14.06,0,0,0,2.283-.18l35.981-5.706a4.017,4.017,0,0,1,3.244,1.021l25.709,25.769a14.647,14.647,0,0,0,20.664,0l25.709-25.769a3.6,3.6,0,0,1,3.244-1.021l35.981,5.706a15.384,15.384,0,0,0,2.343.18,14.538,14.538,0,0,0,14.416-12.314l5.646-35.981a3.66,3.66,0,0,1,1.982-2.763l32.5-16.519a14.63,14.63,0,0,0,6.367-19.7Zm7.088,40.246a3.511,3.511,0,0,1-1.862,2.162l-32.5,16.519a14.638,14.638,0,0,0-7.809,10.752l-5.646,35.981a3.7,3.7,0,0,1-4.265,3.063L191.7,251.206a14.631,14.631,0,0,0-12.614,4.085L153.373,281.06a3.889,3.889,0,0,1-5.286,0l-25.709-25.769a14.744,14.744,0,0,0-10.332-4.265,14.058,14.058,0,0,0-2.283.18l-35.981,5.706a3.738,3.738,0,0,1-4.265-3.124l-5.646-35.981a14.638,14.638,0,0,0-7.809-10.752l-32.5-16.519a3.669,3.669,0,0,1-1.622-4.986l16.579-32.437a14.759,14.759,0,0,0,0-13.275L21.943,107.4a3.584,3.584,0,0,1-.24-2.823,3.511,3.511,0,0,1,1.862-2.162L56.062,85.9a14.638,14.638,0,0,0,7.809-10.752l5.646-35.981A3.7,3.7,0,0,1,73.782,36.1l35.981,5.707a15.205,15.205,0,0,0,2.283.18h0a14.744,14.744,0,0,0,10.332-4.265l25.709-25.769a3.889,3.889,0,0,1,5.286,0l25.709,25.769A14.807,14.807,0,0,0,191.7,41.808L227.678,36.1a3.74,3.74,0,0,1,4.265,3.063l5.646,35.981A14.638,14.638,0,0,0,245.4,85.9l32.5,16.519a3.669,3.669,0,0,1,1.622,4.986l-16.579,32.437a14.759,14.759,0,0,0,0,13.275l16.579,32.437A3.71,3.71,0,0,1,279.757,188.435Z" transform="translate(-10.65 0)"/>
        <path id="Path_761" data-name="Path 761" d="M243.405,155.976H216.374V137.055c0-9.551-2.883-16.519-8.53-20.663-8.77-6.427-20.243-3.124-21.565-2.7a5.407,5.407,0,0,0-3.784,5.166V142.4c0,16.4-18.741,22.466-20.784,23.066a10.168,10.168,0,0,0-7.388-3.244H135.1a10.178,10.178,0,0,0-10.152,10.152v60.969A10.178,10.178,0,0,0,135.1,243.5h19.222a10.609,10.609,0,0,0,6.067-1.982,20.746,20.746,0,0,0,14.116,5.526h57.666c13.7,0,22.826-7.509,24.388-20.123l7.749-49.256a3.965,3.965,0,0,0,.06-.841A21,21,0,0,0,243.405,155.976Zm-89.862,76.707h-17.78V173.156h17.78Zm92.205-7.328v.18c-.3,2.643-1.322,10.632-13.576,10.632H174.507a9.985,9.985,0,0,1-9.971-9.971V176.039h.06c1.2-.3,28.893-8.35,28.893-33.638V123.419c2.463-.18,5.646,0,8.049,1.742,2.7,1.982,4.085,6.007,4.085,11.894v24.388a5.486,5.486,0,0,0,5.466,5.466h32.5a9.954,9.954,0,0,1,9.971,9.611Z" transform="translate(-56.292 -44.91)"/>
      </g>
    </g>
  </g>
</svg>
