<svg xmlns="http://www.w3.org/2000/svg" viewBox="0 0 382 382">
  <defs>
    <style>
      .cls-1 {
        fill: none;
      }

      .cls-2 {
        fill: #c99700;
      }
    </style>
  </defs>
  <g id="Group_103" data-name="Group 103" transform="translate(1851 -7289)">
    <rect id="Rectangle_58" data-name="Rectangle 58" class="cls-1" width="382" height="382" transform="translate(-1851 7289)"/>
    <g id="Group_100" data-name="Group 100" transform="translate(-466 -306.984)">
      <g id="woman" transform="translate(-1317 7645)">
        <g id="Group_73" data-name="Group 73" transform="translate(75.012 225.736)">
          <g id="Group_72" data-name="Group 72">
            <path id="Path_800" data-name="Path 800" d="M336.647,446.192c-.03-.206.31,1.521-6.984-34.769a4.189,4.189,0,0,0-8.22,1.621c6.877,34.728,7.336,34.779,6.994,37.929-.318,2.93-1.6,6.292-8.779,6.292H298.642V418.147a4.191,4.191,0,0,0-8.382,0v39.118H209.87a4.151,4.151,0,1,0,0,8.3H319.658C332.2,465.566,338.266,457.5,336.647,446.192Z" transform="translate(-205.679 -408.082)"/>
          </g>
        </g>
        <g id="Group_76" data-name="Group 76" transform="translate(0 0)">
          <g id="Group_75" data-name="Group 75">
            <g id="Group_74" data-name="Group 74">
              <path id="Path_801" data-name="Path 801" d="M388.972,330.3l.089.039.006,0C389.015,330.315,388.92,330.271,388.972,330.3Z" transform="translate(-211.573 -147.585)"/>
              <path id="Path_802" data-name="Path 802" d="M389.22,330.408l.007,0,.03.014Z" transform="translate(-211.69 -147.638)"/>
              <path id="Path_803" data-name="Path 803" d="M389.286,330.439Z" transform="translate(-211.719 -147.652)"/>
              <path id="Path_804" data-name="Path 804" d="M266.55,210.024c-1.594-7.82-2.135-14.058-8.2-20.578a30.846,30.846,0,0,0-9.426-6.671l-.05-.022c-29.059-10.1-22.339-7.77-44.732-15.438h26.906A12.226,12.226,0,0,0,243.315,155.3c4.206-70.641,4.04-67.677,4.04-67.922-.171-20.222,3.59-60.748-41.078-81.523A76.606,76.606,0,0,0,194.9,1.723c-31.116-6-52.045,4.529-61.4,18.507-16.16,4.387-26.073,19.413-28.71,43.6a4.191,4.191,0,0,0,8.333.891C116.042,37.963,127.76,29.93,137.076,27.9a4.186,4.186,0,0,0,2.828-2.156c.123-.238,12.812-23.7,53.4-15.876a63.282,63.282,0,0,1,16.587,7.424c40.855,26.335,28.029,63.286,25.053,137.626-.005.081-.007.163-.007.244a3.873,3.873,0,0,1-3.888,3.85H201.894v-2.9a54.46,54.46,0,0,0,28.859-48.092V96.54a9.121,9.121,0,0,0-8.8-9.083c-35.347-1.511-54.346-20.167-60.874-28.119a9,9,0,0,0-6.614-3.268,9.114,9.114,0,0,0-6.92,2.792,39.593,39.593,0,0,1-19.2,11.257,10.606,10.606,0,0,0-8.128,10.319c.393,20.906-.85,29.11,1,37.932l.147.734c2.851,14.812,12.851,28.32,25.744,35.882v4.028H120.931a3.874,3.874,0,0,1-3.888-3.85c0-.081,0-.163-.007-.244-5.642-94.638-3.958-65.116-4.34-71.525a4.191,4.191,0,0,0-8.367.49c.005.089,4.33,71.357,4.333,71.415a12.226,12.226,0,0,0,12.268,12.016h23.924c-4.214,1.428-43.844,15.052-44.593,15.385A27.6,27.6,0,0,0,83.9,202.89C71.368,265.728,71,264.677,71.524,269.518c.449,4.12,3.012,13.7,17.113,13.7h42.284a4.151,4.151,0,1,0,0-8.3H118.185V235.8a4.191,4.191,0,0,0-8.382,0v39.118H88.636c-6.407,0-9.675-2.656-8.706-9.8,13.23-65.779,12.274-61.373,12.84-63.082,3.607-11.069,13.2-12.455,22.58-15.743.886,18.277,5.981,37.854,24.372,37.854,12.127,0,25.769-9.445,34.806-17.4,11.272,9.917,29.052,21.705,42.877,15.806,9.971-4.256,15.324-16.141,16.3-36.248,12.015,4.212,11.036,3.3,15.2,5.947,7.481,5.357,7.736,11.03,9.421,19.384a4.189,4.189,0,0,0,8.22-1.62ZM129.419,116.688c-1.254-5.978-.725-10.374-.826-36.249a2.307,2.307,0,0,1,1.748-2.259c15.681-3.82,22.781-13.835,23.8-13.815,1.058.04,20.785,29.39,67.449,31.385a.8.8,0,0,1,.78.79c-.016,15.644.713,19.4-4.68,31.718a46.387,46.387,0,0,1-8.138,11.662C183.74,166.989,136.861,154.448,129.419,116.688Zm5.55,98.25c-6.931-2.959-10.833-13.84-11.345-31.544l4.994-1.752a52.585,52.585,0,0,0,34.515,23.666C155.911,210.756,143.337,218.511,134.969,214.938Zm1.795-36.1,11.875-4.033a10.04,10.04,0,0,0,6.845-9.49v-6.26a54.727,54.727,0,0,0,8.329,2.477,56.11,56.11,0,0,0,29.7-1.761v5.545a10.04,10.04,0,0,0,6.844,9.49l11.875,4.033C194.317,205.1,153.963,204.056,136.763,178.837Zm77.326,36.1c-8.359,3.567-20.913-4.16-28.177-9.642a52.6,52.6,0,0,0,34.468-23.66l5.054,1.773C224.921,201.1,221.017,211.981,214.09,214.938Z" transform="translate(-71.385 -0.001)"/>
            </g>
          </g>
        </g>
      </g>
      <g id="user" transform="translate(-1137.401 7719.222)">
        <g id="Group_18" data-name="Group 18" transform="translate(0 0)">
          <g id="XMLID_546_" transform="translate(3.04 3.292)">
            <path id="XMLID_547_" class="cls-2" d="M296.8,311.031a17.592,17.592,0,0,1-13.513,4.234,1.3,1.3,0,0,1-.335-2.4c3.353-1.758,5.331-5.633,6.438-8.36-10.6-12.81-10.193-32.437,1.274-44.672a29.106,29.106,0,0,1,43.121,0,34.276,34.276,0,0,1,0,46.143A29,29,0,0,1,296.8,311.031Z" transform="translate(-281.739 -250.275)"/>
          </g>
          <path id="Path_118" data-name="Path 118" d="M339.728,276.981a36.941,36.941,0,0,0-9.825-25.368,31.985,31.985,0,0,0-47.413,0c-12.038,12.881-13.077,33.334-2.716,47.471a10.834,10.834,0,0,1-4.191,4.988,4.561,4.561,0,0,0-2.314,4.736,4.395,4.395,0,0,0,3.521,3.8,13.737,13.737,0,0,0,2.481.179,21.092,21.092,0,0,0,11.7-3.8,31.885,31.885,0,0,0,38.963-6.6A37.091,37.091,0,0,0,339.728,276.981ZM306.2,306.368a26.3,26.3,0,0,1-13.915-4.019,3,3,0,0,0-1.542-.466,2.9,2.9,0,0,0-1.878.682,16.4,16.4,0,0,1-5.935,3.158,26.6,26.6,0,0,0,3.185-5.813,3.445,3.445,0,0,0-.5-3.445,30.9,30.9,0,0,1,1.174-40.223,26.191,26.191,0,0,1,38.829,0,30.84,30.84,0,0,1,0,41.551A26.41,26.41,0,0,1,306.2,306.368Z" transform="translate(-272.674 -241.1)"/>
          <path id="Path_119" data-name="Path 119" d="M366.6,332.1a2.954,2.954,0,0,0-2.146.969,3.365,3.365,0,0,0,0,4.593,2.861,2.861,0,0,0,4.292,0,3.412,3.412,0,0,0-.034-4.593A2.707,2.707,0,0,0,366.6,332.1Z" transform="translate(-333.078 -299.448)"/>
          <path id="Path_120" data-name="Path 120" d="M400.3,332.1a2.954,2.954,0,0,0-2.146.969,3.365,3.365,0,0,0,0,4.593,2.861,2.861,0,0,0,4.292,0,3.365,3.365,0,0,0,0-4.593A2.825,2.825,0,0,0,400.3,332.1Z" transform="translate(-355.478 -299.448)"/>
          <path id="Path_121" data-name="Path 121" d="M332.8,332.1a2.954,2.954,0,0,0-2.146.969,3.365,3.365,0,0,0,0,4.593,2.861,2.861,0,0,0,4.292,0,3.412,3.412,0,0,0-.034-4.593A2.659,2.659,0,0,0,332.8,332.1Z" transform="translate(-310.612 -299.448)"/>
        </g>
      </g>
    </g>
  </g>
</svg>
