<svg xmlns="http://www.w3.org/2000/svg" viewBox="0 0 180 180">
  <defs>
    <style>
      .cls-1 {
        fill: none;
      }

      .cls-2 {
        fill: #c99700;
      }
    </style>
  </defs>
  <g id="Group_105" data-name="Group 105" transform="translate(1342 -1727)">
    <rect id="Rectangle_64" data-name="Rectangle 64" class="cls-1" width="180" height="180" transform="translate(-1342 1727)"/>
    <g id="user-9" transform="translate(-1280.5 2222)">
      <g id="Group_14" data-name="Group 14" transform="translate(-38.5 -480)">
        <circle id="XMLID_1944_" class="cls-2" cx="11.579" cy="11.579" r="11.579" transform="translate(55.626 2.818)"/>
        <circle id="XMLID_1942_" class="cls-2" cx="11.579" cy="11.579" r="11.579" transform="translate(108.434 93.578)"/>
        <path id="XMLID_1940_" class="cls-2" d="M11.579,0A11.579,11.579,0,1,1,0,11.579,11.579,11.579,0,0,1,11.579,0Z" transform="translate(2.818 93.578)"/>
        <path id="Path_104" data-name="Path 104" d="M159.878,44.874A14.351,14.351,0,0,0,134.7,35.44L106.3,18.991a14.366,14.366,0,1,0-27.966-4.625,14.173,14.173,0,0,0,.766,4.595L50.709,35.409A14.359,14.359,0,1,0,36.8,58.873L36.833,91.1a14.359,14.359,0,1,0,13.692,23.647l28.487,16.449a14.2,14.2,0,0,0-.7,4.441,14.366,14.366,0,1,0,28.732,0,14.2,14.2,0,0,0-.7-4.441l28.487-16.449a14.361,14.361,0,1,0,13.447-23.708v-32.1A14.306,14.306,0,0,0,159.878,44.874Zm-14.366-8.822a8.822,8.822,0,1,1-8.822,8.822A8.824,8.824,0,0,1,145.512,36.053ZM92.7,5.575a8.828,8.828,0,0,1,7.78,12.988,1.3,1.3,0,0,0-.153.214l-.092.184A8.817,8.817,0,1,1,92.7,5.575Zm-61.63,39.3A8.822,8.822,0,1,1,39.9,53.7,8.824,8.824,0,0,1,31.075,44.874Zm8.822,69.1a8.822,8.822,0,1,1,8.822-8.822A8.824,8.824,0,0,1,39.9,113.978ZM92.7,144.456a8.822,8.822,0,1,1,8.822-8.822A8.824,8.824,0,0,1,92.7,144.456Zm10.935-18.1a14.3,14.3,0,0,0-21.871,0L53.4,110a14.111,14.111,0,0,0,.858-4.84A14.379,14.379,0,0,0,42.408,91L42.378,59A14.365,14.365,0,0,0,53.5,40.218L81.892,23.77a14.353,14.353,0,0,0,21.656,0l28.395,16.449a14.361,14.361,0,0,0,10.813,18.716v32.1a14.367,14.367,0,0,0-11.579,14.09,13.981,13.981,0,0,0,.858,4.84Zm50.694-21.2a8.822,8.822,0,1,1-8.822-8.822A8.824,8.824,0,0,1,154.334,105.156Z" transform="translate(-25.5)"/>
        <g id="woman" transform="translate(-31.385 36.208)">
          <g id="Group_84" data-name="Group 84" transform="translate(91.526 61.205)">
            <g id="Group_83" data-name="Group 83" transform="translate(0)">
              <path id="Path_805" data-name="Path 805" d="M240.845,418.415c-.008-.056.083.412-1.875-9.427a1.125,1.125,0,0,0-2.207.44c1.847,9.416,1.97,9.43,1.878,10.284-.085.794-.431,1.706-2.357,1.706H230.64V410.811a1.125,1.125,0,1,0-2.251,0v10.606H206.8a1.125,1.125,0,1,0,0,2.251h29.479C239.652,423.668,241.28,421.481,240.845,418.415Z" transform="translate(-205.679 -408.082)"/>
            </g>
          </g>
          <g id="Group_87" data-name="Group 87" transform="translate(71.385 0.001)">
            <g id="Group_86" data-name="Group 86" transform="translate(0 0)">
              <g id="Group_85" data-name="Group 85">
                <path id="Path_806" data-name="Path 806" d="M388.961,330.292l.024.011h0Z" transform="translate(-341.328 -280.753)"/>
                <path id="Path_807" data-name="Path 807" d="M389.22,330.408h0l.008,0Z" transform="translate(-341.551 -280.854)"/>
                <path id="Path_808" data-name="Path 808" d="M389.286,330.439Z" transform="translate(-341.608 -280.88)"/>
                <path id="Path_809" data-name="Path 809" d="M123.788,56.944c-.428-2.12-.573-3.811-2.2-5.579a8.279,8.279,0,0,0-2.531-1.809l-.013-.006c-7.8-2.738-6-2.107-12.011-4.186h7.224a3.3,3.3,0,0,0,3.294-3.258c1.129-19.153,1.085-18.349,1.085-18.416-.046-5.483.964-16.471-11.03-22.1a20.441,20.441,0,0,0-3.054-1.12C96.2-1.158,90.576,1.7,88.063,5.486c-4.339,1.189-7,5.263-7.709,11.82a1.125,1.125,0,0,0,2.238.242c.784-7.254,3.93-9.432,6.432-9.982a1.125,1.125,0,0,0,.759-.585c.033-.064,3.44-6.426,14.338-4.3a16.907,16.907,0,0,1,4.454,2.013C119.544,11.83,116.1,21.848,115.3,42c0,.022,0,.044,0,.066a1.045,1.045,0,0,1-1.044,1.044h-7.828v-.786a14.787,14.787,0,0,0,7.749-13.039V26.176a2.462,2.462,0,0,0-2.363-2.463c-9.491-.41-14.592-5.468-16.345-7.624a2.408,2.408,0,0,0-1.776-.886,2.435,2.435,0,0,0-1.858.757,10.606,10.606,0,0,1-5.156,3.052,2.87,2.87,0,0,0-2.182,2.8c.105,5.668-.228,7.893.268,10.284l.039.2a14.856,14.856,0,0,0,6.912,9.729v1.092H84.688a1.045,1.045,0,0,1-1.044-1.044c0-.022,0-.044,0-.066-1.515-25.659-1.063-17.655-1.165-19.393a1.125,1.125,0,1,0-2.247.133c0,.024,1.163,19.347,1.164,19.363a3.3,3.3,0,0,0,3.294,3.258h6.424c-1.132.387-11.772,4.081-11.974,4.171a7.466,7.466,0,0,0-4.394,5.474C71.38,72.047,71.28,71.762,71.422,73.075c.12,1.117.809,3.715,4.6,3.715H87.371a1.125,1.125,0,0,0,0-2.251h-3.42V63.934a1.125,1.125,0,1,0-2.251,0V74.54H76.017c-1.72,0-2.6-.72-2.338-2.657,3.552-17.835,3.3-16.64,3.448-17.1.968-3,3.545-3.377,6.063-4.268.238,4.955,1.606,10.263,6.544,10.263,3.256,0,6.919-2.561,9.346-4.716,3.027,2.689,7.8,5.885,11.513,4.285,2.677-1.154,4.115-4.376,4.377-9.828,3.226,1.142,2.963.9,4.082,1.612,2.009,1.453,2.077,2.99,2.53,5.256a1.125,1.125,0,0,0,2.207-.439ZM86.968,31.638c-.337-1.621-.195-2.813-.222-9.828a.624.624,0,0,1,.469-.613,14.381,14.381,0,0,0,6.391-3.746,24.416,24.416,0,0,0,18.111,8.509.216.216,0,0,1,.21.214c0,4.241.192,5.259-1.257,8.6a12.593,12.593,0,0,1-23.7-3.137Zm1.49,26.639c-1.861-.8-2.909-3.752-3.046-8.553l1.341-.475a14.119,14.119,0,0,0,9.268,6.416C94.081,57.143,90.7,59.246,88.458,58.277Zm.482-9.788L92.128,47.4a2.72,2.72,0,0,0,1.838-2.573v-1.7A14.585,14.585,0,0,0,96.2,43.8a14.927,14.927,0,0,0,7.975-.478v1.5a2.72,2.72,0,0,0,1.838,2.573l3.189,1.093C104.393,55.61,93.558,55.326,88.94,48.489ZM109.7,58.277c-2.244.967-5.615-1.128-7.566-2.614a14.124,14.124,0,0,0,9.255-6.415l1.357.481C112.611,54.526,111.563,57.475,109.7,58.277Z" transform="translate(-71.385 -0.001)"/>
              </g>
            </g>
          </g>
        </g>
      </g>
    </g>
  </g>
</svg>
