<svg xmlns="http://www.w3.org/2000/svg" viewBox="0 0 152.058 152.058">
  <defs>
    <style>
      .cls-1 {
        fill: #c99700;
      }
    </style>
  </defs>
  <g id="Group_125" data-name="Group 125" transform="translate(-7106 -1204)">
    <g id="dollar-symbol-1" transform="translate(7106 1204)">
      <g id="Group_123" data-name="Group 123">
        <circle id="XMLID_1909_" class="cls-1" cx="10.986" cy="10.986" r="10.986" transform="translate(65.043 127.254)"/>
        <circle id="XMLID_1907_" class="cls-1" cx="10.986" cy="10.986" r="10.986" transform="translate(65.043 2.832)"/>
        <circle id="XMLID_1905_" class="cls-1" cx="10.986" cy="10.986" r="10.986" transform="translate(127.254 65.043)"/>
        <circle id="XMLID_1903_" class="cls-1" cx="10.986" cy="10.986" r="10.986" transform="translate(2.832 65.043)"/>
        <path id="Path_811" data-name="Path 811" d="M213.718,346.8a2.842,2.842,0,0,0-2.832,2.832v13.942a13.818,13.818,0,1,0,5.664,0V349.632A2.842,2.842,0,0,0,213.718,346.8Zm8.185,30.312a8.185,8.185,0,1,1-8.185-8.185A8.195,8.195,0,0,1,221.9,377.112Z" transform="translate(-137.689 -238.872)"/>
        <path id="Path_812" data-name="Path 812" d="M324.857,328.841a13.8,13.8,0,1,0,11.546-6.255,13.426,13.426,0,0,0-7.562,2.272l-9.865-9.865a2.817,2.817,0,1,0-3.984,3.983Zm17.334,1.8a8.227,8.227,0,0,1,0,11.577,8.175,8.175,0,0,1-11.577-11.546h0a8.121,8.121,0,0,1,5.789-2.4A7.865,7.865,0,0,1,342.192,330.646Z" transform="translate(-216.4 -216.4)"/>
        <path id="Path_813" data-name="Path 813" d="M314.992,93.829a2.781,2.781,0,0,0,3.984,0l9.865-9.865a13.8,13.8,0,1,0-6.255-11.546,13.427,13.427,0,0,0,2.272,7.562l-9.865,9.865A2.837,2.837,0,0,0,314.992,93.829Zm15.654-27.2a8.19,8.19,0,0,1,11.577,0,8.227,8.227,0,0,1,0,11.577,8.189,8.189,0,0,1-11.577,0h0A8.171,8.171,0,0,1,330.646,66.629Z" transform="translate(-216.4 -40.363)"/>
        <path id="Path_814" data-name="Path 814" d="M93.829,314.992a2.837,2.837,0,0,0-3.984,0l-9.865,9.865A13.8,13.8,0,1,0,86.236,336.4a13.427,13.427,0,0,0-2.272-7.562l9.865-9.865A2.837,2.837,0,0,0,93.829,314.992Zm-15.654,27.2a8.189,8.189,0,0,1-11.577,0,8.227,8.227,0,0,1,0-11.577,8.189,8.189,0,0,1,11.577,0h0A8.171,8.171,0,0,1,78.175,342.192Z" transform="translate(-40.363 -216.4)"/>
        <path id="Path_816" data-name="Path 816" d="M199.9,13.818a13.853,13.853,0,0,0,10.986,13.538V41.3a2.832,2.832,0,0,0,5.664,0V27.355A13.824,13.824,0,1,0,199.9,13.818Zm22,0a8.185,8.185,0,1,1-8.185-8.185A8.195,8.195,0,0,1,221.9,13.818Z" transform="translate(-137.689)"/>
        <path id="Path_817" data-name="Path 817" d="M363.574,210.886H349.632a2.832,2.832,0,0,0,0,5.664h13.942a13.818,13.818,0,1,0,0-5.664Zm21.723,2.832a8.185,8.185,0,1,1-16.37,0h0a8.185,8.185,0,1,1,16.37,0Z" transform="translate(-238.872 -137.689)"/>
        <path id="Path_818" data-name="Path 818" d="M13.818,227.536A13.853,13.853,0,0,0,27.355,216.55H41.3a2.832,2.832,0,0,0,0-5.664H27.355a13.824,13.824,0,1,0-13.538,16.65Zm0-22A8.2,8.2,0,0,1,22,213.718h0a8.185,8.185,0,1,1-8.185-8.185Z" transform="translate(0 -137.689)"/>
        <path id="Path_819" data-name="Path 819" d="M82.09,62.546a13.82,13.82,0,1,0-9.772,23.59,13.427,13.427,0,0,0,7.562-2.272l9.865,9.865a2.781,2.781,0,0,0,3.983,0,2.837,2.837,0,0,0,0-3.984l-9.834-9.834a13.749,13.749,0,0,0,2.272-7.562A13.929,13.929,0,0,0,82.09,62.546ZM66.56,78.106a8.227,8.227,0,0,1,0-11.577A8.175,8.175,0,0,1,78.137,78.075h0a8.121,8.121,0,0,1-5.789,2.4A7.866,7.866,0,0,1,66.56,78.106Z" transform="translate(-40.294 -40.294)"/>
      </g>
    </g>
    <g id="Group_124" data-name="Group 124" transform="translate(7162.018 1252.049)">
      <g id="woman" transform="translate(0 0)">
        <g id="Group_73" data-name="Group 73" transform="translate(14.661 44.55)">
          <g id="Group_72" data-name="Group 72">
            <path id="Path_800" data-name="Path 800" d="M231.277,415.6c-.006-.041.061.3-1.365-6.862a.819.819,0,0,0-1.607.32c1.344,6.854,1.434,6.864,1.367,7.486-.062.578-.314,1.242-1.716,1.242h-4.107v-7.72a.819.819,0,0,0-1.638,0v7.72H206.5a.819.819,0,1,0,0,1.638h21.458A3.071,3.071,0,0,0,231.277,415.6Z" transform="translate(-205.679 -408.082)"/>
          </g>
        </g>
        <g id="Group_76" data-name="Group 76" transform="translate(0)">
          <g id="Group_75" data-name="Group 75">
            <g id="Group_74" data-name="Group 74">
              <path id="Path_801" data-name="Path 801" d="M388.96,330.291l.017.008h0Z" transform="translate(-354.287 -294.232)"/>
              <path id="Path_802" data-name="Path 802" d="M389.22,330.408h0l.006,0Z" transform="translate(-354.522 -294.337)"/>
              <path id="Path_803" data-name="Path 803" d="M389.286,330.439Z" transform="translate(-354.581 -294.365)"/>
              <path id="Path_804" data-name="Path 804" d="M109.53,41.451c-.312-1.543-.417-2.774-1.6-4.061a6.026,6.026,0,0,0-1.842-1.316l-.01,0c-5.68-1.993-4.366-1.534-8.743-3.047h5.259a2.4,2.4,0,0,0,2.4-2.371c.822-13.941.79-13.356.79-13.4-.033-3.991.7-11.989-8.029-16.089A14.879,14.879,0,0,0,95.526.341c-6.082-1.184-10.172.894-12,3.652-3.158.866-5.1,3.831-5.611,8.6a.819.819,0,1,0,1.629.176c.57-5.28,2.861-6.866,4.682-7.266a.819.819,0,0,0,.553-.426C84.8,5.035,87.281.4,95.213,1.949a12.307,12.307,0,0,1,3.242,1.465c7.985,5.2,5.478,12.49,4.9,27.161,0,.016,0,.032,0,.048a.761.761,0,0,1-.76.76h-5.7v-.572a10.763,10.763,0,0,0,5.64-9.491V19.054a1.792,1.792,0,0,0-1.72-1.793,15.91,15.91,0,0,1-11.9-5.549,1.753,1.753,0,0,0-1.293-.645,1.772,1.772,0,0,0-1.353.551,7.72,7.72,0,0,1-3.753,2.222,2.089,2.089,0,0,0-1.589,2.037c.077,4.126-.166,5.745.2,7.486l.029.145a10.813,10.813,0,0,0,5.032,7.082v.795H81.069a.761.761,0,0,1-.76-.76c0-.016,0-.032,0-.048-1.1-18.677-.774-12.851-.848-14.116a.819.819,0,0,0-1.635.1l.847,14.094a2.4,2.4,0,0,0,2.4,2.371h4.676c-.824.282-8.569,2.971-8.716,3.036a5.435,5.435,0,0,0-3.2,3.985c-2.449,12.4-2.522,12.194-2.418,13.149.088.813.589,2.7,3.345,2.7h8.264a.819.819,0,1,0,0-1.638H80.532v-7.72a.819.819,0,0,0-1.638,0v7.72H74.757c-1.252,0-1.891-.524-1.7-1.934,2.586-12.982,2.4-12.112,2.51-12.45.7-2.185,2.58-2.458,4.413-3.107.173,3.607,1.169,7.471,4.764,7.471,2.37,0,5.037-1.864,6.8-3.433,2.2,1.957,5.678,4.284,8.38,3.119,1.949-.84,2.995-3.186,3.186-7.154,2.348.831,2.157.652,2.971,1.174,1.462,1.057,1.512,2.177,1.841,3.826a.819.819,0,0,0,1.607-.32Zm-26.8-18.42c-.245-1.18-.142-2.047-.161-7.154a.454.454,0,0,1,.342-.446A10.468,10.468,0,0,0,87.56,12.7,17.773,17.773,0,0,0,100.742,18.9a.157.157,0,0,1,.153.156c0,3.087.139,3.828-.915,6.26A9.167,9.167,0,0,1,82.728,23.03Zm1.085,19.39c-1.355-.584-2.117-2.731-2.217-6.225l.976-.346a10.278,10.278,0,0,0,6.746,4.671C87.906,41.595,85.448,43.126,83.812,42.42Zm.351-7.125,2.321-.8a1.98,1.98,0,0,0,1.338-1.873V31.391a10.618,10.618,0,0,0,1.628.489,10.865,10.865,0,0,0,5.8-.348v1.094A1.98,1.98,0,0,0,96.592,34.5l2.321.8A9.043,9.043,0,0,1,84.163,35.3ZM99.276,42.42c-1.634.7-4.087-.821-5.507-1.9a10.281,10.281,0,0,0,6.737-4.669l.988.35C101.393,39.69,100.63,41.837,99.276,42.42Z" transform="translate(-71.385 -0.001)"/>
            </g>
          </g>
        </g>
      </g>
    </g>
  </g>
</svg>
