<svg xmlns="http://www.w3.org/2000/svg" viewBox="0 0 135.359 148.859">
  <defs>
    <style>
      .cls-1 {
        fill: #a7a9ac;
      }

      .cls-2 {
        fill: #c99700;
      }
    </style>
  </defs>
  <g id="network-1" transform="translate(-22.2)">
    <g id="Group_54" data-name="Group 54" transform="translate(22.2)">
      <g id="XMLID_1179_" transform="translate(31.109 2.746)">
        <path id="XMLID_1180_" class="cls-1" d="M175.075,79.378a36.56,36.56,0,1,1,19.793-47.765A36.571,36.571,0,0,1,175.075,79.378Z" transform="translate(-124.519 -9.032)"/>
      </g>
      <circle id="XMLID_1323_" class="cls-2" cx="13.682" cy="13.682" r="13.682" transform="translate(53.998 118.698)"/>
      <path id="Path_780" data-name="Path 780" d="M143.756,116.144V98.509a2.777,2.777,0,0,0-2.767-2.767H92.646V79.294a3.057,3.057,0,0,0-.122-.76A39.311,39.311,0,0,0,89.88,0,38.738,38.738,0,0,0,74.86,3.01a39.336,39.336,0,0,0,12.4,75.585,3.057,3.057,0,0,0-.122.76V95.8H38.8a2.777,2.777,0,0,0-2.767,2.767V116.2a16.43,16.43,0,1,0,5.5.061V101.337H87.143v14.9a16.418,16.418,0,1,0,5.473,0v-14.9h45.606v14.928a16.221,16.221,0,1,0,5.534-.122ZM57.986,50.532a33.439,33.439,0,0,1,0-22.438h9.608a59.553,59.553,0,0,0-1.064,11.158A52.541,52.541,0,0,0,67.9,50.532Zm14.047-11.28a53.621,53.621,0,0,1,1.186-11.158H87.113V50.532H73.492A49.083,49.083,0,0,1,72.032,39.252Zm49.741-11.158a33.614,33.614,0,0,1-.03,22.438h-9.486a52.541,52.541,0,0,0,1.368-11.28,59.554,59.554,0,0,0-1.064-11.158ZM108.122,39.252a48.872,48.872,0,0,1-1.459,11.28H92.646V28.093h14.29A53.621,53.621,0,0,1,108.122,39.252ZM92.646,72.392V56.035H104.96C102.072,63.94,97.541,70.6,92.646,72.392Zm0-49.8V6.05c5.169,1.642,9.942,8.088,12.77,16.54ZM87.113,6.2V22.59H74.738C77.505,14.351,82.1,8.027,87.113,6.2Zm0,49.832V72.21c-4.773-1.976-9.152-8.483-11.949-16.175Zm16.6,14.108a48.689,48.689,0,0,0,7.054-14.108h8.483A33.771,33.771,0,0,1,103.713,70.142ZM119.25,22.59h-8.057a47.315,47.315,0,0,0-4.013-9.729,38.316,38.316,0,0,0-2.524-3.953A33.361,33.361,0,0,1,119.25,22.59ZM75.65,8.665a35.406,35.406,0,0,0-2.676,4.2,48.026,48.026,0,0,0-4.013,9.729H60.54A33.224,33.224,0,0,1,75.65,8.665ZM60.509,56.035h8.878a48.626,48.626,0,0,0,7.267,14.412A33.762,33.762,0,0,1,60.509,56.035ZM49.533,132.38a10.915,10.915,0,1,1-10.915-10.915A10.926,10.926,0,0,1,49.533,132.38Zm51.261,0A10.915,10.915,0,1,1,89.88,121.465,10.926,10.926,0,0,1,100.795,132.38Zm40.346,10.915a10.915,10.915,0,1,1,10.915-10.915A10.926,10.926,0,0,1,141.141,143.295Z" transform="translate(-22.2 0)"/>
    </g>
  </g>
</svg>
