<svg xmlns="http://www.w3.org/2000/svg" viewBox="0 0 134.438 133.24">
  <defs>
    <style>
      .cls-1 {
        fill: #00bdf2;
      }

      .cls-2 {
        fill: #6b6b6b;
      }
    </style>
  </defs>
  <g id="_019-mission" data-name="019-mission" transform="translate(0 -2.157)">
    <g id="Group_96" data-name="Group 96" transform="translate(88.834 19.924)">
      <g id="Group_95" data-name="Group 95">
        <path id="Path_22" data-name="Path 22" class="cls-1" d="M355.567,72.832a8.54,8.54,0,0,0-1.73.178,13.246,13.246,0,0,0-23.187,0,8.54,8.54,0,0,0-1.73-.178,8.882,8.882,0,0,0-8.882,8.882,8.758,8.758,0,0,0,.535,2.96,2.22,2.22,0,0,0,2.094,1.481H361.82a2.22,2.22,0,0,0,2.094-1.481,8.758,8.758,0,0,0,.535-2.96A8.882,8.882,0,0,0,355.567,72.832Zm-31.088,8.882a4.441,4.441,0,0,1,6.38-3.97,2.221,2.221,0,0,0,3.067-1.244,8.82,8.82,0,0,1,16.637,0,2.22,2.22,0,0,0,3.067,1.244,4.441,4.441,0,0,1,6.38,3.97Z" transform="translate(-320.038 -66.167)"/>
      </g>
    </g>
    <g id="Group_98" data-name="Group 98" transform="translate(0.011 13.264)">
      <g id="Group_97" data-name="Group 97">
        <path id="Path_23" data-name="Path 23" class="cls-1" d="M24.464,44.394a10.9,10.9,0,0,0-3.138.46A13.286,13.286,0,0,0,.038,55.5a2.221,2.221,0,0,0,2.221,2.221H33.347A2.221,2.221,0,0,0,35.567,55.5,11.117,11.117,0,0,0,24.464,44.394Zm-19.7,8.882a8.841,8.841,0,0,1,14.616-4.27,2.22,2.22,0,0,0,2.4.4,6.635,6.635,0,0,1,8.762,3.357q.112.25.2.509Z" transform="translate(-0.038 -42.172)"/>
      </g>
    </g>
    <g id="Group_100" data-name="Group 100" transform="translate(8.893 39.912)">
      <g id="Group_99" data-name="Group 99">
        <path id="Path_24" data-name="Path 24" class="cls-1" d="M43.141,138.177a11.1,11.1,0,0,0-11.1,11.1,2.221,2.221,0,0,0,2.221,2.221H52.023a2.221,2.221,0,0,0,2.221-2.221A11.1,11.1,0,0,0,43.141,138.177Zm-6.282,8.882a6.662,6.662,0,0,1,12.564,0Z" transform="translate(-32.038 -138.177)"/>
      </g>
    </g>
    <g id="Group_102" data-name="Group 102" transform="translate(0 2.157)">
      <g id="Group_101" data-name="Group 101" transform="translate(0 0)">
        <path id="Path_25" data-name="Path 25" class="cls-2" d="M134.189,132.155l-34.5-66.617a2.221,2.221,0,0,0-1.972-1.2H87.946l-19.1-36.08V19.308l18.466-6.155a2.221,2.221,0,0,0,0-4.219L67.33,2.271a2.221,2.221,0,0,0-2.922,2.112V28.305L38.585,82.1H26.493a2.22,2.22,0,0,0-2,1.232L.233,132.189a2.221,2.221,0,0,0,2,3.209H35.54v-4.441H5.813L18,106.423l6.813,10.215,3.7-2.465-8.229-12.344L27.87,86.545h8.518l-5.056,10.11,3.975,1.985,6.662-13.323.02-.029L53.824,60.639l4.246,7.075,3.806-2.287-5.749-9.584L66.733,33.75,82.925,64.339H71.069a2.22,2.22,0,0,0-2,1.228l-6.036,12.1H57.746V82.1H76.474L82.49,92.129,86.3,89.842l-6.662-11.1a2.221,2.221,0,0,0-1.9-1.077H68l4.441-8.882H96.366l7.759,14.982-.222-.118L95.76,98.818l3.913,2.1,6.786-12.657,22.108,42.7H111.04V135.4h21.178a2.22,2.22,0,0,0,1.972-3.242ZM68.849,7.463l10.743,3.582L68.849,14.627V7.463Z" transform="translate(0 -2.157)"/>
      </g>
    </g>
    <g id="Group_104" data-name="Group 104" transform="translate(39.98 102.089)">
      <g id="Group_103" data-name="Group 103" transform="translate(0 0)">
        <path id="Path_26" data-name="Path 26" class="cls-2" d="M210.387,392.213l-15.544-28.868a2.221,2.221,0,0,0-1.956-1.168H175.122a2.221,2.221,0,0,0-1.9,1.077L167.2,373.28H155.137a2.221,2.221,0,0,0-1.987,1.228l-8.882,17.765a2.221,2.221,0,0,0,1.987,3.213h62.176a2.222,2.222,0,0,0,1.956-3.273Zm-60.54-1.168,6.662-13.323H168.46a2.221,2.221,0,0,0,1.9-1.077l6.016-10.026h15.175l3.588,6.662h-6.7a2.221,2.221,0,0,0-1.776.888l-6.662,8.882,3.553,2.665,6-7.994h7.994l7.175,13.323Z" transform="translate(-144.032 -362.177)"/>
      </g>
    </g>
  </g>
</svg>
